<svg xmlns:xlink="http://www.w3.org/1999/xlink" xmlns="http://www.w3.org/2000/svg" class="characteristic__item-icon" width="70"  height="70" ><defs><symbol id="address" viewBox="0 0 70 70" xmlns="http://www.w3.org/2000/svg">
        <circle cx="35" cy="35" r="34.5" stroke="#DDDDDD"></circle>
        <path d="M34.5 51.0001C34.3354 51.0001 34.1734 50.9595 34.0282 50.8819C33.8831 50.8043 33.7594 50.692 33.668 50.5551L29.217 43.8781C26.4952 42.6676 24.2718 40.559 22.9186 37.9052C21.5655 35.2514 21.1648 32.2135 21.7836 29.2996C22.4024 26.3857 24.0031 23.7728 26.3179 21.8979C28.6327 20.023 31.5212 19 34.5 19C37.4789 19 40.3673 20.023 42.6822 21.8979C44.997 23.7728 46.5977 26.3857 47.2165 29.2996C47.8352 32.2135 47.4345 35.2514 46.0814 37.9052C44.7283 40.559 42.5048 42.6676 39.783 43.8781L35.332 50.5551C35.2407 50.692 35.1169 50.8043 34.9718 50.8819C34.8267 50.9595 34.6646 51.0001 34.5 51.0001ZM34.5 21.0001C31.9571 21.0002 29.4927 21.8814 27.5262 23.4936C25.5597 25.1059 24.2126 27.3497 23.714 29.8432C23.2153 32.3368 23.5961 34.9261 24.7913 37.1706C25.9866 39.4151 27.9227 41.1762 30.27 42.1541C30.452 42.23 30.6076 42.3581 30.717 42.5221L34.5 48.2001L38.283 42.5251C38.3925 42.3611 38.548 42.233 38.73 42.1571C41.0793 41.1803 43.0173 39.4194 44.214 37.1742C45.4107 34.929 45.7922 32.3384 45.2934 29.8435C44.7945 27.3487 43.4463 25.1039 41.4783 23.4914C39.5103 21.879 37.0442 20.9986 34.5 21.0001Z" fill="#AAAAAA"></path>
        <path d="M23.5 37.0001C23.3023 37 23.109 36.9414 22.9446 36.8315C22.7802 36.7216 22.652 36.5654 22.5764 36.3827C22.5007 36.2 22.4809 35.999 22.5194 35.805C22.558 35.6111 22.6532 35.4329 22.793 35.2931L27.086 31.0001L23.793 27.7071C23.6975 27.6148 23.6213 27.5045 23.5689 27.3825C23.5165 27.2605 23.4889 27.1293 23.4878 26.9965C23.4866 26.8637 23.5119 26.732 23.5622 26.6091C23.6125 26.4862 23.6867 26.3746 23.7806 26.2807C23.8745 26.1868 23.9862 26.1125 24.1091 26.0623C24.232 26.012 24.3637 25.9867 24.4964 25.9878C24.6292 25.989 24.7604 26.0166 24.8824 26.069C25.0044 26.1214 25.1148 26.1976 25.207 26.2931L29.207 30.2931C29.3945 30.4806 29.4998 30.7349 29.4998 31.0001C29.4998 31.2652 29.3945 31.5196 29.207 31.7071L24.207 36.7071C24.0195 36.8946 23.7652 37 23.5 37.0001Z" fill="#AAAAAA"></path>
        <path d="M34.5 33.0001C34.2348 33 33.9805 32.8946 33.793 32.7071L27.793 26.7071C27.6109 26.5185 27.5101 26.2659 27.5124 26.0037C27.5146 25.7415 27.6198 25.4907 27.8052 25.3053C27.9906 25.1199 28.2414 25.0147 28.5036 25.0124C28.7658 25.0101 29.0184 25.1109 29.207 25.2931L34.5 30.5861L41.793 23.2931C41.8853 23.1976 41.9956 23.1214 42.1176 23.069C42.2396 23.0166 42.3709 22.989 42.5036 22.9878C42.6364 22.9867 42.7681 23.012 42.891 23.0623C43.0139 23.1125 43.1255 23.1868 43.2194 23.2807C43.3133 23.3746 43.3876 23.4862 43.4379 23.6091C43.4881 23.732 43.5134 23.8637 43.5123 23.9965C43.5111 24.1293 43.4836 24.2605 43.4311 24.3825C43.3787 24.5045 43.3026 24.6148 43.207 24.7071L35.207 32.7071C35.0195 32.8946 34.7652 33 34.5 33.0001Z" fill="#AAAAAA"></path>
        <path d="M36.5 41.0003C36.2348 41.0002 35.9805 40.8948 35.793 40.7073L30.5 35.4143L26.207 39.7073C26.0184 39.8894 25.7658 39.9902 25.5036 39.9879C25.2414 39.9857 24.9906 39.8805 24.8052 39.6951C24.6198 39.5097 24.5146 39.2589 24.5124 38.9967C24.5101 38.7345 24.6109 38.4819 24.793 38.2933L29.793 33.2933C29.9806 33.1058 30.2349 33.0005 30.5 33.0005C30.7652 33.0005 31.0195 33.1058 31.207 33.2933L37.207 39.2933C37.3469 39.4331 37.4421 39.6113 37.4806 39.8052C37.5192 39.9992 37.4994 40.2002 37.4237 40.3829C37.348 40.5656 37.2199 40.7218 37.0555 40.8317C36.8911 40.9416 36.6978 41.0002 36.5 41.0003Z" fill="#AAAAAA"></path>
        <path d="M41.5 41.0001C41.2348 41 40.9805 40.8946 40.793 40.7071L35.793 35.7071C35.6056 35.5196 35.5002 35.2652 35.5002 35.0001C35.5002 34.7349 35.6056 34.4806 35.793 34.2931L43.793 26.2931C43.8853 26.1976 43.9956 26.1214 44.1176 26.069C44.2396 26.0166 44.3709 25.989 44.5036 25.9878C44.6364 25.9867 44.7681 26.012 44.891 26.0623C45.0139 26.1125 45.1255 26.1868 45.2194 26.2807C45.3133 26.3746 45.3876 26.4862 45.4379 26.6091C45.4881 26.732 45.5134 26.8637 45.5123 26.9965C45.5111 27.1293 45.4835 27.2605 45.4311 27.3825C45.3787 27.5045 45.3025 27.6148 45.207 27.7071L37.914 35.0001L42.207 39.2931C42.3468 39.4329 42.442 39.6111 42.4806 39.805C42.5192 39.999 42.4994 40.2 42.4237 40.3827C42.348 40.5654 42.2199 40.7216 42.0555 40.8315C41.8911 40.9414 41.6978 41 41.5 41.0001Z" fill="#AAAAAA"></path>
    </symbol></defs>
										<use xlink:href="#address" fill="#FFFFFF"></use>
									</svg>