<svg xmlns="http://www.w3.org/2000/svg" viewBox="0 0 64 64" id="Contribution"><path d="M41.62517,41.42679a1.68121,1.68121,0,0,1,1.18172-2.8521h.7314a.99975.99975,0,0,0,1-1V33.96475a.99975.99975,0,0,0-1-1c-.91493.06989-1.8981-.07166-2.27445-1.03084-.418-.93856.18884-1.74845.879-2.33885a.99971.99971,0,0,0-.00006-1.41409L39.589,25.6272a1.00053,1.00053,0,0,0-1.41409-.00049l-.51758.5171a1.68114,1.68114,0,0,1-2.85259-1.18075v-.73188a.99976.99976,0,0,0-1-1H30.19528a.99976.99976,0,0,0-1,1v.73194a1.68093,1.68093,0,0,1-2.85259,1.18063l-.51758-.517a1.00053,1.00053,0,0,0-1.41409.00049L21.85724,28.181a.99966.99966,0,0,0,0,1.41409l.51759.51759a1.68131,1.68131,0,0,1-1.18172,2.852l-.7314.00006a.99975.99975,0,0,0-1,1v3.60992a.99975.99975,0,0,0,1,1c2.35264-.31372,3.26367,1.94486,1.39541,3.36963a.99984.99984,0,0,0,.00012,1.41415L24.411,45.91222a1.00053,1.00053,0,0,0,1.41409.00049l.51758-.5171a1.68107,1.68107,0,0,1,2.85259,1.18075v.73189a.99976.99976,0,0,0,1,1h3.60944a.99976.99976,0,0,0,1-1c-.06977-.91469.071-1.89841,1.03035-2.275.9402-.41828,1.74863.18946,2.33976.87947a1.00066,1.00066,0,0,0,1.41415-.00055l2.55376-2.55375a.99966.99966,0,0,0,0-1.41409Zm-1.59671,1.2178-1.15334,1.15334a3.69708,3.69708,0,0,0-6.06059,2.51042l-1.629-.00012a3.69693,3.69693,0,0,0-6.06071-2.51018l-1.15328-1.15346a3.69656,3.69656,0,0,0-2.50994-6.06011l.00013-1.62948a3.69634,3.69634,0,0,0,2.50968-6.06023l1.15347-1.15328a3.67132,3.67132,0,0,0,6.06065-2.5103h1.62894a3.67126,3.67126,0,0,0,6.06065,2.5103l1.15334,1.15334a3.69643,3.69643,0,0,0,2.50994,6.06011l-.00013,1.62948A3.69662,3.69662,0,0,0,40.02846,42.64459Z" fill="#2e61f7" class="color000000 svgShape"></path><path d="M32 29.48127a6.2956 6.2956 0 00-6.2882 6.2882c.29542 8.32308 12.28226 8.321 12.5764-.00013A6.29558 6.29558 0 0032 29.48127zm0 10.57685a4.28859 4.28859 0 01.00012-8.57682A4.28859 4.28859 0 0132 40.05812zM6.04934 21.38054H19.49a1.96211 1.96211 0 001.96-1.96v-1.73a4.36116 4.36116 0 00-2.98248-4.13826l-2.415-.80928a4.96993 4.96993 0 001.71768-3.74207C17.56206 2.396 7.97784 2.3907 7.76812 9.00105A5.00668 5.00668 0 0012.76919 14.002c1.02272-.09717 4.09309 1.1841 5.09488 1.45651a2.3429 2.3429 0 011.5859 2.232l.04 1.69-13.40063.04v-1.73a2.35631 2.35631 0 011.40139-2.1641A1.0001 1.0001 0 106.688 13.69437a4.35612 4.35612 0 00-2.59868 3.99616v1.73A1.96211 1.96211 0 006.04934 21.38054zM9.76816 9.00092a3.00122 3.00122 0 016.00206.00006A3.00122 3.00122 0 019.76816 9.00092zM18.89723 52.18675c-.2342-.13263-2.54344-.86958-2.84936-.978A4.969 4.969 0 0017.77025 47.463c-.20837-6.60552-9.79222-6.61083-10.00213.00013a5.00626 5.00626 0 005.00107 5.00045c1.02162-.08679 4.08528 1.185 5.09 1.45407A2.37079 2.37079 0 0119.45 56.15118l.04 1.70022-13.40063.04V56.15118a2.34747 2.34747 0 011.40139-2.15385 1.0003 1.0003 0 00-.8028-1.83206 4.34894 4.34894 0 00-2.59862 3.98591v1.74026a1.96211 1.96211 0 001.96 1.96H19.49a1.96211 1.96211 0 001.96-1.96V56.15118A4.32863 4.32863 0 0018.89723 52.18675zM9.76816 47.463a3.00122 3.00122 0 016.00206.00006A3.00122 3.00122 0 019.76816 47.463zM57.312 52.16527a1.00027 1.00027 0 00-.80268 1.83206 2.34751 2.34751 0 011.40133 2.15385l.04 1.70022-13.40063.04V56.15118a2.3691 2.3691 0 011.44729-2.17534c1.11415-.32526 4.08955-1.56014 5.23349-1.51229 6.60778-.20758 6.60827-9.79333-.00012-10.00158a5.00215 5.00215 0 00-3.27826 8.7468l-2.39359.79536a4.36763 4.36763 0 00-3.00885 4.147v1.74026a1.96211 1.96211 0 001.96 1.96H57.95066a1.96211 1.96211 0 001.96-1.96V56.15118A4.34889 4.34889 0 0057.312 52.16527zM51.23081 44.462a2.99974 2.99974 0 01-.00006 5.99913A2.99974 2.99974 0 0151.23081 44.462zM57.312 13.69437a1.00026 1.00026 0 00-.80268 1.83206 2.35635 2.35635 0 011.40133 2.1641l.04 1.69-13.40063.04v-1.73a2.3494 2.3494 0 011.38088-2.15531c1.15157-.33411 4.11568-1.58359 5.2999-1.53329 6.6073-.20777 6.6087-9.79351-.00012-10.00158a5.00212 5.00212 0 00-3.283 8.74271l-2.38395.79945a4.34563 4.34563 0 00-3.01373 4.148v1.73a1.96211 1.96211 0 001.96 1.96H57.95066a1.96211 1.96211 0 001.96-1.96v-1.73A4.35612 4.35612 0 0057.312 13.69437zm-6.08116-7.694a3.00023 3.00023 0 01-.00006 6.00011A3.00023 3.00023 0 0151.23081 6.00038zM12.24086 23.50948a.99865.99865 0 00-1.36233.37989A24.33147 24.33147 0 008.22809 40.49465 1.00043 1.00043 0 0010.191 40.107a22.33506 22.33506 0 012.42973-15.23514A.99967.99967 0 0012.24086 23.50948zM39.22181 56.7967a22.34877 22.34877 0 01-14.44362 0 1.00039 1.00039 0 00-.6562 1.88968 24.27994 24.27994 0 0015.75608 0A1.0004 1.0004 0 0039.22181 56.7967zM54.59708 41.28177a1.00282 1.00282 0 001.17483-.78712 24.33147 24.33147 0 00-2.65044-16.60528 1.00025 1.00025 0 00-1.74216.9825A22.33516 22.33516 0 0153.809 40.107 1.00071 1.00071 0 0054.59708 41.28177zM23.89927 15.07037a22.30876 22.30876 0 0116.20146 0A1.00055 1.00055 0 0040.839 13.2109a24.32685 24.32685 0 00-17.678.00006A1.00052 1.00052 0 0023.89927 15.07037z" fill="#2e61f7" class="color000000 svgShape"></path></svg>