<svg xmlns:xlink="http://www.w3.org/1999/xlink" xmlns="http://www.w3.org/2000/svg" class="infrastructure__item-icon" width="70"  height="70" ><defs><symbol id="medal" xmlns="http://www.w3.org/2000/svg" viewBox="0 0 70 70" fill="none">
        <path d="M35 43C32.6266 43 30.3066 42.2962 28.3332 40.9776C26.3598 39.6591 24.8217 37.7849 23.9135 35.5922C23.0052 33.3995 22.7676 30.9867 23.2306 28.6589C23.6936 26.3312 24.8365 24.193 26.5147 22.5147C28.193 20.8365 30.3312 19.6936 32.6589 19.2306C34.9867 18.7676 37.3995 19.0052 39.5922 19.9135C41.7849 20.8217 43.6591 22.3598 44.9776 24.3332C46.2962 26.3066 47 28.6266 47 31C46.9966 34.1815 45.7312 37.2318 43.4815 39.4815C41.2318 41.7312 38.1815 42.9966 35 43ZM35 21C33.0222 21 31.0888 21.5865 29.4443 22.6853C27.7998 23.7841 26.5181 25.3459 25.7612 27.1732C25.0043 29.0004 24.8063 31.0111 25.1922 32.9509C25.578 34.8907 26.5304 36.6725 27.9289 38.0711C29.3275 39.4696 31.1093 40.422 33.0491 40.8079C34.9889 41.1937 36.9996 40.9957 38.8268 40.2388C40.6541 39.4819 42.2159 38.2002 43.3147 36.5557C44.4135 34.9112 45 32.9778 45 31C44.9971 28.3487 43.9426 25.8069 42.0679 23.9322C40.1931 22.0574 37.6513 21.0029 35 21Z" fill="#AAAAAA"></path>
        <path d="M40 51C39.8726 51.0001 39.7464 50.976 39.628 50.929L35 49.077L30.372 50.929C30.2202 50.9898 30.0558 51.0125 29.8932 50.995C29.7306 50.9776 29.5747 50.9205 29.4393 50.8288C29.3039 50.7371 29.193 50.6136 29.1165 50.4691C29.0399 50.3246 28.9999 50.1635 29 50V41C29 40.7348 29.1054 40.4804 29.2929 40.2929C29.4804 40.1054 29.7348 40 30 40C30.2652 40 30.5196 40.1054 30.7071 40.2929C30.8946 40.4804 31 40.7348 31 41V48.523L34.628 47.071C34.8669 46.976 35.1331 46.976 35.372 47.071L39 48.523V41C39 40.7348 39.1054 40.4804 39.2929 40.2929C39.4804 40.1054 39.7348 40 40 40C40.2652 40 40.5196 40.1054 40.7071 40.2929C40.8946 40.4804 41 40.7348 41 41V50C41 50.2652 40.8946 50.5196 40.7071 50.7071C40.5196 50.8946 40.2652 51 40 51Z" fill="#AAAAAA"></path>
        <path d="M35 49C34.7348 49 34.4804 48.8946 34.2929 48.7071C34.1054 48.5196 34 48.2652 34 48V46C34 45.7348 34.1054 45.4804 34.2929 45.2929C34.4804 45.1054 34.7348 45 35 45C35.2652 45 35.5196 45.1054 35.7071 45.2929C35.8946 45.4804 36 45.7348 36 46V48C36 48.2652 35.8946 48.5196 35.7071 48.7071C35.5196 48.8946 35.2652 49 35 49Z" fill="#AAAAAA"></path>
        <path fill-rule="evenodd" clip-rule="evenodd" d="M32.9602 28.4797L29.4471 28.9908L29.3878 29.0027C29.0043 29.1025 28.8633 29.5928 29.1579 29.8803L31.7003 32.3621L31.1003 35.8674L31.0936 35.9249C31.0679 36.3221 31.4923 36.6094 31.8576 36.4171L35 34.7624L38.1422 36.4171L38.1947 36.4414C38.5645 36.5888 38.9691 36.2743 38.8994 35.8674L38.2992 32.3621L40.8421 29.8803L40.8831 29.8358C41.1346 29.5295 40.9602 29.05 40.5529 28.9908L37.0393 28.4797L35.4679 25.2911C35.2767 24.903 34.7233 24.903 34.532 25.2911L32.9602 28.4797ZM34.9995 26.7018L36.2246 29.187L36.2563 29.2425C36.3376 29.3665 36.4687 29.451 36.6174 29.4726L39.3577 29.8711L37.3745 31.8072L37.3316 31.8545C37.2391 31.9701 37.1993 32.1207 37.2247 32.2686L37.6924 35.0014L35.243 33.7117L35.1847 33.6854C35.0459 33.6328 34.8901 33.6416 34.757 33.7117L32.307 35.0009L32.7753 32.2686L32.7823 32.2052C32.7893 32.0573 32.733 31.9121 32.6255 31.8072L30.6418 29.8711L33.3824 29.4726C33.5524 29.4479 33.6993 29.3411 33.7752 29.187L34.9995 26.7018Z" fill="#AAAAAA"></path>
        <path d="M32.9602 28.4797L32.9962 28.7271L33.1263 28.7081L33.1844 28.5902L32.9602 28.4797ZM29.4471 28.9908L29.4111 28.743L29.3977 28.7457L29.4471 28.9908ZM29.3878 29.0027L29.3383 28.7573L29.3249 28.7608L29.3878 29.0027ZM29.1579 29.8803L29.3325 29.7014L29.3325 29.7014L29.1579 29.8803ZM31.7003 32.3621L31.9467 32.4043L31.9689 32.2749L31.8749 32.1832L31.7003 32.3621ZM31.1003 35.8674L30.8536 35.8252L30.8521 35.8381L31.1003 35.8674ZM31.0936 35.9249L30.8449 35.8955L30.8441 35.9087L31.0936 35.9249ZM31.8576 36.4171L31.974 36.6383L31.974 36.6383L31.8576 36.4171ZM35 34.7624L35.1165 34.5412L35 34.4798L34.8835 34.5412L35 34.7624ZM38.1422 36.4171L38.0255 36.6386L38.0374 36.6441L38.1422 36.4171ZM38.1947 36.4414L38.0898 36.6687L38.1021 36.6736L38.1947 36.4414ZM38.8994 35.8674L39.1458 35.8252L39.1458 35.8252L38.8994 35.8674ZM38.2992 32.3621L38.1246 32.1832L38.0306 32.2749L38.0528 32.4043L38.2992 32.3621ZM40.8421 29.8803L41.017 30.0595L41.0263 30.0495L40.8421 29.8803ZM40.8831 29.8358L41.0675 30.0051L41.0763 29.9944L40.8831 29.8358ZM40.5529 28.9908L40.5888 28.7434L40.5888 28.7434L40.5529 28.9908ZM37.0393 28.4797L36.815 28.5902L36.8732 28.7081L37.0033 28.7271L37.0393 28.4797ZM35.4679 25.2911L35.2437 25.4016L35.2437 25.4016L35.4679 25.2911ZM34.532 25.2911L34.7563 25.4016L34.7563 25.4016L34.532 25.2911ZM34.9995 26.7018L35.2237 26.5913L34.9994 26.1363L34.7752 26.5914L34.9995 26.7018ZM36.2246 29.187L36.0003 29.2975L36.0037 29.3044L36.0075 29.311L36.2246 29.187ZM36.2563 29.2425L36.0392 29.3665L36.043 29.3731L36.0472 29.3796L36.2563 29.2425ZM36.6174 29.4726L36.5814 29.72L36.5814 29.72L36.6174 29.4726ZM39.3577 29.8711L39.5323 30.05L39.8944 29.6965L39.3937 29.6237L39.3577 29.8711ZM37.3745 31.8072L37.1998 31.6283L37.1944 31.6337L37.1892 31.6393L37.3745 31.8072ZM37.3316 31.8545L37.1464 31.6866L37.1412 31.6923L37.1365 31.6983L37.3316 31.8545ZM37.2247 32.2686L37.4711 32.2264L37.4711 32.2264L37.2247 32.2686ZM37.6924 35.0014L37.576 35.2226L38.0244 35.4587L37.9389 34.9592L37.6924 35.0014ZM35.243 33.7117L35.3595 33.4905L35.3527 33.4869L35.3457 33.4837L35.243 33.7117ZM35.1847 33.6854L35.2874 33.4575L35.2804 33.4543L35.2733 33.4516L35.1847 33.6854ZM34.757 33.7117L34.8734 33.9329L34.8734 33.9329L34.757 33.7117ZM32.307 35.0009L32.0606 34.9587L31.975 35.4581L32.4235 35.2221L32.307 35.0009ZM32.7753 32.2686L33.0218 32.3109L33.023 32.3033L33.0239 32.2957L32.7753 32.2686ZM32.7823 32.2052L33.0308 32.2323L33.0316 32.2246L33.032 32.217L32.7823 32.2052ZM32.6255 31.8072L32.8002 31.6283L32.8002 31.6283L32.6255 31.8072ZM30.6418 29.8711L30.6058 29.6237L30.105 29.6965L30.4672 30.05L30.6418 29.8711ZM33.3824 29.4726L33.4184 29.72L33.4184 29.72L33.3824 29.4726ZM33.7752 29.187L33.9995 29.2975L33.9995 29.2975L33.7752 29.187ZM32.9242 28.2323L29.4111 28.7434L29.4831 29.2382L32.9962 28.7271L32.9242 28.2323ZM29.3977 28.7457L29.3384 28.7577L29.4373 29.2478L29.4966 29.2358L29.3977 28.7457ZM29.3249 28.7608C28.7566 28.9087 28.5468 29.6332 28.9832 30.0592L29.3325 29.7014C29.1798 29.5524 29.252 29.2964 29.4508 29.2447L29.3249 28.7608ZM28.9832 30.0592L31.5257 32.541L31.8749 32.1832L29.3325 29.7014L28.9832 30.0592ZM31.4539 32.3199L30.8539 35.8252L31.3468 35.9096L31.9467 32.4043L31.4539 32.3199ZM30.8521 35.8381L30.8453 35.8956L31.3418 35.9542L31.3486 35.8967L30.8521 35.8381ZM30.8441 35.9087C30.806 36.4974 31.4328 36.9233 31.974 36.6383L31.7411 36.1959C31.5517 36.2956 31.3297 36.1469 31.343 35.941L30.8441 35.9087ZM31.974 36.6383L35.1165 34.9836L34.8835 34.5412L31.7411 36.1959L31.974 36.6383ZM34.8835 34.9836L38.0257 36.6383L38.2587 36.1959L35.1165 34.5412L34.8835 34.9836ZM38.0374 36.6441L38.0899 36.6683L38.2995 36.2144L38.247 36.1901L38.0374 36.6441ZM38.1021 36.6736C38.65 36.8921 39.2491 36.4281 39.1458 35.8252L38.653 35.9096C38.6891 36.1206 38.479 36.2856 38.2873 36.2091L38.1021 36.6736ZM39.1458 35.8252L38.5456 32.3199L38.0528 32.4043L38.653 35.9096L39.1458 35.8252ZM38.4738 32.541L41.0168 30.0593L40.6675 29.7014L38.1246 32.1832L38.4738 32.541ZM41.0263 30.0495L41.0672 30.0049L40.699 29.6667L40.658 29.7112L41.0263 30.0495ZM41.0763 29.9944C41.4489 29.5405 41.1924 28.8312 40.5888 28.7434L40.5169 29.2382C40.728 29.2689 40.8202 29.5184 40.6899 29.6771L41.0763 29.9944ZM40.5888 28.7434L37.0753 28.2323L37.0033 28.7271L40.5169 29.2382L40.5888 28.7434ZM37.2635 28.3692L35.6922 25.1806L35.2437 25.4016L36.815 28.5902L37.2635 28.3692ZM35.6922 25.1806C35.4093 24.6065 34.5907 24.6065 34.3078 25.1805L34.7563 25.4016C34.8559 25.1995 35.1441 25.1995 35.2437 25.4016L35.6922 25.1806ZM34.3078 25.1805L32.736 28.3691L33.1844 28.5902L34.7563 25.4016L34.3078 25.1805ZM34.7753 26.8124L36.0003 29.2975L36.4488 29.0764L35.2237 26.5913L34.7753 26.8124ZM36.0075 29.311L36.0392 29.3665L36.4733 29.1185L36.4416 29.063L36.0075 29.311ZM36.0472 29.3796C36.1675 29.563 36.3614 29.688 36.5814 29.72L36.6534 29.2252C36.576 29.214 36.5077 29.17 36.4653 29.1054L36.0472 29.3796ZM36.5814 29.72L39.3217 30.1185L39.3937 29.6237L36.6534 29.2252L36.5814 29.72ZM39.183 29.6922L37.1998 31.6283L37.5491 31.9861L39.5323 30.05L39.183 29.6922ZM37.1892 31.6393L37.1464 31.6866L37.5168 32.0224L37.5597 31.9751L37.1892 31.6393ZM37.1365 31.6983C36.9995 31.8693 36.9408 32.0919 36.9783 32.3108L37.4711 32.2264C37.4579 32.1494 37.4786 32.071 37.5268 32.0108L37.1365 31.6983ZM36.9783 32.3108L37.446 35.0436L37.9389 34.9592L37.4711 32.2264L36.9783 32.3108ZM37.8089 34.7802L35.3595 33.4905L35.1266 33.9329L37.576 35.2226L37.8089 34.7802ZM35.3457 33.4837L35.2874 33.4575L35.082 33.9133L35.1403 33.9396L35.3457 33.4837ZM35.2733 33.4516C35.0679 33.3738 34.8374 33.3868 34.6405 33.4904L34.8734 33.9329C34.9427 33.8964 35.0239 33.8918 35.0962 33.9192L35.2733 33.4516ZM34.6405 33.4904L32.1906 34.7796L32.4235 35.2221L34.8734 33.9329L34.6405 33.4904ZM32.5535 35.0431L33.0218 32.3109L32.5289 32.2264L32.0606 34.9587L32.5535 35.0431ZM33.0239 32.2957L33.0308 32.2323L32.5337 32.1781L32.5268 32.2416L33.0239 32.2957ZM33.032 32.217C33.0423 31.9982 32.9591 31.7834 32.8002 31.6283L32.4509 31.9861C32.5068 32.0407 32.5362 32.1163 32.5325 32.1934L33.032 32.217ZM32.8002 31.6283L30.8164 29.6922L30.4672 30.05L32.4509 31.9861L32.8002 31.6283ZM30.6778 30.1185L33.4184 29.72L33.3464 29.2252L30.6058 29.6237L30.6778 30.1185ZM33.4184 29.72C33.6698 29.6834 33.8871 29.5254 33.9995 29.2975L33.551 29.0765C33.5114 29.1567 33.4349 29.2124 33.3464 29.2252L33.4184 29.72ZM33.9995 29.2975L35.2238 26.8123L34.7752 26.5914L33.551 29.0765L33.9995 29.2975Z" fill="#AAAAAA"></path>
        <circle cx="35" cy="35" r="34.5" stroke="#DDDDDD"></circle>
        <rect width="32" height="32" transform="translate(19 19)"></rect>
    </symbol></defs>
									<use xlink:href="#medal" fill="#FFFFFF"></use>
								</svg>