<svg xmlns="http://www.w3.org/2000/svg" enable-background="new 0 0 32 32" viewBox="0 0 32 32" id="Presenter"><path fill="#2e61f7" d="M23.5,17c-0.067,0-0.135-0.014-0.198-0.041C23.118,16.88,23,16.699,23,16.5
																v-9C23,7.224,23.224,7,23.5,7c2.645,0,5.1,1.06,6.914,2.983c0.092,0.096,0.141,0.225,0.137,0.357
																s-0.061,0.258-0.157,0.35l-6.551,6.174C23.748,16.953,23.625,17,23.5,17z M24,8.015v7.327l5.333-5.026
																C27.872,8.933,26.009,8.129,24,8.015z" class="color263238 svgShape"></path><path fill="#2e61f7" d="M21.5,31c-5.238,0-9.5-4.262-9.5-9.5c0-4.403,2.984-8.2,7.258-9.234
											c0.271-0.067,0.538,0.101,0.604,0.368c0.064,0.269-0.101,0.539-0.369,0.604C15.67,14.163,13,17.561,13,21.5
											c0,4.687,3.813,8.5,8.5,8.5s8.5-3.813,8.5-8.5c0-2.002-0.702-3.918-1.987-5.45l-6.17,5.814
											c-0.146,0.138-0.359,0.174-0.541,0.095C21.118,21.88,21,21.7,21,21.5v-9c0-0.276,0.224-0.5,0.5-0.5s0.5,0.224,0.5,0.5
											v7.842l5.701-5.373c0.201-0.189,0.517-0.18,0.707,0.021C30.079,16.764,31,19.076,31,21.5C31,26.738,26.738,31,21.5,31z" class="color263238 svgShape"></path><g fill="#fbfbfb" class="color000000 svgShape"><path fill="#2e61f7" d="M7 7C5.346 7 4 5.654 4 4s1.346-3 3-3 3 1.346 3 3S8.654 7 7 7zM7 2C5.896 2 5 2.896 5 4s.896 2 2 2 2-.896 2-2S8.104 2 7 2zM2.501 31c-.027 0-.056-.002-.083-.007-.272-.045-.457-.303-.411-.575L3.746 19.98C3.666 19.993 3.584 20 3.5 20 2.673 20 2 19.327 2 18.5v-7C2 9.881 3.311 8 5 8h14.5C20.327 8 21 8.673 21 9.5S20.327 11 19.5 11H11v19.5c0 .276-.224.5-.5.5S10 30.776 10 30.5v-20c0-.276.224-.5.5-.5h9c.275 0 .5-.224.5-.5S19.775 9 19.5 9H5c-1.077 0-2 1.375-2 2.5v7C3 18.776 3.225 19 3.5 19c.207 0 .385-.126.461-.306l.046-.276c.043-.257.283-.429.534-.417C4.801 18.023 5 18.24 5 18.5c0 .155-.023.304-.067.444L2.993 30.582C2.952 30.827 2.74 31 2.501 31z" class="color263238 svgShape"></path><path fill="#2e61f7" d="M4.5 19C4.224 19 4 18.776 4 18.5v-6C4 12.224 4.224 12 4.5 12S5 12.224 5 12.5v6C5 18.776 4.776 19 4.5 19zM4.5 31c-.041 0-.084-.005-.126-.016-.268-.07-.428-.343-.357-.61l3-11.5c.062-.235.288-.397.525-.372.242.021.435.212.456.455l1 11.5c.024.275-.18.518-.455.542-.271.021-.518-.18-.541-.455l-.749-8.615-2.27 8.697C4.925 30.851 4.723 31 4.5 31z" class="color263238 svgShape"></path></g></svg>