<svg xmlns:xlink="http://www.w3.org/1999/xlink" xmlns="http://www.w3.org/2000/svg" class="infrastructure__item-icon" width="70"  height="70" ><defs><symbol id="in-city" xmlns="http://www.w3.org/2000/svg" viewBox="0 0 70 70" fill="none">
        <circle cx="35" cy="35" r="34.5" stroke="#DDDDDD"></circle>
        <path d="M20 50.9998C19.7348 50.9998 19.4804 50.8944 19.2929 50.7069C19.1054 50.5194 19 50.265 19 49.9998V23.9998C18.9998 23.7999 19.0596 23.6046 19.1715 23.439C19.2835 23.2734 19.4425 23.1451 19.628 23.0708L29.628 19.0708C29.8669 18.9758 30.1331 18.9758 30.372 19.0708L40 22.9228L49.628 19.0708C49.7798 19.01 49.9442 18.9873 50.1068 19.0047C50.2694 19.0222 50.4253 19.0793 50.5607 19.171C50.6961 19.2627 50.807 19.3862 50.8835 19.5307C50.9601 19.6752 51.0001 19.8363 51 19.9998V45.9998C51.0002 46.1997 50.9404 46.395 50.8285 46.5606C50.7165 46.7262 50.5575 46.8544 50.372 46.9288L40.372 50.9288C40.1331 51.0238 39.8669 51.0238 39.628 50.9288L30 47.0768L20.372 50.9288C20.2536 50.9758 20.1274 50.9999 20 50.9998ZM30 44.9998C30.1274 44.9995 30.2537 45.0236 30.372 45.0708L40 48.9228L49 45.3228V21.4768L40.372 24.9288C40.1331 25.0238 39.8669 25.0238 39.628 24.9288L30 21.0768L21 24.6768V48.5228L29.628 45.0708C29.7463 45.0236 29.8726 44.9995 30 44.9998Z" fill="#AAAAAA"></path>
        <path d="M30 43C29.7348 43 29.4804 42.8946 29.2929 42.7071C29.1054 42.5196 29 42.2652 29 42V20C29 19.7348 29.1054 19.4804 29.2929 19.2929C29.4804 19.1054 29.7348 19 30 19C30.2652 19 30.5196 19.1054 30.7071 19.2929C30.8946 19.4804 31 19.7348 31 20V42C31 42.2652 30.8946 42.5196 30.7071 42.7071C30.5196 42.8946 30.2652 43 30 43Z" fill="#AAAAAA"></path>
        <path d="M40 51C39.7348 51 39.4804 50.8946 39.2929 50.7071C39.1054 50.5196 39 50.2652 39 50V45C39 44.7348 39.1054 44.4804 39.2929 44.2929C39.4804 44.1054 39.7348 44 40 44C40.2652 44 40.5196 44.1054 40.7071 44.2929C40.8946 44.4804 41 44.7348 41 45V50C41 50.2652 40.8946 50.5196 40.7071 50.7071C40.5196 50.8946 40.2652 51 40 51Z" fill="#AAAAAA"></path>
        <path d="M40 42C39.7728 42.0001 39.5524 41.9229 39.375 41.781C39.156 41.605 34 37.43 34 33C34 31.4087 34.6321 29.8826 35.7574 28.7574C36.8826 27.6321 38.4087 27 40 27C41.5913 27 43.1174 27.6321 44.2426 28.7574C45.3679 29.8826 46 31.4087 46 33C46 37.43 40.844 41.605 40.625 41.781C40.4476 41.9229 40.2272 42.0001 40 42ZM40 29C38.9391 29 37.9217 29.4214 37.1716 30.1716C36.4214 30.9217 36 31.9391 36 33C36 35.681 38.737 38.509 40 39.672C41.263 38.509 44 35.681 44 33C44 31.9391 43.5786 30.9217 42.8284 30.1716C42.0783 29.4214 41.0609 29 40 29Z" fill="#AAAAAA"></path>
        <path d="M40 34C40.5523 34 41 33.5523 41 33C41 32.4477 40.5523 32 40 32C39.4477 32 39 32.4477 39 33C39 33.5523 39.4477 34 40 34Z" fill="#AAAAAA"></path>
        <rect width="32" height="32" transform="translate(19 19)"></rect>
    </symbol></defs>
									<use xlink:href="#in-city" fill="#FFFFFF"></use>
								</svg>