<svg xmlns:xlink="http://www.w3.org/1999/xlink" xmlns="http://www.w3.org/2000/svg" class="characteristic__item-icon" width="70"  height="70" ><defs><symbol id="year" xmlns="http://www.w3.org/2000/svg" viewBox="0 0 70 70" fill="none">
        <circle cx="35" cy="35" r="34.5" stroke="#DDDDDD"></circle>
        <path d="M42 26H20C19.7348 26 19.4804 26.1054 19.2929 26.2929C19.1054 26.4804 19 26.7348 19 27V35C19 35.2652 19.1054 35.5196 19.2929 35.7071C19.4804 35.8946 19.7348 36 20 36H24C24.1847 35.9994 24.3656 35.9478 24.5227 35.8507C24.6798 35.7536 24.8069 35.6149 24.89 35.45L26.62 32H33.52C32.8831 33.8014 32.836 35.7588 33.3856 37.5888C33.9352 39.4187 35.053 41.0263 36.577 42.1787C38.1011 43.3312 39.9524 43.9686 41.8628 43.9989C43.7733 44.0291 45.6438 43.4506 47.2036 42.3469C48.7634 41.2433 49.9314 39.672 50.5387 37.8603C51.1459 36.0487 51.1608 34.0908 50.5813 32.2701C50.0017 30.4494 48.8577 28.8604 47.315 27.7331C45.7722 26.6059 43.9107 25.9989 42 26ZM42 42C40.7714 41.9996 39.5646 41.6759 38.5008 41.0614C37.4369 40.4468 36.5536 39.5631 35.9395 38.4991C35.3253 37.435 35.0021 36.228 35.0022 34.9995C35.0023 33.7709 35.3257 32.564 35.94 31.5C36.0279 31.3477 36.0742 31.1749 36.074 30.999C36.0738 30.8231 36.0273 30.6504 35.939 30.4983C35.8508 30.3461 35.724 30.22 35.5714 30.1325C35.4188 30.045 35.2459 29.9993 35.07 30H23V32H24.38L23.38 34H21V28H42C43.8565 28 45.637 28.7375 46.9497 30.0503C48.2625 31.363 49 33.1435 49 35C49 36.8565 48.2625 38.637 46.9497 39.9497C45.637 41.2625 43.8565 42 42 42Z" fill="#AAAAAA"></path>
        <path d="M42 31C41.2089 31 40.4355 31.2346 39.7777 31.6741C39.1199 32.1136 38.6072 32.7384 38.3045 33.4693C38.0017 34.2002 37.9225 35.0044 38.0769 35.7804C38.2312 36.5563 38.6122 37.269 39.1716 37.8284C39.731 38.3878 40.4437 38.7688 41.2196 38.9231C41.9956 39.0775 42.7998 38.9983 43.5307 38.6955C44.2616 38.3928 44.8864 37.8801 45.3259 37.2223C45.7654 36.5645 46 35.7911 46 35C46 33.9391 45.5786 32.9217 44.8284 32.1716C44.0783 31.4214 43.0609 31 42 31ZM42 37C41.6044 37 41.2178 36.8827 40.8889 36.6629C40.56 36.4432 40.3036 36.1308 40.1522 35.7654C40.0009 35.3999 39.9613 34.9978 40.0384 34.6098C40.1156 34.2219 40.3061 33.8655 40.5858 33.5858C40.8655 33.3061 41.2219 33.1156 41.6098 33.0384C41.9978 32.9613 42.3999 33.0009 42.7654 33.1522C43.1308 33.3036 43.4432 33.56 43.6629 33.8889C43.8827 34.2178 44 34.6044 44 35C44 35.5304 43.7893 36.0391 43.4142 36.4142C43.0391 36.7893 42.5304 37 42 37Z" fill="#AAAAAA"></path>
        <rect width="32" height="32" transform="translate(19 19)"></rect>
    </symbol></defs>
										<use xlink:href="#year" fill="#FFFFFF"></use>
									</svg>