<svg xmlns:xlink="http://www.w3.org/1999/xlink" xmlns="http://www.w3.org/2000/svg" class="characteristic__item-icon" width="70"  height="70" ><defs><symbol id="type-object" xmlns="http://www.w3.org/2000/svg" viewBox="0 0 70 70" fill="none">
        <circle cx="35" cy="35" r="34.5" stroke="#DDDDDD"></circle>
        <path d="M50 33H47V32C47 31.7348 46.8946 31.4804 46.7071 31.2929C46.5196 31.1054 46.2652 31 46 31H42C41.7348 31 41.4804 31.1054 41.2929 31.2929C41.1054 31.4804 41 31.7348 41 32V33H39V26C39 25.7348 38.8946 25.4804 38.7071 25.2929C38.5196 25.1054 38.2652 25 38 25H33.62L32.9 23.55C32.8161 23.3836 32.6874 23.2439 32.5284 23.1467C32.3694 23.0495 32.1864 22.9987 32 23H30V19H28V23H26C25.8153 23.0006 25.6344 23.0522 25.4773 23.1493C25.3202 23.2464 25.1931 23.3851 25.11 23.55L24.38 25H20C19.7348 25 19.4804 25.1054 19.2929 25.2929C19.1054 25.4804 19 25.7348 19 26V50C19 50.2652 19.1054 50.5196 19.2929 50.7071C19.4804 50.8946 19.7348 51 20 51H50C50.2652 51 50.5196 50.8946 50.7071 50.7071C50.8946 50.5196 51 50.2652 51 50V34C51 33.7348 50.8946 33.4804 50.7071 33.2929C50.5196 33.1054 50.2652 33 50 33ZM21 27H37V49H21V27ZM49 49H39V35H49V49Z" fill="#AAAAAA"></path>
        <path d="M34 31H24C23.7348 31 23.4804 31.1054 23.2929 31.2929C23.1054 31.4804 23 31.7348 23 32V36C23 36.2652 23.1054 36.5196 23.2929 36.7071C23.4804 36.8946 23.7348 37 24 37H34C34.2652 37 34.5196 36.8946 34.7071 36.7071C34.8946 36.5196 35 36.2652 35 36V32C35 31.7348 34.8946 31.4804 34.7071 31.2929C34.5196 31.1054 34.2652 31 34 31ZM25 33H28V35H25V33ZM33 35H30V33H33V35Z" fill="#AAAAAA"></path>
        <path d="M34 39H24C23.7348 39 23.4804 39.1054 23.2929 39.2929C23.1054 39.4804 23 39.7348 23 40V44C23 44.2652 23.1054 44.5196 23.2929 44.7071C23.4804 44.8946 23.7348 45 24 45H34C34.2652 45 34.5196 44.8946 34.7071 44.7071C34.8946 44.5196 35 44.2652 35 44V40C35 39.7348 34.8946 39.4804 34.7071 39.2929C34.5196 39.1054 34.2652 39 34 39ZM25 41H28V43H25V41ZM33 43H30V41H33V43Z" fill="#AAAAAA"></path>
        <path d="M42 37C41.7348 37 41.4804 37.1054 41.2929 37.2929C41.1054 37.4804 41 37.7348 41 38V42C41 42.2652 41.1054 42.5196 41.2929 42.7071C41.4804 42.8946 41.7348 43 42 43H46C46.2652 43 46.5196 42.8946 46.7071 42.7071C46.8946 42.5196 47 42.2652 47 42V38C47 37.7348 46.8946 37.4804 46.7071 37.2929C46.5196 37.1054 46.2652 37 46 37H42ZM45 41H43V39H45V41Z" fill="#AAAAAA"></path>
        <path d="M47 45H41V47H47V45Z" fill="#AAAAAA"></path>
    </symbol></defs>
										<use xlink:href="#type-object" fill="#FFFFFF"></use>
									</svg>