<svg xmlns:xlink="http://www.w3.org/1999/xlink" xmlns="http://www.w3.org/2000/svg" class="characteristic__item-icon" width="70"  height="70" ><defs><symbol id="floor" xmlns="http://www.w3.org/2000/svg" viewBox="0 0 70 70" fill="none">
        <circle cx="35" cy="35" r="34.5" stroke="#DDDDDD"></circle>
        <path d="M46 51H24C22.6744 50.9984 21.4036 50.4711 20.4662 49.5338C19.5289 48.5964 19.0016 47.3256 19 46V24C19.0016 22.6744 19.5289 21.4036 20.4662 20.4662C21.4036 19.5289 22.6744 19.0016 24 19H46C47.3256 19.0016 48.5964 19.5289 49.5338 20.4662C50.4711 21.4036 50.9984 22.6744 51 24V46C50.9984 47.3256 50.4711 48.5964 49.5338 49.5338C48.5964 50.4711 47.3256 50.9984 46 51ZM24 21C23.2044 21 22.4413 21.3161 21.8787 21.8787C21.3161 22.4413 21 23.2044 21 24V46C21 46.7956 21.3161 47.5587 21.8787 48.1213C22.4413 48.6839 23.2044 49 24 49H46C46.7956 49 47.5587 48.6839 48.1213 48.1213C48.6839 47.5587 49 46.7956 49 46V24C49 23.2044 48.6839 22.4413 48.1213 21.8787C47.5587 21.3161 46.7956 21 46 21H24Z" fill="#AAAAAA"></path>
        <path d="M46.8182 26H42.0455C41.5183 26 41.0909 26.4274 41.0909 26.9545V30.7727H37.2727C36.7456 30.7727 36.3182 31.2001 36.3182 31.7273V35.5455H32.5C31.9729 35.5455 31.5455 35.9729 31.5455 36.5V40.3182H27.7273C27.2001 40.3182 26.7727 40.7456 26.7727 41.2727V45.0909H22.9545C22.4274 45.0909 22 45.5183 22 46.0455C22 46.5726 22.4274 47 22.9545 47H27.7273C28.2544 47 28.6818 46.5726 28.6818 46.0455V42.2273H32.5C33.0271 42.2273 33.4545 41.7999 33.4545 41.2727V37.4545H37.2727C37.7999 37.4545 38.2273 37.0271 38.2273 36.5V32.6818H42.0455C42.5726 32.6818 43 32.2544 43 31.7273V27.9091H46.8182C47.3453 27.9091 47.7727 27.4817 47.7727 26.9545C47.7727 26.4274 47.3455 26 46.8182 26Z" fill="#AAAAAA"></path>
        <path d="M28.2 35C27.9879 35 27.7844 34.9122 27.6343 34.7559C27.4843 34.5996 27.4 34.3877 27.4 34.1667V27.3909L26.2441 28.1934C26.0675 28.3161 25.8515 28.3607 25.6434 28.3174C25.4353 28.2741 25.2523 28.1465 25.1345 27.9626C25.0167 27.7787 24.9739 27.5536 25.0155 27.3369C25.0571 27.1201 25.1796 26.9294 25.3561 26.8068L27.756 25.1401C27.8765 25.0564 28.0165 25.0083 28.1612 25.001C28.3059 24.9937 28.4497 25.0274 28.5774 25.0986C28.7051 25.1697 28.8119 25.2757 28.8863 25.4051C28.9607 25.5345 29 25.6826 29 25.8334V34.1667C29 34.3877 28.9157 34.5996 28.7657 34.7559C28.6157 34.9122 28.4122 35 28.2 35Z" fill="#AAAAAA"></path>
    </symbol></defs>
										<use xlink:href="#floor" fill="#FFFFFF"></use>
									</svg>