<svg xmlns="http://www.w3.org/2000/svg" xmlns:xlink="http://www.w3.org/1999/xlink" viewBox="0 0 4680 3120" id="appreciation-for-new-job"><defs><linearGradient id="a" x1="1378.68" x2="1366.26" y1="218.38" y2="767.77" gradientUnits="userSpaceOnUse"><stop offset="0" stop-color="#fff"></stop><stop offset="1" stop-color="#fff" stop-opacity="0"></stop></linearGradient><linearGradient id="b" x1="1542.75" x2="1530.23" y1="298.22" y2="851.97" xlink:href="#a"></linearGradient></defs><g data-name="10"><path fill="#fff" d="M0 0h4680v3120H0z"></path><path fill="#1f60e5" d="M3902.85 1118.4c-9.9 23.25-20.08 46.74-30.17 70.43-24.2 56.94-47.78 115-65.19 173.62-.32 1.07-.63 2.14-.95 3.22-3.78 12.93-7.27 25.88-10.38 38.83-18.82 78.25-24.35 157.15-3.52 235.19 13.59 50.82 37.91 98.12 54.12 148.18 43.14 133.17 24.85 284.9-48.69 404-50.71 82.1-127.05 147.67-214.91 187.39a478.41 478.41 0 0 1-53.91 20.62 465.48 465.48 0 0 1-70.59 16.49c-61.44 9.35-124 6.81-186 10.32-41.34 2.33-82.59 7.38-124 7q-35.55-.32-70.75-2.27l-5.68-.32h-.73q-7.44-.43-14.84-.94c-1.5-.09-3-.19-4.44-.3-4.5-.31-9-.63-13.48-1q-8.36-.63-16.71-1.36t-16.67-1.52q-8.27-.78-16.53-1.64a.9.9 0 0 1-.25 0q-6.49-.66-13-1.38a1.34 1.34 0 0 1-.3 0c-2.18-.23-4.35-.46-6.54-.71l-1.66-.19c-3.86-.42-7.75-.88-11.62-1.35s-7.91-.94-11.86-1.45c-.63-.06-1.28-.14-1.91-.23q-8.46-1.07-16.91-2.16c-5.63-.76-11.24-1.52-16.88-2.3q-7.38-1-14.76-2.08l-3.82-.54q-13.78-2-27.5-4.15c-1.81-.27-3.64-.54-5.45-.84-8.11-1.26-16.25-2.56-24.37-3.89q-12.48-2-24.93-4.14h-.13c-119.06-20.16-237-45-356.1-63.22q-27-4.12-54.12-7.76c-12.05-1.59-24.09-3.13-36.18-4.54q-11.51-1.35-23-2.58c-77.75-8.31-156.21-12.26-236-8.75-32.65 1.43-65.51 4.12-98.64 8.26-79.47 10-153.75 27.19-225.13 49.24q-43 13.28-84.81 28.74c-142.73 52.48-277 121.12-422.67 184.49q-4 1.77-8.07 3.51c-63.39 27.41-126.1 43.29-186.38 47.77-181.16 13.51-340.44-75.8-430.7-263.65-70-145.74-63.55-325.41 15.29-466.35q6.1-11 12.82-21.59 5.52-8.78 11.4-17.26C776 1732.2 924.54 1639.46 990 1491.83a550.9 550.9 0 0 0 31.43-93.3c3.13-12.87 5.82-25.82 8.15-38.86 27.78-154.42 4-319.29 14.72-478.46q1.32-19.49 3.36-38.85c10.37-97.11 36.33-191.58 97.83-279.67 177.27-254.05 574.29-342.88 857.73-260.69 44.17 12.81 87.21 29.29 129.55 47.94 34.15 15.05 67.85 31.51 101.3 48.58L2241 402q23.53 12 46.95 24.45c156.42 82.39 310.23 169.22 484.29 178.45 137.08 7.3 271.42-35.34 401.35-79.62 27.29-9.29 54.68-18.73 82.2-27.81q22.9-7.58 45.92-14.78c18.46-5.74 37-11.23 55.57-16.32 46.61-12.78 93.64-23.14 141.26-29q17-2.12 34.18-3.4 20-1.49 40.09-1.79 6.86-.09 13.73 0c133.17 1.66 272.24 54 344.21 165.46 98.25 152.36 43.08 354-27.9 520.76Z" opacity=".8"></path><path fill="#1f60e5" d="M2250.17 2432.13c-12.91 7.45-28.21 9.25-43 10.68-93.7 9-188.14 9.4-281.59 21-81.22 10.09-162.41 54-238 62.19 29.54-122.58 248.07-156.3 404.65-162.77 48.19-2 90.49-1.39 119.63 0 20.18.94 44.66 6.13 54.6 21.71a28.11 28.11 0 0 1 4.08 10.52c2.53 14.64-7.44 29.23-20.37 36.67ZM928.58 1359.46q-5.94 19.65-13.1 38.84c-25.19 67.71-61.79 130.56-110.84 183.87-15.35 16.7-34.16 33.39-56.83 33.66-10.57-31.77 20.94-60.09 45.67-82.66 31.47-28.72 57.22-64 73.39-103.44a313.81 313.81 0 0 0 17.77-61.46c.56-2.94 1.07-5.91 1.55-8.87 13.39-81 3.53-167.39 19.89-248.78 3.18-15.89 18.4-51.34 40.37-31.89 9.75 8.64 11.27 23.08 11.81 36.12 3.47 82.08-5.93 165.9-29.68 244.61ZM3963.78 1293.62c-6.14 24.24-12.3 48.56-20 72.34-4.27 13.16-9 26.13-14.49 38.83-.44 1.1-.92 2.19-1.41 3.28-8.07 18.31-17.74 36-23.54 55.17-21 69 10.15 147.74-18.44 214-17.14 8.73-33.91-12.72-39.67-31-24.41-77.73-11.34-161.15 5-241.53q2.24-11 4.52-21.9c1.18-5.64 2.35-11.29 3.59-17 5.3-24.49 11.44-48.86 21.66-71.63l-6.69 5.95c7.68-20 16.17-41.14 33.45-53.82a43 43 0 0 1 11.06-5.78 109.93 109.93 0 0 1 32.9-20.73q-2.27 7.73-4.54 15.45l-3.89 3.45c8.75 1.85 16.42 6.62 20.67 14.7 6.42 12.11 3.21 26.89-.18 40.22Z" opacity=".8"></path><g opacity=".27"><path fill="#fff" d="m1877.87 907.89-102.56-.22 39.47 450.33 112.68.24-49.59-450.35z" opacity=".57"></path><path fill="#fff" d="m1734.59 882.65 28.34-18.8s27.52 52.61 24.77 75.51l-14.82-2.73s-.61-35.03-38.29-53.98Z"></path><path fill="#fff" d="m2003.72 988.63-75.68 15.82 50.16 353.9 99.7.22-74.18-369.94z" opacity=".57"></path><path fill="#fff" d="m2006.23 1034.81-114.19.49 26.69 322.92 118.51.26-31.01-323.67z" opacity=".57"></path><path fill="#fff" d="m1973.14 1207.88-66.52 5.29.95 12.08 66.53-5.28-.96-12.09zM2133.16 1098.66l-49.05-.69 91.82 260.81 56.04-18.82-98.81-241.3z"></path><path fill="#fff" d="m2084.4 1097.47-42.27 7.63 62.65 253.52 72.98.16-93.36-261.31z" opacity=".57"></path><path fill="#fff" d="m2039.45 990.6-35.89-1.8 70.93 369.76 45.87.1-80.91-368.06z"></path><path fill="#fff" d="m1797.69 907.24-125.68-.27-.97 450.72 152.77.33-26.12-450.78z" opacity=".57"></path><path fill="#fff" d="m1876.1 948.97-75.79-.16 2.82 63.33 78.9.17-5.93-63.34zM1999.66 1054.84l-68.82-3.6 10.21 139.08 69.96-7.62-11.35-127.86zM2024.97 1203.37l-96.18 7.67.92 12.03 96.17-7.66-.91-12.04z"></path><path fill="#fff" d="m1800.31 948.81-127.83-.27-.13 60.12 131.36 4.33-3.4-64.18zM1877.39 1288.52l-32.34-.07 2.93 46.99 32.34.07-2.93-46.99zM2005.84 1000.79l-75.82 16.35.83 6.06 76.33-15.67-1.34-6.74zM2005.84 1000.79l35.88 1.43 1.83 6.57-36.37-1.26-1.34-6.74zM2061.89 1127.78l-22.08.19 42.89 208.95 22.07-.2-42.88-208.94zM2204.76 1309.94l-29.32 6 5.67 22.49 31.86-12.31-8.21-16.18zM2192.5 1283.43l-26.66 4.23 5.73 22.46 28.83-10.3-7.9-16.39zM2150.45 1188.56l-26.61-80.9-18.69.46 33.67 82.43 11.63-1.99z"></path></g><g opacity=".93"><path fill="#fff" d="m3498.5 437.41-167.1 409.87-.34.82a3.68 3.68 0 0 1-4.81 2l-7.11-2.9-97-39.56a3.69 3.69 0 0 1-2-4.82l137.1-336.42c46.61-12.78 93.64-23.14 141.26-28.99ZM2241 402l-6.93 17-173.52 425.52-1.45 3.58a3.67 3.67 0 0 1-4.81 2l-13.86-5.65-90.27-36.81a3.68 3.68 0 0 1-2-4.82l184.65-453c34.15 15.05 67.85 31.51 101.3 48.58Z" opacity=".15"></path><g opacity=".15"><path fill="#fff" d="m2720.8 1041 .14-67.78a3 3 0 0 0-3-3l-402.71-.87a3 3 0 0 0-3 3l-.14 67.78a3 3 0 0 0 3 3l402.71.86a3 3 0 0 0 3-2.99Z"></path><path fill="#fff" d="m2314.84 1210 .35-166.18a3.73 3.73 0 0 1 3.73-3.71l342.86.74a3.71 3.71 0 0 1 3.7 3.72l-.35 166.18a3.73 3.73 0 0 1-3.73 3.71l-342.86-.74a3.7 3.7 0 0 1-3.7-3.72Z" opacity=".57"></path><path fill="#fff" d="m2302.24 1349.74.31-141.6a3.7 3.7 0 0 1 3.72-3.7l464.23 1a3.71 3.71 0 0 1 3.71 3.72l-.3 141.6a3.71 3.71 0 0 1-3.73 3.7l-464.23-1a3.72 3.72 0 0 1-3.71-3.72ZM2291.66 713.7l-.26 123.53a7.78 7.78 0 0 0 7.75 7.82l456.09 1a7.81 7.81 0 0 0 7.81-7.78l.29-133.46a7.81 7.81 0 0 0-7.78-7.81l-401.95-.87q-30.68 9.76-61.95 17.57ZM2606.63 1165.33c6-27.93.83-60.83-.12-89.3-.18-5.26-8-5.28-8.17 0-1.07 28.47-6.38 61.34-.51 89.3.99 4.67 7.8 4.67 8.8 0ZM2565.66 1165.24c6-27.93.83-60.83-.12-89.3-.18-5.26-8-5.28-8.17 0-1.07 28.47-6.38 61.35-.5 89.31a4.51 4.51 0 0 0 8.79-.01ZM2524.69 1165.16c6-27.94.83-60.84-.12-89.31-.18-5.26-8-5.28-8.17 0-1.07 28.46-6.38 61.34-.5 89.3a4.51 4.51 0 0 0 8.79.01Z"></path></g><path fill="#fff" d="m3584.51 1365.18 2-933q-6.87-.09-13.73 0-20.11.28-40.09 1.79l-.9 413.69-200.38-.42h-12.26L2755.34 846l-456.18-1h-11.5l.25-418.55Q2264.48 414.12 2241 402l-6.89-3.56V419l-.23 425.93-173.29-.38h-20.12l-992.8-2.12q-2.07 19.35-3.36 38.85l690.43 1.49 37.28.09 461.79 1-.1 45.84-.93 432.67-42.17-.08h-7.34l-441.74-1-711.92-1.56c-2.33 13-5 26-8.15 38.86l727.7 1.57 384 .84 64.88.13 34.71.08-1 466.55-52.14-.08-1494.83-2.48q-5.86 8.5-11.4 17.26-6.82 10.54-12.92 21.54l1514.44 2.52 56.66.08-.29 134.56 53.82.13.3-134.58 292.29.63 737.07 1.58 214.76.46-.26 490.51a478.41 478.41 0 0 0 53.91-20.62l1.26-975.2 211.74.44c3.11-13 6.6-25.9 10.38-38.83Zm-54.92 505.3-214.84-.47-811.75-1.74-217.52-.46.82-375v-.07l.06-37.19.13-54.26 1028.27 2.21 215.85.46Zm1.07-505.4-215.91-.46-1028.21-2.23 1-453 .06-25.52 650.55 1.41 84.9.19 508.65 1.09Z" opacity=".47"></path><path fill="#fff" d="m3336.57 511.86-237.45 325.3a3 3 0 0 1-4.14.63l-54.77-40a3 3 0 0 1-.65-4.14l216.19-296.15q22.9-7.58 45.92-14.78l34.25 25a3 3 0 0 1 .65 4.14Z" opacity=".15"></path><path fill="#fff" d="m2702.74 1848.19-46 19a3.72 3.72 0 0 1-4.85-2l-137.84-333a3.72 3.72 0 0 1 2-4.85l46-19.05a3.72 3.72 0 0 1 4.85 2l137.84 333a3.7 3.7 0 0 1-2 4.9Z" opacity=".14"></path><g opacity=".14"><path fill="#fff" d="m2453.6 1850.94-102.15 16.73a3.7 3.7 0 0 1-4.25-3.06l-66.2-404.44a3.71 3.71 0 0 1 3.06-4.26l102.15-16.73a3.7 3.7 0 0 1 4.25 3.06l66.24 404.45a3.7 3.7 0 0 1-3.1 4.25Z"></path><path fill="#fff" d="M2370.91 1484.07c-18.56-3.12-38.53 4.07-56.57 7.06-4.28.69-5.68 5.54-4.94 10s3.61 8.64 7.88 7.94c18.06-2.93 39.27-2.49 55.87-11.36 4.72-2.49 3.04-12.71-2.24-13.64ZM2395.93 1636.87c-18.56-3.12-38.52 4.06-56.57 7.06-4.28.69-5.68 5.54-4.94 10s3.61 8.65 7.89 7.94c18.05-2.92 39.27-2.48 55.86-11.35 4.72-2.52 3.04-12.76-2.24-13.65ZM2352.19 1552.84c-7.33 1.2-12.1 10.51-10.47 20.46s9.11 17.25 16.45 16 12.1-10.51 10.47-20.46-9.11-17.2-16.45-16Z"></path></g><g opacity=".1"><path fill="#fff" d="m2578.56 1842.54-89.32 20.72a3.7 3.7 0 0 1-4.44-2.77l-76.33-329a3.7 3.7 0 0 1 2.77-4.45l89.32-20.72a3.7 3.7 0 0 1 4.44 2.77l76.34 329a3.7 3.7 0 0 1-2.78 4.45Z"></path><path fill="#fff" d="M2468.1 1561.93c-6.53 1.51-9.4 13.9-6.31 27.22s11.13 23.19 17.66 21.67 9.4-13.9 6.31-27.22-11.12-23.19-17.66-21.67ZM2511.15 1658.63c-8.79 1.27-17.38 3.49-26 5.35-7.79 1.69-16 2.07-22.74 7.51-3.33 2.69-.59 14.49 3.58 15.43 8.45 1.92 16-1.35 23.72-3.26 8.59-2.14 17.28-3.93 25.73-6.66 3.06-.37 3.39-5.46 2.2-10.19-1.05-4.81-3.58-9.19-6.49-8.18Z"></path></g><path fill="#fff" d="m3741.36 1189.13-23.72.07-27.6.06c-94.15-127.09-2.89-269.46-2.89-269.46 36.37 38.18 55.54 78.86 64.22 117.73 13.45 60.29 1.73 116.19-10.01 151.6Z" opacity=".21"></path><path fill="#fff" d="m3800.48 1189-59.12.14c11.74-35.41 23.46-91.31 10-151.6 30.52-48.68 69.31-76.17 69.31-76.17 37.61 94.99 11.81 174.4-20.19 227.63Z" opacity=".1"></path><path fill="#fff" d="M3872.68 1188.83c-24.2 56.94-47.78 115-65.19 173.62l-141.85.34-27.31-173.39 51.7-.15h27.6l23.72-.08 59.14-.13Z" opacity=".1"></path><path fill="#fff" d="m3009.29 1187.56-23.72.07-27.6.06c-94.14-127.1-2.89-269.47-2.89-269.47 36.37 38.18 55.54 78.87 64.22 117.74 13.45 60.29 1.7 116.19-10.01 151.6Z" opacity=".21"></path><path fill="#fff" d="m3068.41 1187.42-59.12.14c11.74-35.41 23.46-91.31 10-151.6 30.52-48.69 69.31-76.18 69.31-76.18 37.61 95.01 11.81 174.41-20.19 227.64Z" opacity=".1"></path><path fill="#fff" d="m3142.52 1187.25-32.49 173.54-176.45.42-27.32-173.39 51.71-.13 27.6-.06 23.72-.07 59.12-.14 74.11-.17z" opacity=".1"></path></g><path fill="#1f60e5" d="M3914.05 1559.06c25.79 25.18 23.25 73.77-6.13 94.68s-77.64 5.66-88.05-28.86 23.74-74.59 59.22-68.17c12.37 2.24 23.42 8.91 34.14 15.46" opacity=".29"></path><circle cx="3310.2" cy="1242.2" r="148.91" fill="#fff" opacity=".91"></circle><circle cx="1078.19" cy="2102.57" r="140.83" fill="#fff" opacity=".91" transform="rotate(-45 1078.184 2102.572)"></circle><circle cx="885.24" cy="1932.62" r="31.6" fill="#fff" opacity=".65" transform="rotate(-7.07 885.373 1932.875)"></circle><circle cx="1837.09" cy="961.61" r="41.34" fill="#fff" opacity=".91" transform="rotate(-22.5 1837.086 961.604)"></circle><path fill="#fff" d="M2034.24 1033a10.34 10.34 0 1 0 10.33 10.33 10.34 10.34 0 0 0-10.33-10.33Z" opacity=".79"></path><circle cx="1035.32" cy="1614.7" r="20.67" fill="#fff" transform="rotate(-22.5 1035.316 1614.7)"></circle><circle cx="2044.48" cy="2005.75" r="20.67" fill="#fff" transform="rotate(-13.28 2044.91 2006.063)"></circle><circle cx="3310.13" cy="992.39" r="20.67" fill="#fff" transform="rotate(-22.5 3310.123 992.382)"></circle><circle cx="3782.3" cy="2252.89" r="10.34" fill="#fff" opacity=".79"></circle><circle cx="3499.17" cy="1946.17" r="96.42" fill="#fff" opacity=".53"></circle><path fill="#fff" d="M1800.26 759.67c-65.54 159.3-239.13 247.2-394.79 218a307 307 0 0 1-161.81-85.51q-7.31-7.27-14.29-15.2c-32.23-36.5-57.12-78.88-74.34-124.31-39.65-104.47-38.77-225 6.66-327.07 40.28-90.49 155-166.91 269-190.82 53.21-11.18 106.29-10.93 151.62 4.65 1.87.63 3.72 1.3 5.57 2l1.81.7c36.35 14.11 67.42 37.78 94.29 66.27 17.1 18.08 32.46 38.11 46.4 58.88q7.26 10.78 14 21.79c67.8 110.07 106.99 246.34 55.88 370.62Z"></path><path fill="#1f60e5" d="M1800.26 759.67c-65.54 159.3-239.13 247.2-394.79 218a307 307 0 0 1-161.81-85.51q-7.31-7.27-14.29-15.2c-32.23-36.5-57.12-78.88-74.34-124.31-39.65-104.47-38.77-225 6.66-327.07 40.28-90.49 155-166.91 269-190.82 53.21-11.18 106.29-10.93 151.62 4.65 1.87.63 3.72 1.3 5.57 2l1.81.7c36.35 14.11 67.42 37.78 94.29 66.27 17.1 18.08 32.46 38.11 46.4 58.88q7.26 10.78 14 21.79c67.8 110.07 106.99 246.34 55.88 370.62Z" opacity=".08"></path><path fill="#003fc3" d="m1595 336.81-37.64 245.81-3 19.33-26.66 174.26-161.11-73.64-17.74-8.12L1307 675.3c6.3-8.41 48.35-84.1 48.35-84.1l33.68 27 14.8 11.8 56.59 45.29V336.81Z" opacity=".72"></path><path fill="#003fc3" d="M1601.2 610a154.5 154.5 0 0 0-43.86-27.4l-3 19.33a135 135 0 0 1 79.49 122.76c0 74.19-60.36 134.55-134.55 134.55a134.57 134.57 0 0 1-132.73-156.69l-17.68-8.1h-.06v.19A153.8 153.8 0 0 0 1461 873.35a153.67 153.67 0 0 0 38.31 4.83c84.62 0 153.47-68.85 153.47-153.47A153.13 153.13 0 0 0 1601.2 610Zm-211 7c-.4.38-.78.78-1.18 1.18l.38.31 14.43 11.51a134.53 134.53 0 0 1 56.59-34.12v-19.65a153.08 153.08 0 0 0-70.26 40.77Z" opacity=".42"></path><path fill="url(#a)" d="m1589.72 242.12-50.42 94.69L1460.42 485l-70.26 132-.8 1.49-40.45 76-.1.17-105.15 197.52q-7.31-7.27-14.29-15.2c-32.23-36.5-57.12-78.88-74.34-124.31l275.69-517.89c53.21-11.18 106.29-10.93 151.62 4.65 1.87.63 3.72 1.3 5.57 2Z" opacity=".75"></path><path fill="url(#b)" d="M1730.41 367.27 1601.2 610l-9.2 17.28-58.26 109.43-18.1 34-45.45 85.37-9.19 17.27-55.54 104.34a308.28 308.28 0 0 1-66.84-20.5l61.48-115.49 9.13-17.15 43.9-82.44 112-210.43L1684 308.39c17.11 18.08 32.47 38.11 46.41 58.88Z" opacity=".75"></path><path fill="#512d50" d="M1589.53 1187.23c-.46 1.1-1 2.17-1.51 3.22a80.34 80.34 0 0 1-7.82 12.45 81.26 81.26 0 0 1-3.72 4.6c-.61.72-1.25 1.41-1.9 2.13s-1.55 1.68-2.35 2.52a6.63 6.63 0 0 0-.53-.53c-3.38-3.51-6.62-6.72-9.65-9.67-.88-.86-1.83-1.68-2.77-2.46a37.39 37.39 0 0 0-40.16-4.1l-59.56 30.13a172.85 172.85 0 0 0-94.76 154.13v97.74l-29.43-2.11a54.87 54.87 0 0 0-8.71 0c-20.72 1.69-20.72 17.06-20.72 35.75a13.6 13.6 0 0 0 1.15 5.31c.11.28.21.55.34.82 4.29 9.7 18.08 20 31.07 28a288.77 288.77 0 0 0 26.41 14.34l39.8 65.41a56.55 56.55 0 0 0 21.27 20.28c4.67 6.58 8.92 12.55 12.41 17.45 5.36 7.57 8.89 12.58 9.39 13.29-2.31-3-13.68-5.38-24-7.19-7.36-1.3-14.15-2.33-16.72-3.11a584.39 584.39 0 0 1-85.17-33.18q-8.5-4.1-16.88-8.47c-56.09-29.31-114.94-67.42-153.79-119.8-49.28-66.37-35.36-128.87-22.87-204.69 7.23-43.91 2.27-98.54 39.46-130.64 29.52-25.46 72.59-25.16 108-37.46 43-14.91 86.18-31.5 125-55.49 15-9.29 27.46-19.25 39.71-26.19 56.73-32.06 143 42.4 153.35 96.16 3 15.61 1.02 29.3-4.34 41.36Z"></path><path fill="#f8bbc2" d="M1749.8 1574.54a57.31 57.31 0 0 1-49.89 48.61l-46.4 5.55-47 5.63-146.33 17.54a56.63 56.63 0 0 1-33.91-6.52c-.74-.4-1.47-.82-2.19-1.24s-1.41-.86-2.1-1.33-1.39-.92-2.06-1.42-1.33-1-2-1.54a57 57 0 0 1-13-14.72l-40-65.53h-.08a288.77 288.77 0 0 1-26.41-14.34c.44.82.88 1.62 1.33 2.44-16.57-9.94-32.72-23.69-40.54-37.36-4.85-8.47-6.66-19.17-2.69-28.09 5.21-11.73 19.17-17.49 32-17h.76c6.64.4 33.24 12 35.4 9.1.84-1.16 1.14-3.58 1.14-6.44 0-5.59-1.07-12.86-1.1-15.62v-76.42c0-.71 0-1.41.07-2.12s.06-1.71.1-2.55c0-.4 0-.77.07-1.17 0-.74.08-1.48.14-2.21.07-1.2.17-2.4.28-3.6.08-1 .19-2 .29-3 .15-1.41.32-2.8.51-4.19.06-.52.12-1 .21-1.55.31-2.27.67-4.52 1.09-6.77q1.23-6.75 3-13.31c.26-1 .51-1.91.78-2.86.09-.29.17-.59.25-.86.26-.9.53-1.79.8-2.67.05-.19.11-.36.17-.53.3-1 .59-1.91.91-2.86.88-2.67 1.82-5.31 2.83-7.94.51-1.31 1-2.61 1.56-3.91.42-1 .86-2.08 1.32-3.11q2.88-6.63 6.33-13c.44-.86.93-1.7 1.41-2.56.74-1.33 1.49-2.65 2.29-4 .57-1 1.16-1.95 1.77-2.92 2.33-3.74 4.81-7.4 7.42-10.93.84-1.14 1.68-2.25 2.52-3.36q1.93-2.49 4-4.92c1.36-1.62 2.73-3.2 4.14-4.78.92-1 1.89-2.08 2.84-3.09s2-2 2.94-3 2-2 3-3c2.71-2.61 5.52-5.15 8.43-7.59.69-.59 1.38-1.18 2.1-1.74s1.53-1.24 2.31-1.85 1.49-1.18 2.27-1.75q5-3.84 10.39-7.32c.78-.52 1.55-1 2.33-1.51s1.35-.84 2-1.24l.95-.57c.79-.48 1.59-.94 2.39-1.41q4.2-2.41 8.54-4.62l59.56-30.13a37.24 37.24 0 0 1 23.08-3.51 32.37 32.37 0 0 1 4.23 1 34.18 34.18 0 0 1 3.28 1.11c1 .38 1.91.8 2.86 1.26a38.39 38.39 0 0 1 6.71 4.27c2.42 2.34 5 4.86 7.76 7.59 1.59 1.6 3.23 3.26 4.91 5 3 3.11 6.14 6.43 9.28 10 13.35 14.8 27.39 33.16 37.25 54.33a108 108 0 0 0 37.09 43.45l74.84 51 11.63 7.92a18.37 18.37 0 0 1 7 21.22l-22.58 64.54 2.42 7.21 2 5.93 13.39 40.07.61 1.81c.44 1.33.88 2.65 1.26 4a119.06 119.06 0 0 1 3.74 51Z"></path><path fill="#f8bbc2" d="M1364.87 1559.53a130.1 130.1 0 0 1-25.08-11.9c-.45-.82-.89-1.62-1.33-2.44a288.77 288.77 0 0 0 26.41 14.34Z"></path><path fill="#fff" d="M1689.4 1846.61a42.74 42.74 0 0 0-23.45 2.59c-1.59-8.6-3.3-17.16-2.75-26 1-16.16-2.54-31.43-4.79-47.51q-4.83-34.15-6.77-68.62c5.46 1.64 11 4.14 15.15 5.34 5 1.43 10.2 3 13.46 7 2.4 2.92 3.36 6.73 4.2 10.39a322.32 322.32 0 0 1 4.95 116.81Z"></path><path fill="#fe7101" d="M1689.4 1846.61a42.74 42.74 0 0 0-23.45 2.59c-1.59-8.6-3.3-17.16-2.75-26 1-16.16-2.54-31.43-4.79-47.51q-4.83-34.15-6.77-68.62c5.46 1.64 11 4.14 15.15 5.34 5 1.43 10.2 3 13.46 7 2.4 2.92 3.36 6.73 4.2 10.39a322.32 322.32 0 0 1 4.95 116.81Z" opacity=".72"></path><path fill="#512d50" d="m1364.76 1559.36.11.17"></path><path fill="#f8bbc2" d="M1668.25 1874c-.09 1.07-.19 2.14-.34 3.21-2.92 21.24-18.25 38.48-34 52.94-13.43 12.32-28.7 24.14-46.74 26.66-12.34 1.7-24.8-1.11-37-3.91-53.48-12.36-107.85-25-155.49-52.31 29-76.19 33.3-152.09 26.55-229.22-.08-1-.16-2-.25-3-.1-1.2-.23-2.4-.34-3.6a821.88 821.88 0 0 0-2.71-24.83c-.4-3.28-.82-6.58-1.26-9.86-2.48-18.88-5.49-37.88-8.81-57 0 0 12.36-6.71 31.66-15.9 69.85-33.13 230.62-98.45 226.35 5.22a129.76 129.76 0 0 1-3.2 23.46c-.12.63-.27 1.28-.42 1.93-4 17.6-8.57 36.14-10.72 54.5a170.25 170.25 0 0 0-1.26 20.81q.09 22 1.37 44 .78 14.06 2.08 28.09 1.83 20.31 4.69 40.53c2.25 16.08 5.78 31.35 4.79 47.51-.55 8.81 1.16 17.37 2.75 26 1.52 8.13 2.95 16.3 2.3 24.77Z"></path><path fill="#fff" d="M1925.05 1842.14s-57.52 138-126.92 304.3c-34 81.42-70.81 169.64-105.14 251.78q-7.38 2.72-14.72 5.49c-4 1.49-8 3-11.94 4.54-3.07 1.18-6.14 2.36-9.21 3.57-2.6 1-5.21 2-7.82 3q-28.47 11.21-56.66 23.13-4.47 1.86-9 3.78-10.86 4.6-21.64 9.3c-2.63 1.11-5.23 2.25-7.84 3.4q-6.9 3-13.77 6c-3.6 1.57-7.19 3.17-10.79 4.77l-11 4.88q-8.46 3.78-16.93 7.61c-51.84 23.38-103.73 47.64-156.73 71.67l-16.63 7.52-3.93 1.77q-17.54 7.89-35.28 15.71c-6.27 2.77-12.53 5.5-18.84 8.26q-4.86-11.48-10.17-24.07c-1.18-2.76-2.36-5.55-3.56-8.39-1.28-3.05-2.6-6.16-3.93-9.32l-2.21-5.27q-5.33-12.64-10.93-26c-.94-2.23-1.87-4.48-2.81-6.73-.4-.93-.78-1.85-1.18-2.8-1.33-3.19-2.67-6.43-4-9.69-5-11.92-10.07-24.2-15.24-36.69l-5.59-13.49q-6.29-15.24-12.66-30.8c-2.06-5-4.1-10-6.16-15.06-17.47-42.78-35.11-86.66-51.45-128.45-.14-.42-.31-.82-.48-1.22v-.11c-18.06-46.23-34.5-89.9-47.33-126.67a242.08 242.08 0 0 1-13.41-87.56 5.82 5.82 0 0 1 0-.59v-.21a244 244 0 0 1 20.61-90.38L1129 1893a93.43 93.43 0 0 1 77.81-55.44l61-5a103.27 103.27 0 0 1 15.62-.17 15.76 15.76 0 0 0-4.46 7.48l14.66-2.25 11.58-1.76c1.24.33 2.48.67 3.7 1a110.6 110.6 0 0 1 66.82 56.13l114.12 226.66L1729 1815.58l12.45-15.83 42.74-54.33 20.77 14.26 104 71.42Z"></path><path fill="#fff" d="M1827.29 1826.37 1805.64 2064l-7.51 82.42-20.33 223q-43 13.28-84.81 28.74-7.38 2.72-14.72 5.49c-4 1.49-8 3-11.94 4.54-3.07 1.18-6.14 2.36-9.21 3.57-2.6 1-5.21 2-7.82 3q-8.16 3.23-16.29 6.48-20.25 8.13-40.37 16.65-4.47 1.86-9 3.78-10.86 4.6-21.64 9.3c-2.63 1.11-5.23 2.25-7.84 3.4q-6.9 3-13.77 6c-3.6 1.57-7.19 3.17-10.79 4.77l-11 4.88q-8.46 3.78-16.93 7.61c-51.84 23.38-103.73 47.64-156.73 71.67l-16.63 7.52-3.93 1.77q-17.54 7.89-35.28 15.71c-6.27 2.77-12.53 5.5-18.84 8.26q-4 1.77-8.07 3.51a637.28 637.28 0 0 1-90.82 31.58 534.69 534.69 0 0 1-95.56 16.19c-77.3-4.92-129.47-9.19-130.54-11.86-3.63-9.11 104.85-454.14 133.84-572.59 4.44-18.21 7-28.7 7-28.7l103.27-89.56c33.31-28.89 62.59-63.22 100.56-86.35 40.52-24.7 86.31-31.68 130.08-48.42 5.86-2.25 11.77-4.62 18-5.17 10.3-.9 20.28 3.2 29.81 7.23 35.11 14.87 61 27.63 89.43 51.34a74.3 74.3 0 0 0 6.37 4.73c24.14 15.94 53.41 13.23 73.57-10.38 4.2-4.9 8-10.41 13.68-13.58 3.68-2.08 7.87-3 12-3.89 4.79-1 9.42-2 13.94-3 4.31-.9 8.49-1.74 12.63-2.52 2.67-.51 5.34-1 8-1.41 3.79-.61 7.55-1.16 11.31-1.6.7-.08 1.39-.14 2.08-.23 2.23-.23 4.46-.44 6.71-.61l2.36-.17c.92-.06 1.85-.1 2.77-.14s1.91-.09 2.88-.11c.74 0 1.45-.06 2.19-.06a179.05 179.05 0 0 1 23.12 1l1.79.19 1.41.15c11.21 1.19 46 4.94 63.24 6.85.8.08 1.58.19 2.29.25 4.77.77 7.69 1.09 7.69 1.14Z"></path><path fill="#fe7101" d="M1827.29 1826.37 1805.64 2064l-7.51 82.42-20.33 223q-43 13.28-84.81 28.74-7.38 2.72-14.72 5.49c-4 1.49-8 3-11.94 4.54-3.07 1.18-6.14 2.36-9.21 3.57-2.6 1-5.21 2-7.82 3q-8.16 3.23-16.29 6.48-20.25 8.13-40.37 16.65-4.47 1.86-9 3.78-10.86 4.6-21.64 9.3c-2.63 1.11-5.23 2.25-7.84 3.4q-6.9 3-13.77 6c-3.6 1.57-7.19 3.17-10.79 4.77l-11 4.88q-8.46 3.78-16.93 7.61c-51.84 23.38-103.73 47.64-156.73 71.67l-16.63 7.52-3.93 1.77q-17.54 7.89-35.28 15.71c-6.27 2.77-12.53 5.5-18.84 8.26q-4 1.77-8.07 3.51a637.28 637.28 0 0 1-90.82 31.58 534.69 534.69 0 0 1-95.56 16.19c-77.3-4.92-129.47-9.19-130.54-11.86-3.63-9.11 104.85-454.14 133.84-572.59 4.44-18.21 7-28.7 7-28.7l103.27-89.56c33.31-28.89 62.59-63.22 100.56-86.35 40.52-24.7 86.31-31.68 130.08-48.42 5.86-2.25 11.77-4.62 18-5.17 10.3-.9 20.28 3.2 29.81 7.23 35.11 14.87 61 27.63 89.43 51.34a74.3 74.3 0 0 0 6.37 4.73 122.68 122.68 0 0 0-10.59 12.83c-3.45 4.79-6.6 9.9-8.33 15.56-3.53 11.52-1.22 27.5 1.54 39.23 18.37 2.71 37.78 5.34 55-1.62 6.85-2.78 13.05-7 19.59-10.45 12-6.37 25.46-10.49 35.78-19.36 13.33-11.48 19.37-29.1 24.39-46 2.69-9 .76-13.25-4.18-21 4.31-.9 8.49-1.74 12.63-2.52 2.67-.51 5.34-1 8-1.41 3.79-.61 7.55-1.16 11.31-1.6.7-.08 1.39-.14 2.08-.23 2.23-.23 4.46-.44 6.71-.61l2.36-.17c.92-.06 1.85-.1 2.77-.14s1.91-.09 2.88-.11c.74 0 1.45-.06 2.19-.06a179.05 179.05 0 0 1 23.12 1l1.79.19 1.41.15c11.21 1.19 46 4.94 63.24 6.85.8.1 1.58.19 2.29.25 4.76.73 7.68 1.05 7.68 1.1Z" opacity=".64"></path><path fill="#fe7101" d="m1805.64 2064-7.51 82.42-20.33 223q-43 13.28-84.81 28.74-7.38 2.72-14.72 5.49c-4 1.49-8 3-11.94 4.54-3.07 1.18-6.14 2.36-9.21 3.57-2.6 1-5.21 2-7.82 3q-8.16 3.23-16.29 6.48a95.94 95.94 0 0 1-.84-5.45c-9.55-76.14 57.33-350.67 173.47-351.79Z" opacity=".43"></path><path fill="#fff" d="M1925.05 1842.14s-57.52 138-126.92 304.3c-34 81.42-70.81 169.64-105.14 251.78q-7.38 2.72-14.72 5.49c-4 1.49-8 3-11.94 4.54-3.07 1.18-6.14 2.36-9.21 3.57-2.6 1-5.21 2-7.82 3q-28.47 11.21-56.66 23.13-4.47 1.86-9 3.78-10.86 4.6-21.64 9.3c-2.63 1.11-5.23 2.25-7.84 3.4q-6.9 3-13.77 6c-3.6 1.57-7.19 3.17-10.79 4.77l-11 4.88q-8.46 3.78-16.93 7.61c-51.84 23.38-103.73 47.64-156.73 71.67l-16.63 7.52-3.93 1.77q-17.54 7.89-35.28 15.71c-6.27 2.77-12.53 5.5-18.84 8.26q-4.86-11.48-10.17-24.07c-1.18-2.76-2.36-5.55-3.56-8.39-1.28-3.05-2.6-6.16-3.93-9.32l-2.21-5.27q-5.33-12.64-10.93-26c-.94-2.23-1.87-4.48-2.81-6.73-.4-.93-.78-1.85-1.18-2.8-1.33-3.19-2.67-6.43-4-9.69-5-11.92-10.07-24.2-15.24-36.69l-5.59-13.49q-6.29-15.24-12.66-30.8c-2.06-5-4.1-10-6.16-15.06-17.47-42.78-35.11-86.66-51.45-128.45-.14-.42-.31-.82-.48-1.22v-.11c-18.06-46.23-34.5-89.9-47.33-126.67a242.08 242.08 0 0 1-13.41-87.56 5.82 5.82 0 0 1 0-.59v-.21a244 244 0 0 1 20.61-90.38L1129 1893a93.43 93.43 0 0 1 77.81-55.44c40.89-3.38 94.92-11.12 131.33 13a110.94 110.94 0 0 1 37.64 42.41s114.12 226.66 114.12 226.66l239.1-304.05 12.45-15.83 42.74-54.33 20.77 14.26 104 71.42Z"></path><path fill="#fe7101" d="M1925.05 1842.14s-57.52 138-126.92 304.3c-34 81.42-70.81 169.64-105.14 251.78q-7.38 2.72-14.72 5.49c-4 1.49-8 3-11.94 4.54-3.07 1.18-6.14 2.36-9.21 3.57-2.6 1-5.21 2-7.82 3q-28.47 11.21-56.66 23.13-4.47 1.86-9 3.78-10.86 4.6-21.64 9.3c-2.63 1.11-5.23 2.25-7.84 3.4q-6.9 3-13.77 6c-3.6 1.57-7.19 3.17-10.79 4.77l-11 4.88q-8.46 3.78-16.93 7.61c-51.84 23.38-103.73 47.64-156.73 71.67l-16.63 7.52-3.93 1.77q-17.54 7.89-35.28 15.71c-6.27 2.77-12.53 5.5-18.84 8.26q-4.86-11.48-10.17-24.07c-1.18-2.76-2.36-5.55-3.56-8.39-1.28-3.05-2.6-6.16-3.93-9.32l-2.21-5.27q-5.33-12.64-10.93-26c-.94-2.23-1.87-4.48-2.81-6.73-.4-.93-.78-1.85-1.18-2.8-1.33-3.19-2.67-6.43-4-9.69-5-11.92-10.07-24.2-15.24-36.69l-5.59-13.49q-6.29-15.24-12.66-30.8c-2.06-5-4.1-10-6.16-15.06-17.47-42.78-35.11-86.66-51.45-128.45-.14-.42-.31-.82-.48-1.22v-.11c-18.06-46.23-34.5-89.9-47.33-126.67a242.08 242.08 0 0 1-13.41-87.56 5.82 5.82 0 0 1 0-.59v-.21a244 244 0 0 1 20.61-90.38L1129 1893a93.43 93.43 0 0 1 77.81-55.44c40.89-3.38 94.92-11.12 131.33 13a110.94 110.94 0 0 1 37.64 42.41s114.12 226.66 114.12 226.66l239.1-304.05 12.45-15.83 42.74-54.33 20.77 14.26 104 71.42Z" opacity=".64"></path><path fill="#fe7101" d="M1139.89 2264.57c-18.06-46.23-34.5-89.9-47.33-126.67a242.08 242.08 0 0 1-13.41-87.56Z" opacity=".65"></path><path fill="#054ce2" d="M1283.44 1832.34a104.94 104.94 0 0 1 19.26 2.86c.84.17 1.68.38 2.52.61l-11.58 1.76"></path><path fill="#f8bbc2" d="M2043.84 1615.62a123.29 123.29 0 0 1-68.16 110.27 28.34 28.34 0 0 0-11.77 11l-17.6 30.15-22.2 38.05-15.14 26-104-71.42 5.16-13.33.5-1.26 12.47-32.25-15.71-60.17-1.83-7a87.54 87.54 0 0 1 4.65-57.45l23.55-53.22a31.84 31.84 0 0 1 41-16.65l69.84 28.24 72.4 29.26a42.93 42.93 0 0 1 26.84 39.78Z"></path><path fill="#e8635d" d="M1746 1523.79a59.76 59.76 0 0 1-5.82 2.52 72.18 72.18 0 0 1-27.14 4.31 89 89 0 0 1-25-4.37 100.11 100.11 0 0 1-11.27-4.56 105.6 105.6 0 0 1-10.58-5.89l-9.33-6 12-3.6a93.93 93.93 0 0 0 15.31-6.5c5.15-2.62 10.28-5.59 15.34-8.66 9.89-6 19.68-12.42 29.37-19l2 5.92c-9 6.88-18.16 13.65-27.65 20-5.08 3.4-10.28 6.7-15.66 9.79-1.7 1-3.4 1.94-5.13 2.86.3.13.59.23.88.34 3.18 1.22 6.4 2.33 9.65 3.36l1 .32c2.7.84 5.39 1.62 8.14 2.33a108.23 108.23 0 0 0 14 2.71 74 74 0 0 0 23.34-.48c1.6-.29 3.17-.67 4.77-1.11l.61 1.8c.34 1.26.76 2.58 1.17 3.91Z" opacity=".75"></path><path fill="#fe7101" d="M1708.59 1813.35c-4.1 2.17-8.16 4.48-12.17 6.88a23.48 23.48 0 0 1 12.09-6.88ZM1670.49 1890l-180.63 229.66L1375.74 1893a110 110 0 0 0-23.53-31.3c29.37 7.84 58.76 37.86 74.59 57.54 31.94 39.61 51 87.92 66.88 136.26q85.32-86.02 176.81-165.5Z" opacity=".43"></path><path fill="#fe7101" d="m1078.84 2049.22.33.53a5.82 5.82 0 0 0 0 .59ZM1260.15 2558.64q5.3 12.57 10.17 24.07-4 1.77-8.07 3.51a634.66 634.66 0 0 1-90.82 31.56c1.2-3.88 6.38-8.31 13.2-12.68 26.2-16.76 37.86-49.09 29.38-79l-74.1-261.4v-.11c.17.44.34.88.5 1.33 16.34 41.79 34 85.67 51.45 128.45 2.06 5.05 4.1 10.07 6.16 15.06q6.38 15.54 12.66 30.8l5.59 13.49c5.17 12.49 10.26 24.77 15.24 36.69 1.35 3.26 2.71 6.5 4 9.69.4 1 .78 1.87 1.18 2.8.94 2.27 1.87 4.5 2.81 6.73q5.58 13.39 10.93 26c.74 1.78 1.48 3.53 2.21 5.27 1.33 3.16 2.65 6.27 3.93 9.32 1.22 2.87 2.43 5.66 3.58 8.42ZM1289.16 2574.45q17.73-7.83 35.28-15.71-17.53 7.89-35.28 15.71Z" opacity=".68"></path><path fill="#fe7101" d="M1270.32 2582.71q-4 1.77-8.07 3.51a634.66 634.66 0 0 1-90.82 31.56 534.69 534.69 0 0 1-95.56 16.19c-77.3-4.92-129.47-9.19-130.54-11.86-.54-1.37 1.41-12.45 5.24-30.74 6-.29 12-.25 17.87 0 27.79 1.31 57.67 5.15 81.72-8.83 17.72-10.3 29.12-28.7 37.78-47.26a289.48 289.48 0 0 0 26.72-133.69c-3.89-93.43-49.13-183.86-30.88-278.61 2.35-12.22 5-21.55 7.92-28.39l48.19 169.94c.17.44.34.88.5 1.33 16.34 41.79 34 85.67 51.45 128.45 2.06 5.05 4.1 10.07 6.16 15.06q6.38 15.54 12.66 30.8l5.59 13.49c5.17 12.49 10.26 24.77 15.24 36.69 1.37 3.26 2.71 6.5 4 9.69.4 1 .78 1.87 1.18 2.8.94 2.25 1.87 4.5 2.81 6.73q5.58 13.39 10.93 26l2.21 5.27c1.33 3.16 2.65 6.27 3.93 9.32 1.2 2.84 2.38 5.63 3.56 8.39q5.34 12.66 10.21 24.16Z" opacity=".43"></path><path fill="#fff" d="m1925.05 1842.14-34.5 82.75c-47.7-36.9-121.37-94.07-153.24-119.88l4.14-5.26 42.74-54.33 20.77 14.26 104 71.42Z" opacity=".74"></path><path fill="#fff" d="M1320.84 1828.45c3.14-.46 6.18-.84 9.17-1.12-3.89 5.18-6.5 8.18-6.92 7.68 5.78 6.85-11.09-5.26-2.25-6.56Z"></path><path fill="#fff" d="M1577 1845.63c2.21 2.87 4.46 5.73 6.73 8.55-1.19-1.47-28.13 30.77-30.26 33.86-4 5.88-8.29 12.06-10.94 18.71-1.62 4.06-1.72 10.85-5.27 13.86-15.89 13.5-56.66-19.37-68.68-28.5-2.27-1.68-4.46-3.41-6.62-5.15-43.54-34.61-74.22-64.92-132-59.63v-.06c.38-.5.78-1 1.18-1.58s.8-1.07 1.22-1.64v-.06q2-2.64 4.16-5.76c1.79-2.5 3.68-5.19 5.66-8 1.3-1.89 2.65-3.85 4-5.85.5-.71 1-1.42 1.47-2.14.8-1.18 1.62-2.35 2.42-3.53s1.76-2.59 2.62-3.87c1.33-2 2.63-3.89 4-5.82 1-1.5 2-3 3-4.46 1.16-1.75 2.31-3.45 3.43-5.13.84-1.26 1.68-2.5 2.48-3.72.4-.61.8-1.22 1.2-1.81.8-1.22 1.6-2.4 2.36-3.56 13.3-20.15 30.92-36.26 42-58.26 20.47 9.06 34.41 20.31 50.53 35.77 37.16 35.47 83.6 56.55 115.31 97.78Z"></path><path fill="#fe7101" d="M1577 1845.63c2.21 2.87 4.46 5.73 6.73 8.55-1.19-1.47-28.13 30.77-30.26 33.86-4 5.88-8.29 12.06-10.94 18.71-1.62 4.06-1.72 10.85-5.27 13.86-15.89 13.5-56.66-19.37-68.68-28.5-2.27-1.68-4.46-3.41-6.62-5.15-43.54-34.61-74.22-64.92-132-59.63v-.06c.38-.5.78-1 1.18-1.58s.8-1.07 1.22-1.64v-.06q2-2.64 4.16-5.76c1.79-2.5 3.68-5.19 5.66-8 1.3-1.89 2.65-3.85 4-5.85.5-.71 1-1.42 1.47-2.14.8-1.18 1.62-2.35 2.42-3.53s1.76-2.59 2.62-3.87c1.33-2 2.63-3.89 4-5.82 1-1.5 2-3 3-4.46 1.16-1.75 2.31-3.45 3.43-5.13.84-1.26 1.68-2.5 2.48-3.72.4-.61.8-1.22 1.2-1.81.8-1.22 1.6-2.4 2.36-3.56 13.3-20.15 30.92-36.26 42-58.26 20.47 9.06 34.41 20.31 50.53 35.77 37.16 35.47 83.6 56.55 115.31 97.78Z" opacity=".64"></path><path fill="#fe7101" d="M1323.09 1835c5.78 6.85-11.1-5.26-2.25-6.56 3.16-.46 6.23-.86 9.21-1.18-3.91 5.22-6.54 8.25-6.96 7.74Z" opacity=".24"></path><path fill="#fff" d="M1700.5 1747.06a16.77 16.77 0 0 1-1.56-2.52q.77 1.26 1.56 2.52Z"></path><path fill="none" d="M1681.11 1844.85c-5 16.88-11.06 34.5-24.39 46-10.32 8.87-23.75 13-35.78 19.36-6.54 3.49-12.74 7.67-19.59 10.45-17.22 7-36.63 4.33-55 1.62-2.76-11.73-5.07-27.71-1.54-39.23 1.73-5.66 4.88-10.77 8.33-15.56a122.68 122.68 0 0 1 10.59-12.83c24.14 15.94 53.41 13.23 73.57-10.38 4.2-4.9 8-10.41 13.68-13.58 3.68-2.08 7.87-3 12-3.89 4.79-1 9.42-2 13.94-3 4.95 7.79 6.88 12.08 4.19 21.04Z"></path><path fill="#fe7101" d="M1681.11 1844.85c-5 16.88-11.06 34.5-24.39 46-10.32 8.87-23.75 13-35.78 19.36-6.54 3.49-12.74 7.67-19.59 10.45-16.28 6.58-34.48 4.58-51.93 2.06-2.11-8.52 10.61-37.26 22.89-63.28 22.22 10.26 47.16 5.72 65-15.16 4.2-4.9 8-10.41 13.68-13.58 3.68-2.08 7.87-3 12-3.89 4.79-1 9.42-2 13.94-3 4.94 7.79 6.87 12.08 4.18 21.04Z" opacity=".07"></path><path fill="#e8635d" d="M1653.51 1628.7c-.78 4.52-1.45 9-2 13.54-63.83 20.43-178.16 22.62-230.89 22.45a761.67 761.67 0 0 0-2.73-24.87 56.92 56.92 0 0 0 42.24 12l146.33-17.54Z" opacity=".3"></path><path fill="#fe8796" d="M1653.72 1735.19c-78.86 4.12-170-32.47-232.49-63.85-.16-2.21-.38-4.44-.59-6.65a761.67 761.67 0 0 0-2.73-24.87 56.92 56.92 0 0 0 42.24 12l146.33-17.54 47-5.63c-.78 4.52-1.45 9-2 13.54a170.25 170.25 0 0 0-1.26 20.81q.09 22 1.37 44 .83 14.16 2.13 28.19Z" opacity=".3"></path><path fill="#e8635d" d="M1319.37 1480.07a41.47 41.47 0 0 1 15.5 7.93c4.52 3.54 9 7.47 12.45 12.36a46.69 46.69 0 0 1 8.48 33.25 55.28 55.28 0 0 0-3-16.72 53 53 0 0 0-7.86-14.77c-3.23-4.54-7.61-8.09-11.87-11.89a90.2 90.2 0 0 0-13.7-10.16Z" opacity=".67"></path><path fill="#e8635d" d="M1353.05 1516.69a34.84 34.84 0 0 1-28.76 4.46 33.33 33.33 0 0 0 26.91-7 1.56 1.56 0 0 1 2 2.4Z" opacity=".67"></path><path fill="#fe8796" d="M1581.23 1222.05c-19.74 10.68-56.89 15.43-68.31 19.57-34.35 12.43-67.76 30.17-91.12 59-28.11 34.75-37.88 80.42-46.78 124.23q-4.38 21.48-8.74 42.93h-.38c0-5.59-1.07-12.86-1.1-15.62v-72.61a172.74 172.74 0 0 1 94.76-154.13l59.56-30.13a37.43 37.43 0 0 1 40.2 4.12c2.42 2.34 5 4.86 7.76 7.59 1.59 1.6 3.23 3.26 4.91 5 3.01 3.2 6.1 6.52 9.24 10.05Z" opacity=".3"></path><path fill="#e8635d" d="M1567 1207.08c-6.48 3.26-16.49 1.09-25.25 2.48-34 5.43-64.76 23.11-94.13 40.1-14.4 8.34-28.91 16.75-41.31 27.85-10.26 9.19-18.8 20-26.47 31.45a172.5 172.5 0 0 1 79.64-83.46l59.56-30.13a37.43 37.43 0 0 1 40.2 4.12c2.46 2.34 5.06 4.86 7.76 7.59Z" opacity=".3"></path><path fill="#020e49" d="M1576.71 1217.85c.21-.85.44-1.66.65-2.51.1 1.66-.02 2.72-.65 2.51ZM1576.48 1207.5a10.91 10.91 0 0 1 0-1.85 42 42 0 0 1-4.73 6c-3.38-3.51-6.62-6.72-9.65-9.67-.88-.86-1.83-1.68-2.77-2.46a37.39 37.39 0 0 0-40.16-4.1l-59.56 30.13a172.64 172.64 0 0 0-86.07 100.09c.92-9.35 2.18-18.75 5.92-28.19 10.45-26.49 26-53.4 46.3-73.54 27.14-26.93 71.61-45.67 106.68-59.29 10.53-4.1 22.51-7.76 32.81-3.09 9.57 4.31 15 15 15.94 25.42a59.26 59.26 0 0 1-.9 16" opacity=".71"></path><path fill="#020e49" d="M1421 1668.29c-6.24-1.08-11.69-2-13.94-2.63q-8.86-2.69-17.64-5.64a584.49 584.49 0 0 1-67.53-27.54c12.32-5.63 23.68-12 29.54-23.86 7-14.06 3.16-31.14-3.49-45.39l-.17-.4c-1.78-3.78-3.76-7.51-5.78-11.23-.71-1.32-1.45-2.65-2.18-4l1.72.82.25.1 1.1.53 22 10.45 39.8 65.41a55.63 55.63 0 0 0 13.26 14.92c1 8.31 1.94 16.57 2.71 24.83.1 1.23.23 2.43.35 3.63ZM1589.53 1187.23c-.46 1.1-1 2.17-1.51 3.22a80.34 80.34 0 0 1-7.82 12.45 81.26 81.26 0 0 1-3.72 4.6c-.61.72-1.25 1.41-1.9 2.13s-1.55 1.68-2.35 2.52a6.63 6.63 0 0 0-.53-.53c-3.38-3.51-6.62-6.72-9.65-9.67-.88-.86-1.83-1.68-2.77-2.46a38.39 38.39 0 0 0-6.71-4.27c-1-.46-1.89-.88-2.86-1.26a34.18 34.18 0 0 0-3.28-1.11 32.37 32.37 0 0 0-4.23-1 37.24 37.24 0 0 0-23.08 3.51l-59.56 30.13q-4.35 2.2-8.54 4.62c-.8.47-1.6.93-2.39 1.41l-.95.57c-.67.4-1.35.82-2 1.24s-1.55 1-2.33 1.51q-5.37 3.48-10.39 7.32c-.78.57-1.53 1.16-2.27 1.75s-1.55 1.24-2.31 1.85-1.41 1.15-2.1 1.74c-2.91 2.44-5.72 5-8.43 7.59l-3 3c-1 1-2 2-2.94 3s-1.92 2.06-2.84 3.09c-1.41 1.58-2.78 3.16-4.14 4.78s-2.67 3.26-4 4.92c-.84 1.11-1.68 2.22-2.52 3.36a166.46 166.46 0 0 0-7.42 10.93c-.61 1-1.2 1.94-1.77 2.92-.8 1.31-1.55 2.63-2.29 4-.48.86-1 1.7-1.41 2.56q-3.43 6.38-6.33 13c-.46 1-.9 2.08-1.32 3.11-.55 1.3-1 2.6-1.56 3.91-1 2.63-2 5.27-2.83 7.94-.32 1-.61 1.9-.91 2.86-.06.17-.12.34-.17.53-.27.88-.54 1.77-.8 2.67-.08.27-.16.57-.25.86-.27 1-.52 1.89-.78 2.86q-1.76 6.56-3 13.31c-.42 2.25-.78 4.5-1.09 6.77-.09.5-.15 1-.21 1.55-.19 1.39-.36 2.78-.51 4.19-.1 1-.21 2-.29 3-.11 1.2-.21 2.4-.28 3.6-.06.73-.1 1.47-.14 2.21 0 .4 0 .77-.07 1.17 0 .84-.08 1.71-.1 2.55s0 1.41-.07 2.12v98.48c-2.16 2.86-28.76-8.7-35.4-9.1h-.76c2.1-9.91 4.65-19.79 6.69-29.59 7.52-36.14 8.2-73.35 13.6-109.87s16.27-73.67 40.72-101.31c14.32-16.19 32.59-28.32 51.17-39.3a621.17 621.17 0 0 1 59.44-30.92c12.34-5.62 25.1-10.87 38.58-12.37s28 1.25 38.24 10.08c9 7.75 13 20 12 31.78.17 1.14.34 2.32.44 3.49Z" opacity=".32"></path><path fill="#020e49" d="m1341.76 1548.55.68 1.6c.12-.35.27-.71.42-1.07l22 10.45 39.8 65.41a55.63 55.63 0 0 0 13.26 14.92c1 8.31 1.94 16.57 2.71 24.83.11 1.2.24 2.4.34 3.6-6.24-1.08-11.69-2-13.94-2.63q-8.86-2.69-17.64-5.64a28.41 28.41 0 0 0 4.63-7.86c2.88-7.44 2.86-15.72 1.47-23.59a72.56 72.56 0 0 0-11-27.43c-11.86-17.79-31.67-30.45-41.27-49M1342 1551.6c.11-.42.23-.84.38-1.26-.27-.63-.57-1.26-.84-1.89" opacity=".71"></path><path fill="#e8635d" d="m1924.11 1805.13-15.14 25.97-104.01-71.42 5.16-13.33 113.99 58.78z" opacity=".3"></path><path fill="#fe8796" d="m1946.31 1767.08-22.2 38.05-15.14 25.97-104.01-71.42 5.16-13.33-3.85-1.98 4.35.72 135.69 21.99z" opacity=".3"></path><path fill="#003fc3" d="M3314.75 1273.31v707.58a130.41 130.41 0 0 1-108 128.44l-1 .17c-.59.1-1.16.19-1.75.27l-.88.13c-.71.1-1.43.21-2.14.29a123.29 123.29 0 0 1-13.25 1h-24.36L3161 2120l-83.11 311.41-5.68-.32h-.73q-7.44-.43-14.84-.94c-1.5-.09-3-.19-4.44-.3-4.5-.31-9-.63-13.48-1q-8.36-.63-16.71-1.36t-16.67-1.52q-8.27-.78-16.53-1.64a.9.9 0 0 1-.25 0q-6.49-.66-13-1.38a1.34 1.34 0 0 1-.3 0c-2.18-.23-4.35-.46-6.54-.71l-1.66-.19c-3.86-.42-7.75-.88-11.62-1.35s-7.91-.94-11.86-1.45c-.63-.06-1.28-.14-1.91-.23-5.64-.69-11.27-1.43-16.91-2.16s-11.24-1.52-16.88-2.3q-7.38-1-14.76-2.08l-3.82-.54q-13.78-2-27.5-4.15c-1.81-.27-3.64-.54-5.45-.84q-12.21-1.89-24.37-3.89-12.48-2-24.93-4.14h-.13c-119.06-20.16-237-45-356.1-63.22q-27-4.12-54.12-7.76c-12.05-1.59-24.09-3.13-36.18-4.54q-11.24-1.32-22.5-2.52l-.54-.06c-77.75-8.31-156.21-12.26-236-8.75 20.69-113.05 60.78-332.56 71.57-394.16 3.57-20.33 8-62.15 12.21-114.22 13.29-163.34 24.83-427.48 2.51-445l-243.23 188-28.26-11.42-41.58-16.82a31.84 31.84 0 0 0-41 16.65l-23.55 53.22a87.34 87.34 0 0 0-5.7 52.85c.3 1.54.65 3.07 1 4.6l1.83 7-84.07 65-10.43 8c-.11-.86-.17-1.3-.17-1.3-3.59.59-7.38 1.07-11.31 1.51-2.38.26-4.79.49-7.27.7-.15-.61-.3-1.22-.47-1.81-1.15-4.21-2.9-8-6.41-10.62-3.26-2.44-7.42-3.28-11.46-4q-10.93-2-21.93-3.66a330.32 330.32 0 0 1 1.08-77.83l44.69-5.3a57.31 57.31 0 0 0 50-48.55 119 119 0 0 0-3.62-51c-.38-1.33-.8-2.65-1.24-4l-.61-1.8-13.35-40.1-2-5.92-2.41-7.24.84-2.42 21.82-62.08a18.33 18.33 0 0 0-7-21.23l-11.6-7.93 452.41-406.39a244 244 0 0 1 224.56-54.64l218.79-10.26 396.39-18.57 12.49 98.23a69.29 69.29 0 0 0 34.27 51.42l31.24 18 39.76 22.85 54.87 31.56a180.58 180.58 0 0 1 119.61 169.92Z"></path><path fill="#03157a" d="m2593.87 1877.88-143 457.73q-22.11-3.37-44.28-6.43l-9.84-1.33c-12.05-1.59-24.09-3.13-36.18-4.54l200.44-499 29.23 47.71Z" opacity=".3"></path><path fill="#03157a" d="m2593.87 1877.88-143 457.73q-22.11-3.37-44.28-6.43L2590.26 1872Z" opacity=".3"></path><path fill="#fff" d="m3100.49 1048.94-18.06 45.79-202.15 557.45-312.94 203.62s-103-555-98.81-578.16c3.17-17.51 100.39-244.76 147.4-354.09a170.87 170.87 0 0 0 24.6 38.29q1.95 2.29 4 4.54c2.63 2.84 5.38 5.61 8.28 8.32.72.7 1.46 1.35 2.19 2 44.22 39.88 103.21 37.44 154.13 7.76 45.87-26.74 112-67.05 154.17-100.37l59.18-2.78 12.52 98.25a69.39 69.39 0 0 0 34.27 51.42Z"></path><path fill="#fb4a44" d="m2768.12 1182-39 19.51-51.38 386.25-107.23 290.14-42-86.2-73.59-315.36s148.6-209 204.06-280.25l-29.05-41.82 57.18-32.19 66.35 20Z"></path><path fill="#fe241b" d="m2768.12 1181.98-39.02 19.51-49.28 24.64-20.9-30.06-29.05-41.82 57.18-32.19 66.35 19.97 14.72 39.95z"></path><path fill="#000060" d="M2556.55 1557.86c2.43 53.82 11.46 109.71 42.95 153.43 3 4.2 6.91 8.62 12.08 8.86 3.18.15 6.19-1.36 9-2.88 117.34-63.1 189.23-186 242.44-308.16s95.14-251.93 177.6-356.57c-18.23 227.07-105.17 444.26-220.57 640.67-28.43 48.4-59.48 96.72-103.48 131.57S2613 1879.27 2559.24 1863c-83-25.08-120.68-120.78-134.5-206.37-37.71-233.57 21.84-482.55 166.49-669.77 23.79-30.79 106.73-75.68 100.39-2-1.21 14.07-27.53 46.68-33.37 61.8-12.75 33-23.14 67.32-33.8 101.06-41.88 132.48-74.18 270.28-67.9 410.14Z" opacity=".1"></path><path fill="#f8bbc2" d="M2990.77 905.26 2732.38 1100s-46.82-87.3-72.87-130.4l51.85-39.9 80.71-59.41 182.09-134c-3.12 10.91-.47 78.31 11.37 143.3.95 5.19 2 10.38 3 15.51.74 3.39 1.47 6.8 2.24 10.16Z"></path><path fill="#f8bbc2" d="M3001.49 845.59c-2.93 5.6-8.43 12.16-15.92 19.37-.71.69-1.45 1.38-2.21 2.1-5.73 5.38-12.5 11.1-20 17.05-42.15 33.32-108.3 73.63-154.17 100.37-50.92 29.68-109.91 32.12-154.13-7.76-.73-.67-1.47-1.32-2.19-2-2.9-2.71-5.65-5.48-8.28-8.32q-2.08-2.25-4-4.54a170.87 170.87 0 0 1-24.6-38.29c-3-6.31-5.68-12.76-8.12-19.34-9-24.35-14.76-50.56-21.06-77.66-9.09-38.94-17.48-82.1-14.28-122.22 1.39-17.36 5.45-33.68 13.39-49.26 4.25-8.32 26.68-30.54 26.68-36.54V477.67l98.82-98.81 212.34-42.05S3096.1 519.72 3115 584.9s-88.28 212.34-113.51 260.69Z"></path><path fill="#e8635d" d="M2988.56 880.37c-38.31 37.17-111.6 87.82-160.82 120.32s-107.93 38.22-154.31.86a160.29 160.29 0 0 1-31.18-33.41l2.31-1.76c2.63 2.84 5.38 5.61 8.28 8.32.72.7 1.46 1.35 2.19 2 44.22 39.88 103.21 37.44 154.13 7.76 54.05-31.52 136.28-81.87 174.2-117.42.76-.72 1.5-1.41 2.21-2.1.93 5.17 1.94 10.32 2.99 15.43Z" opacity=".3"></path><path fill="#03157a" d="m2562.08 1825.32-157.68-79.9v-531.9l88.3-48.36-37.84-56.77 147.17-206 5.78 1.85c7.68 20.77 17.77 40.2 32.72 57.63-36.23 110.52-130.52 401.35-137.31 455.61-8.41 67.25 58.86 407.84 58.86 407.84Z"></path><g opacity=".38"><path fill="#003fc3" d="M2762.47 1114.7h326.19v10.51h-326.19z" transform="rotate(-40.61 2925.742 1119.964)"></path><path fill="#003fc3" d="m2718.15 1104.57-31.1 17.49-57.18 32.19-57.51 32.33-5.15-9.16 145.76-82.02 5.18 9.17z"></path></g><path fill="none" d="M2677.72 1173.57c-21 18.92-222.86 302.75-222.86 302.75l73.59 315.36 42 86.2 107.23-290.14 55.17-414.7Z"></path><path fill="#512d50" d="M3078.46 737.36c-16.26 23.7-33.56 46.61-50.55 68.54-.88 1.14-1.74 2.25-2.64 3.39-16.11 20.77-31.9 40.66-46.24 59.45-1 1.33-2 2.65-3 4q7.47-75.15 15-150.25c2.27-22.79 1.38-40.5 4.14-57 2.65-15.91 8.68-30.67 24.26-47.79-14.91-9.56-30.3-19.63-39.55-34.75-.59-1-1.13-1.91-1.66-2.86-23.42-41.84 2.1-78.94-49.7-106.91-14.38-7.75-30-11.75-45.85-15.43-19.3-4.5-38.83-8.47-56.47-18.16-.25-.13-.51-.28-.74-.42a98.285 98.285 0 0 1-7-4.31 162 162 0 0 0-15.33-9.21c-83.5-43.94-148.7 25.16-176.22 104.26a268.8 268.8 0 0 1-8.24 10.7q-4.51 5.55-9.42 10.74c-.15-2.14-.3-4.31-.44-6.45q-1.45-22.39-1-44.87.21-13.53 1.13-27c8.24-122.88 149.76-189.57 256-201.36 37.89-4.21 197.63-2.09 275.42 159.78 50.79 105.91 2.54 212.04-61.9 305.91Z"></path><path fill="#020e49" d="M3084.41 709.17a95.81 95.81 0 0 1-5.95 28.19c-16.26 23.7-33.56 46.61-50.55 68.54-.88 1.14-1.74 2.25-2.64 3.39l-1.08 1.26c-15.66 18.81-30.4 38.64-45.16 58.19-1 1.33-2 2.65-3 4q7.47-75.15 15-150.25c2.27-22.79 1.38-40.5 4.14-57 2.65-15.91 8.68-30.67 24.26-47.79-14.91-9.56-30.3-19.63-39.55-34.75-.59-1-1.13-1.91-1.66-2.86-23.42-41.84 2.1-78.94-49.7-106.91-14.38-7.75-30-11.75-45.85-15.43-19.3-4.5-38.83-8.47-56.47-18.16-.25-.13-.51-.28-.74-.42a32.83 32.83 0 0 1-.52-4c34.33 16.55 78 3.09 113.4 18.52 24.68 10.77 42.13 35.34 46.8 61.88 5.63 32.1.65 56 28.55 78.82 31.37 25.65 64.54 56.07 70.07 97.82a94.17 94.17 0 0 1 .65 16.96Z" opacity=".32"></path><path fill="#512d50" d="M2626.84 529.94a258.27 258.27 0 0 0-13.33 60.11q-2.84-19.24-4.33-38.67a216.73 216.73 0 0 0 17.66-21.44Z"></path><path fill="#f8bbc2" d="M3045.17 667.39c16.25 11.92 20.35 35.54 14.38 54.79s-20 34.88-34.66 48.69-30.57 26.69-42.07 43.24c.74-27.85-23-209.34 62.35-146.72Z"></path><path fill="#e8635d" d="m2798.6 886.59-5.48 8a94.52 94.52 0 0 1-6.5 8.37 84.67 84.67 0 0 1-7.5 7.54 77.46 77.46 0 0 1-18.58 12.12 62.79 62.79 0 0 1-23.19 5.82 49.69 49.69 0 0 1-24.25-4.91l.29-.89c2 .34 3.87.58 5.76.74a54.66 54.66 0 0 0 16.44-1 64.23 64.23 0 0 0 18.85-7.6 97.47 97.47 0 0 0 10.29-7c2-1.5 3.86-3.06 5.73-4.66.25-.2.48-.41.72-.61q3.41-2.91 6.61-6l.6-.58c-1.69-.16-3.37-.35-5.06-.55-5.34-.64-10.6-1.53-15.81-2.53-10.42-2-20.69-4.51-30.89-7.19s-20.31-5.68-30.38-8.75l-5.59-1.72c-8.17-2.56-16.33-5.23-24.42-8.06l.28-.89q15.22 4 30.5 7.62c10.17 2.43 20.38 4.65 30.59 6.76s20.43 4 30.59 5.44c5.08.74 10.16 1.36 15.17 1.72a80.67 80.67 0 0 0 14.42 0Z" opacity=".75"></path><path fill="#003fc3" d="M3314.75 1615.83v365.06a130.2 130.2 0 0 1-130.35 130.35h-21l-2.4 8.76-601.31-219.26-62.82-22.89L2602 1711.79l97.64 13.28 112.16 15.27 191.76 26.11-2.1-164Z"></path><path fill="#f8bbc2" d="M2343.93 1781a114.16 114.16 0 0 0 110.75 46.39 26.38 26.38 0 0 1 14.82 2l92.11 41.39 39.92-109.84-38.88-25.54-23-60.07a81.14 81.14 0 0 0-34.45-40.8l-46.4-27.42a29.48 29.48 0 0 0-39.89 9.55l-76.24 119.94a39.77 39.77 0 0 0 1.26 44.4Z"></path><path fill="#03157a" d="M3140.25 1071.79v183.77l-82 42v119.84s-152.09 203.11-246.42 322.89l-112.16-15.27c73.29-109.15 211.16-318.81 221.93-366.49 14.71-65.17 125.09-347.95 125.09-347.95l.48.28a69.94 69.94 0 0 0 22.08 20.07l31.24 18Z"></path><path fill="#000060" d="m2619.65 1873-47.71 36.9a211.52 211.52 0 0 1 47.71-36.9Z" opacity=".1"></path><path fill="#03157a" d="m2630.41 2164.85 23.81-2.95 348.32-43.3-1.9 6a57.81 57.81 0 0 1-55.09 40.27Z"></path><path fill="#03157a" d="M2974.42 2142.24a135.82 135.82 0 0 1-51.68 66.4 171.69 171.69 0 0 1-17.25 10.07c-88.34 45.43-205.38 26.15-274.48-45.21" opacity=".3"></path><path fill="#03157a" d="M2559.73 1900.77 3161 2120l-83.11 311.41-5.68-.32c-.16-53.06-3.21-106.17-17.05-157.21-17.51-64.61-54.49-126.55-112.2-160.46-59.18-34.79-131.59-36.29-197-57.14-67.38-20.91-167.65-79.59-186.23-155.51ZM2769.15 1745l125.26-18.88a116.9 116.9 0 0 0 99.45-118.29l-1.83-80 16.82 216.54ZM1720.89 1711.34c-6.43 5-12.93 9.8-19.49 14.57q-7.15 5.21-14.42 10.28l6.68-11.39 29.14-49.55a70.66 70.66 0 0 0-3.21 11.58 53.38 53.38 0 0 0 1.3 24.51ZM1745.17 1637.17l-22.37 38.08c5.03-13.71 13.79-26.1 22.37-38.08ZM1805.55 1645.66l1.83 7-84.07 65a48.37 48.37 0 0 1-2.42-6.31c28.84-22.07 56.53-45.77 83.61-70.28.3 1.53.65 3.06 1.05 4.59Z" opacity=".3"></path><path fill="#03157a" d="M2185.35 1803.6c13.29-163.34 24.83-427.48 2.51-445l-243.23 188-28.26-11.42c85.91-82.35 173.13-162 279.9-212.7 40.24 156.97 20.73 320.62-10.92 481.12Z" opacity=".5"></path><path fill="#03157a" d="M2340.73 2259.64c9.17 16.74 14.63 33.62 6.1 46.47-22.76 34.31-201 3.92-245.26 5.87 20.69-113.05 60.78-332.56 71.57-394.16 3.57-20.33 8-62.15 12.21-114.22 13.29-163.34 24.83-427.48 2.51-445l-243.23 188-28.26-11.42-41.58-16.82a31.84 31.84 0 0 0-41 16.65l-23.55 53.22a87.34 87.34 0 0 0-5.7 52.85c.3 1.54.65 3.07 1 4.6l1.83 7-84.07 65-10.43 8c-.11-.86-.17-1.3-.17-1.3-3.59.59-7.38 1.07-11.31 1.51-2.38.26-4.79.49-7.27.7-.15-.61-.3-1.22-.47-1.81-1.15-4.21-2.9-8-6.41-10.62-3.26-2.44-7.42-3.28-11.46-4q-10.93-2-21.93-3.66a330.32 330.32 0 0 1 1.08-77.83l44.69-5.3a57.31 57.31 0 0 0 50-48.55 119 119 0 0 0-3.62-51c-.38-1.33-.8-2.65-1.24-4l-.61-1.8-13.35-40.1-2-5.92-2.41-7.24.84-2.42c15.28 20.92 24.64 53.7 44.44 64 24.41 12.74 68.23-10.47 94.7-21.4a651.42 651.42 0 0 0 179.2-110.8c25.4-22.11 49.43-46.5 79.08-62.5s66.92-22.48 96.79-6.92c28.38 14.82 44.09 45.73 56.37 75.31 68 163.94 86 348.2 51.07 522.21-12.22 60.83-37.3 116.06-38.09 179.46-.46 36.75 5.48 74.13 19.61 108.19 5.19 12.54 20.08 31.11 30.33 49.75Z" opacity=".3"></path><path fill="#e8635d" d="M3036.92 677c-8.68 2-16.68 6.7-23.69 12.13s-13.82 11.42-19 18.89c-10.53 14.69-15.46 33.33-13 50.83a84.44 84.44 0 0 1 4.63-25.56 80.81 80.81 0 0 1 12-22.57c4.94-6.94 11.63-12.37 18.15-18.19a138.43 138.43 0 0 1 20.91-15.53Z" opacity=".67"></path><path fill="#e8635d" d="M2985.43 733a53.31 53.31 0 0 0 44 6.81 50.88 50.88 0 0 1-41.12-10.64 2.39 2.39 0 0 0-3.05 3.67Z" opacity=".67"></path><path fill="#fe8796" d="M3019.4 617.71c-15.58 17.12-21.61 31.88-24.26 47.79-3.45 3.68-7 7.25-10.45 10.79q-29.55-60.18-59.14-120.35c-12.91-26.25-25.59-56-45.71-77.74-15.28-16.51-38.91-23.63-60.36-28.72-51.72-12.26-105.31-16-147.44 22.85-17.93 16.57-30.7 37.87-45.18 57.59 29.18-83.87 100.73-156.53 191.57-95 33.49 22.66 75.5 19.7 110.06 38.32 53 28.6 25.08 66.76 51.36 109.77 9.25 15.07 24.64 25.14 39.55 34.7Z" opacity=".3"></path><path fill="#020e49" d="M2803.08 425.66c-83.5-43.94-148.7 25.16-176.22 104.26a268.8 268.8 0 0 1-8.24 10.7 35.89 35.89 0 0 1-.7-4.82c-1.83-21.65 10.3-49.82 20.77-68.11 16.7-29.1 44.34-52.5 76.85-60.74 30.04-7.59 63.93-1.12 87.54 18.71ZM2849.38 450.34l11.41 3.83a76.47 76.47 0 0 1-11.41-3.83ZM2978.19 580.1c-23.42-41.84 2.1-78.94-49.7-106.91-14.38-7.75-30-11.75-45.85-15.43 9.27.91 18.69 1.37 27.92 2.42 20.6 2.4 42.8 9.36 53.65 27 9.36 15.26 7.93 34.41 8.54 52.28a206.6 206.6 0 0 0 5.44 40.64Z" opacity=".71"></path><path fill="#020e49" d="M2826.17 439.6c-2.63-1.45-5.22-3-7.74-4.73a162 162 0 0 0-15.33-9.21c-83.5-43.94-148.7 25.16-176.22 104.26a268.8 268.8 0 0 1-8.24 10.7q-4.51 5.55-9.42 10.74c-.15-2.14-.3-4.31-.44-6.45q-1.45-22.39-1-44.87c6.18-22.73 15.34-44.91 24.4-66.69 5.11-12.27 10.35-24.76 19-34.83 8.12-9.42 18.8-16.21 29.69-22.23 25.94-14.36 58.28-25 84.56-11.22 18.08 9.48 53.97 45.28 60.74 74.53Z" opacity=".32"></path><path fill="#020e49" d="M2824.91 435.14c-1.35-.65-2.7-1.35-4-2.1l4.67-7.65a32.71 32.71 0 0 0-.67 9.75Z" opacity=".32"></path><circle cx="413.94" cy="2161.74" r="31.96" fill="#1f60e5" opacity=".28" transform="rotate(-14.94 413.944 2161.664)"></circle><circle cx="504.63" cy="2423.59" r="26.91" fill="#1f60e5" opacity=".57" transform="rotate(-31.32 504.77 2423.864)"></circle><circle cx="736.16" cy="2691.41" r="17.66" fill="#ffb600" opacity=".35" transform="rotate(-48.45 736.192 2691.444)"></circle><circle cx="3942.58" cy="2486.87" r="17.66" fill="#ffb600" opacity=".72" transform="rotate(-85.88 3942.621 2486.868)"></circle><circle cx="4220.54" cy="2325.66" r="18.5" fill="#1f60e5" opacity=".28" transform="rotate(-54.48 4220.27 2325.652)"></circle><circle cx="4312.03" cy="1930.16" r="22.71" fill="#ffb600" opacity=".54" transform="rotate(-44.11 4312.137 1930.17)"></circle><path fill="#fff" d="m3849.55 1823.24-2.1 36.16a292 292 0 0 1-198 259.73l-13.06 4.41 3.58-41.75a292 292 0 0 1 171.86-241.71ZM3524.21 2197.58l31.6-10.11a269.87 269.87 0 0 1 288.29 83.21l8.15 9.66-36.87 10.66a269.87 269.87 0 0 1-264.12-66.86Z"></path><path fill="#fff" d="m3849.55 1823.24-2.1 36.16a292 292 0 0 1-198 259.73l-13.06 4.41 3.58-41.75a292 292 0 0 1 171.86-241.71Z" opacity=".54"></path><path fill="#fff" d="m3524.21 2197.58 31.6-10.11a269.87 269.87 0 0 1 288.29 83.21l8.15 9.66-36.87 10.66a269.87 269.87 0 0 1-264.12-66.86ZM4104.93 2046.67l-28.36 22.53a292 292 0 0 1-325.57 25.4l-12-6.8 33.51-25.15a292 292 0 0 1 294.75-32.9Z"></path><path fill="#fff" d="m4104.93 2046.67-28.36 22.53a292 292 0 0 1-325.57 25.4l-12-6.8 33.51-25.15a292 292 0 0 1 294.75-32.9ZM3849.55 1823.24l-2.1 36.16a292 292 0 0 1-198 259.73l-13.06 4.41 3.58-41.75a292 292 0 0 1 171.86-241.71ZM3415.54 2238.14l8.52 39.57 10.29-8.75c48.69-41.35 82.91-96.69 99.51-156.6a.42.42 0 0 0 0-.19c13.74-49.67 15.36-102.48 3.09-153l-8.25-33.93-28.67 29.09a311.28 311.28 0 0 0-31.77 37.8c-50.77 71.08-70.86 161.49-52.72 246.01ZM3524.2 2197.59l27 26.58a269.7 269.7 0 0 0 264.18 66.83l36.87-10.68-8.15-9.67a269.92 269.92 0 0 0-189.87-95.49s-.05 0-.08 0a268 268 0 0 0-98.33 12.27Z"></path><path fill="#fe7101" d="M3343.2 2394.31c2.81.26 5.64.49 8.47.73a448.82 448.82 0 0 1 40.79-67.71c1.79-2.48 3.6-4.94 5.46-7.37a507.51 507.51 0 0 1 42-48.7 609.2 609.2 0 0 1 85.67-72.29c1.66-1.19 3.3-2.32 5-3.43 54.69-37.8 111.87-65.81 162-86 7.57-3.05 15-6 22.47-8.78q14.54-5.46 28.58-10.29c11.74-4.06 23.2-7.79 34.29-11.19 85.75-26.45 149.48-34.85 150.31-34.95a4 4 0 1 0-1-7.89c-.85.1-63.64 8.37-148.59 34.29q-14.32 4.38-29.44 9.43c-2.9 1-5.81 2-8.74 3q-12.36 4.26-25.13 9t-25.57 9.91c-.05 0-.08.06-.13.05q-19.3 7.8-37.76 16.2c-58.69 26.62-111 57.6-156 92.38q-11.25 8.72-21.89 17.75-18.11 15.35-34.35 31.6-8.17 8.1-15.88 16.47a514 514 0 0 0-35 42.22q-2.76 3.72-5.41 7.48a462.59 462.59 0 0 0-40.05 67.7 2.29 2.29 0 0 0-.1.39Z" opacity=".78"></path><path fill="#fe7101" d="m3849.27 1830.94-2.09 36.16a292 292 0 0 1-198 259.73l-13.05 4.41 3.57-41.75a292 292 0 0 1 171.87-241.71Z" opacity=".69"></path><path fill="#fe7101" d="m3415.54 2238.14 8.52 39.57 10.29-8.75c48.69-41.35 82.91-96.69 99.51-156.6a.42.42 0 0 0 0-.19 324.18 324.18 0 0 0-1.9-142.25l-8.83-36.35-30.69 31.15a332.89 332.89 0 0 0-24.18 27.4c-50.77 71.09-70.86 161.5-52.72 246.02Z" opacity=".44"></path><path fill="#fe7101" d="m3537.61 2198.06 27 26.59a246.33 246.33 0 0 0 250.77 66.35l36.87-10.68-8.15-9.67a269.92 269.92 0 0 0-189.87-95.49s-.05 0-.08 0a268 268 0 0 0-84.92 12.75Z" opacity=".43"></path><path fill="#fff" d="m4104.93 2046.67-28.36 22.53a292 292 0 0 1-325.57 25.4l-12-6.8 33.51-25.15a292 292 0 0 1 294.75-32.9Z"></path><path fill="#fe7101" d="m4104.93 2046.67-28.36 22.53a292 292 0 0 1-325.57 25.4l-12-6.8 33.51-25.15a292 292 0 0 1 294.75-32.9Z" opacity=".45"></path><path fill="#fff" d="M1299.44 2517.78c-3.52 1.22-7 2.47-10.54 3.69l-1 .36s-.06-.05-.08 0c-2.19-.65-4.87-1.42-8-2.28-3.29-.89-7.07-1.87-11.31-2.92-.52-.12-1-.24-1.59-.39a548.64 548.64 0 0 0-112.67-14.92c-12.08-.31-24.62-.2-37.44.51a416 416 0 0 0-58.63 7.33c-3 .59-6 1.22-8.94 1.9a348.93 348.93 0 0 0-58.1 18.4 318.94 318.94 0 0 0-45.6 23.39q-6.07 3.78-12.11 7.92a307 307 0 0 0-25.57 19.59c-28.26 24.07-54.48 55.12-76.51 95a4 4 0 0 1-3 2 .82.82 0 0 1-.27 0 3.84 3.84 0 0 1-2.14-.46 3.69 3.69 0 0 1-1.48-1.45 4 4 0 0 1-.07-3.95c20.11-36.33 44.54-67.39 73-92.87a314.36 314.36 0 0 1 63.42-44.06 325.4 325.4 0 0 1 32.2-14.78 353.15 353.15 0 0 1 50.16-15.66c3-.7 6-1.38 9-2a424.61 424.61 0 0 1 64.51-8.3c9.42-.51 18.71-.72 27.78-.65a550.67 550.67 0 0 1 117.41 13.7c2.6.59 5.11 1.18 7.44 1.75s4.33 1.06 6.31 1.57c2.89.75 5.54 1.44 7.89 2.1 8.9 2.46 13.91 4.15 14.1 4.21a4.06 4.06 0 0 1 1.83 1.27Z"></path><path fill="#fff" d="m832.3 2664.33-21.64 13a205.14 205.14 0 0 0-97.41 206.24l1.42 9.5 24.62-15.66a205.15 205.15 0 0 0 94.59-184.24ZM943.6 2548.26l-15.88 19.59A205.13 205.13 0 0 0 907.19 2795l4.6 8.44 17.73-23.17A205.17 205.17 0 0 0 955 2574.75Z"></path><path fill="#fe7101" d="m943.6 2548.26-15.88 19.59A205.13 205.13 0 0 0 907.19 2795l4.6 8.44 17.73-23.17A205.17 205.17 0 0 0 955 2574.75Z" opacity=".28"></path><path fill="#fe7101" d="M1299.44 2517.78c-3.52 1.22-7 2.47-10.54 3.69l-1 .36s-.06-.05-.08 0c-2.19-.65-4.87-1.42-8-2.28-3.29-.89-7.07-1.87-11.31-2.92-.52-.12-1-.24-1.59-.39a548.64 548.64 0 0 0-112.67-14.92c-12.08-.31-24.62-.2-37.44.51a416 416 0 0 0-58.63 7.33c-3 .59-6 1.22-8.94 1.9a348.93 348.93 0 0 0-58.1 18.4 318.94 318.94 0 0 0-45.6 23.39q-6.07 3.78-12.11 7.92a307 307 0 0 0-25.57 19.59c-28.26 24.07-54.48 55.12-76.51 95a4 4 0 0 1-3 2 .82.82 0 0 1-.27 0 3.84 3.84 0 0 1-2.14-.46 3.69 3.69 0 0 1-1.48-1.45 4 4 0 0 1-.07-3.95c20.11-36.33 44.54-67.39 73-92.87a314.36 314.36 0 0 1 63.42-44.06 325.4 325.4 0 0 1 32.2-14.78 353.15 353.15 0 0 1 50.16-15.66c3-.7 6-1.38 9-2a424.61 424.61 0 0 1 64.51-8.3c9.42-.51 18.71-.72 27.78-.65a550.67 550.67 0 0 1 117.41 13.7c2.6.59 5.11 1.18 7.44 1.75s4.33 1.06 6.31 1.57c2.89.75 5.54 1.44 7.89 2.1 8.9 2.46 13.91 4.15 14.1 4.21a4.06 4.06 0 0 1 1.83 1.27Z" opacity=".21"></path><path fill="#fe7101" d="m832.3 2664.33-21.64 13a205.14 205.14 0 0 0-97.41 206.24l1.42 9.5 24.62-15.66a205.15 205.15 0 0 0 94.59-184.24Z" opacity=".42"></path><path fill="#fff" d="M1125.41 2627.83c-3.42-.41-6.87-.82-10.29-1.26a446.72 446.72 0 0 0-36.42-48.22c-2-2.34-4-4.64-6.06-6.89a507 507 0 0 0-46-45 609.81 609.81 0 0 0-91.4-64.86c-1.75-1.05-3.47-2.05-5.24-3-57.62-33.12-117-56.22-168.51-72.21-7.81-2.39-15.51-4.71-23.14-6.86-9.94-2.81-19.74-5.44-29.32-7.86-12-3.09-23.76-5.83-35.09-8.31-4.26-.94-8.47-1.82-12.62-2.68-81.15-16.78-139.31-19.53-140.09-19.59a4 4 0 1 1 .33-7.94c.81.05 57.2 2.7 136.47 18.73 4.75 1 9.55 2 14.46 3 9.78 2.13 19.83 4.42 30.15 7 3 .69 5.9 1.45 8.92 2.21q8.52 2.14 17.26 4.55c2.83.75 5.67 1.55 8.53 2.35q13 3.61 26.27 7.74s.07 0 .07 0a.11.11 0 0 0 .07 0q19.88 6.17 39 13c5.3 1.91 10.57 3.82 15.78 5.82 54.44 20.49 103.82 45 147.34 73.21q12 7.77 23.3 15.86s.05 0 .05 0q19.29 13.8 36.82 28.6 8.82 7.41 17.19 15.08a518.09 518.09 0 0 1 38.38 39.16c2.05 2.32 4.05 4.65 6 7a468.1 468.1 0 0 1 37.79 51.37ZM3775.31 2441.92a4.87 4.87 0 0 1-4.21-1.59 265.22 265.22 0 0 0-32.28-30.58c-87.65-69.95-205.46-69.28-288.89-56.36-90.78 14-161.46 45.11-162.16 45.42a4.87 4.87 0 1 1-4-8.9c.72-.32 72.59-31.92 164.64-46.15 85.32-13.15 206-13.77 296.45 58.38a275.59 275.59 0 0 1 33.46 31.7 4.87 4.87 0 0 1-.38 6.87 4.94 4.94 0 0 1-2.63 1.21Z"></path><path fill="#fff" d="M3573.52 2560.36s-2.23-174.2-190.71-202.08c0 0-21.81 159.47 190.71 202.08ZM3764.52 2203s-169.16-41.65-243.55 133.75c.03.01 148.87 61.25 243.55-133.75ZM3706.33 2409c2.65-13.51 183.21 25.74 149.43 207.82 0-.03-183.91-32.42-149.43-207.82Z"></path><g opacity=".78"><path fill="#fe7101" d="M3775.31 2441.92a4.87 4.87 0 0 1-4.21-1.59 265.22 265.22 0 0 0-32.28-30.58c-87.65-69.95-205.46-69.28-288.89-56.36-90.78 14-161.46 45.11-162.16 45.42a4.87 4.87 0 1 1-4-8.9c.72-.32 72.59-31.92 164.64-46.15 85.32-13.15 206-13.77 296.45 58.38a275.59 275.59 0 0 1 33.46 31.7 4.87 4.87 0 0 1-.38 6.87 4.94 4.94 0 0 1-2.63 1.21Z"></path><path fill="#fe7101" d="M3573.52 2560.36s-2.23-174.2-190.71-202.08c0 0-21.81 159.47 190.71 202.08Z" opacity=".61"></path><path fill="#fe7101" d="M3764.52 2203s-169.16-41.65-243.55 133.75c.03.01 148.87 61.25 243.55-133.75Z"></path><path fill="#fe7101" d="M3702.49 2377c2.66-13.51 183.21 25.74 149.44 207.82 0-.03-183.93-32.42-149.44-207.82Z" opacity=".42"></path></g><path fill="#fff" d="M3371.76 2190.93c.22 1.82.43 3.81.66 5.91 3.14 30 7.41 84.85 3.86 139.66-.35 5.57-.79 11.17-1.34 16.72-.18 2.08-.4 4.12-.61 6.18-.39 3.49-.79 7-1.25 10.41a319 319 0 0 1-10.85 51.94c-.3.91-.56 1.79-.87 2.7q-31.74 5.3-63.89 8.46-3 .18-6 .28-4.7.24-9.41.4h-.82c-2.44.1-4.9.17-7.37.25l-5.51.15q-3.92.11-7.84.16c-6.85.15-13.65.21-20.44.22h-6.55c-2.6 0-5.19 0-7.79-.06h-1.41c-.52 1.11-1.05 2.19-1.55 3.29-.48 0-1 0-1.44.05.51-1.12 1.06-2.23 1.58-3.36-3.28 0-6.53-.09-9.79-.14-2.67 0-5.33-.11-7.95-.19-2.87-.06-5.72-.13-8.55-.23-2 0-4-.13-6-.21q-4.31-.13-8.62-.34c-32.4-1.38-63.46-3.89-92.28-7.18-.39 0-.76-.08-1.13-.13 27.87-74.63 104.3-206.12 281-252.53 0 0 .32 2 .79 5.75l.29 2.39c.32 2.52.65 5.65 1.08 9.45Z"></path><path fill="#fff" d="M3371.76 2190.93c.22 1.82.43 3.81.66 5.91 3.14 30 7.41 84.85 3.86 139.66-.35 5.57-.79 11.17-1.34 16.72-.18 2.08-.4 4.12-.61 6.18-.39 3.49-.79 7-1.25 10.41a319 319 0 0 1-10.85 51.94c-.3.91-.56 1.79-.87 2.7q-31.74 5.3-63.89 8.46-3 .18-6 .28-4.7.24-9.41.4h-.82c-2.44.1-4.9.17-7.37.25l-5.51.15q-3.92.11-7.84.16c-6.85.15-13.65.21-20.44.22h-6.55c-2.6 0-5.19 0-7.79-.06h-1.41c-.52 1.11-1.05 2.19-1.55 3.29-.48 0-1 0-1.44.05.51-1.12 1.06-2.23 1.58-3.36 48-101.95 105.89-194 147.46-255.18l.29 2.39c.33 2.5.66 5.63 1.09 9.43Z" opacity=".56"></path><path fill="#ffb600" d="M3371.76 2190.93c.22 1.82.43 3.81.66 5.91 3.15 28.9 7.61 83.69 4.36 138.92-.34 5.49-.75 11-1.23 16.49-.2 2.35-.43 4.71-.66 7-.36 3.49-.76 7-1.2 10.38-2.39 19.13-6 37.68-11.17 54.5-.31.91-.57 1.79-.87 2.7q-8.7 1.46-17.4 2.72a.11.11 0 0 1-.12 0l-7.15.64-.43.06-7.88.65c-3.22.24-6.42.48-9.62.69-5.44.39-10.85.72-16.27 1-1.79.09-3.54.21-5.31.27q-3 .18-6 .28-4.7.24-9.41.4h-.82c-2.44.1-4.9.17-7.37.25l-5.51.15q-3.92.11-7.84.16c-6.85.15-13.65.21-20.44.22h-6.55c-2.6 0-5.19 0-7.79-.06h-1.41c-.52 1.11-1.05 2.19-1.55 3.29-.48 0-1 0-1.44.05.51-1.12 1.06-2.23 1.58-3.36-3.28 0-6.53-.09-9.79-.14-2.67 0-5.33-.11-7.95-.19-2.87-.06-5.72-.13-8.55-.23-2 0-4-.13-6-.21q-4.31-.13-8.62-.34c-32.4-1.38-63.46-3.89-92.28-7.18 28.58-75 105.24-204.34 280.16-250.27 0 0 .19 1.16.48 3.38.05.48.12 1 .2 1.53l.11.84c.32 2.57.65 5.7 1.08 9.5Z" opacity=".67"></path><path fill="#fe7101" d="M3371.76 2190.93c.22 1.82.43 3.81.66 5.91 3.15 28.9 7.61 83.69 4.36 138.92-.34 5.49-.75 11-1.23 16.49-.2 2.35-.43 4.71-.66 7-.36 3.49-.76 7-1.2 10.38-2.39 19.13-6 37.68-11.17 54.5-.31.91-.57 1.79-.87 2.7q-8.7 1.46-17.4 2.72a.11.11 0 0 1-.12 0l-7.15.64-.43.06-7.88.65c-3.22.24-6.42.48-9.62.69-5.44.39-10.85.72-16.27 1-1.79.09-3.54.21-5.31.27q-3 .18-6 .28-4.7.24-9.41.4h-.82c-2.44.1-4.9.17-7.37.25l-5.51.15q-3.92.11-7.84.16c-6.85.15-13.65.21-20.44.22h-6.55c-2.6 0-5.19 0-7.79-.06h-1.41c47.8-101 105.12-192.13 146.36-252.81.31 2.55.64 5.68 1.07 9.48Z" opacity=".5"></path><path fill="#fff" d="m581.09 2114.18 5.11 35.82a291.93 291.93 0 0 0 219 242.27l13.38 3.31-7.05-41.3a292 292 0 0 0-191.43-226.47ZM936.57 2460l-32.34-7.44a269.9 269.9 0 0 0-280.33 107l-7.31 10.31 37.63 7.57a269.91 269.91 0 0 0 257.62-88.69Z"></path><path fill="#fff" d="m581.09 2114.18 5.11 35.82a291.93 291.93 0 0 0 219 242.27l13.38 3.31-7.05-41.3a292 292 0 0 0-191.43-226.47Z" opacity=".54"></path><path fill="#fff" d="m936.57 2460-32.34-7.44a269.9 269.9 0 0 0-280.33 107l-7.31 10.31 37.63 7.57a269.91 269.91 0 0 0 257.62-88.69ZM345.27 2358.16l30.14 20.09a292 292 0 0 0 326.61-1.9l11.37-7.77-35.49-22.27a292 292 0 0 0-296.47-8.15Z"></path><path fill="#fff" d="m345.27 2358.16 30.14 20.09a292 292 0 0 0 326.61-1.9l11.37-7.77-35.49-22.27a292 292 0 0 0-296.47-8.15ZM581.09 2114.18l5.11 35.82a291.93 291.93 0 0 0 219 242.27l13.38 3.31-7.05-41.3a292 292 0 0 0-191.43-226.47ZM1048.24 2491.37l-5.18 40.14-11-7.85c-52-37.14-90.69-89.43-112.24-147.74a.67.67 0 0 1-.05-.19c-17.84-48.35-23.87-100.84-15.86-152.22l5.38-34.5 31 26.59a311.89 311.89 0 0 1 34.82 35c56.57 66.61 84.15 155.03 73.13 240.77ZM936.58 2460l-24.73 28.75a269.75 269.75 0 0 1-257.63 88.69l-37.63-7.56 7.31-10.32a270 270 0 0 1 181.23-111h.07a268.17 268.17 0 0 1 99 4Z"></path><path fill="#fe7101" d="M1125.41 2627.83c-3.42-.41-6.87-.82-10.29-1.26a446.72 446.72 0 0 0-36.42-48.22c-2-2.34-4-4.64-6.06-6.89a507 507 0 0 0-46-45 609.81 609.81 0 0 0-91.4-64.86c-1.75-1.05-3.47-2.05-5.24-3-57.62-33.12-117-56.22-168.51-72.21-7.81-2.39-15.51-4.71-23.14-6.86-9.94-2.81-19.74-5.44-29.32-7.86-12-3.09-23.76-5.83-35.09-8.31-4.26-.94-8.47-1.82-12.62-2.68-81.15-16.78-139.31-19.53-140.09-19.59a4 4 0 1 1 .33-7.94c.81.05 57.2 2.7 136.47 18.73 4.75 1 9.55 2 14.46 3 9.78 2.13 19.83 4.42 30.15 7 3 .69 5.9 1.45 8.92 2.21q8.52 2.14 17.26 4.55c2.83.75 5.67 1.55 8.53 2.35q13 3.61 26.27 7.74s.07 0 .07 0a.11.11 0 0 0 .07 0q19.88 6.17 39 13c5.3 1.91 10.57 3.82 15.78 5.82 54.44 20.49 103.82 45 147.34 73.21q12 7.77 23.3 15.86s.05 0 .05 0q19.29 13.8 36.82 28.6 8.82 7.41 17.19 15.08a518.09 518.09 0 0 1 38.38 39.16c2.05 2.32 4.05 4.65 6 7a468.1 468.1 0 0 1 37.79 51.37Z" opacity=".32"></path><path fill="#fe7101" d="m582 2121.83 5.1 35.86a292 292 0 0 0 219 242.27l13.37 3.31-7-41.3A292 292 0 0 0 621 2135.46Z" opacity=".42"></path><path fill="#fe7101" d="m1048.24 2491.37-5.18 40.14-11-7.85c-52-37.14-90.69-89.43-112.24-147.74a.67.67 0 0 1-.05-.19c-13.57-45.77-17.41-94.28-10-141.91l5.75-37 33.19 28.47a333.71 333.71 0 0 1 26.38 25.28c56.59 66.64 84.17 155.06 73.15 240.8Z" opacity=".17"></path><path fill="#fe7101" d="m923.25 2461.63-24.73 28.76a270.15 270.15 0 0 1-165.91 91.16 267.68 267.68 0 0 1-78.39-4.07l-37.63-7.56 7.31-10.32a270 270 0 0 1 181.23-111h.07a268.07 268.07 0 0 1 85.69 5.62Z" opacity=".43"></path><path fill="#fff" d="m345.27 2358.16 30.14 20.09a292 292 0 0 0 326.61-1.9l11.37-7.77-35.49-22.27a292 292 0 0 0-296.47-8.15Z"></path><path fill="#fe7101" d="m345.27 2358.16 30.14 20.09a292 292 0 0 0 326.61-1.9l11.37-7.77-35.49-22.27a292 292 0 0 0-296.47-8.15Z" opacity=".78"></path><path fill="#fff" d="M1453.55 2376.05q3.2 8.29 6 16.56c3.85 11.27 7.26 22.51 10.06 33.7.45 1.86.9 3.7 1.34 5.54.48 2.2 1 4.4 1.41 6.57.31 1.44.62 2.84.89 4.25.61 3.12 1.21 6.24 1.7 9.34q.23 1.11.39 2.25c.17 1 .31 2 .46 3 .23 1.49.46 3 .62 4.45.36 2.54.65 5.07.89 7.59.12 1 .22 2 .31 3.06.13 1.52.24 3 .35 4.46 0 .58.1 1.15.13 1.71.13 2.18.24 4.36.3 6.51-2.47 1.45-5 2.85-7.46 4.27q-4.53 2.57-9.08 5.08c-2.61 1.46-5.22 3-7.82 4.38l-2.22 1.25-.13.07q-9.48 5.32-19 10.57l-6.17 3.41-6.18 3.41-.26.14-6.58 3.57c-6.11 3.32-12.19 6.62-18.36 10-.76-.25-1.5-.51-2.25-.78q-36.56 16.7-74 31.3l-1-1.29-1.73-2.46q-3.09-4.36-6.36-9.21c-7.72-11.38-16-24.71-24.21-39.75-1.33-2.38-2.61-4.81-3.92-7.28a469.77 469.77 0 0 1-22.29-48.88c-2.63-6.82-5.16-13.85-7.55-21v-.05a401.38 401.38 0 0 1-16.25-68.35c-.18-1.13-.34-2.3-.5-3.45v-.06a354.64 354.64 0 0 1-.3-94.64q1.65-12.47 4.27-25.17v-.31c1.24-5.92 2.63-11.78 4.2-17.74 1-3.87 2.12-7.79 3.31-11.73 3.2-10.64 6.94-21.38 11.33-32.22a409.68 409.68 0 0 1 32.24-63.17s32.09 36.6 69.76 91c32.84 47.14 69.83 107.99 93.66 170.1Z"></path><path fill="#ffb600" d="M1453.55 2376.05q3.2 8.29 6 16.56c3.85 11.27 7.26 22.51 10.06 33.7.45 1.86.9 3.7 1.34 5.54.48 2.2 1 4.4 1.41 6.57.31 1.44.62 2.84.89 4.25.61 3.12 1.21 6.24 1.7 9.34q.23 1.11.39 2.25c.17 1 .31 2 .46 3 .23 1.49.46 3 .62 4.45.36 2.54.65 5.07.89 7.59.12 1 .22 2 .31 3.06.13 1.52.24 3 .35 4.46 0 .58.1 1.15.13 1.71.13 2.18.24 4.36.3 6.51-2.47 1.45-5 2.85-7.46 4.27q-4.53 2.57-9.08 5.08c-2.61 1.46-5.22 3-7.82 4.38l-2.22 1.25-.13.07q-9.48 5.32-19 10.57l-6.17 3.41-6.18 3.41-.26.14-6.58 3.57c-6.11 3.32-12.19 6.62-18.36 10-.76-.25-1.5-.51-2.25-.78q-36.56 16.7-74 31.3l-1-1.29-1.73-2.46q-3.09-4.36-6.36-9.21c-7.72-11.38-16-24.71-24.21-39.75-1.33-2.38-2.61-4.81-3.92-7.28a469.77 469.77 0 0 1-22.29-48.88c-2.63-6.82-5.16-13.85-7.55-21v-.05a401.38 401.38 0 0 1-16.25-68.35c-.18-1.13-.34-2.3-.5-3.45v-.06a354.64 354.64 0 0 1-.3-94.64q1.65-12.47 4.27-25.17v-.31c1.24-5.92 2.63-11.78 4.2-17.74 1-3.87 2.12-7.79 3.31-11.73 3.2-10.64 6.94-21.38 11.33-32.22a409.68 409.68 0 0 1 32.24-63.17s32.09 36.6 69.76 91c32.84 47.14 69.83 107.99 93.66 170.1Z" opacity=".36"></path><path fill="#ffb600" d="M1473.28 2442.67c.61 3.12 1.21 6.24 1.7 9.34q.23 1.11.39 2.25c.17 1 .31 2 .46 3 .23 1.49.46 3 .62 4.45.36 2.54.65 5.07.89 7.59.12 1 .22 2 .31 3.06.13 1.52.24 3 .35 4.46 0 .58.1 1.15.13 1.71.13 2.18.24 4.36.3 6.51-2.47 1.45-5 2.85-7.46 4.27q-4.53 2.57-9.08 5.08c-2.61 1.46-5.22 3-7.82 4.38l-2.22 1.25-.13.07q-9.48 5.32-19 10.57l-6.17 3.41-6.18 3.41-.26.14-6.58 3.57c-6.11 3.32-12.19 6.62-18.36 10-.76-.25-1.5-.51-2.25-.78q-36.56 16.7-74 31.3l-1-1.29-1.73-2.46q-3.09-4.36-6.36-9.21c-7.72-11.38-16-24.71-24.21-39.75-1.33-2.38-2.61-4.81-3.92-7.28a469.77 469.77 0 0 1-22.29-48.88c-2.63-6.82-5.16-13.85-7.55-21v-.05a401.38 401.38 0 0 1-16.25-68.35c-.18-1.13-.34-2.3-.5-3.45v-.06a354.64 354.64 0 0 1-.3-94.64q1.65-12.47 4.27-25.17v-.31c2.05 1 4.07 2.08 6.09 3.18a13.89 13.89 0 0 1 1.39.7c2.85 1.53 5.68 3.07 8.49 4.7 3.18 1.79 6.33 3.62 9.48 5.56 1.28.74 2.53 1.48 3.8 2.27a566.82 566.82 0 0 1 52.38 36.56c4 3.07 7.89 6.2 11.73 9.38 1 .79 2 1.62 3 2.41 2.56 2.12 5.06 4.22 7.61 6.37 3.6 3 7.2 6.1 10.77 9.24 2.58 2.25 5.15 4.53 7.67 6.81a1126 1126 0 0 1 86.75 87.3c2.9 3.19 5.77 6.44 8.59 9.65a654.13 654.13 0 0 1 16.45 18.73Z" opacity=".67"></path><path fill="#fff" d="m1454.07 2498.81-2.22 1.25-.13.07q-9.48 5.32-19 10.57l-6.17 3.41-6.18 3.41-.26.14-6.58 3.57c-6.11 3.32-12.19 6.62-18.36 10-.76-.25-1.5-.51-2.25-.78q-36.56 16.7-74 31.3-30 11.68-60.42 21.8-6.88-2.64-14-5.58a274.06 274.06 0 0 1-42.6-22.15 285.31 285.31 0 0 1-10.92-7.36c-2.34-1.67-4.65-3.35-6.92-5.08s-4.78-3.64-7.07-5.52c-144.46-116.31-152-354.43-152-354.43 1.31-.16 2.65-.28 4-.42.86-.08 1.73-.13 2.6-.19l4-.24c2.61-.13 5.25-.21 7.9-.21h4c2 .06 4 .1 6 .22 1 .05 2 .12 3 .18s2 .16 3 .25q2 .16 4 .39l2.08.22c.83.1 1.64.19 2.44.3 1.16.17 2.32.31 3.47.51.91.11 1.81.26 2.69.41.54.09 1.07.16 1.62.28 2.29.38 4.57.82 6.86 1.31 1 .2 2.07.44 3.09.66 3.32.72 6.63 1.54 10 2.43 1.53.4 3 .84 4.57 1.28s3.07.92 4.6 1.38c4.6 1.43 9.22 3 13.82 4.73 1.54.57 3.07 1.13 4.61 1.75 2.21.86 4.45 1.76 6.66 2.71q2.19.87 4.34 1.82c.29.14.61.27.93.4 1.58.71 3.17 1.41 4.76 2.14 5.61 2.59 11.24 5.32 16.88 8.27 1.86 1 3.7 1.95 5.56 3 2.3 1.22 4.6 2.5 6.9 3.81q6.63 3.76 13.24 7.83c4.41 2.71 8.85 5.51 13.25 8.39s8.77 5.87 13.15 8.92 8.72 6.19 13 9.41 8.67 6.49 13 9.84c4 3.07 7.86 6.21 11.72 9.38 1 .79 2 1.63 3 2.41 2.56 2.12 5.06 4.22 7.58 6.36h.05q5.4 4.56 10.78 9.24c33.57 29.37 65.5 61.87 94.41 94.11 35.9 40.14 67.29 79.77 91.52 112.1Z"></path><path fill="#ffb600" d="m1454.07 2498.81-2.22 1.25-.13.07q-9.48 5.32-19 10.57l-6.17 3.41-6.18 3.41-.26.14-6.58 3.57c-6.11 3.32-12.19 6.62-18.36 10-.76-.25-1.5-.51-2.25-.78q-36.56 16.7-74 31.3-30 11.68-60.42 21.8-6.88-2.64-14-5.58a274.06 274.06 0 0 1-42.6-22.15 285.31 285.31 0 0 1-10.92-7.36c-2.34-1.67-4.65-3.35-6.92-5.08s-4.78-3.64-7.07-5.52c-144.46-116.31-152-354.43-152-354.43 1.31-.16 2.65-.28 4-.42.86-.08 1.73-.13 2.6-.19l4-.24c2.61-.13 5.25-.21 7.9-.21h4c2 .06 4 .1 6 .22 1 .05 2 .12 3 .18s2 .16 3 .25q2 .16 4 .39l2.08.22c.83.1 1.64.19 2.44.3 1.16.17 2.32.31 3.47.51.91.11 1.81.26 2.69.41.54.09 1.07.16 1.62.28 2.29.38 4.57.82 6.86 1.31 1 .2 2.07.44 3.09.66 3.32.72 6.63 1.54 10 2.43 1.53.4 3 .84 4.57 1.28s3.07.92 4.6 1.38c4.6 1.43 9.22 3 13.82 4.73 1.54.57 3.07 1.13 4.61 1.75 2.21.86 4.45 1.76 6.66 2.71q2.19.87 4.34 1.82c.29.14.61.27.93.4 1.58.71 3.17 1.41 4.76 2.14 5.61 2.59 11.24 5.32 16.88 8.27 1.86 1 3.7 1.95 5.56 3 2.3 1.22 4.6 2.5 6.9 3.81q6.63 3.76 13.24 7.83c4.41 2.71 8.85 5.51 13.25 8.39s8.77 5.87 13.15 8.92 8.72 6.19 13 9.41 8.67 6.49 13 9.84c4 3.07 7.86 6.21 11.72 9.38 1 .79 2 1.63 3 2.41 2.56 2.12 5.06 4.22 7.58 6.36h.05q5.4 4.56 10.78 9.24c33.57 29.37 65.5 61.87 94.41 94.11 35.9 40.14 67.29 79.77 91.52 112.1Z" opacity=".44"></path><path fill="#fff" d="m1454.07 2498.81-2.22 1.25-.13.07q-9.48 5.32-19 10.57l-6.17 3.41c-2.2 1.21-4.41 2.43-6.62 3.62l-6.4 3.5c-6.11 3.32-12.19 6.62-18.36 10-.76-.25-1.5-.51-2.25-.78a369.07 369.07 0 0 1-64.12-29.55c-3.62-2.05-7.19-4.17-10.74-6.33a551.26 551.26 0 0 1-58.61-41.71c-93.76-75.94-173.38-184.28-227.85-270l4-.24h.74q3.21-.15 6.44-.17h4.72c2 .06 4 .1 6 .22 1 .05 2 .12 3 .18s2 .16 3 .25q2 .16 4 .39l2.08.22c.83.1 1.64.19 2.44.3 1.16.17 2.32.31 3.47.51.91.11 1.81.26 2.69.41.54.09 1.07.16 1.62.28 2.29.38 4.57.82 6.86 1.31 1 .2 2.07.44 3.09.66 3.32.72 6.63 1.54 10 2.43 1.53.4 3 .84 4.57 1.28s3.07.92 4.6 1.38c4.6 1.43 9.22 3 13.82 4.73 1.54.57 3.07 1.13 4.61 1.75 2.21.86 4.45 1.76 6.66 2.71q2.19.87 4.34 1.82c.29.14.61.27.93.4 1.58.71 3.17 1.41 4.76 2.14 5.61 2.59 11.24 5.32 16.88 8.27 1.86 1 3.7 1.95 5.56 3 2.3 1.22 4.6 2.5 6.9 3.81q6.63 3.76 13.24 7.83c4.41 2.71 8.85 5.51 13.25 8.39s8.77 5.87 13.15 8.92 8.72 6.19 13 9.41 8.67 6.49 13 9.84c4 3.07 7.86 6.21 11.72 9.38 1 .79 2 1.63 3 2.41 2.56 2.12 5.06 4.22 7.58 6.36h.05q5.4 4.56 10.8 9.23c33.57 29.37 65.5 61.87 94.41 94.11 35.87 40.07 67.26 79.7 91.49 112.03Z"></path><path fill="#ffb600" d="m1454.07 2498.81-2.22 1.25-.13.07q-9.48 5.32-19 10.57l-6.17 3.41c-2.2 1.21-4.41 2.43-6.62 3.62l-6.4 3.5c-6.11 3.32-12.19 6.62-18.36 10-.76-.25-1.5-.51-2.25-.78a369.07 369.07 0 0 1-64.12-29.55c-3.62-2.05-7.19-4.17-10.74-6.33a551.26 551.26 0 0 1-58.61-41.71c-93.76-75.94-173.38-184.28-227.85-270l4-.24h.74q3.21-.15 6.44-.17h4.72c2 .06 4 .1 6 .22 1 .05 2 .12 3 .18s2 .16 3 .25q2 .16 4 .39l2.08.22c.83.1 1.64.19 2.44.3 1.16.17 2.32.31 3.47.51.91.11 1.81.26 2.69.41.54.09 1.07.16 1.62.28 2.29.38 4.57.82 6.86 1.31 1 .2 2.07.44 3.09.66 3.32.72 6.63 1.54 10 2.43 1.53.4 3 .84 4.57 1.28s3.07.92 4.6 1.38c4.6 1.43 9.22 3 13.82 4.73 1.54.57 3.07 1.13 4.61 1.75 2.21.86 4.45 1.76 6.66 2.71q2.19.87 4.34 1.82c.29.14.61.27.93.4 1.58.71 3.17 1.41 4.76 2.14 5.61 2.59 11.24 5.32 16.88 8.27 1.86 1 3.7 1.95 5.56 3 2.3 1.22 4.6 2.5 6.9 3.81q6.63 3.76 13.24 7.83c4.41 2.71 8.85 5.51 13.25 8.39s8.77 5.87 13.15 8.92 8.72 6.19 13 9.41 8.67 6.49 13 9.84c4 3.07 7.86 6.21 11.72 9.38 1 .79 2 1.63 3 2.41 2.56 2.12 5.06 4.22 7.58 6.36h.05q5.4 4.56 10.8 9.23c33.57 29.37 65.5 61.87 94.41 94.11 35.87 40.07 67.26 79.7 91.49 112.03Z" opacity=".29"></path></g></svg>