<svg xmlns="http://www.w3.org/2000/svg" xmlns:xlink="http://www.w3.org/1999/xlink" enable-background="new 0 0 4680 3120" viewBox="0 0 4680 3120" id="digital-product-manager"><path fill="#daebff" d="M3308.99 1008.877h737.286v18.234H3308.99z"></path><path fill="#daebff" d="M3398.433 1023.939h13.355v87.734h-13.355zM3939.307 1023.939h13.355v87.734h-13.355z"></path><path fill="#b0d8ff" d="M3395.809 886.892h42.546v127.746h-42.546zM3444.962 886.892h42.546v127.746h-42.546zM3494.114 886.892h42.546v127.746h-42.546zM3543.267 886.892h42.546v127.746h-42.546zM3592.419 886.892h42.546v127.746h-42.546zM3641.571 886.892h42.546v127.746h-42.546zM3727.922 751.169h286.775v262.104h-286.775z"></path><path fill="#daebff" d="M3752.56 773.687h237.498v217.067H3752.56z"></path><circle cx="3870.57" cy="882.803" r="59.194" fill="#ebf5ff"></circle><ellipse cx="1179.372" cy="2426.695" fill="#daebff" rx="305.502" ry="76.359"></ellipse><ellipse cx="1676.758" cy="2333.941" fill="#daebff" rx="263.744" ry="65.921"></ellipse><ellipse cx="2903.81" cy="2341.415" fill="#daebff" rx="182.642" ry="63.334"></ellipse><ellipse cx="3217.758" cy="2393.816" fill="#daebff" rx="182.642" ry="63.334"></ellipse><path fill="#d3e2f9" d="M744.666 2220.07h2725.17v21.677H744.666z"></path><path fill="#ebf5ff" d="M3481.031 1479.018h603.518v804.884h-603.518z"></path><path fill="#d1e3ff" d="M3512.469 1511.621h539.72v187.595h-539.72zM3512.469 1732.073h539.72v187.598h-539.72zM3512.469 1959.155h539.72v187.597h-539.72z"></path><path fill="#f5fcff" d="M3801.5 1551.9c0 10.986-8.375 19.89-18.71 19.89-10.334 0-18.713-8.904-18.713-19.89s8.379-19.89 18.713-19.89c10.335 0 18.71 8.904 18.71 19.89zM3801.5 1771.526c0 10.986-8.375 19.89-18.71 19.89-10.334 0-18.713-8.904-18.713-19.89s8.379-19.893 18.713-19.893c10.335-.001 18.71 8.906 18.71 19.893zM3801.5 1996.949c0 10.986-8.375 19.893-18.71 19.893-10.334 0-18.713-8.907-18.713-19.893 0-10.983 8.379-19.89 18.713-19.89 10.335-.001 18.71 8.906 18.71 19.89z"></path><path fill="#d1e3ff" d="M3348.584 1479.018h144.69v804.884h-144.69z"></path><path fill="#b0d8ff" d="M3186.29 612.032H1614.423c-35.529 0-64.331 28.793-64.331 64.31V1817.15c0 35.518 28.802 64.31 64.331 64.31H3186.29c35.529 0 64.331-28.793 64.331-64.31V676.342c0-35.518-28.802-64.31-64.331-64.31z"></path><path fill="#006dfe" d="M3165.177 640.299H1613.592c-35.071 0-63.501 28.43-63.501 63.501v99.027h1678.586V703.8c.001-35.071-28.429-63.501-63.5-63.501z"></path><linearGradient id="a" x1="1550.092" x2="3228.678" y1="1348.29" y2="1348.29" gradientUnits="userSpaceOnUse"><stop offset="0" stop-color="#b0d8ff"></stop><stop offset=".015" stop-color="#b3d9ff"></stop><stop offset=".145" stop-color="#c4e1ff"></stop><stop offset=".301" stop-color="#d1e7ff"></stop><stop offset=".512" stop-color="#d8eaff"></stop><stop offset="1" stop-color="#daebff"></stop></linearGradient><path fill="url(#a)" d="M1550.092 802.827v1027.425c0 35.071 28.43 63.501 63.501 63.501h1551.585c35.071 0 63.501-28.43 63.501-63.501V802.827H1550.092z"></path><path fill="#fff" d="M2245.782 950.491h-559.365c-8.455 0-15.309-6.854-15.309-15.309v-6.798c0-8.455 6.854-15.309 15.309-15.309h559.365c8.455 0 15.309 6.854 15.309 15.309v6.798c0 8.455-6.854 15.309-15.309 15.309zM2245.782 1031.71h-559.365c-8.455 0-15.309-6.854-15.309-15.309v-6.798c0-8.455 6.854-15.309 15.309-15.309h559.365c8.455 0 15.309 6.854 15.309 15.309v6.798c0 8.455-6.854 15.309-15.309 15.309zM2245.782 1112.929h-559.365c-8.455 0-15.309-6.854-15.309-15.309v-6.798c0-8.455 6.854-15.309 15.309-15.309h559.365c8.455 0 15.309 6.854 15.309 15.309v6.798c0 8.455-6.854 15.309-15.309 15.309zM2245.782 1194.147h-559.365c-8.455 0-15.309-6.854-15.309-15.309v-6.798c0-8.455 6.854-15.309 15.309-15.309h559.365c8.455 0 15.309 6.854 15.309 15.309v6.798c0 8.455-6.854 15.309-15.309 15.309zM2245.782 1275.366h-559.365c-8.455 0-15.309-6.854-15.309-15.309v-6.798c0-8.455 6.854-15.309 15.309-15.309h559.365c8.455 0 15.309 6.854 15.309 15.309v6.798c0 8.455-6.854 15.309-15.309 15.309zM3105.788 1747.968h-848.27c-9.305 0-16.848-7.543-16.848-16.848v-342.932c0-9.301 7.54-16.841 16.841-16.841h848.279c9.302 0 16.844 7.541 16.844 16.843v342.932c0 9.304-7.543 16.846-16.846 16.846z"></path><path fill="#daebff" d="M3098.979 1572.992v143.143c0 6.367-5.183 11.55-11.596 11.55h-814.696c-6.414 0-11.596-5.183-11.596-11.55v-314.423c75.244 0 112.711 28.132 134.677 65.083a96.896 96.896 0 0 1 4.003 7.24c37.161 70.32 25.973 166.704 107.686 166.704 3.026 0 5.9-.356 8.621-1.078a24.205 24.205 0 0 0 5.03-1.638c54.968-23.155 46.398-187.446 144.177-186.269 20.887.262 36.491 8.267 48.809 21.047 1.18 1.286 2.36 2.563 3.489 3.954 43.781 51.379 44.396 165.881 111.628 186.667 24.233 7.494 45.636-2.668 66.781-19.446 1.333-1.085 2.716-2.159 4.051-3.339 44.707-37.111 89.156-100.546 158.135-84.999 1.999.463 4.007.976 6.057 1.548 10.932 3.174 22.482 8.303 34.744 15.806z"></path><path fill="#00b77b" d="M3099.032 1544.088c-14.627.213-25.818 5.136-34.799 13.098-16.626 14.721-25.556 39.873-34.286 64.46-13.083 36.801-26.581 74.781-66.057 74.781-2.101 0-4.308-.106-6.566-.31-25.719-2.517-44.653-23.451-61.335-52.142-10.37-17.764-19.865-38.552-29.513-59.845-27.305-59.9-55.587-121.848-107.633-123.287-.613 0-1.177-.051-1.742-.051-15.756 0-28.643 6.002-39.522 15.962-22.016 20.068-36.033 56.247-49.734 91.664-20.277 52.404-41.215 106.608-88.488 107.683-33.978.722-49.424-12.116-63.282-36.442-5.34-9.444-10.471-20.633-16.325-33.413-10.675-23.403-24.016-52.506-46.088-86.38-14.833-22.685-33.668-37.106-53.894-45.833-54.505-23.761-118.662-6.365-138.679.157v-5.393c21.452-6.776 81.403-22.123 134.677-2.004 23.252 8.778 45.218 24.326 62.154 50.298 22.331 34.135 35.722 63.44 46.506 87 6.055 13.241 11.235 24.587 16.679 33.93 13.04 22.526 27.361 33.663 58.151 32.946 43.834-1.025 63.232-51.224 83.818-104.391 13.956-36.083 28.176-72.94 51.016-93.776 12.112-11.031 26.635-17.609 44.859-17.093 55.331 1.49 84.224 64.925 112.2 126.316 9.542 20.834 18.78 41.21 28.89 58.614 16.017 27.819 33.98 47.987 57.792 50.349 40.651 4.005 53.584-32.437 67.294-71.086 8.514-24.071 17.237-48.6 33.048-64.261 10.06-10.055 23.046-16.42 40.757-16.681l.102 5.13z"></path><path fill="#0ace68" d="M2117.586 1515.364c-22.464-99.51-111.344-173.85-217.645-173.85v223.185l217.645-49.335z"></path><path fill="#fff" d="M1899.941 1564.698v-223.185c-123.26 0-223.183 99.922-223.183 223.184 0 123.622 99.552 223.179 223.175 223.184 123.265.005 223.193-99.92 223.193-223.183 0-16.962-1.955-33.456-5.54-49.335l-217.645 49.335z"></path><circle cx="1899.942" cy="1568.443" r="170.586" fill="#daebff"></circle><path fill="#fff" d="M3100.473 1296.366h-773.071c-10.936 0-19.802-8.865-19.802-19.801V903.974c0-10.934 8.864-19.798 19.798-19.798h773.063c10.94 0 19.809 8.869 19.809 19.809v372.584c.001 10.934-8.863 19.797-19.797 19.797z"></path><path fill="#0ace68" d="M3079.319 939.799c-8.428 0-15.258 8.237-15.258 18.385 0 3.348.798 6.444 2.092 9.142l-124.208 168.949c-1.781-.863-3.719-1.368-5.759-1.368-2.225 0-4.329.601-6.229 1.635l-133.693-158.233a21.204 21.204 0 0 0 1.387-7.569c0-10.148-6.836-18.374-15.255-18.374s-15.246 8.226-15.246 18.374c0 2.81.551 5.429 1.479 7.807l-171.953 223.519c-2.469-2.098-5.472-3.349-8.727-3.349-2.696 0-5.179.912-7.381 2.383l-94.075-147.562c1.799-3.014 2.889-6.687 2.889-10.693 0-10.136-6.83-18.373-15.258-18.373-8.426 0-15.252 8.237-15.252 18.373 0 3.294.766 6.316 2.022 8.997l-105.402 164.55c-1.665-.748-3.441-1.212-5.324-1.212-8.425 0-15.255 8.226-15.255 18.369 0 10.166 6.83 18.383 15.255 18.383 8.423 0 15.255-8.218 15.255-18.383 0-3.638-.905-7.017-2.426-9.867l105.034-164.002c1.865.987 3.92 1.541 6.093 1.541 1.593 0 3.096-.372 4.537-.916l95.3 149.473a21.34 21.34 0 0 0-1.274 7.313c0 10.155 6.835 18.374 15.261 18.374 8.42 0 15.255-8.219 15.255-18.374 0-1.908-.308-3.715-.769-5.452l172.879-224.714c2.127 1.359 4.512 2.2 7.082 2.2 2.655 0 5.118-.896 7.294-2.338l133.197 157.645a21.031 21.031 0 0 0-1.953 8.843c0 10.148 6.818 18.374 15.252 18.374 8.417 0 15.252-8.226 15.252-18.374 0-3.435-.839-6.638-2.214-9.392l124.095-168.801a13.006 13.006 0 0 0 6 1.471c8.414 0 15.255-8.218 15.255-18.369.001-10.149-6.84-18.385-15.254-18.385z"></path><path fill="#153077" d="M1571.297 2326.344s-9.281 19.447-21.206 28.766c-59.518-30.739-112.584-75.454-132.352-92.969 1.63-4.666 4.55-9.652 8.472-15.007 7.327-10.014 27.921-39.179 42.019-59.216 4.191 10.861 16.144 29.396 50.296 42.99-13.687 25.502 20.09 55.202 38.967 69.972 19.355 15.148 13.804 25.464 13.804 25.464z"></path><path fill="#fea587" d="M1537.328 2201.75s-1.107 1.291-17.668 27.209a26.675 26.675 0 0 0-1.132 1.948c-34.151-13.593-46.105-32.129-50.296-42.99 8.153-11.597 14.146-20.115 14.146-20.115l54.95 33.948z"></path><path fill="#0e2354" d="M1550.092 2355.11c-2.911 2.272-5.997 3.939-9.133 4.572-15.952 3.22-103.21-62.005-116.134-73.099-8.554-7.321-10.258-15.305-7.084-24.442 19.767 17.516 72.833 62.23 132.351 92.969z"></path><path fill="#153077" d="M1926.576 2312.866s.995 21.573-5.135 35.447c-67.129.983-135.166-13.435-160.917-19.564-.766-4.894-.544-10.68.39-17.267 1.738-12.314 6.145-47.825 9.127-72.197 8.84 7.616 28.167 18.342 64.773 14.204-.035 29.008 43.857 39.279 67.523 43.404 24.264 4.232 24.239 15.973 24.239 15.973z"></path><path fill="#fea587" d="M1837.639 2218.832s-.368 1.664-2.746 32.399a26.076 26.076 0 0 0-.079 2.257c-36.606 4.138-55.934-6.588-64.773-14.204 1.72-14.103 2.988-24.464 2.988-24.464l64.61 4.012z"></path><path fill="#0e2354" d="M1921.44 2348.313c-1.497 3.384-3.436 6.317-5.908 8.359-12.573 10.389-120.523-5.983-137.19-9.675-11.021-2.425-16.302-8.673-17.818-18.249 25.75 6.13 93.787 20.547 160.916 19.565z"></path><defs><path id="b" d="M1761.286 1587.261s-11.01 146.542-25.081 215.898c-14.072 69.356-15.19 129.763-67.766 218.135s-136.474 193.525-136.474 193.525-53.695-10.068-50.339-53.695c0 0 99.559-149.898 110.746-284.135s17.898-275.186 17.898-275.186l151.016-14.542z"></path></defs><use fill="#1e2889" overflow="visible" xlink:href="#b"></use><clipPath id="c"><use overflow="visible" xlink:href="#b"></use></clipPath><path fill="#141f72" d="M1664.438 1582.782s-5.593 320.488-27.966 374.467c-22.373 53.978-133.692 245.295-133.692 245.295l-58.539-45.794 137.418-561.657 82.779-12.311z" clip-path="url(#c)"></path><defs><path id="d" d="m1827.845 1568.618 8.949 4.102s31.135 176.746 40.085 251.322-8.203 235.288-19.39 301.288c-11.186 66-19.017 108.508-19.017 108.508s-48.847 10.17-78.412-17.312c0 0 21.361-254.519 1.226-328.349-20.136-73.83-25.081-106.271-25.081-106.271l6.064-213.288h85.576z"></path></defs><use fill="#1e2889" overflow="visible" xlink:href="#d"></use><clipPath id="e"><use overflow="visible" xlink:href="#d"></use></clipPath><path fill="#141f72" d="M1856.236 1619.393s-66.36 177.616-79.934 369.515-22.373 31.828-22.373 31.828l-45.305-266.237 1.119-171.717s104.593-26.283 106.83-26.842c2.237-.559 29.644-4.475 28.526 0-1.119 4.474 11.137 63.453 11.137 63.453z" clip-path="url(#e)"></path><defs><path id="f" d="M1913.417 1234.641s35.315 26.588 44.978 18.152c10.45-9.123 73.049-119.343 73.049-119.343s4.852-26.905 14.149-42.136c8.554-14.013 27.512-36.405 44.542-17.136 5.05 5.713 21.267 39.394 8.682 51.14-14.24 13.291-8.589 5.818-31.949 20.927-9.554 6.18-63.886 169.719-110.683 174.647-20.217 2.129-72.254-37.233-72.254-37.233l29.486-49.018z"></path></defs><use fill="#ffaca6" overflow="visible" xlink:href="#f"></use><clipPath id="g"><use overflow="visible" xlink:href="#f"></use></clipPath><path fill="#ea756c" d="M1911.72 1314.034s37.195-9.508 36.076-73.551c-1.119-64.042-44.186-16.22-44.186-16.22l-28.805 53.975 36.915 35.796z" clip-path="url(#g)"></path><path fill="#1e2889" d="M2139.249 819.31h11.655v333.947h-11.655z" transform="rotate(34.654 2145.073 986.218)"></path><path fill="#0054fc" d="M1627.189 1344.046c32.438-42.49 27.699-104.641 24.529-127.698 2.2 33.054-18.237 102.439-18.237 102.439s-.595 2.154-1.62 6.132a864.666 864.666 0 0 0-4.672 19.127zM1651.718 1216.348c-.23-3.454-.706-6.512-1.479-9.052 0 0 .691 3.323 1.479 9.052zM1822.167 1197.414c15.661 38.593 10.713 71.593 10.713 71.593l6.905 4.439c.998-7.909 1.912-16.953 2.238-25.414.838-21.812-19.856-50.618-19.856-50.618z"></path><path fill="#006dfe" d="M1914.54 1218.109s-47.108-43.74-64.018-68.419c-20.695-30.203-82.244-36.453-82.244-36.453l-58.449.28-10.161-1.585s-83.253 5.271-107.863 65.118c-24.61 59.847-34.671 117.128-34.671 117.128s1.632 1.848 4.632 4.585c8.598 7.845 28.45 22.989 53.421 22.886 5.845-.024 11.968-.877 18.295-2.862 0 0 20.436-69.385 18.237-102.439-.788-5.729-1.479-9.052-1.479-9.052.773 2.54 1.249 5.598 1.479 9.052 3.171 23.057 7.909 85.208-24.529 127.698-5.649 24.25-13.833 63.523-19.081 106.948-3.304 27.341-5.438 56.317-5.041 84.224.334 23.498 2.458 46.236 7.203 66.586 0 0 5.614 4.464 17.288 8.895 10.276 3.9 25.26 7.766 45.265 8.545 36.901 1.437 90.881-7.646 163.972-46.524 0 0-19.017-77.186-10.627-174.508 8.39-97.322 6.712-129.203 6.712-129.203s4.948-33-10.713-71.593c0 0 20.695 28.805 19.856 50.619-.325 8.461-1.24 17.505-2.238 25.414l40.078 25.764c-.002-.002 41.388-40.833 34.676-81.104z"></path><path fill="#ea756c" d="M1601.271 1365.866c4.565-14.871 9.884-31.651 13.904-44.224-24.97.103-44.822-15.041-53.421-22.886a1099.796 1099.796 0 0 0-9.073 26.799c16.105 5.681 39.388 17.541 48.59 40.311z"></path><path fill="#ffaca6" d="M1651.686 1550.449s-26.057-54.369-43.589-99.462c-10.028-25.791-21.67-34.678-19.645-42.488 1.64-6.33 9.192-30.815 12.82-42.632-9.202-22.77-32.485-34.63-48.59-40.311-8.79 27.166-22.042 72.642-20.946 86.919 1.476 19.214 46.719 79.551 71.32 122.737 10.685 18.756 18.311 31.67 18.311 31.67s4.604 21.213 6.18 43.811c.427 6.127.634 12.355.463 18.292-.789 27.828 34.43 23.666 42.049 3.186 1.476-3.964 2.379-8.299 2.753-12.933 1.557-19.321-6.199-43.874-21.126-68.789z"></path><path fill="#ea756c" d="M1763.389 1086.622c-.909-9.192-1.208-20.021.135-31.275l-28.805-37.475-36.076 14.543s7.913 22.108 6.753 48.99c12.07-2.349 34.094-4.258 57.993 5.217z"></path><defs><path id="h" d="M1810.227 942.923s35.797-20.695 34.398-57.051-18.178-63.483-53.136-60.686c-34.958 2.797-34.821-16.496-54.812-22.531-19.763-5.966-60.968 4.539-62.646 33.624-1.678 29.085-40.271 12.958-52.576 31.695-12.305 18.737-16.22 43.814-7.83 62.271 8.39 18.458-4.661 25.729-4.102 46.983.559 21.254 27.873 48.474 54.72 43.72 26.847-4.754 17.619 25.449 56.492 20.415 38.873-5.033 89.492-98.44 89.492-98.44z"></path></defs><use fill="#054aa9" overflow="visible" xlink:href="#h"></use><clipPath id="i"><use overflow="visible" xlink:href="#h"></use></clipPath><path fill="#084684" d="M1720.37 1046.211s0-4.102-11.186-12.678c-11.187-8.576-18.644-23.013-18.644-37.422s6.339-14.036 15.288-27.832c8.949-13.797-1.079-25.356 21.088-30.576 22.167-5.22 80.336-11.186 86.302-28.339 5.966-17.153 15.288 21.254 15.288 21.254l-68.983 60.407-39.153 55.186z" clip-path="url(#i)"></path><defs><path id="j" d="M1815.54 921.949s17.619 93.407-2.517 130.602c-20.136 37.195-68.517 9.788-84.737-26.568 0 0-20.136 6.432-27.127-23.492-6.992-29.924 22.373-24.051 24.89-15.381 0 0-12.305-29.924 1.958-35.797 14.262-5.873 85.576-6.432 87.533-29.364z"></path></defs><use fill="#ffaca6" overflow="visible" xlink:href="#j"></use><clipPath id="k"><use overflow="visible" xlink:href="#j"></use></clipPath><path fill="#ea756c" d="M1720.184 1039.313s-26.848-36.915-7.83-39.898c19.017-2.983 22.358-4.288 21.62-12.678-.738-8.39-7.077-20.695 7.092-22 14.169-1.305 76.441-13.797 82.966-24.237 6.525-10.441-3.542-24.797-3.542-24.797l-26.102 14.542-74.763 14.542-12.305 25.915-13.983 20.322 11.932 39.712 14.915 8.577z" clip-path="url(#k)"></path><path fill="#ffaca6" d="M1705.395 1081.405c-.424 9.822-2.048 20.274-5.727 30.527 0 0 22.186 32.907 68.61 1.305 0 0-3.336-10.911-4.889-26.614-23.899-9.476-45.923-7.567-57.994-5.218z"></path><path fill="#ea756c" d="M3212.021 1670.437s-163.078-32.874-173.971-43.589c-10.892-10.715-46.627-42.937-82.602-29.799s-36.474 33.018 6.053 42.098c42.527 9.08 34.707 22.031 68.946 19.333 0 0 91.17 52.417 187.311 70.867l-5.737-58.91z"></path><defs><path id="l" d="M3141.712 1337.007s-52.549-33.912-55.909-76.685c-3.361-42.772 29.94-67.214 50.716-66.908 0 0 22.914-70.88 94.71-54.076 71.796 16.803 95.932 97.765 98.987 127.095 3.055 29.33 43.688 109.375 17.72 131.372-25.969 21.997-79.434 48.883-79.434 48.883s-101.737 20.775-122.512 5.499c0 0 28.107-30.246 19.859-69.963-8.25-39.718-24.137-45.217-24.137-45.217z"></path></defs><use fill="#0542bf" overflow="visible" xlink:href="#l"></use><clipPath id="m"><use overflow="visible" xlink:href="#l"></use></clipPath><path fill="#1e2889" d="M3111.07 1331.14s3.208-92.113 28.413-100.82c0 0 45.827 49.494 111.819 47.202 14.149-2.021 32.88 11.275 14.149 66.129-18.731 54.855 48.635 91.975 48.635 91.975l-104.487 54.076-78.365-27.955-20.164-130.607z" clip-path="url(#m)"></path><path fill="#d1e3ff" d="M662.061 656.334h763.221v910.626H662.061z" transform="rotate(-180 1043.671 1111.647)"></path><path fill="#e3eeff" d="M627.143 656.334h781.823v910.626H627.143z" transform="rotate(-180 1018.054 1111.647)"></path><path fill="#d1e3ff" d="M662.061 1566.961h763.221v64.887H662.061z" transform="rotate(-180 1043.671 1599.404)"></path><path fill="#e3eeff" d="M568.971 1566.961h781.823v64.887H568.971z" transform="rotate(-180 959.882 1599.404)"></path><path fill="#f5fcff" d="M611.626 769.622h812.857v684.052H611.626z" transform="rotate(90 1018.054 1111.648)"></path><path fill="#fff" d="M1276.097 1518.076 989.176 705.219H853.734l286.92 812.857z"></path><path fill="#e2eeff" d="M1337.447 1242.294a3.49 3.49 0 0 0 3.49-3.491V737.026a3.49 3.49 0 1 0-6.981 0v501.777a3.49 3.49 0 0 0 3.491 3.491z"></path><path fill="#fff" d="M1111.558 1518.076 824.637 705.219h-52.803l286.921 812.857z"></path><path fill="#d1e3ff" d="M272.703 1108.544h812.857v6.208H272.703z" transform="rotate(90 679.132 1111.648)"></path><path fill="#d1e3ff" d="M615.582 767.762h763.221l4.498-43.54H620.08z"></path><path fill="#d1e3ff" d="M615.582 799.631h763.221l4.498-43.54H620.08z"></path><path fill="#d1e3ff" d="M615.582 837.874h763.221l4.498-43.54H620.08z"></path><path fill="#d1e3ff" d="M615.582 880.43h763.221l4.498-43.54H620.08zM615.582 931.421h763.221l4.498-43.54H620.08zM615.582 988.786h763.221l4.498-43.54H620.08z"></path><path fill="#daebff" d="M2249.485 1954.052h195.816v86.578h-195.816z"></path><path fill="#ebf5ff" d="M2328.667 2040.629h195.816v86.578h-195.816z"></path><defs><path id="n" d="m3249.348 1407.148 11.443 2.861s17.779-3.826 44.344 39.263 62.939 147.307 47.409 288.716c0 0-64.166 35.965-137.323 0 0 0-2.997-59.125-28.064-106.806s-15.258-104.49-11.171-114.299c4.087-9.809 42.096-100.131 42.096-100.131l31.266-9.604z"></path></defs><use fill="#054aa9" overflow="visible" xlink:href="#n"></use><clipPath id="o"><use overflow="visible" xlink:href="#n"></use></clipPath><path fill="#06438c" d="m3162.618 1651.562 113.22-132.329s47.505 198.266-12.386 246.765l-66.606-20.346-34.228-94.09z" clip-path="url(#o)"></path><path fill="#115fbc" d="m3344.709 1756.265-6.616-11.977s16.414-76.761-4.838-156.402-39.973-118.876-81.836-175.003l26.253-14.728 50.134 41.974 46.319 147.757s2.18 96.892 2.18 100.447-16.348 62.952-16.348 62.952l-15.248 4.98z" clip-path="url(#o)"></path><path fill="#ffaca6" d="M3283.432 1458.335c-13.786-8.959-32.224-5.047-41.184 8.739l-118.091 181.706c-19.637 2.734-163.453 22.493-176.342 16.455-13.836-6.481-58.255-24.981-87.81-.624-29.556 24.357-23.414 43.271 19.712 37.686 43.126-5.584 40.059 9.231 71.451-4.703 0 0 93.712 17.309 186.225 6.394 11.476 2.118 23.621-2.659 30.377-13.054l124.401-191.415c8.96-13.786 5.047-32.225-8.739-41.184z"></path><path fill="#ea756c" d="M3217.769 1396.235c-.614-12.864-2.601-28.642-8.26-38.034l33.454-43.269 6.187 12.564s2.608 18.949 5.987 38.692c-9.832 2.823-24.839 10.297-37.368 30.047z"></path><path fill="#ffaca6" d="M3255.137 1366.188c3.341 19.516 8.045 40.859 11.12 44.39 0 0-19.628 18.885-48.499 6.511 0 0 .565-9.239.011-20.854 12.529-19.75 27.536-27.224 37.368-30.047z"></path><defs><path id="p" d="M3141.226 1242.945s-20.775 119.457 23.525 139.926c44.3 20.469 76.684-43.078 76.684-48.577 0 0 22.952-2.1 19.286-26.618-3.666-24.518-22.685-15.123-22.685-15.123s-70.001-7.905-96.81-49.608z"></path></defs><use fill="#ffaca6" overflow="visible" xlink:href="#p"></use><clipPath id="q"><use overflow="visible" xlink:href="#p"></use></clipPath><path fill="#ea756c" d="M3261.118 1331.94s-8.011-23.143-26.571-19.935c-18.56 3.208-77.219-12.603-103.57-50.868l1.216-27.726 76.232 29.788 59.576 24.976 2.521 36.433-9.404 7.332z" clip-path="url(#q)"></path><defs><path id="r" d="M3034.202 2283.868c-44.386 69.516-86.641 56.599-86.641 56.599l-5.486-4.67c.259-.148.389-.241.389-.241s14.326-25.853 25.241-46.684c8.655-16.494-12.25-176.691-21.034-284.904-2.298-28.41-3.781-53.245-3.651-70.943.315-49.816 14.622-67.904 26.446-74.335 8.396-4.559 15.53-3.262 15.53-3.262l46.74 97-15.957 14.029c19.867 69.239 9.507 160.253 4.059 226.489-5.467 66.254 7.135 80.914 7.135 80.914a67.836 67.836 0 0 1 7.229 10.008z"></path></defs><use fill="#ffaca6" overflow="visible" xlink:href="#r"></use><clipPath id="s"><use overflow="visible" xlink:href="#r"></use></clipPath><path fill="#ea756c" d="M2969.102 2248.492s11.254-187.874 27.685-226.567c16.431-38.693 19.707-51.943 37.416-48.763l14.528-28.772s-29.682-67.695-29.152-69.285-40.978-19.849-40.978-19.849l-36.524 50.061v96.466l-5.183 85.336 32.208 161.373z" clip-path="url(#s)"></path><path fill="#1e2889" d="M3034.2 2283.876c-44.391 69.499-86.646 56.594-86.646 56.594l-5.481-4.677c-3.97 2.291-36.425 21.552-40.102 41.094-3.918 20.82 75.844 21.162 90.956.578l21.453-37.826 5.715 41.585 10.705-.237 8.208-51.443c0 .002 9.166-21.774-4.808-45.668zM2810.656 2269.97l-.365-.651c-4.602 1.175-39.099 10.482-47.504 27.42-9.01 18.158 64.362 39.167 83.621 24.131l29.573-29.271-5.526 39.783 9.921 2.559 20.907-45.25s12.964-16.258 8.142-40.199c-64.359 47.657-98.769 21.478-98.769 21.478z"></path><path fill="#ffaca6" d="m2975.884 1841.872-1.336-3.869s-36.191-17.717-58.794 60.587c-22.624 78.288-54.125 317.797-69.586 334.14-15.461 16.343-35.349 36.462-35.349 36.462s-.2.044-.527.121l.363.665s34.414 26.172 98.763-21.489c-.889-4.484-2.408-9.226-4.778-14.2 0 0-7.785-16.779 14.419-76.38 17.705-47.487 46.861-112.637 56.527-173.062l11.131-49.848 3.593-22.036-14.426-71.091z"></path><defs><path id="t" d="m3350.85 1729.216 1.694 8.773s7.145 40.589 18.094 77.577c13.074 44.17-7.421 113.074-64.311 125.442-56.89 12.368-276.325 12.014-276.325 12.014s-69.77-65.057-72.566-118.279c0 0 135.762-39.481 247.906-50.913l12.47-58.194 133.038 3.58z"></path></defs><use fill="#ffab00" overflow="visible" xlink:href="#t"></use><clipPath id="u"><use overflow="visible" xlink:href="#t"></use></clipPath><path fill="#fe8e00" d="M3286.718 1725.636s17.373 118.728-65.652 139.399-259.527 46.113-259.527 46.113-23.852-76.325-24.646-86.661c-.795-10.336 99.382-55.654 109.717-56.449s138.339-5.035 138.339-10.071c0-5.035 7.156-50.369 7.156-50.369l94.613 18.038z" clip-path="url(#u)"></path><defs><path id="v" d="M3228.678 2024.836v209.428h-33.105v-200.035c11.599-8.227 23.831-9.826 33.105-9.393z"></path></defs><use fill="#0542bf" overflow="visible" xlink:href="#v"></use><clipPath id="w"><use overflow="visible" xlink:href="#v"></use></clipPath><path fill="#393d3c" d="M3236.366 2042.574s-28.529 4.686-44.896 33.107c-16.367 28.42-29.881-3.326-26.727-16.327 3.153-13.001 1.501-26.304 9.91-36.281 8.408-9.977 24.475-24.187 46.397-18.745 21.922 5.442 24.775 2.419 23.574 14.664s-3.303 25.397-3.303 25.397" clip-path="url(#w)" opacity=".35"></path><ellipse cx="3332.722" cy="2381.933" fill="#273263" rx="25.603" ry="26.455"></ellipse><path fill="#273263" d="M3184.941 2405.701c0 14.611 11.464 26.455 25.603 26.455 14.14 0 25.606-11.844 25.606-26.455 0-14.614-11.466-26.457-25.606-26.457-14.138-.001-25.603 11.843-25.603 26.457zM3064.066 2381.933c0 14.612 11.463 26.455 25.604 26.455 14.139 0 25.602-11.844 25.602-26.455 0-14.614-11.463-26.455-25.602-26.455-14.141 0-25.604 11.841-25.604 26.455z"></path><path fill="#1e2889" d="M3234.745 2233.801s-22.345-8.52-46.069 0l-.645 29.919-116.251 89.667v21.301h34.321l.458-16.378 89.014-65.044-.55 81.423 4.413 19.128h23.173l4.275-18.938.965-79.344 88.553 62.112.367 15.907 31.816.19v-22.535l-114.022-87.107v-17.944l.182-12.357z"></path><path fill="#273263" d="M3460.515 1743.315v87.105s5.319 56.186-19.948 84.445c-22.936 25.652-75.458 44.73-84.954 48.031-.965.336-1.486.508-1.486.508l-12.301-27.262c-3.444-.72 33.808-10.03 70.482-41.89 12.137-10.544 13.631-38.898 13.963-61.173s0-92.424 0-92.424l34.71-2.66-.466 5.32z"></path><defs><path id="x" d="M3064.887 2035.216h299.381c10.007 0 18.119-8.112 18.119-18.119V1952.6c0-10.007-8.112-18.119-18.119-18.119h-299.381c-10.007 0-18.119 8.112-18.119 18.119v64.497c0 10.007 8.112 18.119 18.119 18.119z"></path></defs><use fill="#0542bf" overflow="visible" xlink:href="#x"></use><clipPath id="y"><use overflow="visible" xlink:href="#x"></use></clipPath><path fill="#053fa5" d="M3038.129 1982.173h385.866l-22.701-68.904-352.564 13.781z" clip-path="url(#y)"></path><path fill="#0542bf" d="M3412.475 1745.975h69.484c9.64 0 17.454-7.814 17.454-17.454v-219.756c0-9.64-7.814-17.454-17.454-17.454h-69.484c-9.64 0-17.454 7.815-17.454 17.454v219.756c0 9.64 7.814 17.454 17.454 17.454zM1532.017 1706.696l-13.661-3.868a4.324 4.324 0 0 1-2.983-5.339l67.459-238.274a4.324 4.324 0 0 1 5.339-2.983l13.661 3.868a4.324 4.324 0 0 1 2.983 5.339l-67.459 238.274a4.324 4.324 0 0 1-5.339 2.983z"></path><path fill="#0542bf" d="M1514.443 1726.496h-260.117a3.146 3.146 0 0 1-3.146-3.145v-18.874a3.146 3.146 0 0 1 3.146-3.146h260.117a3.146 3.146 0 0 1 3.146 3.146v18.874a3.147 3.147 0 0 1-3.146 3.145z"></path><path fill="#2b3568" d="m2700.465 1706.696 13.661-3.868a4.324 4.324 0 0 0 2.983-5.339l-67.459-238.274a4.324 4.324 0 0 0-5.339-2.983l-13.661 3.868a4.324 4.324 0 0 0-2.983 5.339l67.459 238.274a4.324 4.324 0 0 0 5.339 2.983z"></path><path fill="#2b3568" d="M2718.039 1726.496h260.117a3.146 3.146 0 0 0 3.146-3.145v-18.874a3.146 3.146 0 0 0-3.146-3.146h-260.117a3.145 3.145 0 0 0-3.145 3.146v18.874a3.145 3.145 0 0 0 3.145 3.145z"></path><path fill="#0a0d26" d="M1318.432 2295.863s.501 22.528-1.387 40.445c-1.888 17.915-15.5 30.899-11.002 48.326 4.499 17.427 55.557 23.143 91.526 31.171 35.968 8.028 68.97 3.497 67.092-24.317-1.878-27.814-62.07-23.081-81.778-59.436-19.705-36.353-12.178-41.191-12.178-41.191l-52.273 5.002z"></path><path fill="#191e56" d="M1376.136 1853.905s18.307 9.534 18.33 40.544c.023 31.01-9.165 410.251-9.165 410.251s-35.335 28.622-79.063-3.975l-10.336-210.689 80.234-236.131z"></path><defs><path id="z" d="M1145.726 1812.032s153.487 3.987 209.099 16.393c66.696 14.879 64.766 73.222 49.205 120.925-15.561 47.703-174.117 354.63-174.117 354.63s-33.304 17.946-75.707-22.336c0 0 122.173-286.257 112.633-306.399-9.541-20.141-226.145 5.918-259.537-33.807-5.914-7.036 13.628-35.06 13.628-35.06l124.796-94.346z"></path></defs><use fill="#1e2889" overflow="visible" xlink:href="#z"></use><clipPath id="A"><use overflow="visible" xlink:href="#z"></use></clipPath><path fill="#172375" d="M1063.045 1966.802s54.655-.795 116.327-53.269 172.184-76.248 211.142 35.816l22.5 56.494s22.023-114.572 22.023-116.957-13.716-69.435-18.784-76.855c-5.068-7.42-280.951-25.442-280.951-25.442l-91.431 67.314-37.684 94.133 56.858 18.766z" clip-path="url(#A)"></path><path fill="#ea756c" d="M1483.557 1658.001c-30.83-25.406-77.163-6.11-91.596.651-11.211 5.251-117.382-8.207-164.229-14.478l-125.973-193.834c-9.714-14.946-29.705-19.188-44.651-9.475l-2 1.3c-14.946 9.714-19.188 29.705-9.475 44.651l128.431 197.616a32.156 32.156 0 0 0 8.385 8.733l-2.346 5.248c100.975 15.21 208.361-6.008 208.361-6.008 32.745 14.535 29.546-.919 74.531 4.906 44.984 5.826 51.391-13.903 20.562-39.31z"></path><path fill="#fc8300" d="M1069.973 1604.337s-38.201-65.458-53.838-102.584c-15.637-37.125-24.796-82.522-5.392-99.086 19.404-16.564 52.342-15.403 70.029 8.851 17.687 24.253 83.164 128.886 83.164 128.886s-23.408 77.289-93.963 63.933z"></path><defs><path id="B" d="m1015.514 1364.682-8.481.883s-28.268 5.477-44.523 46.113c-16.255 40.636-37.103 128.269-38.869 169.965-1.767 41.696-10.954 195.141 16.873 272.261 27.827 77.12 54.594 95.434 75 95.434 0 0 131.714 3.948 145.23-136.777 0 0-39.223-5.124-48.763-38.693-9.541-33.569-17.614-100.16-18.021-134.231-.678-56.762 11.508-140.823-11.814-226.689-2.208-13.02-13.805-21.412-13.805-21.412l-52.827-26.854z"></path></defs><use fill="#ffab00" overflow="visible" xlink:href="#B"></use><clipPath id="C"><use overflow="visible" xlink:href="#B"></use></clipPath><path fill="#ff9e22" d="m993.253 1462.208-12.225 2.172s2.684 66.132 15.935 122.881c13.251 56.749 21.731 107.066 25.442 182.368 3.71 75.302 91.696 159.541 91.696 159.541l81.625-134.099s-60.424-108.695-61.484-118.217c-1.06-9.522-54.304-155.281-54.304-155.281l-86.685-59.365z" clip-path="url(#C)"></path><path fill="#ffaca6" d="M1464.756 1684.504c-30.83-25.407-77.163-6.11-91.596.651-12.477 5.845-142.589-11.487-177.614-16.29l-124.795-192.021c-9.714-14.946-29.705-19.188-44.651-9.475l-2 1.3c-14.946 9.713-19.188 29.705-9.475 44.651l128.431 197.616c4.471 6.88 11.122 11.485 18.455 13.512l-.21.469c100.975 15.21 208.361-6.009 208.361-6.009 32.745 14.535 29.546-.919 74.531 4.907 44.986 5.825 51.393-13.905 20.563-39.311z"></path><path fill="#fe8e00" d="M1051.173 1630.84s-38.201-65.458-53.838-102.584c-15.637-37.125-24.796-82.522-5.392-99.086 19.404-16.564 52.342-15.403 70.029 8.851 17.687 24.253 83.164 128.886 83.164 128.886s-23.408 77.289-93.963 63.933z"></path><defs><path id="D" d="m1021.649 1301.608 2.345 16.078s-3.887 31.095-16.961 47.88c0 0 2.12 13.693 22.792 23.763 20.95 10.206 38.516 2.208 38.516 2.208s-3.534-23.675 6.184-52.827c9.717-29.152 9.894-30.212 9.894-30.212l-37.279-43.109-25.491 36.219z"></path></defs><use fill="#ffaca6" overflow="visible" xlink:href="#D"></use><clipPath id="E"><use overflow="visible" xlink:href="#D"></use></clipPath><path fill="#ea756c" d="M997.846 1325.459s57.951 9.187 74.912 50.883l21.908-60.071 6.36-34.982-64.664-12.014s-13.195 15.455-18.375 27.915-20.141 28.269-20.141 28.269z" clip-path="url(#E)"></path><defs><path id="F" d="m1118.341 1187.65 6.674-9.358s36.082-16.084 44.21-55.307-4.24-53.004-4.24-53.004-32.156 29.329-75.265 27.208c-43.109-2.12-95.406-17.668-138.162 40.636s4.947 118.375 15.901 133.216c10.954 14.841 56.537 46.643 56.537 46.643l34.629-51.944 59.716-78.09z"></path></defs><use fill="#1e2889" overflow="visible" xlink:href="#F"></use><clipPath id="G"><use overflow="visible" xlink:href="#F"></use></clipPath><path fill="#172272" d="M954.56 1265.389s33.676 10.247 45.195-27.915c11.519-38.163 44.911-55.124 93.674-71.025 48.763-15.901 80.035-34.829 90.106-54.517l-15.901 81.902-59.894 82.332-73.818 61.484-60.281-23.322-19.081-48.939z" clip-path="url(#G)"></path><defs><path id="H" d="M1124.171 1174.929s18.021 68.905 13.251 110.777-53.71 57.421-92.098-7.597c0 0-23.321-.353-23.675-33.569 0-13.427 9.541-18.728 21.908-14.134 0 0 2.827-16.608 17.315-17.314 14.488-.707 12.818-17.668 20.72-21.908 7.902-4.241 32.509 1.413 42.579-16.255z"></path></defs><use fill="#ffaca6" overflow="visible" xlink:href="#H"></use><clipPath id="I"><use overflow="visible" xlink:href="#H"></use></clipPath><path fill="#ea756c" d="M1018.164 1265.389s7.421-14.896 27.562-16.901c20.141-2.004 92.186-51.297 92.186-51.297l-10.56-32.862-81.625 16.961-41.343 43.463 13.78 40.636z" clip-path="url(#I)"></path><defs><path id="J" d="M1060.987 2045.832v209.428h33.105v-200.035c-11.599-8.227-23.831-9.827-33.105-9.393z"></path></defs><use fill="#0542bf" overflow="visible" xlink:href="#J"></use><clipPath id="K"><use overflow="visible" xlink:href="#J"></use></clipPath><path fill="#393d3c" d="M1053.298 2063.57s28.529 4.687 44.896 33.107c16.367 28.42 29.88-3.326 26.727-16.327-3.153-13-1.502-26.304-9.91-36.281-8.409-9.977-24.475-24.187-46.397-18.745s-24.775 2.419-23.574 14.664c1.201 12.245 3.303 25.397 3.303 25.397" clip-path="url(#K)" opacity=".35"></path><ellipse cx="956.943" cy="2402.928" fill="#273263" rx="25.603" ry="26.455"></ellipse><path fill="#273263" d="M1104.723 2426.697c0 14.611-11.464 26.455-25.603 26.455-14.14 0-25.606-11.844-25.606-26.455 0-14.614 11.466-26.457 25.606-26.457 14.139-.001 25.603 11.843 25.603 26.457zM1225.599 2402.928c0 14.612-11.463 26.455-25.604 26.455-14.139 0-25.602-11.843-25.602-26.455 0-14.614 11.463-26.455 25.602-26.455 14.141 0 25.604 11.841 25.604 26.455z"></path><path fill="#1e2889" d="M1054.92 2254.797s22.345-8.52 46.069 0l.645 29.919 116.251 89.667v21.301h-34.32l-.459-16.378-89.014-65.044.55 81.422-4.413 19.128h-23.173l-4.275-18.938-.965-79.344-88.553 62.111-.367 15.907-31.816.19v-22.535l114.022-87.107v-17.945l-.182-12.354z"></path><path fill="#273263" d="M829.149 1764.311v87.105s-5.319 56.186 19.948 84.445c22.936 25.652 75.459 44.73 84.954 48.031.965.336 1.486.508 1.486.508l12.301-27.262c3.444-.72-33.808-10.03-70.482-41.89-12.137-10.544-13.631-38.898-13.963-61.173-.332-22.275 0-92.424 0-92.424l-34.71-2.66.466 5.32z"></path><defs><path id="L" d="M1224.777 2056.211h-299.38c-10.007 0-18.119-8.112-18.119-18.119v-64.497c0-10.007 8.112-18.119 18.119-18.119h299.381c10.007 0 18.119 8.112 18.119 18.119v64.497c0 10.007-8.113 18.119-18.12 18.119z"></path></defs><use fill="#0542bf" overflow="visible" xlink:href="#L"></use><clipPath id="M"><use overflow="visible" xlink:href="#L"></use></clipPath><path fill="#053fa5" d="M894.644 1999.399h356.537l-8.284-58.834-360.422 3.976z" clip-path="url(#M)"></path><path fill="#0542bf" d="M877.19 1766.971h-69.484c-9.64 0-17.454-7.814-17.454-17.454V1529.76c0-9.64 7.815-17.454 17.454-17.454h69.484c9.64 0 17.454 7.814 17.454 17.454v219.756c0 9.64-7.814 17.455-17.454 17.455z"></path><path fill="none" d="M1154.207 2281.643a134.006 134.006 0 0 0 5.319 4.788c10.354-12.204 19.843-25.656 19.843-25.656l45.011 27.046s-5.641-.366-10.849 20.044c10.288-.607 16.383-3.886 16.383-3.886s158.555-306.927 174.117-354.63c15.561-47.703 17.491-106.046-49.205-120.925-55.612-12.406-209.099-16.393-209.099-16.393l-124.796 94.346s-19.542 28.024-13.628 35.059c33.392 39.725 249.997 13.666 259.537 33.807"></path><path fill="#0a0d26" d="M1213.531 2307.866c-12.754.752-31.956-2.614-54.005-21.435a212.15 212.15 0 0 1-5.312 6.044c-12.168 13.285-30.831 15.636-37.571 32.325-6.74 16.689 30.922 51.631 55.075 79.468 24.153 27.836 53.386 43.808 68.408 20.324 15.022-23.484-36.196-55.456-30.436-96.405 1.181-8.402 2.496-15.053 3.841-20.321z"></path><path fill="#053fa5" d="M1160.744 1729.346h2060.777v24.627H1160.744z"></path><path fill="#0542bf" d="M1160.744 1753.974h2060.777v32.617H1160.744z"></path><path fill="#273263" d="M1279.472 1786.59h25.666v676.325h-25.666zM3072.734 1786.59h25.666v676.325h-25.666z"></path><path fill="#b0d8ff" d="m3156.332 621.511-3.674 10.4-752.239-312.288-752.249 312.288-3.665-10.4 747.153-310.171 8.761-3.633 8.75 3.633z"></path></svg>