<svg xmlns="http://www.w3.org/2000/svg" xmlns:xlink="http://www.w3.org/1999/xlink" viewBox="0 0 4680 3120" id="finding-recruitment"><defs><clipPath id="e"><path fill="none" d="M4313.2 1872.54q2.84-4.68 5.55-9.49c197.67-349.7-170.29-663.2-500.88-582.46-218.12 53.27-354.82 230.54-317.81 458.41 60.66 373.36 622.31 450.25 813.14 133.54Z"></path></clipPath><clipPath id="f"><path fill="none" d="M355.56 851.27c16 146.86 121 272.28 247.21 348.84 107.82 65.41 236.17 101.52 361.18 85.16s244.85-89.42 303.3-201.27c52.42-100.34 52.31-219.56 41.44-332.28-11.24-116.49-36.8-240.15-120.61-321.72-309.47-301.18-877.78 6.69-832.52 421.27Z"></path></clipPath><clipPath id="g"><path fill="#003fc3" d="M568.49 748.28h139.09v191H568.49z" transform="rotate(-24.84 637.932 843.682)"></path></clipPath><clipPath id="h"><path fill="#003fc3" d="m976.9 635.12-92.68 91.13-124.88-127.33 92.68-91.13L976.9 635.12z"></path></clipPath><clipPath id="i"><path fill="none" d="M629.37 736.48h139.09v191H629.37z" transform="rotate(-24.84 698.8 831.901)"></path></clipPath><clipPath id="j"><path fill="none" d="m1037.79 623.32-92.68 91.13-124.89-127.33 92.68-91.13 124.89 127.33z"></path></clipPath><linearGradient id="a" x1="-7193.34" x2="-7191.38" y1="1728.81" y2="1838.77" gradientTransform="matrix(-1 0 0 1 -5724.5 0)" gradientUnits="userSpaceOnUse"><stop offset="0" stop-color="#fff"></stop><stop offset="1" stop-color="#fff" stop-opacity="0"></stop></linearGradient><linearGradient id="b" x1="-7196.56" x2="-7195.35" y1="1877.33" y2="1945.04" xlink:href="#a"></linearGradient><linearGradient id="c" x1="-8308.26" x2="-7945.25" y1="1379.44" y2="1921.24" gradientTransform="matrix(-1 0 0 1 -5079 0)" xlink:href="#a"></linearGradient><linearGradient id="d" x1="-8133.3" x2="-7770.29" y1="1262.22" y2="1804.02" gradientTransform="matrix(-1 0 0 1 -5079 0)" xlink:href="#a"></linearGradient><linearGradient id="k" x1="5840.28" x2="6019.83" y1="4328.16" y2="4585.77" gradientTransform="rotate(-41.26 -1299.618 7448.458)" xlink:href="#a"></linearGradient></defs><g data-name="3"><path fill="#fff" d="M0 0h4680v3120H0z"></path><path fill="#1f60e5" d="M3919.53 2072c-13.24-7.4-31.84 2.31-35.51 17s5.91 30.76 19.75 37c20.7 9.26 49.07-5.75 50.58-28.38s-28.42-41.08-46.76-27.74M1425.06 504.63c-18.61 24.92-7.82 66.73 21.3 77.64s65.75-16.2 61.91-47.07-49-47.33-70.54-24.91" opacity=".78"></path><g opacity=".8"><path fill="#1f60e5" d="M3768.81 1488.89c-68.77 157.69-37.56 329.76-14.25 499.69 3.83 28 7.46 55.86 10.39 83.62 3 28.6 5.29 57.07 6.3 85.3 0 .39.05.75.05 1.11q.48 13.56.56 27c.29 68.4-7.92 135.35-32.23 199.66q-1.85 4.88-3.8 9.72-5.41 13.36-11.83 26.58c-.43.9-.87 1.82-1.33 2.72a438 438 0 0 1-28.33 49.11c-1.47 2.26-3 4.51-4.55 6.76-3.8 5.53-7.8 11.05-11.94 16.53a290 290 0 0 1-70.73 66.78q-6.95 4.65-14.13 8.87a312.66 312.66 0 0 1-39.91 19.82 378.3 378.3 0 0 1-59.56 18.88c-3.95.94-7.95 1.79-12 2.61l-1 .22c-42.33 8.51-87.33 11.34-133.46 10.54-.44 0-.9 0-1.36-.05-33-.63-66.61-3.12-100.24-6.73h-.44c-117.91-12.72-236-39.16-330.13-47.3-51-4.41-102.57-8.75-154.37-12.67-129.13-9.82-260-17.06-389.88-16.41q-34.57.15-69 1.12c-58 1.6-115.73 5-172.89 10.64-11.17 1.09-22.51 2.47-34 4.07-198.7 27.64-444 122.65-631.88 43.39-34.75-14.66-66.23-35.37-97.53-56.58-28-19-55.83-38.33-85.71-54-2.76-1.46-5.55-2.88-8.33-4.27q-17.13-8.57-34.61-15.75a657.7 657.7 0 0 0-81.41-27c-18.18-4.85-36.47-9.06-54.77-12.89-21.17-4.46-42.4-8.41-63.51-12.21q-9.12-1.64-18.19-3.25l-9.38-1.7c-29.13-5.21-57.91-10.49-86-16.81-6.08-1.38-12.14-2.79-18.15-4.27C843.22 2376.5 785 2355 734.62 2316c-1.29-1-2.57-2-3.86-3-28.76-22.9-54.88-51.66-77.63-88.35a443.73 443.73 0 0 1-26.46-49.84q-7.26-16-13-32.57-6-17.16-10.3-34.82c-.75-2.89-1.43-5.79-2.09-8.72-1.57-7.1-3-14.25-4.14-21.43a393.83 393.83 0 0 1-4.92-45.82c-.12-2.66-.24-5.33-.29-8A374.94 374.94 0 0 1 609.66 1897a566.5 566.5 0 0 1 2.08-6.22 344.41 344.41 0 0 1 18.83-44.18c15-29.37 34.22-56.51 51.3-84.71a401.66 401.66 0 0 0 23.19-43.3c68.57-152.88-27.89-268.29-98.09-395.6-75-136.13 85.9-366.89 170.18-472 97.72-121.88 243.86-215.24 400-210.44 121 3.7 228 48.39 351.28 25.27 113.49-21.28 217.47-78.39 307-149.85 143.74-114.68 280.84-220 472-144.58 82.36 32.49 154.52 86.57 220.31 145.87 74.49 67.14 155.52 152.49 261.41 161.81 105.31 9.28 199.49-57.91 296.44-87.16 117.4-35.45 241.71-50.95 363.79-34.86 178.63 23.52 351.86 120.13 444.11 274.9 62.25 104.39 82 235.28 51.66 353.17-30.71 119.22-127.88 192.67-176.34 303.77Z"></path><path fill="#1f60e5" d="M542.66 1487.84c7-22.92 37.36-32 59.66-23.2s37.2 30.1 47.27 51.86A228.48 228.48 0 0 1 669 1638.35c-.88 7.51-2.34 15.42-7.38 21.06-11.43 12.77-34.34 5.26-43.17-9.43s-8.16-32.91-8.68-50-3.44-36-16.66-46.94c-10.19-8.41-24.41-10.17-35.44-17.45-20.19-13.31-23.56-45.94-6.52-63.1l16.08 2.66ZM2900.62 594.62c21.07.85 41.46-6.58 62.2-10.38 17.86-3.27 36.8-4.08 52.49-13.22s26.21-30.75 16-45.79c-6.78-10-20.42-13.46-32.37-11.6s-22.74 8-33.34 13.89c-17.37 9.58-35.26 18.63-54.49 23.52s-40.07 5.38-58.52-1.93c-7.11-2.82-24.77-15.53-32.37-10.2-8.17 5.71-1 16.59 3.63 21.43 17.73 18.66 51.39 33.26 76.77 34.28ZM4014.68 1069.48c12.17 25.53 35.27 47.59 63.36 50.86 11 1.28 24.76-2.35 27.53-13.12 2.94-11.44-8.24-21-17.21-28.71a133.69 133.69 0 0 1-41.43-65.32c-3.22-11.68-4.85-23.82-9-35.19s-11.5-22.32-22.57-27.26c-35.96-16.03-6.73 106.13-.68 118.74Z"></path></g><circle cx="3404.86" cy="949.3" r="150.02" fill="#fff" opacity=".91"></circle><g opacity=".75"><circle cx="942.66" cy="1587.69" r="86.08" fill="#fff" opacity=".91"></circle><circle cx="1193.72" cy="1471.36" r="31.83" fill="#fff" opacity=".65" transform="rotate(-83.18 1193.836 1471.379)"></circle></g><circle cx="3215.09" cy="691.2" r="41.65" fill="#fff" opacity=".91"></circle><path fill="#fff" d="M3016.46 763.14a10.42 10.42 0 1 1-10.41 10.41 10.41 10.41 0 0 1 10.41-10.41Z" opacity=".79"></path><circle cx="1575.87" cy="956.7" r="10.41" fill="#fff" opacity=".79"></circle><circle cx="1700.14" cy="825.61" r="97.14" fill="#fff" opacity=".53"></circle><circle cx="1638.32" cy="1170.8" r="20.83" fill="#fff"></circle><path fill="#fff" d="m1718.93 1433 406-109.14 172 714.82-455.55 84.81s-169.71-438.4-175.32-619.49a71.32 71.32 0 0 1 52.87-71Z" opacity=".77"></path><path fill="#1f60e5" d="m1767.4 1413.6 406-109.14 172 714.82-455.55 84.81s-169.75-438.38-175.36-619.52a71.31 71.31 0 0 1 52.91-70.97Z" opacity=".27"></path><path fill="#1f60e5" d="m1878.09 1450.16 406-109.14 172 714.82-455.55 84.81s-169.76-438.38-175.37-619.52a71.33 71.33 0 0 1 52.92-70.97Z" opacity=".27"></path><path fill="#fff" d="M3771.86 2185.66c.27 60.67-6.18 120.18-24.59 177.73a441.46 441.46 0 0 1-69.45 133.37c-166.88 220.26-535 93.31-763 73.59-257.86-22.29-527.78-42.84-786.15-17.32-204.13 20.13-467.13 131.3-665.9 47.46-34.75-14.66-66.23-35.37-97.53-56.58v-385.3h2406c.17 4.68.29 9.33.39 14 .16 4.39.21 8.71.23 13.05Z" opacity=".17"></path><path fill="#fff" d="M3771.25 2157.5H1271.61v-168.92h2483c3.83 28 7.46 55.86 10.39 83.62 3 28.6 5.24 57.07 6.25 85.3Z"></path><path fill="#1f60e5" d="M3771.25 2157.5H1271.61v-168.92h2483c3.83 28 7.46 55.86 10.39 83.62 3 28.6 5.24 57.07 6.25 85.3Z" opacity=".8"></path><path fill="#fff" d="M3771.25 2157.5H1271.61v-168.92h2483c3.83 28 7.46 55.86 10.39 83.62.08.76.17 1.53.25 2.28 2.83 27.82 5.01 55.52 6 83.02Z" opacity=".9"></path><path fill="#03157a" d="M3771.86 2185.66H1365.29v-27h2406q.49 13.51.57 27Z" opacity=".17"></path><path fill="#1f60e5" d="M3771.25 2074.36v83.14H1274.66c.95-11.49 2-23 3.25-34.51l2487.29-48.51Z" opacity=".28"></path><path fill="#1f60e5" d="M3771.86 2185.66c.27 60.67-6.18 120.18-24.59 177.73l-2382-121.28v-83.18l2406.4 13.69c.12 4.38.17 8.7.19 13.04Z" opacity=".19"></path><path fill="#fff" d="M1234.63 1526.39c10.38 18.53 26.64 40.66 49 51.4a7.54 7.54 0 0 1 3.53 9.46c-3.31 8.68-1.44 26.49 41.59 54 35.67 22.79 63.6 54.46 81.26 77.92h-63.54l13.36 61.15 1.68 7.66.78 3.58 1.68 7.71 7.9 36.15 1.94 8.91 4.81 22 .87 4 1.8 8.25.19.84 12.37 56.62 7.49 34.25 1.64 7.56 1.92 8.75H1559l6.09-30.63 7.18-36.15 4.09-20.6 5.08-25.57 8.12-40.85.56-2.84 7-35.4 2.14-10.77 1.06-5.36 11.77-59.24h-107.7l7-21.82c4.22-1.62 8.63-3.26 13.19-4.89 1.23-.44 2.47-.88 3.73-1.31.74-.27 1.5-.53 2.26-.79 1-.35 2-.7 3-1l2.5-.85q2.51-.84 5.06-1.66l1.77-.57.79-.25 1.81-.57 2.73-.84 2.62-.8q6.09-1.82 12.27-3.48l2.75-.73 2.86-.73 1.64-.42 3.29-.8c5.1-1.21 10.21-2.31 15.29-3.26l1.3-.24 3.08-.55 2.61-.43.86-.14 2.75-.41 1.05-.15 1.86-.26 2.75-.35 2.79-.31c.47-.06.94-.11 1.42-.15 3-.3 6-.53 8.94-.69l3.16-.13h1.33c2.85-.06 5.66 0 8.42 0a52.23 52.23 0 0 0 37.83-14.67l20.91-19.95c-3.83 3.64 26.74 15.72 28.43 16 16.79 2.6 36.39-3.31 52.06-9.22 39.74-14.92 81.87-49.53 93.92-91.87l-59.42-33.77a128.75 128.75 0 0 0-162.43 29.8l-9.18 11.06-42.26-3.68-11.13-1a42.32 42.32 0 0 0-24.57 5.31 4.59 4.59 0 0 0 0-.74v-3.65c0-7.58 7-13.44 14.39-11.69a28.68 28.68 0 0 0 7.62.74c18.47-.51 66.53-72.11 91.33-93.36a16.25 16.25 0 0 0 1.76-1.76 20.79 20.79 0 0 0 2-2.79c.31-.5.6-1 .88-1.57a31.49 31.49 0 0 0 1.81-4.41c2.16-6.6 2.85-15 2.57-24.24 0-.75 0-1.52-.08-2.29-.08-1.48-.17-3-.28-4.51 0-.69-.11-1.39-.17-2.09s-.11-1.2-.17-1.79-.12-1.31-.19-2-.13-1.1-.18-1.66l-.3-2.42v-.41l-.24-1.78c-.06-.53-.14-1-.21-1.57q-.54-3.74-1.17-7.48c-.12-.7-.24-1.38-.35-2.07s-.23-1.25-.34-1.88c-.16-.84-.31-1.68-.48-2.51-.25-1.36-.52-2.71-.79-4-.17-.86-.35-1.72-.54-2.57-.65-3.14-1.34-6.22-2-9.21l-.48-2c-.12-.48-.23-.94-.34-1.41l-.54-2.21a515.9 515.9 0 0 0-3.5-13.29l-.27-1c-.25-.89-.5-1.75-.74-2.6-.1-.37-.2-.73-.31-1.08s-.13-.45-.19-.67a1.09 1.09 0 0 1-.05-.17 11.84 11.84 0 0 0-15.53-7.79c-13.61 5.08-39.84 13.18-82.23 19.87-60.21 9.51-82.16 116.87-86.1 139.34a11.6 11.6 0 0 1-3.67 6.66 83.17 83.17 0 0 0-6.6 6.67c-.38.44-.76.87-1.13 1.31-.91 1.06-1.79 2.14-2.65 3.26-.36.46-.72.94-1.08 1.42s-.76 1-1.14 1.55-.85 1.19-1.27 1.8l-1 1.48c-.31.46-.61.92-.91 1.39l-.42.65c-.28.45-.56.88-.83 1.33l-1 1.69-.73 1.25c-.24.42-.49.84-.72 1.27q-1.44 2.54-2.79 5.2c-.2.37-.39.73-.57 1.11-.48 1-1 1.94-1.42 2.92-.22.45-.44.91-.64 1.37s-.43.91-.64 1.38q-.95 2.12-1.86 4.29c-.28.66-.55 1.33-.83 2-.94 2.33-1.85 4.69-2.72 7.1-.19.52-.39 1-.56 1.57s-.32.87-.47 1.31c-.28.8-.55 1.61-.83 2.42a87.59 87.59 0 0 0-12.73-14.9 54.39 54.39 0 0 0-54.58-11.19l-30.41 10.45a7.47 7.47 0 0 1-9.9-7.06 35.61 35.61 0 0 0-35.58-35.58H1251.54c-.36 0-.66 0-1 .07h-.19c-.23 0-.45 0-.68.09h-.37c-.33 0-.65.11-1 .18s-.64.14-1 .22l-.82.23-.42.14a4.5 4.5 0 0 0-.48.16l-.33.12-.65.26c-.15.07-.31.13-.46.21a.11.11 0 0 0-.08 0l-.46.21a17.18 17.18 0 0 0-2.29 1.31 5.39 5.39 0 0 0-.5.33c-.25.17-.49.35-.72.53a20.78 20.78 0 0 0-2.11 1.86c-.2.2-.39.4-.57.61a22.41 22.41 0 0 0-2.29 3c-.15.26-.31.52-.46.79-.12.21-.24.43-.35.65s-.34.67-.49 1-.23.51-.33.78a3 3 0 0 0-.13.35c-.08.21-.17.42-.23.62s-.19.58-.28.87-.13.46-.18.69l-.12.47q-.09.36-.15.72c-.06.31-.12.61-.17.92v.07c-.09.6-.14 1.21-.18 1.82a20.08 20.08 0 0 0 2.58 11.09Z"></path><path fill="#1f60e5" d="M1234.63 1526.39c10.38 18.53 26.64 40.66 49 51.4a7.54 7.54 0 0 1 3.53 9.46c-3.31 8.68-1.44 26.49 41.59 54 35.67 22.79 63.6 54.46 81.26 77.92h-63.54l13.36 61.15 1.68 7.66.78 3.58 1.68 7.71 7.9 36.15 1.94 8.91 4.81 22 .87 4 1.8 8.25.19.84 12.37 56.62 7.49 34.25 1.64 7.56 1.92 8.75H1559l6.09-30.63 7.18-36.15 4.09-20.6 5.08-25.57 8.12-40.85.56-2.84 7-35.4 2.14-10.77 1.06-5.36 11.77-59.24h-107.7l7-21.82c4.22-1.62 8.63-3.26 13.19-4.89 1.23-.44 2.47-.88 3.73-1.31.74-.27 1.5-.53 2.26-.79 1-.35 2-.7 3-1l2.5-.85q2.51-.84 5.06-1.66l1.77-.57.79-.25 1.81-.57 2.73-.84 2.62-.8q6.09-1.82 12.27-3.48l2.75-.73 2.86-.73 1.64-.42 3.29-.8c5.1-1.21 10.21-2.31 15.29-3.26l1.3-.24 3.08-.55 2.61-.43.86-.14 2.75-.41 1.05-.15 1.86-.26 2.75-.35 2.79-.31c.47-.06.94-.11 1.42-.15 3-.3 6-.53 8.94-.69l3.16-.13h1.33c2.85-.06 5.66 0 8.42 0a52.23 52.23 0 0 0 37.83-14.67l20.91-19.95c-3.83 3.64 26.74 15.72 28.43 16 16.79 2.6 36.39-3.31 52.06-9.22 39.74-14.92 81.87-49.53 93.92-91.87l-59.42-33.77a128.75 128.75 0 0 0-162.43 29.8l-9.18 11.06-42.26-3.68-11.13-1a42.32 42.32 0 0 0-24.57 5.31 4.59 4.59 0 0 0 0-.74v-3.65c0-7.58 7-13.44 14.39-11.69a28.68 28.68 0 0 0 7.62.74c18.47-.51 66.53-72.11 91.33-93.36a16.25 16.25 0 0 0 1.76-1.76 20.79 20.79 0 0 0 2-2.79c.31-.5.6-1 .88-1.57a31.49 31.49 0 0 0 1.81-4.41c2.16-6.6 2.85-15 2.57-24.24 0-.75 0-1.52-.08-2.29-.08-1.48-.17-3-.28-4.51 0-.69-.11-1.39-.17-2.09s-.11-1.2-.17-1.79-.12-1.31-.19-2-.13-1.1-.18-1.66l-.3-2.42v-.41l-.24-1.78c-.06-.53-.14-1-.21-1.57q-.54-3.74-1.17-7.48c-.12-.7-.24-1.38-.35-2.07s-.23-1.25-.34-1.88c-.16-.84-.31-1.68-.48-2.51-.25-1.36-.52-2.71-.79-4-.17-.86-.35-1.72-.54-2.57-.65-3.14-1.34-6.22-2-9.21l-.48-2c-.12-.48-.23-.94-.34-1.41l-.54-2.21a515.9 515.9 0 0 0-3.5-13.29l-.27-1c-.25-.89-.5-1.75-.74-2.6-.1-.37-.2-.73-.31-1.08s-.13-.45-.19-.67a1.09 1.09 0 0 1-.05-.17 11.84 11.84 0 0 0-15.53-7.79c-13.61 5.08-39.84 13.18-82.23 19.87-60.21 9.51-82.16 116.87-86.1 139.34a11.6 11.6 0 0 1-3.67 6.66 83.17 83.17 0 0 0-6.6 6.67c-.38.44-.76.87-1.13 1.31-.91 1.06-1.79 2.14-2.65 3.26-.36.46-.72.94-1.08 1.42s-.76 1-1.14 1.55-.85 1.19-1.27 1.8l-1 1.48c-.31.46-.61.92-.91 1.39l-.42.65c-.28.45-.56.88-.83 1.33l-1 1.69-.73 1.25c-.24.42-.49.84-.72 1.27q-1.44 2.54-2.79 5.2c-.2.37-.39.73-.57 1.11-.48 1-1 1.94-1.42 2.92-.22.45-.44.91-.64 1.37s-.43.91-.64 1.38q-.95 2.12-1.86 4.29c-.28.66-.55 1.33-.83 2-.94 2.33-1.85 4.69-2.72 7.1-.19.52-.39 1-.56 1.57s-.32.87-.47 1.31c-.28.8-.55 1.61-.83 2.42a87.59 87.59 0 0 0-12.73-14.9 54.39 54.39 0 0 0-54.58-11.19l-30.41 10.45a7.47 7.47 0 0 1-9.9-7.06 35.61 35.61 0 0 0-35.58-35.58H1251.54c-.36 0-.66 0-1 .07h-.19c-.23 0-.45 0-.68.09h-.37c-.33 0-.65.11-1 .18s-.64.14-1 .22l-.82.23-.42.14a4.5 4.5 0 0 0-.48.16l-.33.12-.65.26c-.15.07-.31.13-.46.21a.11.11 0 0 0-.08 0l-.46.21a17.18 17.18 0 0 0-2.29 1.31 5.39 5.39 0 0 0-.5.33c-.25.17-.49.35-.72.53a20.78 20.78 0 0 0-2.11 1.86c-.2.2-.39.4-.57.61a22.41 22.41 0 0 0-2.29 3c-.15.26-.31.52-.46.79-.12.21-.24.43-.35.65s-.34.67-.49 1-.23.51-.33.78a3 3 0 0 0-.13.35c-.08.21-.17.42-.23.62s-.19.58-.28.87-.13.46-.18.69l-.12.47q-.09.36-.15.72c-.06.31-.12.61-.17.92v.07c-.09.6-.14 1.21-.18 1.82a20.08 20.08 0 0 0 2.58 11.09Z" opacity=".8"></path><path fill="#fff" d="m1346.47 1719.15 13.36 61.15 1.68 7.66.78 3.58 1.68 7.71 7.9 36.15 2 8.91 4.81 22 .87 4 1.79 8.25.19.84 12.38 56.62 7.49 34.25 1.64 7.56 1.92 8.75H1559l6.09-30.63 7.18-36.15 4.09-20.6 5.08-25.57 8.12-40.85.56-2.84 7-35.4 2.13-10.77 1.06-5.36 11.77-59.24Z"></path><path fill="#fe7101" d="m1346.47 1719.15 13.36 61.15 1.68 7.66.78 3.58 1.68 7.71 7.9 36.15 2 8.91 4.81 22 .87 4 1.79 8.25.19.84 12.38 56.62 7.49 34.25 1.64 7.56 1.92 8.75H1559l6.09-30.63 7.18-36.15 4.09-20.6 5.08-25.57 8.12-40.85.56-2.84 7-35.4 2.13-10.77 1.06-5.36 11.77-59.24Z" opacity=".53"></path><path fill="#fff" d="M1234.63 1526.39c10.38 18.53 26.64 40.66 49 51.4a7.54 7.54 0 0 1 3.53 9.46c-3.31 8.68-1.44 26.49 41.59 54 35.67 22.79 63.6 54.46 81.26 77.92h69.71v-.29c0-1.27 0-2.58-.07-3.93q0-1.08-.06-2.19v-2.23c-.19-6.71-.5-14-1-21.75-2.76-43.51-11.19-99.8-35.09-134.47a87.59 87.59 0 0 0-12.73-14.9 54.39 54.39 0 0 0-54.58-11.19l-30.41 10.45a7.47 7.47 0 0 1-9.9-7.06 35.61 35.61 0 0 0-35.58-35.58h-47.71a20.26 20.26 0 0 0-14.56 6c-.2.2-.39.4-.57.61a20.28 20.28 0 0 0-2.83 23.75Z" opacity=".53"></path><path fill="#fff" d="M1443.46 1554.29c23.9 34.67 32.33 91 35.09 134.47.49 7.72.8 15 1 21.75v2.23c0 .73 0 1.47.06 2.19 0 1.35 0 2.66.07 3.93v.29h24.67l7-21.82 43.51-135.82a11 11 0 0 0 .53-2.85 4.59 4.59 0 0 0 0-.74v-3.65c0-7.58 7-13.44 14.39-11.69a28.68 28.68 0 0 0 7.62.74c18.47-.51 66.53-72.11 91.33-93.36 19.34-16.58 3.12-81.66-5-109.49a11.84 11.84 0 0 0-15.53-7.79c-13.61 5.08-39.84 13.18-82.23 19.87-60.21 9.51-82.16 116.87-86.1 139.34a11.6 11.6 0 0 1-3.67 6.66c-10.5 9.43-18.88 22.26-25.57 37a199.86 199.86 0 0 0-7.17 18.74Z" opacity=".72"></path><path fill="#fff" d="M1511.37 1697.33c4.22-1.62 8.63-3.26 13.19-4.89 33.15-11.85 73.84-23.09 106.74-21.9a52.23 52.23 0 0 0 37.83-14.67l20.91-19.95c-3.83 3.64 26.74 15.72 28.43 16 16.79 2.6 36.39-3.31 52.06-9.22 39.74-14.92 81.87-49.53 93.92-91.87l-59.45-33.7a128.75 128.75 0 0 0-162.43 29.8l-9.18 11.06-42.26-3.68-11.13-1a42.32 42.32 0 0 0-24.57 5.31 11 11 0 0 1-.53 2.85l-27.23 85-1.7 5.31Z" opacity=".87"></path><g opacity=".51"><path fill="#fff" d="M1537.75 1791.18c24.58 0 45.85.92 59.38 3.34l3.19-16.13-16.56-13.19ZM1401.35 1970.26l1.64 7.56 103-46.74 44.78-20.31 25.52-11.58 5.08-25.57 8.12-40.85.56-2.84-2.07 1.88c-9.82 8.8-22 18.86-35.71 29.56-13.13 10.3-27.59 21.21-42.45 32.16-11.28 8.31-22.8 16.65-34.17 24.78-27.37 19.6-53.96 38.02-74.3 51.95ZM1378.63 1866.3l.87 4 1.79 8.25.19.84.76-.44 39.75-22.44 50.76-28.65 57.73-32.59 7.24-4.09c-4.41 0-8.94 0-13.55.08-32.56.4-69.16 2.11-100.64 4l-5.94 9.4-25 39.52Z"></path><path fill="#fff" d="m1361.5 1788 2.46 11.3c14-1.06 35.26-2.58 59.58-4l48.08-76.08h-28.47Z"></path></g><path fill="#1f60e5" d="M1663.71 1340.33c-6.57 5.4-12.91 11.06-19.17 16.81s-12.37 11.66-18.39 17.66q-18.06 18-34.77 37.33t-31.8 39.93q-15.11 20.58-28.32 42.5-6.57 10.95-12.62 22.23t-11.38 22.91q-5.31 11.64-9.9 23.61c-3 8-5.68 16.1-8.14 24.28s-4.41 16.5-6.17 24.86l-1.21 6.29c-.4 2.09-.71 4.21-1.07 6.31l-.51 3.16-.43 3.17c-.25 2.12-.58 4.23-.78 6.35-1 8.49-1.45 17-1.66 25.53v7.99l.06 1.59.11 3.19c.07 4.26.48 8.5.78 12.74h.37c-.17-8.49-.17-17 .35-25.43s1.29-16.89 2.52-25.26 2.72-16.69 4.64-24.92 4-16.42 6.52-24.49a438.84 438.84 0 0 1 41-92.59q12.87-21.9 27.73-42.6t31.25-40.13q16.38-19.49 34.15-37.75 8.89-9.11 18.12-17.9c6.16-5.83 12.41-11.59 18.9-17.06Z" opacity=".29"></path><path fill="#1f60e5" d="M1526 1651.8c3-2.47 6.14-4.89 9.29-7.21 6.8-5 13.73-9.87 20.87-14.38a439.12 439.12 0 0 1 91.35-43.73q24-8.3 48.75-14.38t49.83-10.21q25.11-4.17 50.49-6.51c8.45-.77 16.92-1.41 25.4-1.84s17-.75 25.45-.7v-.37c-8.5-.17-17 0-25.5.33s-17 .83-25.45 1.48q-25.44 2-50.69 5.79t-50.11 9.7q-24.86 5.82-49.14 13.91-12.12 4.07-24 8.7t-23.54 10q-11.6 5.4-22.85 11.53c-7.49 4.12-14.79 8.55-22 13.17s-14.08 9.68-20.84 14.89l-5 4-.62.5Z" opacity=".33"></path><path fill="#1f60e5" d="M1237.42 1502.67q9.21 5 18.24 10.34 21.94 12.9 42.9 27.39t40.74 30.47q19.76 16 38 33.77a439 439 0 0 1 64 78.47c4.54 7.13 8.74 14.46 12.75 21.9q2.79 5.17 5.34 10.48l.73-5.53c-.11-.23-.23-.48-.35-.71l-2.83-5.75c-3.89-7.59-8-15.07-12.51-22.34s-9.25-14.36-14.26-21.28-10.31-13.61-15.77-20.16-11.19-12.89-17-19.1-11.88-12.21-18-18.1q-18.48-17.64-38.54-33.52t-41.2-30.12q-21.19-14.2-43.39-26.83-9-5.13-18.22-10c-.26.21-.45.41-.63.62Z" opacity=".58"></path><path fill="#1f60e5" d="M1511.37 1697.33c4.22-1.62 8.63-3.26 13.19-4.89 14.56-37.13 54.07-114.08 66.55-138.13l-11.13-1a42.32 42.32 0 0 0-24.57 5.31 11 11 0 0 1-.53 2.85l-27.23 85-1.7 5.31Z" opacity=".05"></path><path fill="#1f60e5" d="M1450.73 1535.6a199.86 199.86 0 0 0-7.27 18.69c23.9 34.67 32.33 91 35.09 134.47.49 7.72.8 15 1 21.75v2.23c0 .73 0 1.47.06 2.19 0 1.35 0 2.66.07 3.93v.29h22.2c11.87-71.84-28.47-147.74-51.15-183.55Z" opacity=".08"></path><g opacity=".7"><path fill="url(#a)" d="m1346.47 1719.15 13.36 61.15 7.18 3.02 31.94 13.45 18.65 7.86 55.17 23.23 46.66 19.65 32.89 13.85 29.1 12.25 8.12-40.85-1.51-.96-57.54-36.53-6.31-4.01-40.34-25.61-31.62-15.8-28.57-14.27-32.88-16.43h-44.3z"></path><path fill="url(#b)" d="m1371.87 1835.4 1.95 8.91 4.81 21.99.87 4 1.79 8.25h.01l.95.4 93.45 39.35 30.34 12.78 59.03 24.86 7.18-36.15-21.43-9.02-40.95-17.25-87.87-37.01-29.37-12.36-20.75-8.75h-.01z"></path></g><g opacity=".83"><path fill="#fff" d="m2565.48 1932.32 17.42-.1 18.75-.11 98.76-.56 41.3-.26 48.61-.27 122.58-.72 223.11-1.31 115.23-.65 48.87-.29.19-.72 146.27-552.31 1.87-7.08 2.78-10.49-83.12.48-171.19.99-140.06.82-65.38.38-274.88 1.6-136.6 515.8-14.51 54.8z"></path><path fill="#fe7101" d="m2565.48 1932.32 17.42-.1 18.75-.11 98.76-.56 41.3-.26 48.61-.27 122.58-.72 223.11-1.31 115.23-.65 48.87-.29.19-.72 146.27-552.31 1.87-7.08 2.78-10.49-83.12.48-171.19.99-140.06.82-65.38.38-274.88 1.6-136.6 515.8-14.51 54.8z" opacity=".39"></path><path fill="#fe7101" d="M2271.15 1986.28v.83l292.6-2 135.9-.92L2871 1983l425.51-2.89-.31-44.2-44.86.31-115.23.78-229.77 1.56-115.93.8-55.39.38-79.25.53-60.91.42-30.72.21h-.68l-248.46 1.71a1.51 1.51 0 0 0-.3 0 44.19 44.19 0 0 0-43.55 43.67Z"></path><path fill="#fff" d="m3300.61 1927.33-717.71 4.88 148.16-559.39 717.7-4.89-148.15 559.4z"></path><path fill="#fe7101" d="M3259.19 1651.79c-38 17.15-171.45 31.75-298 32.61S2763 1672.06 2801 1654.91s171.43-31.74 297.95-32.6 198.28 12.34 160.24 29.48Z" opacity=".82"></path><path fill="#fff" d="M2271.15 1986.29v.82l292.6-2-.3-44.19-248.45 1.69a1.42 1.42 0 0 0-.29 0 44.2 44.2 0 0 0-43.56 43.68Z" opacity=".63"></path><path fill="#fff" d="M2655.74 1931.39h134.65v19.42h-134.65z" transform="rotate(-.39 2728.906 1945.606)"></path><path fill="#fff" d="M3136.07 1928.18h115.23v19.42h-115.23z" transform="rotate(-.39 3191.712 1936.897)"></path><path fill="#fe7101" d="M2655.74 1931.39h134.65v19.42h-134.65z" opacity=".57" transform="rotate(-.39 2728.906 1945.606)"></path><path fill="#fe7101" d="M3136.07 1928.18h115.23v19.42h-115.23z" opacity=".57" transform="rotate(-.39 3191.712 1936.897)"></path><path fill="#fe7101" d="m2735.83 1379.87 711.05-4.84 1.88-7.1-717.7 4.89-148.16 559.39 6.65-.05 146.28-552.29z" opacity=".44"></path><g opacity=".47"><path fill="url(#c)" d="m2699.65 1984.18 171.32-1.16 35.34-44.44 6.59-8.28.26-.34L3354 1375.65l5.65-7.1 8.45-10.62-171.19.99-8.58 10.79-5.65 7.1-440.85 554.33-.1.13-.02.02-6.72 8.47-8.79 11.02-26.55 33.4z"></path><path fill="url(#d)" d="m2542.95 1924.09 21.16 16.83 18.71 14.88 12.01-15.09 6.82-8.6.03-.02 440.82-554.31 5.67-7.12 8.68-10.92-65.38.38-8.74 11-5.65 7.1-361.06 453.98-9.94 12.51-26.09 32.81-37.04 46.57z"></path></g></g><path fill="#fff" d="M4374.2 1674.51c-1.13 42.65-10.14 87.06-28.38 132.45q-4.14 10.36-9 20.77-8.13 17.58-18.12 35.32c-1.8 3.2-3.66 6.38-5.55 9.5-190.82 316.71-752.46 239.82-813.13-133.54a473.818 473.818 0 0 1-5.18-45.62c-.44-7.44-.73-14.81-.8-22.1a398.53 398.53 0 0 1 10-95.33q2.43-10.76 5.52-21.22a365 365 0 0 1 27.44-67.85q5.45-10.4 11.57-20.38c55.54-90.92 150.28-156.85 269.25-185.93 216.91-53 449.91 63.78 528.66 249.13q4.88 11.52 9 23.38 5.11 14.79 8.88 30.12 2.79 11.24 4.79 22.73a339.59 339.59 0 0 1 4.89 46.52c.33 7.29.36 14.64.16 22.05Z"></path><path fill="#1f60e5" d="M4374.2 1674.51c-1.13 42.65-10.14 87.06-28.38 132.45q-4.14 10.36-9 20.77-8.13 17.58-18.12 35.32c-1.8 3.2-3.66 6.38-5.55 9.5-190.82 316.71-752.46 239.82-813.13-133.54a473.818 473.818 0 0 1-5.18-45.62c-.44-7.44-.73-14.81-.8-22.1a398.53 398.53 0 0 1 10-95.33q2.43-10.76 5.52-21.22a365 365 0 0 1 27.44-67.85q5.45-10.4 11.57-20.38c55.54-90.92 150.28-156.85 269.25-185.93 216.91-53 449.91 63.78 528.66 249.13q4.88 11.52 9 23.38 5.11 14.79 8.88 30.12 2.79 11.24 4.79 22.73a339.59 339.59 0 0 1 4.89 46.52c.33 7.29.36 14.64.16 22.05Z" opacity=".08"></path><g clip-path="url(#e)" opacity=".68"><path fill="#003fc3" d="m4047.28 1970.26-307.43-106.37 63-217.85 4.47.11c.42.47.89.86 1.32 1.29l15.78 14.58c2.31 5.66 5 11.51 8.11 18 10.61 22.37 23.51 49.86 41.84 70.25.2.2.36.42.55.61l-9.15 35.21-15.33 58.91-7.51 28.91 132.45 24 3.63-38.34 6.21-65.71 3.14-33.43c.21-.12.4-.28.61-.39 6.57-4.21 12.8-8.82 18.75-13.49 13.28-10.4 27.9-18.58 37.74-32.09 1.64-2.19 3.2-4.43 4.78-6.7l1.81-.8.46-.19Z" opacity=".68"></path><path fill="#fff" d="m4121.63 2473.6-566.47-380.39 45.27-190.13a128.41 128.41 0 0 1 107.19-97.54c3.17-.44 6.35-.78 9.56-1l26.3-1.67 42.8-2.72 22.82-1.44 48.49-3.09 1.79-.11-1 3.75-5.6 20.28 10.83 4.6 81.14 34.34 28.8 12.19L3985 1823l2.75-11.51 6.84 3L4018 1825l25.49 11.29 58.3 25.82a113 113 0 0 1 19.66 11.69c.26.18.52.39.76.57 34.15 25.56 46.7 66.62 46.95 113.18Z"></path><path fill="#1f60e5" d="m4121.63 2473.6-577.07-184.37 55.87-386.15a128.41 128.41 0 0 1 107.19-97.54c3.17-.44 6.35-.78 9.56-1l26.3-1.67 42.8-2.72 22.82-1.44 48.49-3.09 1.79-.11-1 3.75-5.6 20.28 10.83 4.6 81.14 34.34 28.8 12.19L3985 1823l2.75-11.51 6.84 3L4018 1825l25.49 11.29 58.3 25.82a113 113 0 0 1 19.66 11.69c.26.18.52.39.76.57 34.15 25.56 46.7 66.62 46.95 113.18Z" opacity=".36"></path><path fill="#fff" d="M4106 1660.32c-2.6 12.26-10.41 24.39-19 30.35a1.94 1.94 0 0 1-.45.35c-.43.27-.83.54-1.27.81a63.64 63.64 0 0 1-8.12 4.2l-24.58 10.76-.46.19-1.81.8c-1.58 2.27-3.14 4.51-4.78 6.7-9.84 13.51-24.46 21.69-37.74 32.09-5.95 4.67-12.18 9.28-18.75 13.49-.21.11-.4.27-.61.39l-3.14 33.43-6.21 65.71-3.63 38.34-132.45-24 7.51-28.91 15.33-58.93 9.15-35.21c-.19-.19-.35-.41-.55-.61-18.33-20.39-31.23-47.88-41.84-70.25-3.06-6.46-5.8-12.31-8.11-18l-15.78-14.58c-.43-.43-.9-.82-1.32-1.29a65.32 65.32 0 0 1-13.44-18.69 66.22 66.22 0 0 1-6.32-24 19.3 19.3 0 0 1 15.61-20.35l22.93-4.38c6.81-18.41 16.21-36.07 23.68-54q15.61-37.52 31.2-75.07l178.72-18.24 13.2 91.73q1.52 38.3 3.05 76.7c.27 7.27.9 14.76 1.33 22.25l.38.22 24.61 14.16a3 3 0 0 1 .31.45c4.45 6.51 5.08 15.01 3.35 23.39Z"></path><path fill="#1f60e5" d="M3987.25 1782.67c-21 14.08-45.3 24.73-70.82 20.11-19.58-3.55-35.28-15.09-48.23-30.12l6.18-22.37c12.6 14 27.74 24.73 46.49 28.13 24.44 4.43 47.7-5.15 68.11-18.34Z" opacity=".14"></path><path fill="#003fc3" d="M4071.51 1403.82c28 26.12 46.8 57.47 45.65 96.2-.68 23.1-1.14 42.17-9.12 64.36-7.69 21.4-18 41.76-25.78 63.13-.73 2-4.31 12.06-11-5-.42-1-.77-2-1.13-3.07-.5-1.41-1-2.94-1.39-4.51-.49-1.78-1-3.63-1.43-5.58a.92.92 0 0 0-.1-.36c-.4-1.86-.79-3.77-1.12-5.73-.2-1-.4-2.12-.55-3.2q-.6-3.19-1-6.58c-.3-2.24-.57-4.52-.86-6.84s-.53-4.67-.7-7.07c-.33-3.56-.6-7.14-.81-10.78-.12-1.65-.21-3.35-.3-5s-.17-3.29-.21-4.93-.16-3-.21-4.53c-.17-5-.28-10-.36-14.73 0-2.08 0-4.13-.05-6.11V1522.05c0-1.36 0-2.67.06-4v-.52l.75-23.07.06-.62v-1c-22.8 7.25-49.51 1.78-72.22-3.08s-55.32-19.7-78.7-12.59c-6.86 2.09-12.67 6.67-17.95 11.53-14.67 13.53-24.61 29-33.08 46.74-1.52 3.19-3.06 6.31-4.66 9.33-.6 1.16-1.24 2.38-1.86 3.51s-1.29 2.29-1.91 3.42-1.27 2.21-1.9 3.26-1.27 2.08-1.93 3.09a87.31 87.31 0 0 1-7.71 10.71c-4.23 4.84-9.76 7.5-13.94 11.92 6.28-12.69.1-36.64-.37-50.48-.68-19.72-1.31-39.55.91-59.2 2.26-20 3.72-45.54 15-63 7.41-11.49 18.53-20 30-27.52 28.9-18.88 62.79-27.12 97.19-27.54 39.34-.54 75.22 25.25 102.73 50.88Z" opacity=".68"></path><path fill="#1f60e5" d="m4061.92 1494.47-.76 23.07c.16-11.19.57-19.65.76-23.07ZM4063.68 1586.65c.28 2.3.56 4.61.86 6.83a6.75 6.75 0 0 1-.14-.76c-.26-1.99-.51-4.01-.72-6.07Z" opacity=".31"></path><path fill="#003fc3" d="m4020.13 2022.69-44.9-13.11 17.12 43-86.23 81.09-102.58 96.45-51.93-124.44-47-112.69 51.18-63-38.54-7 20.92-115.78 10.06-2.44 39.62-2.51 21.11-1.34 44.88-2.85.7 3.36 4.85 23 17.47 82.6 57.62-50.82 37.23-32.84 8.88-7.83 21.74 9.66 23.58 10.45 54 23.9a103.4 103.4 0 0 1 18.2 10.82l.7.52Z" opacity=".36"></path><path fill="#fff" d="m3987 1811.21-9.7 4.78a89.52 89.52 0 0 1-103.58-17.68l-9.07-9.26-7.56 12.09-28.56 336.67 109.39-174Z"></path></g><path fill="#fff" d="m4187.76 1524.35 13.07-17.45a10 10 0 0 0-1.89-1.09c7.94 2.84 67.52 12.17 147.6 23.9q4.88 11.52 9 23.38c-160.66-23.38-164.41-26.22-167.78-28.74ZM4374.2 1674.51c-179.06-25.88-182.93-28.81-186.44-31.43l13.07-17.44a8.93 8.93 0 0 0-1.89-1.09c8.84 3.15 81.44 14.34 175.12 27.91.31 7.29.34 14.64.14 22.05Z"></path><path fill="#1f60e5" d="m4187.76 1575.24 13.07-17.45a9.44 9.44 0 0 0-1.89-1.09c8.52 3 76.48 13.57 165.44 26.51q2.79 11.24 4.79 22.73c-174.1-25.2-177.95-28.11-181.41-30.7Z" opacity=".36"></path><path fill="#fff" d="m3709.34 1582.36-3 21.61c-1.06-.14-96.58-13.13-202.29-28q2.43-10.76 5.52-21.22c68.58 9.63 139.3 19.4 199.77 27.61Z"></path><path fill="#1f60e5" d="m3755.32 1495.13-3 21.61c-1.09-.14-104.55-14.2-215.31-29.85q5.45-10.4 11.57-20.38c70.74 9.98 144.21 20.11 206.74 28.62Z" opacity=".18"></path><path fill="#fff" d="m3709.34 1701.09-3 21.62c-1.09-.15-102.2-13.89-211.51-29.32-.44-7.44-.73-14.81-.8-22.1 73.35 10.35 150.26 20.96 215.31 29.8ZM4345.82 1807q-4.14 10.36-9 20.77c-182.78-26.39-186.7-29.35-190.24-32l13.07-17.45a10 10 0 0 0-1.89-1.09c9.29 3.24 88.24 15.34 188.06 29.77ZM355.56 851.27c16 146.86 121 272.28 247.21 348.84 107.82 65.41 236.17 101.52 361.18 85.16s244.85-89.42 303.3-201.27c52.42-100.34 52.31-219.56 41.44-332.28-11.24-116.49-36.8-240.15-120.61-321.72-309.47-301.18-877.78 6.69-832.52 421.27Z"></path><path fill="#1f60e5" d="M355.56 851.27c16 146.86 121 272.28 247.21 348.84 107.82 65.41 236.17 101.52 361.18 85.16s244.85-89.42 303.3-201.27c52.42-100.34 52.31-219.56 41.44-332.28-11.24-116.49-36.8-240.15-120.61-321.72-309.47-301.18-877.78 6.69-832.52 421.27Z" opacity=".08"></path><g clip-path="url(#f)"><g opacity=".13"><path fill="#003fc3" d="M612.41 582.85h653.39v869.21H612.41z" transform="rotate(-24.84 938.948 1017.357)"></path><path fill="#003fc3" d="M568.49 748.28h139.09v191H568.49z" transform="rotate(-24.84 637.932 843.682)"></path><path fill="#003fc3" d="M568.49 748.28h139.09v191H568.49z" opacity=".08" transform="rotate(-24.84 637.932 843.682)"></path><path fill="#003fc3" d="M568.49 748.28h139.09v191H568.49z" transform="rotate(-24.84 637.932 843.682)"></path><g clip-path="url(#g)"><path fill="#003fc3" d="m676.47 889.31-29.99 13.79-2.6-7.01-5.32-14.29-5.62-15.12 22.29-15.09 8.4 14.92 8.11 14.4 4.73 8.4z"></path><path fill="#003fc3" d="M759.19 924.85 620 988.87l-18-45.51a32.08 32.08 0 0 1 7.62-35.21c.58-.54 1.16-1.06 1.78-1.55l5-4.06 8.2-6.61 4.37-3.52 9.29-7.49.34-.28.33.92 1.76 5 2.83-.59 21.16-4.4 7.52-1.56-4.49-11.42-1.09-2.76 1.81-.34 6.2-1.17 6.72-1.28 15.36-2.93a27.82 27.82 0 0 1 5.61-.38h.23c10.49.44 18.85 7.11 25.53 16.65Z"></path><path fill="#003fc3" d="M759.19 924.85 620 988.87l-18-45.51a32.08 32.08 0 0 1 7.62-35.21c.58-.54 1.16-1.06 1.78-1.55l5-4.06 8.2-6.61 4.37-3.52 9.29-7.49.34-.28.33.92 1.76 5 2.83-.59 21.16-4.4 7.52-1.56-4.49-11.42-1.09-2.76 1.81-.34 6.2-1.17 6.72-1.28 15.36-2.93a27.82 27.82 0 0 1 5.61-.38h.23c10.49.44 18.85 7.11 25.53 16.65Z" opacity=".47"></path><path fill="#003fc3" d="M661.93 825.09a39.63 39.63 0 0 1 2.5 14.52v2.06c-.06 4.17-1.83 7.92-3 11.94a65.33 65.33 0 0 1-1.84 5.42c-2.22 5.6-5.52 10.86-11.06 13.4-4.24 2-8.8 1.89-13.33.78-6.57-1.6-13.07-5.42-18.38-8.53-1.54-.89-2.92-1.72-4.18-2.55a23.57 23.57 0 0 1-8.92-10.13 39.29 39.29 0 0 1-2.63-7.25c-1.25-4.74-1.88-9.7-2.94-14.46q-2.21-9.91-4.42-19.84l33.26-29 15.69 17 11.53 15.35c1.09 1.46 2.28 2.9 3.43 4.39a30.84 30.84 0 0 1 4.29 6.9Z"></path><path fill="#003fc3" d="M662.44 863.92c-2.21 5.87-5.56 11.49-11.34 14.15-4.43 2-9.22 1.88-14 .62l-1.95-5.48c4.53 1.11 9.09 1.17 13.33-.78 5.54-2.54 8.84-7.8 11.06-13.4Z" opacity=".11"></path><path fill="#003fc3" d="m602.28 843.51-5.16 5.38a4.87 4.87 0 0 0-.25 6.39 16.51 16.51 0 0 0 10.5 6.07l7.14 1ZM668.85 822a13.2 13.2 0 0 1 .51 8.94s0 .09-.05.13-.09.23-.14.35a15.81 15.81 0 0 1-1 2l-3.47 5.78-.25.42-6.84-21.45h.16l7-.56h.13a7.58 7.58 0 0 1 3.95 4.39ZM639.55 798.94c-1.45-2.18-2.54-3.9-3-4.7ZM641.46 801.75l-1-1.4c.35.45.67.92 1 1.4ZM646.46 786.29c-.38-.45-.77-.89-1.17-1.33.41.44.8.88 1.17 1.33Z"></path><path fill="#003fc3" d="M650.9 814c-6.88-3.73-17.38-13.1-17.38-13.1-3.56 5.74-31 14.26-31 14.26 1.2 6.43.57 13.28-.36 18.51-1.2-9-4.63-20.07-4.76-21.23 0-.21.27-.47.83-.76 4.95-2.62 30.92-8.5 38-17.89l.15.22c.38.63 1.55 2.5 3.21 5l.08.11A138.12 138.12 0 0 0 650.9 814ZM708.87 909.44l-11.75 3.94 10.32 6.94-6.23 31.19-7.41 37.1-30.39-19.72L635.89 951l1.42-21.81-9.43 4.33-13.27-28.93 1.81-2.07 8.2-6.61 4.37-3.52 9.29-7.49.67.64 4.59 4.37L660 905.63l4.67-20.1 3-13 .72-3.1 6.2-1.17 6.72-1.28 15.36-2.93a27.82 27.82 0 0 1 5.61-.38h.23Z"></path><path fill="#003fc3" d="m708.87 909.44-11.75 3.94 10.32 6.94-6.23 31.19-7.41 37.1-30.39-19.72L635.89 951l1.42-21.81-9.43 4.33-13.27-28.93 1.81-2.07 8.2-6.61 4.37-3.52 9.29-7.49.67.64 4.59 4.37L660 905.63l4.67-20.1 3-13 .72-3.1 6.2-1.17 6.72-1.28 15.36-2.93a27.82 27.82 0 0 1 5.61-.38h.23Z" opacity=".5"></path><path fill="#003fc3" d="m666.45 869.84-1.27 2.35a21.58 21.58 0 0 1-23.29 11l-3.14-.62.2 3.55 42.18 73.29-2.81-51.25Z"></path><path fill="#003fc3" d="M652.06 794.92c3.46 7 5 14.77 7.37 23.66.13.51.85 3.09-2.92.53-.51-.35-1-.75-1.58-1.2s-1.08-.94-1.64-1.48l-.56-.55c-.86-.87-1.74-1.82-2.63-2.83l-.74-.86c-1-1.14-1.93-2.35-2.87-3.56l-.56-.72-.54-.72-.61-.81-1-1.35c-.18-.24-.35-.48-.51-.71-.44-.6-.86-1.2-1.27-1.78a3.21 3.21 0 0 0-.21-.3c-.11-.16-.22-.33-.34-.49-.33-.48-.65-1-1-1.4s-.59-.88-.86-1.3l-.08-.11-3-4.7-.09-.15-.08-.12-.15-.22c-.14.18-.28.37-.44.55-7.65 9.07-32.69 14.77-37.54 17.34-.56.29-.84.55-.83.76s.07.33.14.64a.83.83 0 0 0 0 .15.43.43 0 0 0 0 .11c0 .12.06.25.1.39l.27 1 .06.24a2 2 0 0 1 .07.26q.09.31.18.66l.12.46c0 .2.11.41.17.61l.62 2.4c0 .16.09.32.13.49.19.78.4 1.6.61 2.45.06.27.13.55.19.84s.21.87.31 1.31c.05.21.09.42.14.62.08.35.16.7.23 1.05.14.65.28 1.29.41 1.95a88.686 88.686 0 0 1 .83 4.74c.08.53.15 1 .21 1.54v.3c.08.65.15 1.28.19 1.9v.46a24.64 24.64 0 0 1 0 3.75c-.3 3.56-1.4 3.16-1.07 4.53-4.24-8-7.31-11.27-11.45-19.3a58.24 58.24 0 0 1-5-12.16 25.54 25.54 0 0 1-.8-4.9c-.48-8.84 4.3-17 11.5-23a46.69 46.69 0 0 1 16.23-8.78 47 47 0 0 0 6.83-1.52c16-4.84 17.24-15.74 17.24-15.74s14 13.4 9.28 25.13c.4.44.79.88 1.17 1.33s.73.89 1.08 1.34l.52.68c.17.22.33.45.49.68l.48.68c.39.58.76 1.16 1.12 1.75.1.17.21.33.3.5s.31.51.45.77.19.36.29.53l.3.57.3.56c.26.17.38.36.44.55Z" opacity=".63"></path><path fill="#003fc3" d="m636.34 794-.59.32c.16-.18.3-.37.44-.55Z"></path></g><path fill="#003fc3" d="m733.62 722.85 290.61-134.51M747.19 752.24l290.61-134.51M747.19 752.24l290.61-134.51M760.76 781.63l290.61-134.51M628.64 997.06l481.41-222.82M655.1 1054.38l481.41-222.82M682.24 1113.16l481.41-222.82M709.38 1171.94l481.41-222.82M736.52 1230.73l481.41-222.82M1689.35 750.68l-435.39 428.1-568.32-579.46 435.39-428.11 568.32 579.47z"></path><path fill="#003fc3" d="m976.9 635.12-92.68 91.13-124.88-127.33 92.68-91.13L976.9 635.12z"></path><path fill="#003fc3" d="m976.9 635.12-92.68 91.13-124.88-127.33 92.68-91.13L976.9 635.12z" opacity=".08"></path><path fill="#003fc3" d="m976.9 635.12-92.68 91.13-124.88-127.33 92.68-91.13L976.9 635.12z"></path><g clip-path="url(#h)"><path fill="#003fc3" d="m853.7 638.89 31.52 43.35 43.45-48.23-38.57-30.91-36.4 35.79z" opacity=".71"></path><path fill="#003fc3" d="m916.23 644.97-22.05 21.57-4.5-5.35-9.15-10.89-9.7-11.53 14.86-20.29 12.09 10.48 11.65 10.11 6.8 5.9z"></path><path fill="#003fc3" d="M1000.15 650.19 897.78 750.34 867.68 716a30 30 0 0 1-4.35-33.38c.33-.65.69-1.29 1.07-1.92l3.16-5.16 5.14-8.4 2.74-4.47 5.81-9.51.22-.35.58.7 3.1 3.81 2.31-1.41 17.23-10.53 6.12-3.74-7.54-8.64-1.82-2.08 1.48-.87 5.09-3 5.51-3.24 12.6-7.42a25.41 25.41 0 0 1 4.81-2.09l.21-.07c9.36-2.92 18.81.32 27.68 6.61Z"></path><path fill="#003fc3" d="M1000.15 650.19 897.78 750.34 867.68 716a30 30 0 0 1-4.35-33.38c.33-.65.69-1.29 1.07-1.92l3.16-5.16 5.14-8.4 2.74-4.47 5.81-9.51.22-.35.58.7 3.1 3.81 2.31-1.41 17.23-10.53 6.12-3.74-7.54-8.64-1.82-2.08 1.48-.87 5.09-3 5.51-3.24 12.6-7.42a25.41 25.41 0 0 1 4.81-2.09l.21-.07c9.36-2.92 18.81.32 27.68 6.61Z" opacity=".47"></path><path fill="#003fc3" d="M883.27 593.06A36.91 36.91 0 0 1 890 605c.22.61.44 1.21.64 1.81 1.27 3.69.88 7.54 1.11 11.45.09 1.75.15 3.55.08 5.35-.19 5.62-1.45 11.29-5.52 15.27-3.12 3.05-7.15 4.43-11.47 4.89-6.29.66-13.21-.66-18.86-1.72-1.63-.3-3.1-.6-4.48-.93a22 22 0 0 1-11-6.12 36.25 36.25 0 0 1-4.58-5.54c-2.59-3.78-4.71-7.94-7.14-11.8l-10.12-16.06 20.15-36 19.15 10 14.95 9.87c1.42.94 2.92 1.83 4.4 2.78a28.7 28.7 0 0 1 5.96 4.81Z"></path><path fill="#003fc3" d="M895.92 627.05c-.11 5.86-1.29 11.86-5.54 16-3.26 3.19-7.52 4.56-12.09 4.94l-3.42-4.2c4.32-.46 8.35-1.84 11.47-4.89 4.07-4 5.33-9.65 5.52-15.27Z" opacity=".11"></path><path fill="#003fc3" d="m836.58 628-2.85 6.36a4.54 4.54 0 0 0 1.8 5.7 15.37 15.37 0 0 0 11.13 2l6.61-1.32ZM888.38 588.14a12.27 12.27 0 0 1 3.25 7.7.62.62 0 0 1 0 .13v.35a14.89 14.89 0 0 1-.27 2.1l-1.23 6.17-.13.41-12.75-16.71.14-.06 5.93-2.69h.13a7.07 7.07 0 0 1 4.93 2.6ZM855.37 577.1c-2-1.46-3.46-2.63-4.15-3.18ZM857.94 579l-1.3-.93ZM857.48 563.79c-.48-.27-1-.54-1.45-.8.5.26.97.53 1.45.8Z"></path><path fill="#003fc3" d="M870.07 586.73c-7.22-1.11-19.4-6.05-19.4-6.05-1.33 6.17-22.81 22.31-22.81 22.31a49.78 49.78 0 0 1 5.5 16.39c-3.88-7.52-10.38-16.2-10.86-17.18-.08-.17.1-.49.49-.92 3.54-3.86 24.53-17.22 27.79-27.7l.2.15a143 143 0 0 0 4.39 3.37l.1.07a128.29 128.29 0 0 0 14.6 9.56ZM951.05 652.47l-9.1 7.17 11.25 2.85 4.33 29.4 5.13 35-32.93-7.78-29.82-7.11-5.6-19.64-6.93 6.79-20.76-21.27.94-2.4 5.14-8.4 2.74-4.47 5.81-9.51.8.35 5.41 2.4 19.43 8.62-2.2-19.15-1.42-12.32-.34-3 5.09-3 5.51-3.24 12.6-7.42a25.41 25.41 0 0 1 4.81-2.09l.21-.07Z"></path><path fill="#003fc3" d="m951.05 652.47-9.1 7.17 11.25 2.85 4.33 29.4 5.13 35-32.93-7.78-29.82-7.11-5.6-19.64-6.93 6.79-20.76-21.27.94-2.4 5.14-8.4 2.74-4.47 5.81-9.51.8.35 5.41 2.4 19.43 8.62-2.2-19.15-1.42-12.32-.34-3 5.09-3 5.51-3.24 12.6-7.42a25.41 25.41 0 0 1 4.81-2.09l.21-.07Z" opacity=".5"></path><path fill="#003fc3" d="m901.3 631-.38 2.47a20.19 20.19 0 0 1-17 17l-3 .44 1.3 3.07 60.11 51.19L923.77 661Z"></path><path fill="#003fc3" d="M819.5 570.8a46.63 46.63 0 0 1-5.5 6.56 44.82 44.82 0 0 1 5.5-6.56ZM850.68 573.85c0 .12-.07.23-.11.36-2 5.3-8.24 11.29-14.35 16.36a157.52 157.52 0 0 0 13.64-15.51 9.21 9.21 0 0 0 .82-1.21Z" opacity=".5"></path><path fill="#003fc3" d="M865.12 569.61c5.24 5.12 9 11.42 13.9 18.5.28.42 1.73 2.46-2.4 1.39a16 16 0 0 1-1.75-.56c-.61-.22-1.26-.49-1.93-.78-.2-.1-.42-.21-.66-.31-1-.49-2.1-1.05-3.2-1.67l-.93-.52a75.89 75.89 0 0 1-3.64-2.23c-.23-.15-.47-.31-.72-.45l-.7-.46c-.25-.17-.53-.34-.79-.53-.42-.29-.87-.57-1.29-.87-.24-.15-.44-.31-.68-.46-.55-.4-1.13-.79-1.67-1.17l-.27-.2c-.16-.1-.31-.22-.46-.32l-1.29-.93c-.4-.3-.79-.58-1.16-.87l-.1-.07-4.16-3.18-.12-.1-.11-.08-.17-.12-.1.27a9.21 9.21 0 0 1-.82 1.21 157.52 157.52 0 0 1-13.64 15.51c-5.84 4.83-11.54 8.87-13.23 10.7-.13.15-.23.27-.31.38s-.23.42-.17.56a5.11 5.11 0 0 0 .31.52.58.58 0 0 0 .1.12.14.14 0 0 0 .05.09 2.1 2.1 0 0 0 .19.3c.18.24.36.51.56.8l.13.21a1.27 1.27 0 0 1 .13.19c.14.17.25.34.39.54s.15.23.24.36.24.32.35.49c.38.59.83 1.22 1.3 1.91a4.28 4.28 0 0 0 .26.38l1.3 2c.15.21.3.45.44.67s.45.72.68 1.07l.33.5c.16.28.35.56.53.85q.48.78 1 1.59c.52.84 1 1.72 1.5 2.57l.73 1.33c.23.43.46.86.66 1.3l.13.23c.27.56.51 1.09.76 1.62.05.14.12.27.18.41a28 28 0 0 1 1.16 3.29c.86 3.23-.24 3.23.49 4.34-6.24-5.69-10-7.62-16.13-13.39a54.09 54.09 0 0 1-8.21-9.13 23.52 23.52 0 0 1-2.22-4c-9.43-3.17-10.34-16.23-1.68-21.42a32.11 32.11 0 0 0 5.87-4.56 46.63 46.63 0 0 0 5.5-6.56c.46-.64.94-1.34 1.39-2a30.08 30.08 0 0 1 15.61-12.13 11.59 11.59 0 0 1 13.42 4 34.67 34.67 0 0 1 14.31 8.17c.16.13.29.27.44.4Z" opacity=".71"></path><path fill="#003fc3" d="M836.22 590.57a102.17 102.17 0 0 1-10 8.75 28.22 28.22 0 0 1-3.54 2.33c.08-.11.18-.23.31-.38 1.69-1.83 7.39-5.87 13.23-10.7ZM850.78 573.58a.59.59 0 0 1-.14.23Z" opacity=".5"></path><path fill="#003fc3" d="m851 573.73-.42.47q.12-.32.21-.63Z"></path></g><path fill="#003fc3" d="m914.22 480.55 213.38-209.82M935.39 502.13l213.38-209.82M935.39 502.13l213.38-209.82M956.55 523.71l213.39-209.81M908 754.81l353.48-347.57M949.27 796.89l353.49-347.57M991.6 840.06l353.49-347.58M1033.94 883.22l353.48-347.57M1076.27 926.38l353.49-347.57"></path></g><path fill="#fff" d="M673.29 571.05h653.39v869.21H673.29z" transform="rotate(-24.84 999.821 1005.554)"></path><path fill="#fff" d="M629.37 736.48h139.09v191H629.37z" transform="rotate(-24.84 698.8 831.901)"></path><path fill="#1f60e5" d="M629.37 736.48h139.09v191H629.37z" opacity=".08" transform="rotate(-24.84 698.8 831.901)"></path><g clip-path="url(#i)"><path fill="#fff" d="m737.35 877.51-29.98 13.79-2.61-7.01-5.31-14.29-5.63-15.12 22.29-15.09 8.41 14.93 8.11 14.39 4.72 8.4z"></path><path fill="#fff" d="m820.07 913.05-139.24 64-18-45.5a32.11 32.11 0 0 1 7.63-35.22c.57-.54 1.16-1.06 1.77-1.55l5-4.06 8.2-6.61 4.37-3.52 9.29-7.49.35-.28.32.92 1.77 5 2.82-.58 21.17-4.41 7.51-1.56-4.49-11.42-1.02-2.77 1.81-.34 6.2-1.17 6.72-1.28 15.37-2.93a26.94 26.94 0 0 1 5.6-.37h.24c10.49.43 18.85 7.1 25.52 16.64Z"></path><path fill="#1f60e5" d="m820.07 913.05-139.24 64-18-45.5a32.11 32.11 0 0 1 7.63-35.22c.57-.54 1.16-1.06 1.77-1.55l5-4.06 8.2-6.61 4.37-3.52 9.29-7.49.35-.28.32.92 1.77 5 2.82-.58 21.17-4.41 7.51-1.56-4.49-11.42-1.02-2.77 1.81-.34 6.2-1.17 6.72-1.28 15.37-2.93a26.94 26.94 0 0 1 5.6-.37h.24c10.49.43 18.85 7.1 25.52 16.64Z" opacity=".47"></path><path fill="#fff" d="M722.82 813.29a39.63 39.63 0 0 1 2.49 14.52v2c0 4.17-1.82 7.92-3 11.94-.53 1.79-1.12 3.63-1.84 5.42-2.22 5.6-5.52 10.86-11.05 13.4-4.25 2-8.81 1.89-13.33.79-6.58-1.61-13.08-5.43-18.39-8.53-1.53-.9-2.91-1.73-4.18-2.56a23.45 23.45 0 0 1-8.91-10.14 39.26 39.26 0 0 1-2.62-7.25c-1.26-4.74-1.89-9.7-3-14.46q-2.21-9.91-4.42-19.84l33.27-29 15.69 17q5.74 7.68 11.52 15.35c1.09 1.46 2.29 2.9 3.43 4.39a31.25 31.25 0 0 1 4.34 6.97Z"></path><path fill="#1f60e5" d="M723.33 852.12c-2.22 5.88-5.57 11.49-11.35 14.15-4.43 2-9.22 1.88-14 .62l-1.94-5.47c4.52 1.1 9.08 1.16 13.33-.79 5.53-2.54 8.83-7.8 11.05-13.4Z" opacity=".11"></path><path fill="#fff" d="m663.16 831.71-5.16 5.38a4.85 4.85 0 0 0-.24 6.39 16.54 16.54 0 0 0 10.49 6.08l7.14 1.05ZM729.74 810.18a13.14 13.14 0 0 1 .5 8.94.65.65 0 0 1 0 .13c-.05.12-.1.23-.14.35a17.31 17.31 0 0 1-1 2l-3.47 5.78-.24.43-6.83-21.45h.16l7-.56h.13a7.65 7.65 0 0 1 3.89 4.38Z"></path><path fill="#2d1d2c" d="M700.44 787.14c-1.46-2.18-2.55-3.89-3-4.7ZM702.35 790c-.34-.48-.66-1-1-1.4.34.4.65.87 1 1.4ZM707.34 774.49c-.38-.45-.76-.89-1.17-1.33.41.44.83.84 1.17 1.33Z"></path><path fill="#fff" d="M711.78 802.15c-6.87-3.73-17.38-13.1-17.38-13.1-3.55 5.74-31 14.26-31 14.26 1.2 6.43.56 13.28-.37 18.51-1.19-9-4.62-20.07-4.75-21.23 0-.21.27-.46.82-.76 5-2.62 30.93-8.5 38-17.89l.14.22c.38.63 1.56 2.5 3.22 5l.07.11a139.44 139.44 0 0 0 11.25 14.88ZM769.75 897.64 758 901.58l10.32 6.94-6.23 31.19-7.4 37.1-30.39-19.72-27.53-17.87 1.42-21.81-9.43 4.33-13.27-28.92 1.81-2.08 8.2-6.61 4.37-3.52 9.29-7.49.67.64 4.59 4.38 16.49 15.69 4.68-20.1 3-13 .72-3.1 6.2-1.17 6.72-1.28 15.37-2.93a26.94 26.94 0 0 1 5.6-.37h.24Z"></path><path fill="#003fc3" d="M769.75 897.64 758 901.58l10.32 6.94-6.23 31.19-7.4 37.1-30.39-19.72-27.53-17.87 1.42-21.81-9.43 4.33-13.27-28.92 1.81-2.08 8.2-6.61 4.37-3.52 9.29-7.49.67.64 4.59 4.38 16.49 15.69 4.68-20.1 3-13 .72-3.1 6.2-1.17 6.72-1.28 15.37-2.93a26.94 26.94 0 0 1 5.6-.37h.24Z" opacity=".5"></path><path fill="#fff" d="m727.33 858-1.26 2.35a21.58 21.58 0 0 1-23.3 11l-3.14-.62.21 3.56L742 947.62l-2.81-51.26Z"></path><path fill="#003fc3" d="M713 783.12c3.45 7 5 14.77 7.36 23.66.13.52.86 3.09-2.92.53a18.81 18.81 0 0 1-1.57-1.2c-.54-.45-1.09-.94-1.65-1.48l-.55-.55a61.72 61.72 0 0 1-2.64-2.83l-.74-.86c-1-1.14-1.93-2.34-2.87-3.56l-.55-.72-.55-.72-.61-.81-1-1.35-.51-.71c-.43-.6-.86-1.2-1.26-1.78l-.22-.3-.33-.49c-.34-.48-.66-1-1-1.4l-.87-1.3-.07-.11-3-4.7-.1-.15-.07-.12-.14-.22c-.14.19-.29.37-.45.55-7.65 9.07-32.68 14.78-37.54 17.34-.55.3-.84.55-.82.76a5.9 5.9 0 0 0 .13.64s0 .1 0 .16v.1c0 .12.06.25.09.39l.27 1c0 .08 0 .16.07.25s0 .16.06.25.12.43.18.66l.12.46c.06.2.12.41.17.62.19.73.4 1.54.63 2.39l.12.49c.2.78.4 1.6.61 2.45.07.27.13.55.2.84s.2.87.3 1.32l.15.61c.07.35.15.7.23 1 .14.65.27 1.3.4 2 .21 1 .41 2.1.58 3.15.09.53.17 1.06.26 1.59s.14 1 .2 1.54v.3c.07.65.14 1.28.18 1.9v.46a25.91 25.91 0 0 1 0 3.75c-.3 3.56-1.4 3.17-1.07 4.53-4.24-8-7.31-11.27-11.45-19.3a58 58 0 0 1-5-12.16 24.76 24.76 0 0 1-.79-4.9c-.49-8.84 4.29-17 11.5-23a46.73 46.73 0 0 1 16.22-8.78 49 49 0 0 0 6.83-1.51c16-4.85 17.23-15.75 17.23-15.75s14.05 13.4 9.28 25.13c.41.44.79.88 1.17 1.33s.74.89 1.09 1.34l.51.68c.17.23.34.45.49.68s.33.46.48.68c.39.58.77 1.16 1.12 1.75l.31.5c.15.26.3.51.44.77l.3.54.3.56c.1.19.19.38.29.56s.33.36.47.55Z" opacity=".63"></path><path fill="#2d1d2c" d="m697.22 782.16-.6.32c.16-.18.31-.36.45-.55Z"></path></g><path fill="none" stroke="#1f60e5" stroke-miterlimit="10" stroke-width="2" d="m794.5 711.05 290.61-134.51M808.07 740.44l290.61-134.51M808.07 740.44l290.61-134.51M821.64 769.83l290.61-134.5M689.52 985.26l481.42-222.82M715.98 1042.58l481.42-222.82M743.12 1101.36l481.41-222.82M770.26 1160.14l481.41-222.81M797.4 1218.93l481.41-222.82"></path><path fill="#fff" d="m1750.23 738.88-435.39 428.1-568.32-579.46 435.39-428.11 568.32 579.47z"></path><path fill="#fff" d="m1037.79 623.32-92.68 91.13-124.89-127.33 92.68-91.13 124.89 127.33z"></path><path fill="#1f60e5" d="m1037.79 623.32-92.68 91.13-124.89-127.33 92.68-91.13 124.89 127.33z" opacity=".08"></path><g clip-path="url(#j)"><path fill="#003fc3" d="m914.58 627.09 31.52 43.36 43.45-48.23-38.57-30.92-36.4 35.79z" opacity=".71"></path><path fill="#fff" d="m977.11 633.17-22.05 21.57-4.49-5.35-9.16-10.89-9.7-11.53 14.87-20.29 12.08 10.48 11.65 10.11 6.8 5.9z"></path><path fill="#fff" d="M1061 638.39 958.66 738.54l-30.1-34.37a30 30 0 0 1-4.35-33.38c.33-.65.69-1.29 1.07-1.92l3.16-5.16 5.14-8.4 2.74-4.47 5.82-9.51.21-.35.58.7 3.11 3.81 2.3-1.4 17.24-10.54 6.11-3.74-7.53-8.63-1.83-2.09 1.49-.87 5.08-3 5.51-3.24 12.6-7.41a24.84 24.84 0 0 1 4.81-2.1l.21-.06c9.36-2.93 18.81.31 27.68 6.6Z"></path><path fill="#1f60e5" d="M1061 638.39 958.66 738.54l-30.1-34.37a30 30 0 0 1-4.35-33.38c.33-.65.69-1.29 1.07-1.92l3.16-5.16 5.14-8.4 2.74-4.47 5.82-9.51.21-.35.58.7 3.11 3.81 2.3-1.4 17.24-10.54 6.11-3.74-7.53-8.63-1.83-2.09 1.49-.87 5.08-3 5.51-3.24 12.6-7.41a24.84 24.84 0 0 1 4.81-2.1l.21-.06c9.36-2.93 18.81.31 27.68 6.6Z" opacity=".47"></path><path fill="#fff" d="M944.16 581.26a37.07 37.07 0 0 1 6.75 12c.22.61.44 1.21.64 1.81 1.27 3.69.89 7.54 1.11 11.46.1 1.74.15 3.54.08 5.34-.19 5.63-1.44 11.29-5.51 15.27-3.12 3-7.15 4.44-11.48 4.89-6.29.66-13.21-.66-18.86-1.72-1.62-.3-3.1-.59-4.47-.93a21.85 21.85 0 0 1-11-6.12 35.74 35.74 0 0 1-4.59-5.54c-2.59-3.78-4.7-7.94-7.13-11.79l-10.12-16.07 20.14-36 19.15 10 14.95 9.87c1.42.94 2.93 1.83 4.4 2.78a29 29 0 0 1 5.94 4.75Z"></path><path fill="#1f60e5" d="M956.8 615.25c-.11 5.87-1.29 11.86-5.54 16-3.26 3.19-7.52 4.56-12.08 4.94l-3.43-4.2c4.33-.45 8.36-1.84 11.48-4.89 4.07-4 5.32-9.64 5.51-15.27Z" opacity=".11"></path><path fill="#fff" d="m897.47 616.24-2.85 6.36a4.55 4.55 0 0 0 1.79 5.7 15.45 15.45 0 0 0 11.14 2l6.61-1.33ZM949.27 576.34a12.2 12.2 0 0 1 3.24 7.7.62.62 0 0 1 0 .13v.35a14.71 14.71 0 0 1-.27 2.1L951 592.8l-.09.44-12.75-16.71.14-.06 5.94-2.69h.12a7.11 7.11 0 0 1 4.91 2.56Z"></path><path fill="#2d1d2c" d="M916.26 565.3c-2-1.46-3.46-2.63-4.15-3.18ZM918.82 567.17l-1.29-.93ZM918.36 552c-.48-.28-1-.55-1.45-.81.5.26.98.53 1.45.81Z"></path><path fill="#fff" d="M931 574.93c-7.22-1.11-19.4-6-19.4-6-1.33 6.17-22.81 22.31-22.81 22.31a49.76 49.76 0 0 1 5.5 16.4c-3.88-7.53-10.37-16.21-10.85-17.18-.08-.18.09-.5.48-.93 3.54-3.86 24.54-17.22 27.8-27.7l.19.15c.54.43 2.16 1.71 4.4 3.37l.1.08a129.47 129.47 0 0 0 14.59 9.5ZM1011.93 640.67l-9.09 7.17 11.25 2.85 4.32 29.4 5.14 35-32.93-7.78-29.82-7-5.61-19.63-6.93 6.78-20.76-21.35.94-2.4 5.14-8.4 2.74-4.47 5.82-9.51.79.35 5.41 2.41 19.43 8.61-2.19-19.15-1.42-12.37-.34-3 5.08-3 5.51-3.24 12.6-7.41a24.84 24.84 0 0 1 4.81-2.1l.21-.06Z"></path><path fill="#003fc3" d="m1011.93 640.67-9.09 7.17 11.25 2.85 4.32 29.4 5.14 35-32.93-7.78-29.82-7-5.61-19.63-6.93 6.78-20.76-21.35.94-2.4 5.14-8.4 2.74-4.47 5.82-9.51.79.35 5.41 2.41 19.43 8.61-2.19-19.15-1.42-12.37-.34-3 5.08-3 5.51-3.24 12.6-7.41a24.84 24.84 0 0 1 4.81-2.1l.21-.06Z" opacity=".5"></path><path fill="#fff" d="m962.18 619.19-.37 2.47a20.21 20.21 0 0 1-17 17l-2.95.44 1.29 3.06 60.11 51.19-18.56-44.2Z"></path><path fill="#003fc3" d="M880.39 559a46.84 46.84 0 0 1-5.5 6.56 43.6 43.6 0 0 1 5.5-6.56ZM911.56 562.05c0 .12-.07.23-.11.36-2 5.3-8.23 11.29-14.34 16.36a156.38 156.38 0 0 0 13.64-15.51 7.74 7.74 0 0 0 .81-1.21Z" opacity=".5"></path><path fill="#003fc3" d="M926 557.82c5.24 5.11 9.06 11.41 13.91 18.49.27.42 1.72 2.46-2.4 1.39-.56-.14-1.15-.33-1.76-.55s-1.26-.5-1.92-.79c-.21-.1-.43-.21-.67-.31-1-.49-2.1-1-3.2-1.67l-.92-.52c-1.21-.69-2.43-1.44-3.65-2.23-.23-.15-.47-.31-.71-.45l-.71-.46-.78-.52-1.3-.88c-.24-.15-.44-.31-.68-.46-.55-.4-1.13-.79-1.66-1.17l-.28-.2c-.15-.1-.3-.22-.46-.32-.44-.31-.86-.63-1.29-.93s-.79-.58-1.16-.87l-.1-.07-4.16-3.18-.1-.12-.11-.08-.17-.11v-.05l-.1.27a7.74 7.74 0 0 1-.81 1.21 156.38 156.38 0 0 1-13.64 15.51c-5.85 4.83-11.54 8.87-13.24 10.7-.13.15-.22.28-.31.39s-.22.41-.17.55a5.11 5.11 0 0 0 .31.52.58.58 0 0 0 .1.12s0 .06.05.09a2.61 2.61 0 0 0 .2.3l.56.8.12.21a.9.9 0 0 1 .14.2c.13.16.24.33.38.53s.15.23.25.36.23.32.34.49c.38.59.84 1.22 1.3 1.92l.26.37c.43.63.85 1.29 1.3 2 .15.21.3.45.44.67s.45.72.68 1.07l.33.5c.17.28.36.56.54.85.31.52.64 1 .95 1.59.52.84 1 1.72 1.51 2.57l.72 1.33c.23.43.46.87.67 1.3 0 .07.08.17.12.24.27.55.52 1.08.76 1.61l.18.41a26.83 26.83 0 0 1 1.16 3.29c.86 3.23-.24 3.23.49 4.34-6.23-5.69-10-7.62-16.13-13.39a54.52 54.52 0 0 1-8.21-9.13 22.44 22.44 0 0 1-2.21-4c-9.44-3.17-10.35-16.23-1.68-21.42a32.11 32.11 0 0 0 5.87-4.56 46.84 46.84 0 0 0 5.5-6.56c.46-.65.94-1.34 1.39-2.06a30.08 30.08 0 0 1 15.56-12.15 11.59 11.59 0 0 1 13.42 4 34.62 34.62 0 0 1 14.32 8.2c.15.12.29.26.44.39s.29.29.42.43Z" opacity=".71"></path><path fill="#003fc3" d="M897.11 578.77a104.83 104.83 0 0 1-10 8.76 30.26 30.26 0 0 1-3.55 2.33c.09-.11.18-.24.31-.39 1.7-1.83 7.39-5.87 13.24-10.7ZM911.66 561.78v.05a.52.52 0 0 1-.14.22Z" opacity=".5"></path><path fill="#2d1d2c" d="m911.86 561.93-.42.47c.08-.21.15-.42.22-.63Z"></path></g><path fill="none" stroke="#1f60e5" stroke-miterlimit="10" stroke-width="2" d="m975.1 468.75 213.39-209.82M996.27 490.33l213.38-209.81M996.27 490.33l213.38-209.81M1017.43 511.91l213.39-209.81M968.88 743.01l353.49-347.57M1010.15 785.09l353.49-347.57M1052.49 828.26l353.48-347.58M1094.82 871.42l353.49-347.57M1137.15 914.58l353.49-347.57"></path></g><path fill="#f8bbc2" d="M1884.67 910.85c16.09-3.36 69.1-35 72-52.55 1.72-10.24-15.76-22.36-19.78-32.61-5.58-14.19-5.31-31 2.18-44.42 3.49-6.27 8.33-11.93 10.18-18.86s-.75-15.89-7.67-17.76-13.37 4.15-17.86 9.79c-21 26.36-85.18 129.21-37.64 156.85 4.14 2.41 8.86 3.58 13.55 4.57a215.71 215.71 0 0 0 47.2 4.65c5.08-.06 10.57-.46 14.41-3.77 2.73-2.35 4.19-5.82 5.55-9.16 10.42-25.51 20.42-56.22 4.94-79-5.8-8.55-14.49-14.63-21.83-21.9s-13.7-16.89-12.62-27.16c.66-6.29 4-11.92 7.22-17.37q15.67-26.64 29.16-54.49c6.57-13.55 12.78-29.44 6.61-43.18-25.46 28.53-51.08 57.28-70.87 90-16.49 27.26-29 57.73-32.33 89.61-.76 7.45-3.18 68.91 7.6 66.76Z"></path><path fill="#e8635d" d="M1884.67 910.85c16.09-3.36 69.1-35 72-52.55 1.72-10.24-15.76-22.36-19.78-32.61-5.58-14.19-5.31-31 2.18-44.42 3.49-6.27 8.33-11.93 10.18-18.86s-.75-15.89-7.67-17.76-13.37 4.15-17.86 9.79c-21 26.36-85.18 129.21-37.64 156.85 4.14 2.41 8.86 3.58 13.55 4.57a215.71 215.71 0 0 0 47.2 4.65c5.08-.06 10.57-.46 14.41-3.77 2.73-2.35 4.19-5.82 5.55-9.16 10.42-25.51 20.42-56.22 4.94-79-5.8-8.55-14.49-14.63-21.83-21.9s-13.7-16.89-12.62-27.16c.66-6.29 4-11.92 7.22-17.37q15.67-26.64 29.16-54.49c6.57-13.55 12.78-29.44 6.61-43.18-25.46 28.53-51.08 57.28-70.87 90-16.49 27.26-29 57.73-32.33 89.61-.76 7.45-3.18 68.91 7.6 66.76Z" opacity=".3"></path><path fill="#fff" d="m1858.99 877.99 4.85 82.39 96.29-10.62-4.21-76.61-96.93 4.84z"></path><path fill="#fff" d="M1963.88 304.13C1871.29 384.56 1861 526.25 1941 619.21a222.81 222.81 0 0 0 85.42 61.42L1935 1034a17.32 17.32 0 0 0 13.57 21.31l.35.07a17.24 17.24 0 0 0 19.86-12.66L2060 691.26a223.57 223.57 0 0 0 199.82-51.06c90-80.31 99.84-219.33 22-311.47-80.89-95.65-223.91-106.28-317.94-24.6Zm279.46 320.23c-83.5 73.26-210.57 65-283.83-18.54s-65-210.57 18.54-283.83 210.57-65 283.83 18.54 64.96 210.57-18.54 283.83Z"></path><path fill="#003fc3" d="M1963.88 304.13C1871.29 384.56 1861 526.25 1941 619.21a222.81 222.81 0 0 0 85.42 61.42L1935 1034a17.32 17.32 0 0 0 13.57 21.31l.35.07a17.24 17.24 0 0 0 19.86-12.66L2060 691.26a223.57 223.57 0 0 0 199.82-51.06c90-80.31 99.84-219.33 22-311.47-80.89-95.65-223.91-106.28-317.94-24.6Zm279.46 320.23c-83.5 73.26-210.57 65-283.83-18.54s-65-210.57 18.54-283.83 210.57-65 283.83 18.54 64.96 210.57-18.54 283.83Z"></path><circle cx="2111.77" cy="473.24" r="193.54" fill="#fff" opacity=".25" transform="rotate(-45 2111.762 473.24)"></circle><path fill="url(#k)" d="M2234.8 352.24a163.19 163.19 0 0 1 40.2 95.35c2 26.27-30.47 40-47.86 20.24l-1.24-1.41c-59.18-65.9-161.21-72.6-228.51-15a163.19 163.19 0 0 0-42.69 56.7 164 164 0 0 1 280.1-155.88Z" opacity=".52"></path><path fill="#003fc3" d="m2389.06 1806.05-1.22 48.46-17.22 686.76q-34.57.15-69 1.12c-58 1.6-115.73 5-172.89 10.64-11.17 1.09-22.51 2.47-34 4.07l-37.61-743.78Z"></path><path fill="#03157a" d="m2389.06 1806.05-1.22 48.46-11.94 476.19-5.28 210.57q-34.57.15-69 1.12c-58 1.6-115.73 5-172.89 10.64-11.17 1.09-22.51 2.47-34 4.07l-32.28-638.25-1-20.36-2.3-45.19-2-40 34.6-.75 249.36-5.48Z" opacity=".3"></path><path fill="#03157a" d="m2341.05 1807.09-.87 34.7-11.94 476.21c-22.37-121.54-44-246.45-146.43-328-12.36-9.84-74.3-44.35-119.39-71.14l-1-20.36-2.3-45.19-2-40 34.6-.75Z" opacity=".44"></path><path fill="#003fc3" d="M2760.5 2557.68c-125.25-9.53-252.18-16.63-378.18-16.43h-11.7q-29 .12-57.82.83l-11.19.29a4.35 4.35 0 0 1 0-.51c.15-5.94.34-12 .51-18.3q.41-14.28.8-29.53c3.46-135.38 6.52-320.34 8.5-456.52.29-18.73.54-36.52.76-53.14 1.11-77.85 1.74-129.88 1.74-129.88h363.47l4.19 35.4 4.24 35.91v.08l14.88 126 18.49 156.46 17.81 150.47Z"></path><path fill="#512d50" d="M3577.19 1295.71c-35.45 83.34-100.76 151.3-174.93 203.28-120.94 84.76-265.67 124.62-410.38 100.54h-.1q-20-3.3-39.86-8.26c-106.1-26.44-205.67-81.64-286.63-156.07a663 663 0 0 1-84.81-94.36c-21.08-28.62-48.36-50-78.92-67.56-47.9-27.57-103.85-45.87-156.65-68.23-.15 0-.29-.12-.41-.17a577.45 577.45 0 0 1-58.31-28.11c-22.51-12.67-43.44-27.31-61.66-45.24q-4.59-4.5-9-9.31c-12.5-13.78-24.69-34.4-13.88-49.6 6.91-9.71 20-11.92 31.45-15.36 39.72-12 69.13-47.06 84.67-85.54s19.28-80.52 22.85-121.85c.09-1.19.19-2.35.29-3.52q5.88-68 11.73-136c3.61-41.8 0-93.22 11.48-133.41a107 107 0 0 1 9.21-22.13c26.31-47.88 88-82.84 137.34-93a210.91 210.91 0 0 1 69-2.56c39.18 4.91 77.08 20.45 107.85 45.19 63 50.66 89.34 128.08 116 206.4 18.75 55 37.68 110.4 69.64 157.31 68.57 100.66 205.09 153.17 320.55 114.3 29.74-10 57.58-25.35 86-38.6 9.38-4.36 18.85-8.53 28.47-12.16.77-.32 1.52-.59 2.3-.88a228.62 228.62 0 0 1 32.54-9.54c88.66-18.52 183.53 33.19 227.72 112.24s41.9 178.87 6.45 262.2Z"></path><path fill="#020e49" d="M2629.5 824c-5.66 1.15-13.38-5.14-19.67-9.21a8.11 8.11 0 0 1-2.44-2.44 8.39 8.39 0 0 1 2.05-11.19 9.8 9.8 0 0 0 3.34-4.73 2.17 2.17 0 0 0-1.18-.63c-12.68-2.2-19.39-16.21-22.3-28.74-7.78-33.56 9.16-69.08 6.93-103.46a97.27 97.27 0 0 0-5.81-26.83 153.36 153.36 0 0 0-19.14-35.77 8.27 8.27 0 0 1-1.56-4.48l-.14-3.24c.39 9.33 14.32 22.85 19 30.77 20.64 35.18 23.1 78.77 29.41 118.18 1.62 10 3.27 20.24 7.49 29.51 5.82 12.74 13.78 27.3 10.92 42-1.32 6.71-3.8 9.57-6.9 10.26Z" opacity=".32"></path><path fill="#03157a" d="M2700.74 2051.92c-10.18 23.94-72.16 15.35-95.2 15.52q-54 .43-107.92-4.14c-35.06-3-70.58-7.71-102.64-22.19-27.07-12.22-67.2-29.35-76.25-60.17-2.62-8.93-3.08-18.33-4.23-27.56-3.38-27.06-7.24-55.09-13.95-81.54-3.77-14.85-18.38-52-6.43-65.79 30.63-35.23 171.8 51.9 232.88 48.46 14.11-.8 26.9-1.21 37.47-1.43a264.57 264.57 0 0 1 36.66 1.43c45.12 5.33 70.61 25.47 84.71 71.31v.08Z" opacity=".2"></path><path fill="#020e49" d="M2991.78 1599.5c-12.05-6-26.58-4.94-39.86-8.26-106.1-26.44-205.67-81.64-286.63-156.07l30.29-83.46s-91.54-35.67-194-78.46c-53-22.15-108.94-46.21-156.65-68.23-.15 0-.29-.12-.41-.17-21.45-9.91-41.22-19.41-58.31-28.11-42.81-21.86-68.71-38.82-61.66-45.24 1.64-1.53 5.13-2.45 10.66-2.71 99.35-4.85 169.62-288.36 169.62-288.36h219.6s134.15 642.13 367.35 759.07Z" opacity=".32"></path><path fill="#020e49" d="M2414.5 881.63s-33.92 201.12-123.58 230.19 458 116.31 453.12 109-152.65-203.54-147.81-339.23-181.73.04-181.73.04Z"></path><path fill="#f8bbc2" d="M2571 974.12c4.1 58.35 24 102.57 24 102.57l-128.42 77.54s-145.39-101.77-89.66-101.77c16.24 0 27.53-10.49 35.52-25.47s12.68-34.6 15.61-52.63c.29-1.72.56-3.42.8-5.09 1.19-7.83 2.06-15.26 2.76-21.73 1.43-13 2.21-22.25 3.47-23.51l34.36-16.64 109.86-53.29 15.7-7.61c-1.23 2.35-2.42 4.73-3.54 7.1a214.71 214.71 0 0 0-16.93 52.58 266.47 266.47 0 0 0-3.53 67.95Z"></path><path fill="#f8bbc2" d="M2598.66 794.39c-6.3 10.79-10-14.68-10.4-17.64-3.22-22-4.07-44.39-4.94-66.58-.61-15.63-1-31.29-1.26-46.94-.24-13.67 3.39-32.11-8.53-41.34-4.8-3.73-10.42-6.32-14.93-10.37-8.24-7.36-12-18.75-20.09-26.22a31.43 31.43 0 0 0-23.11-8.14c-6 .39-11.68 2.5-17.16 4.92-16 7.12-31.3 18.22-39 33.63-.53 3.27-.77 5.75-.41 6.26l-1.45-2a50 50 0 0 0-1 2.69 7 7 0 0 0-.78-5 120.56 120.56 0 0 0-11.8-13.86c2.84 2.71 9.33 8.67 11.8 13.86.61.77 1.17 1.55 1.75 2.32a51.82 51.82 0 0 1 1.86-4.29c.85-5.38 2.4-12.89 3-17.22a15.55 15.55 0 0 0 .19-2.74c-.5-9.38-3.27-17.74-7.41-26.08l-96.22 23.61s-23.72 33.22-24.23 33.92c-7.83 11-.92 29.78-.37 41.89.75 17.09-2.37 33.9-8.38 50a180.21 180.21 0 0 1-7.71 17.26 78.76 78.76 0 0 1 7.13-7.4c-.56.54-1.07 1.07-1.58 1.63a75 75 0 0 0-14.44 22.92c-10.81 26.7-1 57.11 8.92 82.34q5.78 14.72 11.53 29.39c16 40.83 49.24 78.07 92.13 91.47a54.62 54.62 0 0 0 8.55 1.94c43.37 6.4 103.51-32.81 149.07-73 37.63-33.25 65.28-67.2 65.28-76.7.03-21.79-29.05-43.6-46.01-14.53Zm-162.28-197a54.48 54.48 0 0 0-4.92-3.12 46.87 46.87 0 0 1 4.92 3.12Z"></path><path fill="#e8635d" d="M2430.32 958.68c-.43 3.42-.89 7-1.45 10.59 41.72 6 99.88-27.26 145.68-63.1a216.57 216.57 0 0 1 4.87-20.54c-45.56 40.24-105.72 79.47-149.1 73.05Z" opacity=".3"></path><path fill="#f8bbc2" d="M2455.64 617.68a120.56 120.56 0 0 0-11.8-13.86c2.84 2.71 9.33 8.67 11.8 13.86ZM2458.84 622l-1.45-2a51.82 51.82 0 0 1 1.86-4.29c-.53 3.29-.77 5.75-.41 6.29ZM2350.12 706.19c-7.18 8.48-16.75 15.22-24.91 22.8 7.87-8.06 17.52-14.27 24.91-22.8Z"></path><path fill="#f8bbc2" d="M2455.64 617.68a120.56 120.56 0 0 0-11.8-13.86c2.84 2.71 9.33 8.67 11.8 13.86ZM2458.84 622l-1.45-2a51.82 51.82 0 0 1 1.86-4.29c-.53 3.29-.77 5.75-.41 6.29Z"></path><path fill="#003fc3" d="m2345.44 1033.07 48.46 31.5 89.66 31.5 123.58-24.23 43.27-17.13 27 9.86-315.78 758.26-78.64-23.58 62.45-766.18z"></path><path fill="#03157a" d="m2352.3 1044.1 34.72 180 37.15 60.27L2595 1128.11l-61.44 216.79s-160.27 49.38-162.7 44.71S2248.52 1265 2248.52 1265Z" opacity=".38"></path><path fill="#03157a" d="m2655.19 1073.18-144.06 131.52a16.16 16.16 0 0 1-26.94-10l-5.38-44.13-2.93-24.11-22.15 24.28-35.86 39.33a14.4 14.4 0 0 1-24.45-5.52c-13.55-45-41.12-136.81-41.12-140.47h9.06c8.94 31 25.37 85.75 34.89 117.33a14.4 14.4 0 0 0 24.45 5.52l35.86-39.33 22.15-24.28 2.93 24.11 5.38 44.13a16.18 16.18 0 0 0 26.95 10l120.14-109.69c11.97 1.31 21.08 1.31 21.08 1.31Z" opacity=".4"></path><path fill="#fff" d="M2809.9 1290.55c-11.87 37.49-23.81 75.1-40.41 110.84-31.5 67.84-70.27 370.74-60.58 462.81 3.8 36 16 69.18-13.81 94.41-45.53 38.57-109.19 25.85-164.29 24-58.16-2-116.26-6.35-174.17-11.88a24.25 24.25 0 0 1-21.91-25.61l27.67-458.91-67.85 482.2c0-.29-3.17-1.41-8.45-3.06l-3.08-1-1.7-.51c-1.16-.37-2.37-.73-3.63-1.12-12.07-3.63-29-8.53-45.41-13.2-1.72-.49-3.44-1-5.16-1.48l-2.55-.73c-1.69-.48-3.36-.94-5-1.43-2.47-.7-4.91-1.38-7.26-2.06-1.58-.46-3.13-.89-4.63-1.31l-4.39-1.26c-1.43-.41-2.81-.8-4.14-1.16l-13.11-3.76c-.83-.21-1.58-.43-2.25-.63-1.65-.48-2.82-.82-3.35-1-57.57-18.17-135.21-34.82-183.24-73.23-25-20-9.2-63.75-3.41-90.65 8.12-37.7 17.78-75.06 27.72-112.31 26.68-100 55.88-199.47 86.5-298.36l-116.89 129.42a53.18 53.18 0 0 1-46.59 17l-8.36-1.14a52.7 52.7 0 0 1-38.41-25.35c-67.78-115.6-39.33-558.55-39.33-558.55h118.74l50.83 281.16 87.86-143.28c.15-.22.27-.43.42-.65a80.6 80.6 0 0 1 68.3-37.8h177.64l-7 152.24-14.63 317.8 111.47-181.73 14.37-18.1L2658 1050c27.77 2.94 80.18 13.77 117.43 21.93 105.3 23.07 54.83 154.48 34.47 218.62Z"></path><path fill="#fe7101" d="M2822 1252.73c-4.27 14-8.63 26.85-12.1 37.77-11.87 37.49-23.81 75.1-40.41 110.84-31.5 67.84-70.27 370.74-60.58 462.81 3.05 29 11.56 56.1-.75 78.73a55.14 55.14 0 0 1-13.06 15.68c-45.53 38.57-109.19 25.85-164.29 24-31.7-1.07-63.39-2.86-95-5.19q-29.94-2.15-59.87-4.89-9.63-.87-19.26-1.8c-.39 0-.78-.07-1.17-.14s-.77-.12-1.14-.19a25.15 25.15 0 0 1-4.41-1.29c-.53-.19-1-.44-1.55-.68s-.92-.46-1.38-.72a25.21 25.21 0 0 1-5.4-4.17c-.32-.32-.63-.66-.92-1a23.93 23.93 0 0 1-3-4.26c-.27-.49-.51-1-.73-1.48a2.92 2.92 0 0 1-.17-.36c-.17-.39-.34-.78-.49-1.17a24 24 0 0 1-1.57-10.13l20.94-347.33 2.81-46.47 3.92-65.11-8.26 58.71-6.62 47-53 376.46c0-.29-3.17-1.41-8.45-3.06l-3.08-1-1.7-.51c-1.16-.37-2.37-.73-3.63-1.12-12.07-3.63-29-8.53-45.41-13.2l-.44-.13c-1.57-.46-3.15-.92-4.72-1.35l-2.55-.73c-1.69-.48-3.36-.94-5-1.43-2.47-.7-4.91-1.38-7.26-2.06-1.58-.46-3.13-.89-4.63-1.31l-4.39-1.26c-1.43-.41-2.81-.8-4.14-1.16l-13.11-3.76c-.83-.21-1.58-.43-2.25-.63-1.65-.48-2.82-.82-3.35-1-36.59-11.56-81.25-22.49-121.3-38.77-8.75-3.56-17.3-7.37-25.47-11.53a207.85 207.85 0 0 1-36.47-22.93c-25-20-9.2-63.75-3.41-90.65 8.12-37.7 17.78-75.06 27.72-112.31 26.29-98.59 55-196.63 85.2-294.12l1.3-4.24-20 22.15-96.88 107.27a53.18 53.18 0 0 1-46.59 17l-8.36-1.14a53.33 53.33 0 0 1-24.33-9.79 51.9 51.9 0 0 1-14.08-15.56c-67.78-115.6-39.33-558.55-39.33-558.55h118.74l16.79 92.8 5.45 30.08 28.64 158.2 2-3.2 33-53.86 10.15-16.58 42.72-69.64c.15-.22.27-.43.42-.65a80.6 80.6 0 0 1 68.3-37.8h177.64l-1.6 34.8-5.4 117.44-3.88 84.33-4.53 98.28-6.28 135.33 47.5-77.42 42.86-69.88 21.11-34.43 14.37-18.1L2658 1050c27.77 2.94 80.18 13.77 117.43 21.93 87.35 19.15 67.57 112.81 46.57 180.8Z" opacity=".65"></path><circle cx="2393.9" cy="1680.05" r="21.81" fill="#fe7101"></circle><circle cx="2389.06" cy="1784.24" r="21.81" fill="#fe7101"></circle><path fill="#fe7101" d="M2631.23 1705.66c-10.13 11.54-20.5 22.54-31.22 33.34s-21.73 21.24-33.19 31.22a324.3 324.3 0 0 1-36.2 27.7 136.88 136.88 0 0 1-20.11 10.79c-7 2.89-14.52 5.09-22.11 4.61 7.6 0 14.81-2.7 21.49-6a135.08 135.08 0 0 0 19-11.9 319.22 319.22 0 0 0 33.79-29.65c10.64-10.59 20.82-21.64 30.67-33s19.42-23 28.45-34.76ZM2132.6 1645.52c6.29 11.71 13 23.41 19.94 34.88s14.15 22.83 21.74 33.9a371.26 371.26 0 0 0 24.34 32 162.92 162.92 0 0 0 14 14.45c5 4.45 10.35 8.62 16.54 11.35-6.38-2.26-12.14-6.07-17.51-10.19a162.81 162.81 0 0 1-15.21-13.55 373.41 373.41 0 0 1-27-30.48q-12.74-15.89-24.48-32.52c-7.87-11.08-15.46-22.26-22.83-33.81Z" opacity=".68"></path><path fill="#512d50" d="M2638.61 475.81a210.25 210.25 0 0 1 77.18 49.64c7.3 7.28 13.56 15.36 20 23.25 24.71 32.52 43 68.79 61.68 104.28 9.37 17.76 18.89 35.39 29.36 52.4a323.75 323.75 0 0 0 35.33 48.08 272.37 272.37 0 0 0 44.5 39.55 261.88 261.88 0 0 0 52.08 29 253.58 253.58 0 0 0 57.43 15.99 282.43 282.43 0 0 0 59.7 2.79l7.48-.43c2.49-.21 5-.52 7.46-.77l7.46-.8c2.48-.27 4.92-.72 7.38-1.08a213.8 213.8 0 0 0 29-7.3c19.06-6.1 37.58-14 56.35-21.21s37.9-14 57.87-17.36a136.46 136.46 0 0 1 30.21-1.83 109.23 109.23 0 0 1 29.68 5.8 123.38 123.38 0 0 1 49.9 33.19 154.11 154.11 0 0 1 31.34 51.14 153.62 153.62 0 0 0-31.81-50.71 122.31 122.31 0 0 0-49.81-32.43 108.05 108.05 0 0 0-29.37-5.44 135.08 135.08 0 0 0-29.83 2.11c-19.72 3.51-38.65 10.43-57.29 17.82s-37.11 15.48-56.3 21.84a214.76 214.76 0 0 1-29.36 7.7c-2.5.39-5 .88-7.52 1.18l-7.52.88c-2.51.28-5 .62-7.54.85l-7.56.52a286.06 286.06 0 0 1-60.56-2.23 257.34 257.34 0 0 1-58.61-15.76 266.37 266.37 0 0 1-53.4-29 277.81 277.81 0 0 1-45.85-39.93 330.06 330.06 0 0 1-36.49-48.62c-10.78-17.13-20.56-34.8-30.12-52.51-19.06-35.39-37.6-71.1-62-102.5-6.34-7.61-12.5-15.39-19.53-22.25a201.11 201.11 0 0 0-74.22-46.72Z"></path><path fill="#fff" d="m2658 1050-23.91 21.84L2514 1181.56a16.18 16.18 0 0 1-26.95-10l-5.38-44.13-2.93-24.11-22.15 24.28-35.89 39.4a14.4 14.4 0 0 1-24.45-5.52c-9.52-31.58-25.95-86.29-34.89-117.33-3.78-13.16-6.23-22-6.23-23.14h55.73c9.72 46 72.67 75.06 72.67 75.06l88.08-68.26 8.84-6.85C2585.33 1050 2658 1050 2658 1050Z"></path><path fill="#512d50" d="M2612.78 796.38c-1.4 4.48-6.1 7.2-10.83 7.56a10.59 10.59 0 0 1-1.5 0c-5.19-.17-10-2.74-14.27-5.67a84.61 84.61 0 0 1-17-15.56 116.35 116.35 0 0 1-18.44-31.25 160.65 160.65 0 0 1-7.39-22.76c-1.6-6.37-2.88-12.79-4-19.26v-.22c-3.53-20.89-5.13-42.16-8.79-63-3-16.86-10.47-36.66-27.36-39.45-9.79-1.62-19.34 3.37-28 8.22a68.09 68.09 0 0 0-9.08 5.81 27.59 27.59 0 0 0-4 3.83 21.84 21.84 0 0 1-.73-6.06l4.51-13.86c-3.06 4.95-4.44 9.55-4.51 13.86l-3 9.14c-.1.39-.22.77-.34 1.16l-.27-.85-.43-.36c-.31-.24-.63-.48-.92-.73a8.81 8.81 0 0 1-.92-.72c-4-3.25-8-6.55-12.19-9.36-.85-.6-1.69-1.16-2.57-1.67a42.53 42.53 0 0 0-4.09-2.3 36.85 36.85 0 0 0-16.41-4.31c-15.8-.32-30.09 10.34-38.94 23.45s-13.32 28.55-18.7 43.4c-3.18 8.85-6.69 17.52-10.28 26.22l-.07.14c-1 2.38-2 4.78-3 7.15-7 16.6-13.9 33.25-18.8 50.57-6.78 24-4.82 46.53-3 70 .41 5.31.82 10.66 1.14 16.12.05.89.1 1.79.14 2.68.22 4.39.37 8.83.37 13.33l-1.82-2.4c-.6-.82-1.23-1.64-1.84-2.47-5.23-7-10.44-14.1-15.29-21.44-14.66-22.17-26.07-46.12-25-72.16.83-19.46 8.72-37.83 16.5-55.71 9.65-22.15 22.08-44.71 28.16-68.07 4.31-16.6 1.07-32.1 10.32-48.63 6.88-12.31 20.36-24.74 36.16-33.75 1.07-.6 2.13-1.18 3.2-1.74.72-.41 1.45-.78 2.18-1.14q2.73-1.38 5.52-2.62c17.6-7.75 36.74-10.73 52.29-4.67.49.19 1 .38 1.43.58s1.14.51 1.7.77l.9.46a.48.48 0 0 1 .17.1c10 5.52 13.37 18.49 21.51 23.36l.15.07c12.38 7.25 25.18-6.76 39.37-9.28 10.25-1.79 20.14.15 29.42 4.6 13.6 6.5 25.78 18.35 35.62 31.55a153.91 153.91 0 0 1 20.6 37.73 97.27 97.27 0 0 1 5.81 26.83c2.23 34.38-14.71 69.9-6.93 103.46 2.91 12.53 9.62 26.54 22.3 28.74a2.17 2.17 0 0 1 1.24.58Z"></path><path fill="#512d50" d="M2420.19 608.52a36.85 36.85 0 0 1 16.41 4.31 37 37 0 0 0-15.82-4.09c-15.8-.42-30.17 10.17-39.07 23.23s-13.49 28.47-18.94 43.3c-3.25 8.87-6.84 17.6-10.5 26.32 3.59-8.7 7.1-17.37 10.28-26.22 5.38-14.85 9.88-30.29 18.7-43.4s23.14-23.77 38.94-23.45ZM2457.29 627.61c-.32-.24-.63-.49-1-.78.37.3.71.54 1 .78ZM2461.34 618.57a21.84 21.84 0 0 0 .73 6.06 17.88 17.88 0 0 0-3.49 6.06l-.27-.85-.29-1c.12-.39.24-.77.34-1.16ZM2465.85 604.71l-4.51 13.86c.07-4.31 1.45-8.91 4.51-13.86ZM2439.55 546.78c-15.55-6.06-34.69-3.08-52.29 4.67 16.38-7.32 35.74-11.36 52.29-4.67ZM2443.58 548.59l-.9-.46.46.22a4.77 4.77 0 0 1 .44.24Z"></path><path fill="#020e49" d="M2455.93 626.38v.16c-10.51-8.45-20.66-17.44-35.15-17.8-15.8-.42-30.17 10.17-39.07 23.23s-13.49 28.47-18.94 43.3c-3.25 8.87-6.84 17.6-10.5 26.32 1.89-12.33 2.35-25 3.42-37.44 1.48-17.15 4.26-34.72 13-49.58s24.5-26.65 41.71-26.24c16.02.37 46.02 19.29 45.53 38.05ZM2539.31 709.27c-3.53-20.89-5.13-42.16-8.79-63-3-16.86-10.47-36.66-27.36-39.45-9.79-1.62-19.34 3.37-28 8.22a68.09 68.09 0 0 0-9.08 5.81c4.6-9.47 15.36-18.87 21.49-21.83 5.21-2.52 11.1-4 16.77-2.86 10.44 2 17.4 12 21.52 21.83 11.9 28.47 9.14 60.63 13.45 91.28ZM2326.06 864.76a1.33 1.33 0 0 0 .16.17 3.73 3.73 0 0 1-.12.58Z" opacity=".32"></path><path fill="#020e49" d="M2458.36 627.71c-.15.58-.32 1.16-.51 1.72l-.56-1.82c-.63-.48-1.23-.94-1.84-1.45-4-3.2-8-6.5-12.19-9.36-6.78-4.62-14.1-8.11-23.07-8.28-15.8-.32-30.09 10.34-38.94 23.45s-13.32 28.55-18.7 43.4c-3.2 8.89-6.74 17.62-10.35 26.36-7.85 19.1-16 38.12-21.54 58-4.07 14.64-4.1 29.34-3.27 44 .22 4.2.53 8.36.82 12.56.44 6.05.85 12.11 1 18.14.12 3.83.15 7.64 0 11.44 0 .9.09 1.79.14 2.69.25 4.39.42 8.82.44 13.33l-1.82-2.4c-.6-.8-1.26-1.62-1.86-2.45-5.26-6.93-10.52-14-15.39-21.37a141 141 0 0 1-4.7-86c4.55-17 12.28-33 18.87-49.26a389 389 0 0 0 19.87-64.63c3.69-17 11.42-35.69 24.48-47.86 14.83-13.81 37.63-18.63 56.48-11.26 6.52 2.54 13.35 7.44 19.14 13.61 9.89 10.49 16.65 24.67 13.5 37.44ZM2550.7 751.51a160.65 160.65 0 0 1-7.39-22.76c-1.6-6.37-2.88-12.79-4-19.26v-.22c-3.53-20.89-5.13-42.16-8.79-63-3-16.86-10.47-36.66-27.36-39.45-9.79-1.62-19.34 3.37-28 8.22a68.09 68.09 0 0 0-9.08 5.81 27.59 27.59 0 0 0-4 3.83c-1.6-6-.76-12.62 3.78-19.92a49.69 49.69 0 0 1 14.1-14.56c13.74-9.45 31.81-12.09 43.93 1a104.37 104.37 0 0 1 26.8 58.49c2.13 18.83-.92 37.78-2.11 56.7-.14 2.35-.27 4.68-.34 7a197 197 0 0 0 2.46 38.12ZM2534.2 567.44c-9.28-4.45-19.17-6.39-29.42-4.6-14.19 2.52-27 16.53-39.37 9.28-1.43-1.67 0-3.56-2.45-3.08-4.84-9.74-11.48-16.33-19.21-20.35a.48.48 0 0 0-.17-.1l-.9-.46c-.56-.26-1.14-.53-1.7-.77s-.94-.39-1.43-.58c-15.55-6.06-34.69-3.08-52.29 4.67q-2.79 1.24-5.52 2.62c-.73.36-1.46.73-2.18 1.14-1.07.56-2.13 1.14-3.2 1.74l-.12-.12c-1.31-1.23-2.67-2.71-2.57-4.51.12-2.1 2.2-3.48 4.07-4.53 17.2-9.62 35.86-23.23 56.29-24.16 24.72-1.13 28.28 19 48.12 24.53 6.16 1.72 12.65 1.4 19 2 12.85 1.29 25.78 6.53 33.05 17.28ZM3193.82 982.38c29.74-10 57.58-25.35 86-38.6-63 45.94-189.71 199.86-320.17 124.43-129.78-75-154.35-284.11-156.07-357.44 18.75 55 37.68 110.4 69.64 157.31 68.62 100.66 205.14 153.17 320.6 114.3Z" opacity=".32"></path><path fill="#512d50" d="M3308.37 931.62c.77-.32 1.52-.59 2.3-.88.72 1 0 1.31-2.3.88Z"></path><path fill="#fe7101" d="m2744.07 1304.46-315 318.09a65.21 65.21 0 0 1-101.24-10.69c-59.15-92.27-162.93-258.65-218.76-374.67a21.53 21.53 0 0 0-37.9-1.69l-23.09 38.7c-5.06 8.48-18.08 4.89-18.08-5v-69.74l33-53.86 8.17-13.33a41.77 41.77 0 0 1 .41-11.7c16.5-81.47 81.92-79.43 91.25-64.87s201.39 248.73 201.39 248.73L2572 1368Z" opacity=".31"></path><path fill="#f8bbc2" d="m2110.69 923.77-71.27 15.6-20.06 4.39c-1-1-1.91-2-2.88-3-.63-.68-1.29-1.34-1.92-2-1.09-1.14-2.15-2.23-3.22-3.32-.19-.2-.39-.39-.56-.56q-.94-1-1.89-1.89c-.63-.66-1.23-1.26-1.86-1.87-7.47-7.29-14.86-13.59-23.14-18.53-.66-.42-1.34-.8-2-1.17q-2.68-1.51-5.59-2.86c-.66-.31-1.29-.6-2-.87-.41-.17-.84-.36-1.28-.53-.65-.29-1.31-.53-2-.8-.89-.32-1.79-.66-2.69-1-.7-.24-1.43-.48-2.15-.7-1.07-.31-2.16-.63-3.25-.92-.68-.17-1.38-.36-2.11-.51s-1.72-.41-2.59-.58c-1.16-.22-2.35-.44-3.56-.63-.66-.12-1.31-.22-2-.32q-2.84-.39-5.82-.65a5.13 5.13 0 0 1-.65-.1c-13.57-1.74-27.72-22.68-36.66-41.12-.61-1.26-1.21-2.49-1.77-3.73a109.25 109.25 0 0 1-7-18.9 52 52 0 0 1-1.29-9c-2.08-35.23 30-69.18 55.64-89.34 10.66-8.41 24.47-23.65 39.32-20.91s23.73 19.7 32.35 30.31l25.71 31.6a32.93 32.93 0 0 1 7.37 20.09c.24 10.25.34 24.09-.61 26.9-.75 2.2 11 24.64 23.53 47.37 2.11 3.85 4.24 7.7 6.35 11.46a4880.98 4880.98 0 0 0 21.55 38.09Z"></path><path fill="#fe7101" d="M2689.67 1368 2438 1561.82a56.58 56.58 0 0 1-79.5-10.51c-.95-1.24-1.84-2.5-2.69-3.83l-1.65-2.57L2107.93 1160a26.88 26.88 0 0 0-43.45-2.57l-34.48 42.06 33-53.86 10.15-16.58 42.72-69.64s103.23 92.66 113.26 120.7c5.91 16.52 67.82 105.43 117.69 175.7 15.63 22 30.1 42.26 41.27 57.81 13.66 19 22.41 31.12 22.41 31.12Z" opacity=".68"></path><path fill="#fff" d="m2140.66 929.29-115.56 63.87-22.63-42.42 14.01-10.01 64.79-46.28 23.43-16.75 26.29 37.97 9.67 13.62z"></path><path fill="#fff" d="m2005.08 965.36 118.86-58.08 316.76 376.94a15.18 15.18 0 0 0 21.77 1.52l200.7-180.47c36.44-32.77 94.1-21.61 115.69 22.39l26.92 54.89a99.33 99.33 0 0 1-31.17 124.37l-325 233.88a65.74 65.74 0 0 1-94-18.35Z"></path><path fill="#fe7101" d="m2005.08 965.36 118.86-58.08 316.76 376.94a15.18 15.18 0 0 0 21.77 1.52l200.7-180.47c36.44-32.77 94.1-21.61 115.69 22.39l26.92 54.89a99.33 99.33 0 0 1-31.17 124.37l-325 233.88a65.74 65.74 0 0 1-94-18.35Z" opacity=".65"></path><path fill="#fff" d="m1993.92 1014.41 5.45 30.07-15.75-25.03 10.3-5.04z"></path><path fill="#fe7101" d="m1993.92 1014.41 5.45 30.07-15.75-25.03 10.3-5.04z" opacity=".65"></path><path fill="#fe8796" d="M2089.22 885.65c-2.28 2.59-4.9 5.52-7.95 8.8l-64.79 46.28c-.63-.68-1.29-1.34-1.92-2-1.09-1.14-2.15-2.23-3.22-3.32-.19-.2-.39-.39-.56-.56q-.94-1-1.89-1.89c-.6-.63-1.23-1.26-1.86-1.87-7.47-7.29-14.86-13.59-23.14-18.53l-2-1.17q-2.68-1.51-5.59-2.86c-.66-.31-1.29-.6-2-.87-.41-.17-.84-.36-1.28-.53-.65-.29-1.31-.53-2-.8-.89-.32-1.79-.66-2.69-1-.72-.24-1.43-.48-2.15-.7-1.07-.31-2.16-.63-3.25-.92-.7-.17-1.41-.36-2.11-.51s-1.72-.39-2.59-.58c-1.16-.22-2.35-.44-3.56-.63-.66-.12-1.31-.22-2-.32q-2.84-.39-5.82-.65a5.13 5.13 0 0 1-.65-.1c-9.43-1.77-25.9-24.52-38.43-44.85a109.25 109.25 0 0 1-7-18.9 52 52 0 0 1-1.29-9 24.32 24.32 0 0 1 6-.77 24 24 0 0 1 17 7.1l30.75 31 5.74 9.91a62.24 62.24 0 0 0 16.6 18.71l23.33 17.54a22.4 22.4 0 0 0 26.49.37c15.29-10.86 40.44-28.33 57.33-37.85 2.28 3.82 4.39 7.71 6.5 11.47Z" opacity=".3"></path><path fill="#fe7101" d="m2088 1382.34-96.88 107.27a53.18 53.18 0 0 1-46.59 17l-8.36-1.14a53.33 53.33 0 0 1-24.33-9.79c8.48-9.06 35.68-6.18 46.93-7.85 30.12-4.47 57.15-34.21 77.91-54.76Z" opacity=".31"></path><path fill="#fe7101" d="m2135.86 1340.32-.12.71c-3.39 19.65-75.89 440.08-76.64 554.94a392.53 392.53 0 0 1-13.23-5.67c-2-.92-4-1.84-6-2.81s-3.88-1.87-5.8-2.84l-.41-.21a207.85 207.85 0 0 1-36.47-22.93c-25-20-9.2-63.75-3.41-90.65 8.12-37.7 17.78-75.06 27.72-112.31 26.29-98.59 55-196.63 85.2-294.12Z" opacity=".68"></path><path fill="#fe7101" d="M2231.84 1949.42c-1.57-.46-3.15-.92-4.72-1.35l-2.55-.73c-1.69-.48-3.36-.94-5-1.43-2.47-.7-4.91-1.38-7.26-2.06-1.58-.46-3.13-.89-4.63-1.31l-4.39-1.26c-1.43-.41-2.81-.8-4.14-1.16l-13.11-3.76c-.83-.21-1.58-.43-2.25-.63-1.65-.48-2.82-.82-3.35-1-36.59-11.56-81.25-22.49-121.3-38.77.75-114.86 73.25-535.29 76.64-554.94l.12-.71s.34 4.44 1 12.6c6.19 74.94 40.42 463.09 94.94 596.51ZM2822 1252.78c-4.27 14-8.63 26.85-12.1 37.77-11.87 37.49-23.81 75.1-40.41 110.84-31.5 67.84-70.27 370.74-60.58 462.81 3.05 29 11.56 56.1-.75 78.72q-5.79-134.89-11.46-269.8c-3.26-77.95-19.33-190.07 23.33-260.43 31.34-51.69 83.57-99.69 101.97-159.91Z" opacity=".31"></path><path fill="#fe7101" d="M2375.9 1972.52q-9.63-.87-19.26-1.8a24.3 24.3 0 0 1-21.91-25.61l20.94-347.33 2.81-46.47s-.54 40.7-.29 97.43c.41 105.41 3.49 266.13 17.71 323.78Z" opacity=".68"></path><path fill="#fe7101" d="M2435.77 1977.41q-29.94-2.15-59.87-4.89c-14.22-57.65-17.3-218.37-17.71-323.78l1.64-23.26s39.57 260.7 75.94 351.93Z" opacity=".31"></path><path fill="#fe8796" d="M2457.8 629.4c-1.7-1-47-26.53-70.78 9.33-25.38 38.22-34.76 88.15-53 130-4.67 10.72-8.6 22.54-7.49 34.39 3.36-13.89.13-29 4.12-43.37 5.52-19.87 13.69-38.89 21.54-58 3.61-8.74 7.15-17.47 10.35-26.36 5.38-14.85 9.88-30.29 18.7-43.4s23.14-23.77 38.94-23.45c9 .17 16.29 3.66 23.07 8.28Z" opacity=".3"></path><path fill="#03157a" d="M2760.5 2557.68c-125.25-9.28-252.1-16.29-378.18-16.43h-21.35q-29.66.12-59.22.83l-.12-.22c.15-5.94.34-12 .51-18.3q.41-14.28.8-29.53h175.84c102 0 197.44-49.19 255-131.43l2.66-3.81Z" opacity=".2"></path><path fill="#fe8796" d="M2457.85 629.43s-.53-1.77-.56-1.82c-.31-.24-.63-.48-.92-.73a8.81 8.81 0 0 1-.92-.72c-4-3.2-8-6.5-12.19-9.36-.85-.58-1.69-1.13-2.57-1.67a42.53 42.53 0 0 0-4.09-2.3 36.85 36.85 0 0 0-16.41-4.31c-15.8-.32-30.09 10.34-38.94 23.45s-13.32 28.55-18.7 43.4c-3.18 8.85-6.69 17.52-10.28 26.22l-.07.14c-1 2.38-2 4.78-3 7.15-6.9 16.72-13.73 33.47-18.58 50.84-4.07 14.64-4.1 29.34-3.27 44 .22 4.2.53 8.36.82 12.56.34-.76.68-1.51 1-2.26 16.32-40.74 23.76-84.71 42.63-124.49 9.2-19.33 29.95-70.64 57.2-68.53 12.24.94 18.24 17.89 29.34 16.19 6.65-1 12-7.89 18.75-10.34 5.66-2.05 11.9-3.59 17.63-1.75 31.43 10.09 18.19 58.48 20.92 81.92 3.78 32.45 23.5 66.44 53.5 75.77a116.35 116.35 0 0 1-18.44-31.25 160.65 160.65 0 0 1-7.39-22.76c-1.6-6.37-2.88-12.79-4-19.26v-.22c-3.53-20.89-5.13-42.16-8.79-63-3-16.86-10.47-36.66-27.36-39.45-9.79-1.62-19.34 3.37-28 8.22a68.09 68.09 0 0 0-9.08 5.81 27.59 27.59 0 0 0-4 3.83s-4.08 4.88-3.49 6.06-.74-1.34-.74-1.34ZM2574.55 906.17a266.47 266.47 0 0 0-3.57 68c-56.09 15.22-114.54 6.39-142.91.24.29-1.72.56-3.42.8-5.09.56-3.63 1-7.17 1.48-10.59 43.37 6.4 103.51-32.81 149.07-73a210.61 210.61 0 0 0-4.87 20.44ZM2579.42 1008l-7.78 19.84-88.08 68.26s-62.95-29-72.67-75.06c1.33 1.84 46.26 64.74 68.72 57.06Z" opacity=".3"></path><path fill="#e8635d" d="M2413.94 863.05c9-1.38 18.1-2.57 27.14-3.86 2.31-.28 4.44-.62 6.91-.85a13.58 13.58 0 0 1 4 .22 11.07 11.07 0 0 1 3.95 1.8 14.49 14.49 0 0 1 4.79 6.63 21.35 21.35 0 0 1 1.35 7.69 30.86 30.86 0 0 1-3.83 14.71 26 26 0 0 1-11 10.74c-9.42 5-21.89 2.57-27.62-5.31l.5-.53a24.36 24.36 0 0 0 12.41 2.91 21.32 21.32 0 0 0 11.16-3.42 24.91 24.91 0 0 0 4.58-3.62 28.12 28.12 0 0 0 3.82-4.52 22.83 22.83 0 0 0 4.16-11.17c.36-3.82-.69-8.15-3.23-10.38a6.9 6.9 0 0 0-4.91-1.57c-2.09 0-4.5.2-6.75.29-9.13.32-18.26.74-27.4 1Z" opacity=".65"></path><path fill="#e8635d" d="M2619.72 798.18a25.12 25.12 0 0 0-8.42 6.44 35.67 35.67 0 0 0-6.12 8.76 28.4 28.4 0 0 0-1.47 20.84 33.57 33.57 0 0 1 0-10.35 32.19 32.19 0 0 1 3.11-9.7c1.44-3.07 3.68-5.67 5.82-8.42a55 55 0 0 1 7.08-7.57Z" opacity=".67"></path><path fill="#e8635d" d="M2603.52 823.78a21.21 21.21 0 0 0 17.71-.45 20.25 20.25 0 0 1-16.87-1.25.95.95 0 1 0-.94 1.65Z" opacity=".67"></path><circle cx="383.76" cy="1985.63" r="30.75" fill="#1f60e5" opacity=".28"></circle><circle cx="440.4" cy="2246.16" r="25.89" fill="#1f60e5" opacity=".57" transform="rotate(-80.71 440.325 2246.102)"></circle><circle cx="630.91" cy="2528.52" r="16.99" fill="#ffb600" opacity=".35" transform="rotate(-82.74 630.927 2528.537)"></circle><circle cx="3717.42" cy="2700.35" r="16.99" fill="#ffb600" opacity=".72"></circle><circle cx="4001.42" cy="2578.18" r="17.8" fill="#1f60e5" opacity=".28"></circle><circle cx="4134.12" cy="2210.84" r="21.85" fill="#ffb600" opacity=".54" transform="rotate(-45 4134.117 2210.833)"></circle><path fill="#fff" d="m4003.41 2111.93-6.14 34.3a280.89 280.89 0 0 1-218.92 225.44l-13 2.72 8.19-39.47a280.9 280.9 0 0 1 191.86-211.22ZM3649.74 2432.28l31.35-6A259.66 259.66 0 0 1 3947 2538.74l6.67 10.17-36.44 6a259.68 259.68 0 0 1-244.66-94.12Z"></path><path fill="#fff" d="m4003.41 2111.93-6.14 34.3a280.89 280.89 0 0 1-218.92 225.44l-13 2.72 8.19-39.47a280.9 280.9 0 0 1 191.86-211.22Z" opacity=".54"></path><path fill="#fff" d="m3649.74 2432.28 31.35-6A259.66 259.66 0 0 1 3947 2538.74l6.67 10.17-36.44 6a259.68 259.68 0 0 1-244.66-94.12ZM4221.79 2354.62l-29.67 18.28a280.91 280.91 0 0 1-314-13l-10.67-7.86 34.89-20.19a280.93 280.93 0 0 1 285.35 2.33Z"></path><path fill="#fff" d="m4221.79 2354.62-29.67 18.28a280.91 280.91 0 0 1-314-13l-10.67-7.86 34.89-20.19a280.93 280.93 0 0 1 285.35 2.33ZM4003.41 2111.93l-6.14 34.3a280.89 280.89 0 0 1-218.92 225.44l-13 2.72 8.19-39.47a280.9 280.9 0 0 1 191.86-211.22ZM3541.29 2458.58l3.61 38.78 10.83-7.18c51.25-33.93 90.27-82.88 113-138.21a.37.37 0 0 0 .05-.18c18.82-45.87 26.42-96.14 20.48-145.81l-4-33.36-30.72 24.5a300.86 300.86 0 0 0-34.68 32.47c-56.67 62.1-86.22 146.17-78.57 228.99ZM3649.73 2432.28l22.8 28.5a260 260 0 0 0 169.16 95.34 257.18 257.18 0 0 0 75.5-1.23l36.45-6-6.68-10.17a259.73 259.73 0 0 0-170.45-113s0 0-.06 0a258.06 258.06 0 0 0-95.35.46Z"></path><path fill="#fe7101" d="M3454.3 2599.48c2.65.57 5.33 1.12 8 1.67a432.38 432.38 0 0 1 46.72-60c2-2.17 4-4.31 6.07-6.41a487.81 487.81 0 0 1 45.75-41.72 585.69 585.69 0 0 1 90.12-59.24c1.72-.94 3.41-1.84 5.12-2.71 56.57-29.85 114.41-50 164.57-63.65q11.37-3.07 22.47-5.81 14.51-3.55 28.48-6.56c11.69-2.54 23.07-4.79 34-6.77 85-15.45 146.8-16.17 147.6-16.17a3.83 3.83 0 1 0-.05-7.65c-.82 0-61.76.7-145.87 15.74-9.46 1.7-19.2 3.56-29.21 5.64-2.88.58-5.77 1.21-8.69 1.84q-12.3 2.66-25 5.75t-25.56 6.54a.21.21 0 0 1-.13 0q-19.34 5.23-37.93 11.15c-59.12 18.71-112.65 42.32-159.58 70.39q-11.74 7-22.94 14.45-19.05 12.59-36.44 26.25-8.73 6.81-17.05 13.92a490.9 490.9 0 0 0-38.24 36.33c-2 2.16-4.06 4.32-6 6.52a444.57 444.57 0 0 0-46 60.09 1.93 1.93 0 0 0-.21.41Z" opacity=".78"></path><path fill="#fe7101" d="m4002.27 2119.25-6.14 34.31A280.93 280.93 0 0 1 3777.2 2379l-13 2.71 8.19-39.47a280.93 280.93 0 0 1 191.9-211.24Z" opacity=".69"></path><path fill="#fe7101" d="m3541.29 2458.58 3.61 38.78 10.83-7.18c51.25-33.93 90.27-82.88 113-138.21a.37.37 0 0 0 .05-.18 311.7 311.7 0 0 0 14.48-136.11L3679 2180l-32.89 26.24a321.19 321.19 0 0 0-26.23 23.4c-56.69 62.05-86.24 146.12-78.59 228.94Z" opacity=".44"></path><path fill="#fe7101" d="m3662.49 2434.28 22.8 28.49a259.87 259.87 0 0 0 156.4 93.35 257.18 257.18 0 0 0 75.5-1.23l36.45-6-6.68-10.17a259.73 259.73 0 0 0-170.45-113s0 0-.06 0a257.72 257.72 0 0 0-82.59 2.46Z" opacity=".43"></path><path fill="#fff" d="m4221.79 2354.62-29.67 18.28a280.91 280.91 0 0 1-314-13l-10.67-7.86 34.89-20.19a280.93 280.93 0 0 1 285.35 2.33Z"></path><path fill="#fe7101" d="m4221.79 2354.62-29.67 18.28a280.91 280.91 0 0 1-314-13l-10.67-7.86 34.89-20.19a280.93 280.93 0 0 1 285.35 2.33Z" opacity=".45"></path><path fill="#fff" d="M1188.9 2427.17c-3.5.77-7 1.56-10.49 2.32l-1 .23h-.08c-2-.86-4.49-1.91-7.38-3.08s-6.53-2.61-10.46-4.09c-.48-.18-1-.35-1.48-.56a527.75 527.75 0 0 0-105.92-27.15c-11.51-1.68-23.5-3-35.83-3.8a399.37 399.37 0 0 0-56.85.28c-2.91.23-5.82.48-8.75.79a335.32 335.32 0 0 0-57.61 10.89 306.48 306.48 0 0 0-46.23 17.12q-6.24 2.91-12.48 6.18a293.45 293.45 0 0 0-26.67 15.79c-29.75 19.75-58.36 46.42-84 82a3.8 3.8 0 0 1-3.12 1.58.72.72 0 0 1-.25 0 3.57 3.57 0 0 1-2-.69 3.41 3.41 0 0 1-1.25-1.55 3.8 3.8 0 0 1 .38-3.78c23.37-32.41 50.27-59.28 80.4-80.35a302.49 302.49 0 0 1 65.63-34.83A313.35 313.35 0 0 1 896 2394a340.47 340.47 0 0 1 49.71-9.21c2.91-.33 5.84-.64 8.8-.89a406.94 406.94 0 0 1 62.57-.54c9.06.59 18 1.45 26.61 2.55a530 530 0 0 1 110.6 26.54c2.42.87 4.74 1.71 6.91 2.53s4 1.5 5.84 2.22c2.68 1 5.13 2 7.3 2.9 8.22 3.37 12.81 5.57 13 5.64a4 4 0 0 1 1.56 1.43Z"></path><path fill="#fff" d="m725.85 2513.67-22.15 9.88A197.4 197.4 0 0 0 587 2709.42l.27 9.24 25.31-12.14a197.35 197.35 0 0 0 111.46-165.17ZM845.47 2415.53l-17.41 16.9a197.38 197.38 0 0 0-45.64 214.65l3.43 8.59 19.6-20.1a197.38 197.38 0 0 0 47.85-193.43Z"></path><path fill="#fe7101" d="m845.47 2415.53-17.41 16.9a197.38 197.38 0 0 0-45.64 214.65l3.43 8.59 19.6-20.1a197.38 197.38 0 0 0 47.85-193.43Z" opacity=".78"></path><path fill="#fe7101" d="M1188.9 2427.17c-3.5.77-7 1.56-10.49 2.32l-1 .23h-.08c-2-.86-4.49-1.91-7.38-3.08s-6.53-2.61-10.46-4.09c-.48-.18-1-.35-1.48-.56a527.75 527.75 0 0 0-105.92-27.15c-11.51-1.68-23.5-3-35.83-3.8a399.37 399.37 0 0 0-56.85.28c-2.91.23-5.82.48-8.75.79a335.32 335.32 0 0 0-57.61 10.89 306.48 306.48 0 0 0-46.23 17.12q-6.24 2.91-12.48 6.18a293.45 293.45 0 0 0-26.67 15.79c-29.75 19.75-58.36 46.42-84 82a3.8 3.8 0 0 1-3.12 1.58.72.72 0 0 1-.25 0 3.57 3.57 0 0 1-2-.69 3.41 3.41 0 0 1-1.25-1.55 3.8 3.8 0 0 1 .38-3.78c23.37-32.41 50.27-59.28 80.4-80.35a302.49 302.49 0 0 1 65.63-34.83A313.35 313.35 0 0 1 896 2394a340.47 340.47 0 0 1 49.71-9.21c2.91-.33 5.84-.64 8.8-.89a406.94 406.94 0 0 1 62.57-.54c9.06.59 18 1.45 26.61 2.55a530 530 0 0 1 110.6 26.54c2.42.87 4.74 1.71 6.91 2.53s4 1.5 5.84 2.22c2.68 1 5.13 2 7.3 2.9 8.22 3.37 12.81 5.57 13 5.64a4 4 0 0 1 1.56 1.43Z" opacity=".78"></path><path fill="#fe7101" d="m725.85 2513.67-22.15 9.88A197.4 197.4 0 0 0 587 2709.42l.27 9.24 25.31-12.14a197.35 197.35 0 0 0 111.46-165.17Z" opacity=".42"></path><path fill="#fff" d="M1020.05 2417.17c-3.22-.79-6.46-1.58-9.68-2.39a430.25 430.25 0 0 0-29.27-50.23 267.14 267.14 0 0 0-5-7.28 488.52 488.52 0 0 0-38.76-48.27 585.18 585.18 0 0 0-79.89-72.43c-1.56-1.21-3.09-2.37-4.66-3.48-51.25-38.23-105.28-67.1-152.71-88.28-7.18-3.17-14.27-6.28-21.32-9.2-9.17-3.82-18.23-7.46-27.1-10.86h-.05c-11.15-4.34-22-8.3-32.58-12-4-1.39-7.87-2.71-11.74-4-75.61-25.32-130.84-34.61-131.59-34.75a3.83 3.83 0 1 1 1.23-7.56c.77.14 54.34 9.13 128.22 33.53 4.43 1.46 8.9 3 13.47 4.54 9.1 3.15 18.44 6.49 28 10.1 2.76 1 5.47 2.06 8.27 3.13q7.89 3 16 6.32c2.61 1 5.23 2.13 7.87 3.22q12 4.93 24.22 10.41h.07a.1.1 0 0 0 .07 0q18.28 8.18 35.75 16.87c4.85 2.43 9.67 4.87 14.42 7.37 49.65 25.81 94 54.89 132.36 86.81q10.53 8.8 20.44 17.82Q923 2282 938 2298.17c5.05 5.4 9.94 10.84 14.69 16.38a496.42 496.42 0 0 1 32.18 41.8c1.7 2.46 3.34 4.91 5 7.39a449.8 449.8 0 0 1 30.18 53.43ZM3861.64 2694.45a4.68 4.68 0 0 1-3.84-2 256.08 256.08 0 0 0-27.33-32.91c-75.73-76.86-188.35-89.71-269.53-86.93-88.32 3-159.41 24.61-160.12 24.82a4.68 4.68 0 0 1-2.75-8.95c.72-.22 73-22.18 162.56-25.23 83-2.79 198.4 10.44 276.51 89.72a264.82 264.82 0 0 1 28.34 34.11 4.68 4.68 0 0 1-3.84 7.37Z"></path><path fill="#fff" d="M3655.3 2784.49s17.82-166.67-159-214.89c-.04 0-39.11 149.85 159 214.89ZM3878.69 2465s-156.82-59.16-248 99.88c.02-.01 135.23 75.49 248-99.88ZM3799.51 2655.08c4.09-12.61 172.07 45.57 119 215.64-.04 0-172.03-52.01-119-215.64Z"></path><g opacity=".78"><path fill="#fe7101" d="M3861.64 2694.45a4.68 4.68 0 0 1-3.84-2 256.08 256.08 0 0 0-27.33-32.91c-75.73-76.86-188.35-89.71-269.53-86.93-88.32 3-159.41 24.61-160.12 24.82a4.68 4.68 0 0 1-2.75-8.95c.72-.22 73-22.18 162.56-25.23 83-2.79 198.4 10.44 276.51 89.72a264.82 264.82 0 0 1 28.34 34.11 4.68 4.68 0 0 1-3.84 7.37Z"></path><path fill="#fe7101" d="M3655.3 2784.49s17.82-166.67-159-214.89c-.04 0-39.11 149.85 159 214.89Z" opacity=".61"></path><path fill="#fe7101" d="M3878.69 2465s-156.82-59.16-248 99.88c.02-.01 135.23 75.49 248-99.88Z"></path><path fill="#fe7101" d="M3799.51 2624.07c4.09-12.61 172.07 45.57 119 215.65-.04 0-172.03-52.01-119-215.65Z" opacity=".42"></path></g><path fill="#fff" d="M3494.63 2395.17c.17 1.76.32 3.67.49 5.71 2.24 29 4.93 81.8.11 134.41-.48 5.35-1.05 10.73-1.72 16.05-.23 2-.49 4-.75 5.93-.46 3.35-.94 6.67-1.47 10a306.74 306.74 0 0 1-11.78 49.68c-.31.87-.58 1.71-.9 2.57q-30.66 4.28-61.67 6.49c-1.93.06-3.85.1-5.78.11q-4.53.11-9.07.15h-.79c-2.34 0-4.72 0-7.09.05h-12.85q-9.89-.06-19.67-.32c-2.09 0-4.19-.09-6.29-.16-2.5-.07-5-.16-7.5-.25h-1.35c-.53 1-1.06 2.08-1.57 3.12h-1.4c.53-1.08 1.09-2.13 1.61-3.2-3.15-.11-6.28-.26-9.41-.39q-3.85-.16-7.64-.38c-2.76-.14-5.5-.28-8.21-.45q-2.88-.15-5.76-.35-4.14-.24-8.29-.56c-31.12-2.16-60.93-5.37-88.56-9.28-.38 0-.73-.09-1.09-.15 28.73-71.06 105.63-195.56 276.78-235.64 0 0 .25 2 .61 5.55l.21 2.31c.17 2.31.49 5.33.8 9Z"></path><path fill="#fff" d="M3494.63 2395.17c.17 1.76.32 3.67.49 5.71 2.24 29 4.93 81.8.11 134.41-.48 5.35-1.05 10.73-1.72 16.05-.23 2-.49 4-.75 5.93-.46 3.35-.94 6.67-1.47 10a306.74 306.74 0 0 1-11.78 49.68c-.31.87-.58 1.71-.9 2.57q-30.66 4.28-61.67 6.49c-1.93.06-3.85.1-5.78.11q-4.53.11-9.07.15h-.79c-2.34 0-4.72 0-7.09.05h-12.85q-9.89-.06-19.67-.32c-2.09 0-4.19-.09-6.29-.16-2.5-.07-5-.16-7.5-.25h-1.35c-.53 1-1.06 2.08-1.57 3.12h-1.4c.53-1.08 1.09-2.13 1.61-3.2 48.8-96.81 106.86-183.88 148.41-241.62l.21 2.31c.19 2.28.51 5.3.82 8.97Z" opacity=".56"></path><path fill="#ffb600" d="M3494.63 2395.17c.17 1.76.32 3.67.49 5.71 2.28 27.87 5.15 80.68.6 133.72-.46 5.27-1 10.56-1.6 15.83a414.629 414.629 0 0 1-2.24 16.75 310.5 310.5 0 0 1-12.15 52.14c-.32.86-.59 1.7-.9 2.57-5.61.78-11.2 1.5-16.81 2.16a.13.13 0 0 1-.12 0l-6.89.43h-.42l-7.59.43-9.27.42c-5.24.23-10.46.41-15.68.57-1.72 0-3.41.1-5.11.12-1.93.06-3.85.1-5.78.11q-4.53.11-9.07.15h-.79c-2.34 0-4.72 0-7.09.05h-12.85q-9.89-.06-19.67-.32c-2.09 0-4.19-.09-6.29-.16-2.5-.07-5-.16-7.5-.25h-1.35c-.53 1-1.06 2.08-1.57 3.12h-1.4c.53-1.08 1.09-2.13 1.61-3.2-3.15-.11-6.28-.26-9.41-.39q-3.85-.16-7.64-.38c-2.76-.14-5.5-.28-8.21-.45q-2.88-.15-5.76-.35-4.14-.24-8.29-.56c-31.12-2.16-60.93-5.37-88.56-9.28 29.42-71.4 106.49-193.82 275.91-233.48 0 0 .15 1.12.37 3.27 0 .46.09.94.16 1.47l.07.81c.17 2.3.49 5.32.8 8.99Z" opacity=".67"></path><path fill="#fe7101" d="M3494.63 2395.17c.17 1.76.32 3.67.49 5.71 2.28 27.87 5.15 80.68.6 133.72-.46 5.27-1 10.56-1.6 15.83a414.629 414.629 0 0 1-2.24 16.75 310.5 310.5 0 0 1-12.15 52.14c-.32.86-.59 1.7-.9 2.57-5.61.78-11.2 1.5-16.81 2.16a.13.13 0 0 1-.12 0l-6.89.43h-.42l-7.59.43-9.27.42c-5.24.23-10.46.41-15.68.57-1.72 0-3.41.1-5.11.12-1.93.06-3.85.1-5.78.11q-4.53.11-9.07.15h-.79c-2.34 0-4.72 0-7.09.05h-12.85q-9.89-.06-19.67-.32c-2.09 0-4.19-.09-6.29-.16-2.5-.07-5-.16-7.5-.25h-1.35c48.58-95.91 106.06-182.08 147.28-239.38.17 2.26.49 5.28.8 8.95Z" opacity=".5"></path><path fill="#fff" d="m558.89 1864.14.77 34.84a280.92 280.92 0 0 0 181.5 256.53l12.4 4.69-2-40.26a280.93 280.93 0 0 0-157-238.31ZM858.87 2235.24l-30-10.81a259.68 259.68 0 0 0-280.06 70.12l-8.16 9 35.08 11.54A259.69 259.69 0 0 0 832 2259.88Z"></path><path fill="#fff" d="m558.89 1864.14.77 34.84a280.92 280.92 0 0 0 181.5 256.53l12.4 4.69-2-40.26a280.93 280.93 0 0 0-157-238.31Z" opacity=".54"></path><path fill="#fff" d="m858.87 2235.24-30-10.81a259.68 259.68 0 0 0-280.06 70.12l-8.16 9 35.08 11.54A259.69 259.69 0 0 0 832 2259.88ZM305.67 2070.21l26.5 22.64a280.91 280.91 0 0 0 312.22 35.59l11.75-6.12-31.35-25.32a280.92 280.92 0 0 0-282.29-41.74Z"></path><path fill="#fff" d="m305.67 2070.21 26.5 22.64a280.91 280.91 0 0 0 312.22 35.59l11.75-6.12-31.35-25.32a280.92 280.92 0 0 0-282.29-41.74ZM558.89 1864.14l.77 34.84a280.92 280.92 0 0 0 181.5 256.53l12.4 4.69-2-40.26a280.93 280.93 0 0 0-157-238.31ZM962 2278l-9.55 37.76-9.59-8.77c-45.4-41.43-76.4-95.82-90.31-154a.55.55 0 0 1 0-.18c-11.51-48.24-11.26-99.07 2.28-147.24l9.09-32.33 26.57 28.94a300 300 0 0 1 29.25 37.44c46.35 70.08 62.57 157.71 42.26 238.38ZM858.88 2235.25 832 2259.88a259.48 259.48 0 0 1-256.3 55.22l-35.09-11.53 8.17-9a259.71 259.71 0 0 1 185.84-85.3s0 0 .07 0a258.2 258.2 0 0 1 94.14 15.18Z"></path><path fill="#fe7101" d="M1020.05 2417.17c-3.22-.79-6.46-1.58-9.68-2.39a430.25 430.25 0 0 0-29.27-50.23 267.14 267.14 0 0 0-5-7.28 488.52 488.52 0 0 0-38.76-48.27 585.18 585.18 0 0 0-79.89-72.43c-1.56-1.21-3.09-2.37-4.66-3.48-51.25-38.23-105.28-67.1-152.71-88.28-7.18-3.17-14.27-6.28-21.32-9.2-9.17-3.82-18.23-7.46-27.1-10.86h-.05c-11.15-4.34-22-8.3-32.58-12-4-1.39-7.87-2.71-11.74-4-75.61-25.32-130.84-34.61-131.59-34.75a3.83 3.83 0 1 1 1.23-7.56c.77.14 54.34 9.13 128.22 33.53 4.43 1.46 8.9 3 13.47 4.54 9.1 3.15 18.44 6.49 28 10.1 2.76 1 5.47 2.06 8.27 3.13q7.89 3 16 6.32c2.61 1 5.23 2.13 7.87 3.22q12 4.93 24.22 10.41h.07a.1.1 0 0 0 .07 0q18.28 8.18 35.75 16.87c4.85 2.43 9.67 4.87 14.42 7.37 49.65 25.81 94 54.89 132.36 86.81q10.53 8.8 20.44 17.82Q923 2282 938 2298.17c5.05 5.4 9.94 10.84 14.69 16.38a496.42 496.42 0 0 1 32.18 41.8c1.7 2.46 3.34 4.91 5 7.39a449.8 449.8 0 0 1 30.18 53.43Z" opacity=".78"></path><path fill="#fe7101" d="m558.89 1871.55.77 34.84a280.93 280.93 0 0 0 181.5 256.54l12.4 4.68-2-40.26a280.91 280.91 0 0 0-157-238.3Z" opacity=".42"></path><path fill="#fe7101" d="m962 2278-9.55 37.76-9.59-8.77c-45.4-41.43-76.4-95.82-90.31-154a.55.55 0 0 1 0-.18 311.84 311.84 0 0 1 6.71-136.72l9.74-34.64 28.44 31a317.87 317.87 0 0 1 22.3 27.17c46.35 70.08 62.57 157.71 42.26 238.38Z" opacity=".17"></path><path fill="#fe7101" d="m846 2235.25-26.91 24.63A259.9 259.9 0 0 1 650.11 2328a257.43 257.43 0 0 1-74.41-12.87l-35.09-11.53 8.17-9a259.71 259.71 0 0 1 185.84-85.3s0 0 .07 0a257.79 257.79 0 0 1 81.22 15.18Z" opacity=".43"></path><path fill="#fff" d="m305.67 2070.21 26.5 22.64a280.91 280.91 0 0 0 312.22 35.59l11.75-6.12-31.35-25.32a280.92 280.92 0 0 0-282.29-41.74Z"></path><path fill="#fe7101" d="m305.67 2070.21 26.5 22.64a280.91 280.91 0 0 0 312.22 35.59l11.75-6.12-31.35-25.32a280.92 280.92 0 0 0-282.29-41.74Z" opacity=".78"></path><path fill="#fff" d="M1368.29 2114s-1.06 46.81-9.79 109.91c-7.61 54.86-21 122.08-44.51 181.59q-3.12 8-6.49 15.65c-4.61 10.52-9.5 20.69-14.81 30.43-.87 1.63-1.77 3.2-2.64 4.8-1.09 1.87-2.18 3.76-3.3 5.58-.7 1.23-1.38 2.42-2.1 3.61-1.6 2.59-3.23 5.21-4.9 7.7a21 21 0 0 1-1.19 1.87c-.53.85-1.11 1.65-1.64 2.44-.8 1.22-1.6 2.4-2.45 3.57-1.07 1.52-2.13 3-3.22 4.5q-17.13-8.57-34.61-15.75a657.7 657.7 0 0 0-81.41-27c-18.18-4.85-36.47-9.06-54.77-12.89 1.22-7.66 2.69-15.87 4.56-24.52q.76-3.67 1.67-7.49t1.79-7.56c.61-2.55 1.29-5.09 2-7.71a448.61 448.61 0 0 1 16-49.14 438.48 438.48 0 0 1 8.34-19.79 387.72 387.72 0 0 1 33-59c.61-.92 1.26-1.86 1.89-2.78a342.1 342.1 0 0 1 61.35-67.29c6.21-5.16 12.65-10.2 19.41-15.05a2.73 2.73 0 0 0 .25-.2c4.75-3.39 9.52-6.63 14.53-9.83 3.23-2.11 6.57-4.14 10-6.18 9.21-5.45 18.83-10.64 29-15.46a392.1 392.1 0 0 1 64.04-24.01Z"></path><path fill="#ffb600" d="M1368.29 2114s-1.06 46.81-9.79 109.91c-7.61 54.86-21 122.08-44.51 181.59q-3.12 8-6.49 15.65c-4.61 10.52-9.5 20.69-14.81 30.43-.87 1.63-1.77 3.2-2.64 4.8-1.09 1.87-2.18 3.76-3.3 5.58-.7 1.23-1.38 2.42-2.1 3.61-1.6 2.59-3.23 5.21-4.9 7.7a21 21 0 0 1-1.19 1.87c-.53.85-1.11 1.65-1.64 2.44-.8 1.22-1.6 2.4-2.45 3.57-1.07 1.52-2.13 3-3.22 4.5q-17.13-8.57-34.61-15.75a657.7 657.7 0 0 0-81.41-27c-18.18-4.85-36.47-9.06-54.77-12.89 1.22-7.66 2.69-15.87 4.56-24.52q.76-3.67 1.67-7.49t1.79-7.56c.61-2.55 1.29-5.09 2-7.71a448.61 448.61 0 0 1 16-49.14 438.48 438.48 0 0 1 8.34-19.79 387.72 387.72 0 0 1 33-59c.61-.92 1.26-1.86 1.89-2.78a342.1 342.1 0 0 1 61.35-67.29c6.21-5.16 12.65-10.2 19.41-15.05a2.73 2.73 0 0 0 .25-.2c4.75-3.39 9.52-6.63 14.53-9.83 3.23-2.11 6.57-4.14 10-6.18 9.21-5.45 18.83-10.64 29-15.46a392.1 392.1 0 0 1 64.04-24.01Z" opacity=".67"></path><path fill="#ffb600" d="M1285.49 2429.06c0 4.17-.09 8.33-.19 12.43-.17 8.09-.39 16.14-.65 24-1.6 2.59-3.23 5.21-4.9 7.7a21 21 0 0 1-1.19 1.87c-.53.85-1.11 1.65-1.64 2.44-.8 1.22-1.6 2.4-2.45 3.57-1.07 1.52-2.13 3-3.22 4.5q-17.13-8.57-34.61-15.75a657.7 657.7 0 0 0-81.41-27c-18.18-4.85-36.47-9.06-54.77-12.89 1.22-7.66 2.69-15.87 4.56-24.52q.76-3.67 1.67-7.49t1.79-7.56c.61-2.55 1.29-5.09 2-7.71a448.61 448.61 0 0 1 16-49.14 438.48 438.48 0 0 1 8.34-19.79 387.72 387.72 0 0 1 33-59c.61-.92 1.26-1.86 1.89-2.78a342.1 342.1 0 0 1 61.35-67.29c6.21-5.16 12.65-10.2 19.41-15.05a2.73 2.73 0 0 0 .25-.2c.8 2.06 1.55 4.12 2.25 6.23a13.54 13.54 0 0 1 .53 1.38c1 3 2 5.89 3 8.87 1.09 3.35 2.13 6.69 3.1 10.11.44 1.35.82 2.69 1.21 4.09a547.67 547.67 0 0 1 13.35 60c.8 4.75 1.55 9.53 2.21 14.3.22 1.21.39 2.45.56 3.66.43 3.15.84 6.28 1.23 9.47.58 4.48 1.13 9 1.62 13.54.36 3.27.7 6.57 1 9.82a1084.14 1084.14 0 0 1 4.71 118.19Z" opacity=".67"></path><path fill="#fff" d="M1242.46 2353.67c-.46 42.14-2.88 82-5.82 116.19a657.7 657.7 0 0 0-81.41-27c-18.18-4.85-36.47-9.06-54.77-12.89-21.17-4.46-42.4-8.41-63.51-12.21-.84-1.72-1.67-3.49-2.49-5.26q-4.83-10.37-8.63-20.79c-1-2.64-1.89-5.26-2.76-7.9q-2.43-7.35-4.41-14.73c-1.07-4.1-2-8.19-2.93-12.34-.58-2.69-1.12-5.38-1.6-8.09s-1-5.7-1.43-8.51c-26.7-176.42 122.92-350.09 122.92-350.09 1 .75 2 1.53 3.08 2.3.65.49 1.31 1 2 1.55l3 2.4.53.46c1.58 1.31 3.13 2.67 4.68 4.07.17.15.36.29.53.46l.7.63c.22.2.47.44.68.66.46.43.92.87 1.41 1.31 1.36 1.33 2.74 2.64 4.07 4 .68.7 1.33 1.38 2 2.08s1.33 1.41 2 2.14c.85.92 1.72 1.89 2.57 2.85.44.51.87 1 1.33 1.53s1.05 1.19 1.53 1.79c.7.88 1.46 1.72 2.13 2.62.56.68 1.12 1.36 1.63 2 .34.41.65.82 1 1.26 1.38 1.74 2.71 3.53 4 5.38.6.82 1.19 1.67 1.77 2.49 1.86 2.67 3.68 5.41 5.47 8.19l2.4 3.88c.8 1.33 1.58 2.66 2.35 4 2.35 4 4.61 8.12 6.74 12.36.7 1.38 1.43 2.79 2.11 4.24 1 2 2 4.14 3 6.25.68 1.36 1.31 2.74 1.92 4.1a6.88 6.88 0 0 0 .39.89c.65 1.53 1.33 3.06 2 4.63 2.28 5.48 4.51 11.08 6.57 16.84.7 1.89 1.36 3.78 2 5.72.85 2.38 1.65 4.78 2.42 7.2 1.48 4.65 2.94 9.35 4.29 14.15s2.69 9.67 3.93 14.59 2.4 9.84 3.51 14.85 2.16 10.08 3.13 15.17 1.94 10.25 2.78 15.41c.8 4.75 1.53 9.52 2.21 14.27.22 1.24.36 2.47.56 3.66.43 3.18.84 6.3 1.23 9.45.58 4.51 1.12 9 1.62 13.57 4.55 42.76 6.05 86.55 5.57 128.22Z"></path><path fill="#ffb600" d="M1242.46 2353.67c-.46 42.14-2.88 82-5.82 116.19a657.7 657.7 0 0 0-81.41-27c-18.18-4.85-36.47-9.06-54.77-12.89-21.17-4.46-42.4-8.41-63.51-12.21-.84-1.72-1.67-3.49-2.49-5.26q-4.83-10.37-8.63-20.79c-1-2.64-1.89-5.26-2.76-7.9q-2.43-7.35-4.41-14.73c-1.07-4.1-2-8.19-2.93-12.34-.58-2.69-1.12-5.38-1.6-8.09s-1-5.7-1.43-8.51c-26.7-176.42 122.92-350.09 122.92-350.09 1 .75 2 1.53 3.08 2.3.65.49 1.31 1 2 1.55l3 2.4.53.46c1.58 1.31 3.13 2.67 4.68 4.07.17.15.36.29.53.46l.7.63c.22.2.47.44.68.66.46.43.92.87 1.41 1.31 1.36 1.33 2.74 2.64 4.07 4 .68.7 1.33 1.38 2 2.08s1.33 1.41 2 2.14c.85.92 1.72 1.89 2.57 2.85.44.51.87 1 1.33 1.53s1.05 1.19 1.53 1.79c.7.88 1.46 1.72 2.13 2.62.56.68 1.12 1.36 1.63 2 .34.41.65.82 1 1.26 1.38 1.74 2.71 3.53 4 5.38.6.82 1.19 1.67 1.77 2.49 1.86 2.67 3.68 5.41 5.47 8.19l2.4 3.88c.8 1.33 1.58 2.66 2.35 4 2.35 4 4.61 8.12 6.74 12.36.7 1.38 1.43 2.79 2.11 4.24 1 2 2 4.14 3 6.25.68 1.36 1.31 2.74 1.92 4.1a6.88 6.88 0 0 0 .39.89c.65 1.53 1.33 3.06 2 4.63 2.28 5.48 4.51 11.08 6.57 16.84.7 1.89 1.36 3.78 2 5.72.85 2.38 1.65 4.78 2.42 7.2 1.48 4.65 2.94 9.35 4.29 14.15s2.69 9.67 3.93 14.59 2.4 9.84 3.51 14.85 2.16 10.08 3.13 15.17 1.94 10.25 2.78 15.41c.8 4.75 1.53 9.52 2.21 14.27.22 1.24.36 2.47.56 3.66.43 3.18.84 6.3 1.23 9.45.58 4.51 1.12 9 1.62 13.57 4.55 42.76 6.05 86.55 5.57 128.22Z" opacity=".67"></path><path fill="#fff" d="M1242.46 2353.67c-.46 42.14-2.88 82-5.82 116.19a657.7 657.7 0 0 0-81.41-27c-3.4-8.21-6.47-16.65-9.28-25.23-.56-1.62-1.09-3.27-1.6-4.91-.44-1.38-.88-2.74-1.29-4.12q-1.15-3.68-2.2-7.35a526 526 0 0 1-14.4-67.7c-17-114.8-3-243.4 14.2-339.6l3 2.4.53.46c1.58 1.34 3.15 2.69 4.68 4.07.17.15.36.29.53.46l.7.63c.22.2.47.44.68.66.46.43.92.87 1.41 1.31 1.36 1.33 2.74 2.64 4.07 4 .68.7 1.33 1.38 2 2.08s1.33 1.41 2 2.14c.85.92 1.72 1.89 2.57 2.85.44.51.87 1 1.33 1.53s1.05 1.19 1.53 1.79c.7.88 1.46 1.72 2.13 2.62.56.68 1.12 1.36 1.63 2 .34.41.65.82 1 1.26 1.38 1.74 2.71 3.53 4 5.38.6.82 1.19 1.67 1.77 2.49 1.86 2.67 3.68 5.41 5.47 8.19l2.4 3.88c.8 1.33 1.58 2.66 2.35 4 2.35 4 4.61 8.12 6.74 12.36.7 1.38 1.43 2.79 2.11 4.24 1 2 2 4.14 3 6.25.68 1.36 1.31 2.74 1.92 4.1a6.88 6.88 0 0 0 .39.89c.65 1.53 1.33 3.06 2 4.63 2.28 5.48 4.51 11.08 6.57 16.84.7 1.89 1.36 3.78 2 5.72.85 2.38 1.65 4.78 2.42 7.2 1.48 4.65 2.94 9.35 4.29 14.15s2.69 9.67 3.93 14.59 2.4 9.84 3.51 14.85 2.16 10.08 3.13 15.17 1.94 10.25 2.78 15.41c.8 4.75 1.53 9.52 2.21 14.27.22 1.24.36 2.47.56 3.66.43 3.18.84 6.3 1.23 9.45.58 4.51 1.14 9 1.64 13.57 4.57 42.71 6.07 86.5 5.59 128.17Z"></path><path fill="#ffb600" d="M1242.46 2353.67c-.46 42.14-2.88 82-5.82 116.19a657.7 657.7 0 0 0-81.41-27c-3.4-8.21-6.47-16.65-9.28-25.23-.56-1.62-1.09-3.27-1.6-4.91-.44-1.38-.88-2.74-1.29-4.12q-1.15-3.68-2.2-7.35a526 526 0 0 1-14.4-67.7c-17-114.8-3-243.4 14.2-339.6l3 2.4.53.46c1.58 1.34 3.15 2.69 4.68 4.07.17.15.36.29.53.46l.7.63c.22.2.47.44.68.66.46.43.92.87 1.41 1.31 1.36 1.33 2.74 2.64 4.07 4 .68.7 1.33 1.38 2 2.08s1.33 1.41 2 2.14c.85.92 1.72 1.89 2.57 2.85.44.51.87 1 1.33 1.53s1.05 1.19 1.53 1.79c.7.88 1.46 1.72 2.13 2.62.56.68 1.12 1.36 1.63 2 .34.41.65.82 1 1.26 1.38 1.74 2.71 3.53 4 5.38.6.82 1.19 1.67 1.77 2.49 1.86 2.67 3.68 5.41 5.47 8.19l2.4 3.88c.8 1.33 1.58 2.66 2.35 4 2.35 4 4.61 8.12 6.74 12.36.7 1.38 1.43 2.79 2.11 4.24 1 2 2 4.14 3 6.25.68 1.36 1.31 2.74 1.92 4.1a6.88 6.88 0 0 0 .39.89c.65 1.53 1.33 3.06 2 4.63 2.28 5.48 4.51 11.08 6.57 16.84.7 1.89 1.36 3.78 2 5.72.85 2.38 1.65 4.78 2.42 7.2 1.48 4.65 2.94 9.35 4.29 14.15s2.69 9.67 3.93 14.59 2.4 9.84 3.51 14.85 2.16 10.08 3.13 15.17 1.94 10.25 2.78 15.41c.8 4.75 1.53 9.52 2.21 14.27.22 1.24.36 2.47.56 3.66.43 3.18.84 6.3 1.23 9.45.58 4.51 1.14 9 1.64 13.57 4.57 42.71 6.07 86.5 5.59 128.17Z" opacity=".29"></path></g></svg>