<svg xmlns="http://www.w3.org/2000/svg" xmlns:xlink="http://www.w3.org/1999/xlink" enable-background="new 0 0 4680 3120" viewBox="0 0 4680 3120" id="front-end-engineer"><path fill="#d3e2f9" d="M781.425 2032.793h2931.522v17.522H781.425z"></path><ellipse cx="1236.01" cy="2281.219" fill="#e2eefa" rx="126.319" ry="33.984"></ellipse><ellipse cx="3340.692" cy="2182.895" fill="#e2eefa" rx="189.397" ry="40.914"></ellipse><ellipse cx="2948.824" cy="2252.552" fill="#e2eefa" rx="265.504" ry="30.115"></ellipse><ellipse cx="1911.094" cy="2387.905" fill="#e2eefa" rx="291.759" ry="67.313" transform="rotate(-11.11 1911.224 2388.02)"></ellipse><ellipse cx="1489.622" cy="2280.521" fill="#e2eefa" rx="102.823" ry="18.221"></ellipse><path fill="#00b77b" d="M1214.921 2053.566s-17.518 64.599-65.461 97.025c-47.943 32.427-126.949 19.924-174.698-4.055-47.749-23.979-97.063-61.861-108.013-95.355-10.95-33.495 60.849-34.009 60.849-34.009s-38.991-35.481-57.742-62.671c-18.751-27.19-10.195-61.281 35.291-51.273l45.485 10.008s-45.175-58.291-52.828-98.875c-7.652-40.584 3.852-106.13 57.538-72.413 53.685 33.717 76.568 122.665 76.568 122.665s2.215-40.342 10.755-71.26c8.541-30.919 38.856-33.299 60.438 2.98 21.582 36.278 38.179 91.121 38.179 91.121s4.261-45.788 26.938-43.259 45.368 50.551 51.885 100.9c6.519 50.349-5.184 108.471-5.184 108.471z"></path><path fill="#00d967" d="M1211.425 2018.835s7.017-217.725-156.661-301.847c0 0-83.542 179.79 26.133 341.112s87.39 123.95 87.39 123.95l43.138-163.215z"></path><path fill="none" stroke="#fff" stroke-linecap="round" stroke-linejoin="round" stroke-miterlimit="10" stroke-width="2" d="m1084.01 1821.244 82.08 326.997"></path><path fill="#d1e3ff" d="M3267.951 815.569h600.663v716.673h-600.663z"></path><path fill="#e3eeff" d="M3280.792 815.569h615.303v716.673h-615.303z"></path><path fill="#d1e3ff" d="M3267.951 1532.242h600.663v51.067h-600.663z"></path><path fill="#e3eeff" d="M3326.574 1532.242h615.303v51.067h-615.303z"></path><path fill="#f5fcff" d="M3268.58 904.727h639.727v538.356H3268.58z" transform="rotate(90 3588.443 1173.906)"></path><path fill="#fff" d="m3385.361 1493.769 225.81-639.727h106.595l-225.81 639.727z"></path><path fill="#e2eeff" d="M3337.078 1276.725a2.747 2.747 0 0 1-2.747-2.748V879.074a2.747 2.747 0 0 1 5.495 0v394.904a2.747 2.747 0 0 1-2.748 2.747z"></path><path fill="#fff" d="m3514.855 1493.769 225.81-639.727h41.557l-225.81 639.727z"></path><path fill="#d1e3ff" d="M3535.315 1171.463h639.727v4.885h-639.727z" transform="rotate(90 3855.179 1173.906)"></path><path fill="#d1e3ff" d="M3905.193 903.264h-600.662l-3.541-34.267h600.663z"></path><path fill="#d1e3ff" d="M3905.193 928.345h-600.662l-3.541-34.266h600.663z"></path><path fill="#d1e3ff" d="M3905.193 958.443h-600.662l-3.541-34.266h600.663z"></path><path fill="#d1e3ff" d="M3905.193 991.935h-600.662l-3.541-34.267h600.663zM3905.193 1032.065h-600.662l-3.541-34.266h600.663zM3905.193 1077.212h-600.662l-3.541-34.266h600.663z"></path><linearGradient id="a" x1="1223.604" x2="3214.327" y1="1612.786" y2="1612.786" gradientUnits="userSpaceOnUse"><stop offset="0" stop-color="#b0d8ff"></stop><stop offset=".015" stop-color="#b3d9ff"></stop><stop offset=".145" stop-color="#c4e1ff"></stop><stop offset=".301" stop-color="#d1e7ff"></stop><stop offset=".512" stop-color="#d8eaff"></stop><stop offset="1" stop-color="#daebff"></stop></linearGradient><path fill="url(#a)" d="M1223.604 1029.051v1107.842c0 32.932 26.697 59.629 59.629 59.629h1871.465c32.933 0 59.629-26.697 59.629-59.629V1029.051H1223.604z"></path><path fill="#006dfe" d="M3214.327 792.995c0-32.933-26.697-59.629-59.629-59.629H1283.233c-32.932 0-59.629 26.697-59.629 59.629v85.906h1990.724v-85.906z"></path><path fill="#b0d8ff" d="M1223.604 878.901h1990.724v150.149H1223.604z"></path><path fill="#d5e1f7" d="M2638.263 2086.386H1815.19c-11.215 0-20.307-9.092-20.307-20.307v-237.198c0-11.215 9.092-20.307 20.307-20.307h823.073c11.215 0 20.307 9.092 20.307 20.307v237.198c-.001 11.216-9.092 20.307-20.307 20.307z"></path><path fill="#fff" d="M2630.069 2078.462h-823.073c-11.215 0-20.307-9.092-20.307-20.307v-237.198c0-11.215 9.092-20.307 20.307-20.307h823.073c11.215 0 20.307 9.092 20.307 20.307v237.198c0 11.216-9.092 20.307-20.307 20.307z"></path><path fill="#0e2354" d="M2866.118 733.365H2677.75a6.55 6.55 0 0 1-6.55-6.55v-8.478a6.55 6.55 0 0 1 6.55-6.55h188.368a6.55 6.55 0 0 1 6.55 6.55v8.478a6.55 6.55 0 0 1-6.55 6.55z"></path><path fill="#0e2354" d="m2869.801 706.879 83.469-170.551a5.793 5.793 0 0 1 7.75-2.657l2.337 1.143a5.793 5.793 0 0 1 2.657 7.75l-83.47 170.551a5.793 5.793 0 0 1-7.75 2.657l-2.336-1.143a5.793 5.793 0 0 1-2.657-7.75z"></path><path fill="#d5e1f7" d="M1928.579 1731.613h-125.808a5.687 5.687 0 0 1-5.687-5.687v-125.808a5.687 5.687 0 0 1 5.687-5.687h125.808a5.687 5.687 0 0 1 5.687 5.687v125.808a5.687 5.687 0 0 1-5.687 5.687zM2107.607 1731.613h-125.808a5.687 5.687 0 0 1-5.687-5.687v-125.808a5.687 5.687 0 0 1 5.687-5.687h125.808a5.687 5.687 0 0 1 5.687 5.687v125.808a5.687 5.687 0 0 1-5.687 5.687zM2286.634 1731.613h-125.808a5.687 5.687 0 0 1-5.687-5.687v-125.808a5.687 5.687 0 0 1 5.687-5.687h125.808a5.687 5.687 0 0 1 5.687 5.687v125.808a5.687 5.687 0 0 1-5.687 5.687zM2465.661 1731.613h-125.808a5.687 5.687 0 0 1-5.687-5.687v-125.808a5.687 5.687 0 0 1 5.687-5.687h125.808a5.687 5.687 0 0 1 5.687 5.687v125.808a5.687 5.687 0 0 1-5.687 5.687zM2644.689 1731.613h-125.808a5.687 5.687 0 0 1-5.687-5.687v-125.808a5.687 5.687 0 0 1 5.687-5.687h125.808a5.687 5.687 0 0 1 5.687 5.687v125.808a5.687 5.687 0 0 1-5.687 5.687z"></path><path fill="#ebf5ff" d="M1923.273 1728.22h-125.808a5.687 5.687 0 0 1-5.687-5.687v-125.808a5.687 5.687 0 0 1 5.687-5.687h125.808a5.687 5.687 0 0 1 5.687 5.687v125.808a5.687 5.687 0 0 1-5.687 5.687zM2102.301 1728.22h-125.808a5.687 5.687 0 0 1-5.687-5.687v-125.808a5.687 5.687 0 0 1 5.687-5.687h125.808a5.687 5.687 0 0 1 5.687 5.687v125.808a5.687 5.687 0 0 1-5.687 5.687zM2281.328 1728.22h-125.807a5.687 5.687 0 0 1-5.687-5.687v-125.808a5.687 5.687 0 0 1 5.687-5.687h125.807a5.687 5.687 0 0 1 5.687 5.687v125.808a5.687 5.687 0 0 1-5.687 5.687zM2460.355 1728.22h-125.808a5.687 5.687 0 0 1-5.687-5.687v-125.808a5.687 5.687 0 0 1 5.687-5.687h125.808a5.687 5.687 0 0 1 5.687 5.687v125.808a5.687 5.687 0 0 1-5.687 5.687zM2639.383 1728.22h-125.808a5.687 5.687 0 0 1-5.687-5.687v-125.808a5.687 5.687 0 0 1 5.687-5.687h125.808a5.687 5.687 0 0 1 5.687 5.687v125.808a5.687 5.687 0 0 1-5.687 5.687z"></path><path fill="#d5e1f7" d="M2635.267 1507.218h-823.073c-11.215 0-20.307-9.092-20.307-20.307v-237.198c0-11.215 9.092-20.307 20.307-20.307h823.073c11.215 0 20.307 9.092 20.307 20.307v237.198c-.001 11.215-9.092 20.307-20.307 20.307z"></path><path fill="#fff" d="M2630.069 1501.357h-823.073c-11.215 0-20.307-9.092-20.307-20.307v-237.198c0-11.215 9.092-20.307 20.307-20.307h823.073c11.215 0 20.307 9.092 20.307 20.307v237.198c0 11.216-9.092 20.307-20.307 20.307z"></path><path fill="#00d967" d="M2065.746 1289.679h-238.688c-8.048 0-14.572-6.524-14.572-14.572 0-8.048 6.524-14.572 14.572-14.572h238.688c8.048 0 14.572 6.524 14.572 14.572 0 8.048-6.524 14.572-14.572 14.572z"></path><path fill="#d5e1f7" d="M2600.719 1358.475h-773.661c-8.048 0-14.572-6.524-14.572-14.572 0-8.048 6.524-14.572 14.572-14.572h773.661c8.048 0 14.572 6.524 14.572 14.572 0 8.048-6.524 14.572-14.572 14.572z"></path><path fill="#ebf5ff" d="M2600.719 1412.103h-773.661c-8.048 0-14.572-6.524-14.572-14.572 0-8.048 6.524-14.572 14.572-14.572h773.661c8.048 0 14.572 6.524 14.572 14.572 0 8.048-6.524 14.572-14.572 14.572zM2600.719 1464.369h-773.661c-8.048 0-14.572-6.524-14.572-14.572 0-8.048 6.524-14.572 14.572-14.572h773.661c8.048 0 14.572 6.524 14.572 14.572 0 8.047-6.524 14.572-14.572 14.572z"></path><path fill="#d5e1f7" d="M2065.746 1861.371h-238.688c-8.048 0-14.572-6.524-14.572-14.572 0-8.048 6.524-14.572 14.572-14.572h238.688c8.048 0 14.572 6.524 14.572 14.572 0 8.048-6.524 14.572-14.572 14.572z"></path><path fill="#00d967" d="M2600.719 1930.167h-773.661c-8.048 0-14.572-6.524-14.572-14.572 0-8.048 6.524-14.572 14.572-14.572h773.661c8.048 0 14.572 6.524 14.572 14.572 0 8.048-6.524 14.572-14.572 14.572z"></path><path fill="#d5e1f7" d="M2600.719 1983.795h-773.661c-8.048 0-14.572-6.524-14.572-14.572 0-8.048 6.524-14.572 14.572-14.572h773.661c8.048 0 14.572 6.524 14.572 14.572 0 8.048-6.524 14.572-14.572 14.572z"></path><path fill="#ebf5ff" d="M2600.719 2036.061h-773.661c-8.048 0-14.572-6.524-14.572-14.572 0-8.048 6.524-14.572 14.572-14.572h773.661c8.048 0 14.572 6.524 14.572 14.572 0 8.047-6.524 14.572-14.572 14.572z"></path><defs><path id="b" d="M3342.751 1138.457s-20.872-12.933-15.238-46.737 40.719-33.548 40.719-33.548 28.939-33.036 76.573 0c47.634 33.036 28.17 121.645 66.585 151.864 38.414 30.219 56.951 37.226 95.365 50.031 38.414 12.805 49.585 37.553 50.097 79.041.512 41.487-51.662 79.757-91.101 70.538-39.439-9.219-35.433-35.522-68.725-51.4-33.292-15.878-40.056-20.864-46.202-53.132s-29.898-62.317-56.02-70.256c-26.122-7.939-52.053-96.401-52.053-96.401z"></path></defs><use fill="#191e56" overflow="visible" xlink:href="#b"></use><clipPath id="c"><use overflow="visible" xlink:href="#b"></use></clipPath><path fill="#111742" d="M3333.007 1135.61s-5.196-32.919 10.108-44.758c0 0 45.047 30.897 63.816 27.432s20.791 39.989 27.721 55.801c6.93 15.812 46.779 109.66 114.927 139.113 68.148 29.454 115.505 30.609 115.505 30.609l-46.202 89.516s-64.683 12.706-82.008.578c-17.326-12.128-65.838-28.299-90.383-80.853-24.545-52.555-47.068-58.11-62.661-88.829-15.593-30.719-15.593-28.986-24.833-53.242-9.24-24.256-25.99-75.367-25.99-75.367z" clip-path="url(#c)"></path><path fill="#ea756c" d="M3329.383 1279.681s-33.683 104.74-149.035-6.921c0 0-4.614-48.909-19.379-68.289h-11.997v88.081s67.366 65.107 104.279 71.567c36.913 6.46 86.437 3.691 114.737-59.06l-38.605-25.378z"></path><defs><path id="d" d="m1917.787 1573.951-1.99 11.498s9.281 31.528-8.911 50.586l25.772 25.291 27.058-22.981s-8.144-13.861-.347-50.245l-24.112-34.363-17.47 20.214z"></path></defs><use fill="#ffaca6" overflow="visible" xlink:href="#d"></use><clipPath id="e"><use overflow="visible" xlink:href="#d"></use></clipPath><path fill="#ea756c" d="M1911.434 1601.383s37.25-5.198 51.688 19.924l7.683-42.737-29.974-37.539-28.243 4.043-11.058 30.031 9.904 26.278z" clip-path="url(#e)"></path><path fill="#191e56" d="M1978.208 1513.455s35.69 1.733 32.835-48.512-33.787-25.122-49.015-32.486-20.205-25.555-55.072-7.363c-10.122 4.765-18.688 4.765-29.157 5.631-10.469.866-14.276 10.828-11.897 19.058 2.379 8.23 1.904 17.759-9.993 22.523s-19.987 22.09-8.566 30.753c11.421 8.663 4.283 20.791 0 25.988-4.283 5.198-4.759 18.159 15.228 20.558s19.035 20.158 26.649 22.323c7.614 2.166 21.89 3.898 24.745 12.128 2.855 8.23 22.842-22.524 22.842-22.524l41.401-48.077zM1678.276 2336.063s-23.39-6.93-41.582 0-16.026 33.785-7.797 50.245c8.23 16.459 11.695 58.907 45.48 65.405 33.785 6.497 55.549-20.832 30.231-36.021-20.487-12.291-20.358-19.924-19.058-30.753s15.249-14.224 15.249-14.224l-22.523-34.652zM2077.313 2253.314s-40.463 55.042-22.848 64.981c17.615 9.939 89.526 27.27 101.212 19.727 11.686-7.543 25.584-31.679-6.992-41.715-32.576-10.037-36.935-20.238-30.952-37.457l-36.726-10.203-3.694 4.667z"></path><defs><path id="f" d="M1817.587 1585.457s-42.159-48.179-42.159-77.633c0-29.454 7.508-120.703 7.508-120.703s18.15-63.379-1.155-86.628c-21.08-25.387-34.074 8.518-34.94 20.213-.85 11.476 6.064 64.971 6.064 64.971s-26.133 99.19-22.09 137.306c4.043 38.116 61.073 111.318 61.073 111.318l25.699-48.844z"></path></defs><use fill="#ffaca6" overflow="visible" xlink:href="#f"></use><clipPath id="g"><use overflow="visible" xlink:href="#f"></use></clipPath><path fill="#ea756c" d="M1727.782 1514.322s29.454 72.968 47.646 71.135c18.192-1.833 34.218-23.923 34.218-23.923l7.941 16.46 8.952 34.792-24.256 16.318s-16.893 11.262-19.058 11.262c-2.166 0-24.256-31.186-26.855-37.034s-33.352-38.766-33.135-44.397c.215-5.631 4.547-44.613 4.547-44.613" clip-path="url(#g)"></path><defs><path id="h" d="M2127.709 1664.333s49.09 12.128 53.71 2.888 24.256-114.35 38.694-131.675c14.438-17.326 34.651-23.101 52.555-36.962 17.903-13.861 53.71-25.989 17.326 31.186-22.523 31.186-36.962 15.593-45.624 42.159-8.663 26.566-14.608 133.985-32.138 143.803-17.529 9.818-93.714.467-93.714.467l9.191-51.866z"></path></defs><use fill="#ffaca6" overflow="visible" xlink:href="#h"></use><clipPath id="i"><use overflow="visible" xlink:href="#h"></use></clipPath><path fill="#ea756c" d="M2144.032 1661.325s-6.064 39.248 9.096 41.846c15.16 2.599 39.202 1.516 49.378-1.011 21.513-5.342 28.089-45.415 28.089-45.415l1.365 57.687-59.341 22.523-64.632-3.032s-14.2-17.759-13.767-19.925c.433-2.166 16.459-44.614 17.326-47.213.866-2.599 19.058-15.593 19.058-15.593l13.428 10.133z" clip-path="url(#i)"></path><defs><path id="j" d="M3466.034 2084.182s5.763 17.982 12.158 31.657 20.728 20.237 21.929 35.271c1.201 15.035-37.678 33.523-63.974 49.719s-53.676 21.631-59.795-.915c-6.118-22.545 42.854-35.257 48.524-69.442s-1.617-35.959-1.617-35.959l42.775-10.331z"></path></defs><use fill="#ffab00" overflow="visible" xlink:href="#j"></use><clipPath id="k"><use overflow="visible" xlink:href="#j"></use></clipPath><path fill="#fe8e00" d="M3381.521 2174.287s41.582 1.155 51.977-21.946c10.396-23.101 46.779-47.935 46.779-47.935l-8.793-26.55-47.226 10.38s-16.748 21.946-16.171 24.833c.577 2.888-26.566 61.218-26.566 61.218z" clip-path="url(#k)"></path><defs><path id="l" d="M3292.898 2080.944s.056 18.883 2.015 33.852c1.959 14.968 13.637 25.558 10.236 40.251-3.401 14.694-46.053 20.559-76.015 28.043-29.962 7.484-57.703 4.385-56.717-18.955s51.51-20.645 67.253-51.516c15.74-30.869 9.333-34.763 9.333-34.763l43.895 3.088z"></path></defs><use fill="#ffab00" overflow="visible" xlink:href="#l"></use><clipPath id="m"><use overflow="visible" xlink:href="#l"></use></clipPath><path fill="#fe8e00" d="M3159.318 2172.265s43.632-25.387 86.137-39.981c42.506-14.594 39.041-26.723 62.864-22.391l-6.064-32.037h-61.506l-26.855 25.106-52.843 39.416-1.733 29.887z" clip-path="url(#m)"></path><defs><path id="n" d="M3317.385 1537.711s-78.956 245.66-71.422 315.506c7.535 69.847.786 234.917.786 234.917s29.83 16.651 48.018 2.304c0 0 22.339-182.679 18.317-230.47-4.021-47.79.902-52.352 32.886-130.286 31.983-77.934 66.433-124.393 69.981-141.978l-98.566-49.993z"></path></defs><use fill="#1e2889" overflow="visible" xlink:href="#n"></use><clipPath id="o"><use overflow="visible" xlink:href="#n"></use></clipPath><path fill="#18247a" d="m3369.97 1544.208-45.047 45.624s-28.299 138.606-30.031 201.556 5.775 270.859 5.775 270.859l41.004-233.319s17.326-35.807 37.539-95.291c20.213-59.485 2.318-88.988 2.888-125.9.569-36.913-12.128-63.529-12.128-63.529z" clip-path="url(#o)"></path><defs><path id="p" d="M3337.143 1557.289s-6.799 257.973 20.208 322.948 67.133 225.389 67.133 225.389 33.498 7.661 46.999-11.196c0 0-23.489-184.344-40.874-229.118-17.384-44.774-20.486-47.864-11.635-131.641s33.003-121.17 26.396-157.921l-108.227-18.461z"></path></defs><use fill="#0542bf" overflow="visible" xlink:href="#p"></use><clipPath id="q"><use overflow="visible" xlink:href="#p"></use></clipPath><path fill="#042fa8" d="M3379.788 1595.319s-32.052 236.496.866 401.956c0 0-54.576-151.6-55.442-154.199-.866-2.599-6.93-174.123-6.93-174.123l-4.098-96.158s50.313 2.599 51.894 2.599c1.582.001 13.71 19.925 13.71 19.925z" clip-path="url(#q)"></path><defs><path id="r" d="m3399.807 1227.353 8.387-.512s15.622 4.738 20.231 20.104 19.964 74.59 7.671 142.199c-12.292 67.609 10.395 193.157 10.395 193.157s-71.846 46.097-142.529 0c0 0 16.902-66.841 16.134-137.523-.768-70.682-24.585-98.725-3.841-146.358 20.744-47.634 42.384-67.097 51.731-67.737l31.821-3.33z"></path></defs><use fill="#006dfe" overflow="visible" xlink:href="#r"></use><clipPath id="s"><use overflow="visible" xlink:href="#r"></use></clipPath><path fill="#0054fc" d="M3309.619 1439.821s87.278-120.63 103.954-160.046c0 0 19.058 11.478-2.166 79.915-21.224 68.437-80.964 104.821-97.224 106.553l-4.564-26.422z" clip-path="url(#s)"></path><path fill="#ffaca6" d="M3329.383 1373.002s-33.683 104.74-149.035-6.921c0 0-4.614-48.909-19.379-68.289h-11.997v76.625s67.366 76.563 104.279 83.023c36.913 6.46 86.437 3.691 114.737-59.06l-38.605-25.378z"></path><path fill="#b0d8ff" d="M1698.201 1810.181H946.473c-9.626 0-17.43-7.804-17.43-17.43v-189.864c0-9.626 7.803-17.429 17.43-17.429h751.728c9.626 0 17.43 7.803 17.43 17.429v189.864c-.001 9.626-7.804 17.43-17.43 17.43z"></path><path fill="#ebf5ff" d="M1688.27 1801.206H946.008c-9.369 0-16.965-7.595-16.965-16.965v-181.82c0-9.369 7.595-16.965 16.965-16.965h742.262c9.369 0 16.965 7.595 16.965 16.965v181.82c0 9.37-7.595 16.965-16.965 16.965z"></path><path fill="#d5e1f7" d="M1660.643 1481.737h-357.909c-9.054 0-16.393-7.339-16.393-16.393v-367.438c0-9.054 7.339-16.393 16.393-16.393h357.909c9.054 0 16.393 7.339 16.393 16.393v367.438c0 9.054-7.339 16.393-16.393 16.393z"></path><path fill="#fff" d="M1654.214 1475.308h-357.909c-9.054 0-16.393-7.339-16.393-16.393v-367.438c0-9.054 7.339-16.393 16.393-16.393h357.909c9.054 0 16.393 7.339 16.393 16.393v367.438c0 9.054-7.339 16.393-16.393 16.393z"></path><path fill="#d5e1f7" d="M3138.582 1480.506h-357.909c-9.054 0-16.393-7.339-16.393-16.393v-367.438c0-9.054 7.339-16.393 16.393-16.393h357.909c9.053 0 16.393 7.339 16.393 16.393v367.438c0 9.053-7.34 16.393-16.393 16.393z"></path><path fill="#fff" d="M3132.578 1475.308H2774.67c-9.054 0-16.393-7.339-16.393-16.393v-367.438c0-9.054 7.339-16.393 16.393-16.393h357.909c9.053 0 16.393 7.339 16.393 16.393v367.438c-.001 9.054-7.34 16.393-16.394 16.393z"></path><path fill="#b0d8ff" d="M3168.044 2252.552h-435.591c-11.84 0-21.437-9.598-21.437-21.437v-515.998c0-11.839 9.598-21.437 21.437-21.437h435.591c11.84 0 21.437 9.598 21.437 21.437v515.998c.001 11.839-9.597 21.437-21.437 21.437z"></path><path fill="#f8fcff" d="M3157.823 2244.766h-430.201c-11.683 0-21.155-9.471-21.155-21.155v-508.778c0-11.683 9.471-21.154 21.155-21.154h430.201c11.683 0 21.155 9.471 21.155 21.154v508.778c0 11.684-9.471 21.155-21.155 21.155z"></path><path fill="#00d967" d="M2399.875 1159.158h-597.448c-8.692 0-15.737-7.046-15.737-15.737v-14.885c0-8.691 7.046-15.737 15.737-15.737h597.448c8.691 0 15.737 7.046 15.737 15.737v14.885c0 8.691-7.046 15.737-15.737 15.737z"></path><path fill="#fff" d="M1279.912 927.413h1135.7v53.71h-1135.7z"></path><path fill="#daebff" d="M2563.148 927.413h412.326v53.71h-412.326z"></path><circle cx="2477.45" cy="931.314" r="19.927" fill="#d6e1fe" stroke="#054aa9" stroke-miterlimit="10" stroke-width="5" transform="rotate(-76.714 2477.658 931.31)"></circle><path fill="#d6e1fe" stroke="#054aa9" stroke-linecap="round" stroke-miterlimit="10" stroke-width="5" d="m2486.039 949.299 13.397 26.241"></path><path fill="#d6e1fe" stroke="#054aa9" stroke-linecap="round" stroke-miterlimit="10" stroke-width="2" d="M2469.041 935.433s-1.995-9.433 8.409-13.961"></path><path fill="#0542bf" d="M3144.158 937.926h-95.07a3.116 3.116 0 0 1-3.116-3.117v-8.251a3.116 3.116 0 0 1 3.116-3.116h95.07a3.117 3.117 0 0 1 3.117 3.116v8.251a3.118 3.118 0 0 1-3.117 3.117zM3144.158 961.51h-95.07a3.116 3.116 0 0 1-3.116-3.117v-8.251a3.117 3.117 0 0 1 3.116-3.117h95.07a3.117 3.117 0 0 1 3.117 3.117v8.251a3.117 3.117 0 0 1-3.117 3.117zM3144.158 985.094h-95.07a3.116 3.116 0 0 1-3.116-3.116v-8.251a3.117 3.117 0 0 1 3.116-3.117h95.07a3.117 3.117 0 0 1 3.117 3.117v8.251a3.117 3.117 0 0 1-3.117 3.116z"></path><path fill="#fff" d="M1718.686 1098.505h9.096v1009.656h-9.096zM2701.92 1098.505h9.096v1009.656h-9.096z"></path><path fill="#b0d8ff" d="M1110.889 1763.619H985.081a5.687 5.687 0 0 1-5.687-5.687v-125.808a5.687 5.687 0 0 1 5.687-5.687h125.808a5.687 5.687 0 0 1 5.687 5.687v125.808a5.687 5.687 0 0 1-5.687 5.687z"></path><path fill="#78c2ff" d="M1289.916 1763.619h-125.808a5.687 5.687 0 0 1-5.687-5.687v-125.808a5.687 5.687 0 0 1 5.687-5.687h125.808a5.687 5.687 0 0 1 5.687 5.687v125.808a5.687 5.687 0 0 1-5.687 5.687z"></path><path fill="#45a7ff" d="M1468.944 1763.619h-125.808a5.687 5.687 0 0 1-5.687-5.687v-125.808a5.687 5.687 0 0 1 5.687-5.687h125.808a5.687 5.687 0 0 1 5.687 5.687v125.808a5.687 5.687 0 0 1-5.687 5.687z"></path><path fill="#4893ff" d="M1647.971 1763.619h-125.808a5.687 5.687 0 0 1-5.687-5.687v-125.808a5.687 5.687 0 0 1 5.687-5.687h125.808a5.687 5.687 0 0 1 5.687 5.687v125.808a5.687 5.687 0 0 1-5.687 5.687z"></path><path fill="#78c2ff" d="M1411.237 2182.078h165.73v98.443h-165.73z"></path><path fill="#ffab00" d="M1502.812 2085.787c0 5.476-4.479 9.957-9.955 9.957l-18.416.001c-5.476 0-9.957-4.482-9.958-9.958l.001-124.438c0-5.476 4.481-9.955 9.957-9.955h18.416c5.476 0 9.956 4.48 9.954 9.957l.001 124.436z"></path><path fill="#191e56" d="M1483.649 2080.23a5.975 5.975 0 0 1 5.973 5.974l-.001 42.308a5.973 5.973 0 0 1-3.052 5.212l-93.762 52.543v39.06h199.102a5.973 5.973 0 0 1 0 11.945l-205.076.001a5.975 5.975 0 0 1-5.973-5.973v-48.532a5.966 5.966 0 0 1 3.053-5.21l93.761-52.545v-38.808a5.976 5.976 0 0 1 5.975-5.975z"></path><path fill="#fe8e00" d="M1457.019 2083.3c-.001-5.477 4.479-9.957 9.955-9.956l33.349-.001c5.476 0 9.955 4.479 9.955 9.956l.001 2.488c-.001 5.476-4.481 9.956-9.955 9.957l-33.349-.001c-5.475.001-9.956-4.48-9.955-9.957l-.001-2.486z"></path><path fill="#4893ff" d="M1402.265 2212.633c.001-5.474 4.48-9.956 9.955-9.956l163.763.001c5.475 0 9.955 4.481 9.955 9.955l.001 37.333c-.001 5.475-4.482 9.955-9.957 9.955h-163.763c-5.475 0-9.955-4.48-9.955-9.955v-37.333z"></path><path fill="#231f20" d="M1399.37 2225.326h2.895v11.946h-2.895zM1585.938 2225.326h2.896v11.945h-2.896zM1477.675 2095.743h11.947v3.077h-11.947z"></path><path fill="#1e2889" d="m1113.438 2068.173 21.968 206.06s1.632 15.766 16.63 15.766H1318.943c14.998 0 16.63-15.766 16.63-15.766l21.971-206.06h-244.106z"></path><path fill="none" stroke="#f3f0de" stroke-miterlimit="10" stroke-width="8" d="M1091.009 2049.567s-6.259 163.345 146.307 163.345c152.563 0 140.696-159.096 140.696-159.096"></path><path fill="#191e56" d="M1373.709 2066.931c0 1.65-1.35 3-3 3h-269.398c-1.65 0-3-1.35-3-3v-36.191c0-1.65 1.35-3 3-3h269.398c1.65 0 3 1.35 3 3v36.191z"></path><path fill="#191e56" d="M1387.012 2049.567c0 5.582-4.03 10.11-9 10.11-4.969 0-8.997-4.528-8.997-10.11 0-5.583 4.028-10.11 8.997-10.11 4.971 0 9 4.527 9 10.11zM1103.007 2048.836c0 5.583-4.029 10.109-8.998 10.109-4.969 0-8.999-4.527-8.999-10.109 0-5.583 4.029-10.11 8.999-10.11 4.969 0 8.998 4.527 8.998 10.11z"></path><path fill="#231f20" d="M1098.311 2036.456s-1.365 17.564.718 26.445c.594 2.531 1.093 4.332 1.873 6.495 5.049 2.385 11.776-2.569 13.826.324 2.488 3.512.312 8.51.312 18.974 7.456 4.954 16.845 6.95 27.607 8.046 33.12 3.371 43.554-27.391 54.247-33.84 10.691-6.448 22.793 30.097 22.036 55.375-.758 25.277-11.971 62.554 16.561 62.554s5.758-40.535 5.345-63.727c-.657-36.914 26.346-61.602 37.75-61.749 11.402-.146 10.626 28.344 44.4 26.15 33.771-2.194 48.558-53.764 42.495-53.764-5.487 0-222.26 2.259-262.474 3.003-4.238.078-4.696 5.714-4.696 5.714z" opacity=".3"></path><path fill="#45a7ff" d="M1098.311 2032.501s-1.365 17.564.718 26.444c6.064 25.855 22.093 31.649 43.618 33.839 33.12 3.372 43.554-27.391 54.247-33.839 10.691-6.448 22.793 30.097 22.036 55.375-.758 25.278-11.971 62.554 16.561 62.554s5.758-40.535 5.345-63.727c-.657-36.914 26.346-61.602 37.75-61.748 11.402-.146 10.626 28.343 44.4 26.149 33.771-2.194 46.551-49.808 40.488-49.808l-260.467-.953c-4.238.078-4.696 5.714-4.696 5.714z"></path><path fill="#ea756c" d="M2484.309 682.538s34.198 33.316 64 34.638 121.799-35.702 121.799-35.702 28.725-18.115 58.956-9.018c30.232 9.097 20.501 27.387-8.094 25.095s-38.528 3.084-38.528 3.084-87.67 53.115-127.233 53.299c-39.563.184-73.181-28.733-95.069-51.086l24.169-20.31z"></path><path fill="#191e56" d="M2400.815 638.386s1.25-15.068 13.523-20.728c12.272-5.66 25.044-5.094 39.985 16.51 14.941 21.604 43.566 58.162 43.566 58.162s-14.575 40.071-53.441 33.306c0-.001-43.137-67.839-43.633-87.25z"></path><path fill="#ffab00" d="M1756.572 495.449s-3.703-18.517-4.76-33.576c-1.057-15.059 8.28-27.76 2.024-41.483-6.257-13.723-49.221-10.986-80.073-12.361-30.853-1.375-57.423 7.182-51.814 29.859 5.61 22.677 54.588 9.986 76.156 37.108s16.063 32.213 16.063 32.213l42.404-11.76z"></path><path fill="#191e56" d="M1769.364 669.901s-41.199-35.849-60.64-86.548c-19.925-51.959-10.19-92.419-10.19-92.419s25.009-15.953 63.758-15.268c0 0 4.13 74.299 32.84 110.555 25.055 31.639 66.653 59.316 66.653 59.316l-92.421 24.364z"></path><defs><path id="t" d="M2456.978 566.894c0 .65.475 28.093-24.235 43.608l6.043 23.312 21.355 5.963s11.781-29.058 24.342-34.512l7.797-9.135-25.339-35.964-9.963 6.728z"></path></defs><use fill="#ffaca6" overflow="visible" xlink:href="#t"></use><clipPath id="u"><use overflow="visible" xlink:href="#t"></use></clipPath><path fill="#ea756c" d="M2443.333 592.161c.866 0 27.144 15.016 30.32 35.518 0 0 20.791-17.615 21.946-18.192 1.155-.578-3.321-28.299-3.321-28.299s-11.984-17.037-15.738-17.037-29.454 11.978-32.341 12.342c-2.887.363-.866 15.668-.866 15.668z" clip-path="url(#u)"></path><defs><path id="v" d="m2055.979 632.954 14.982-5.54s74.181 14.925 121.776 8.505 202.928-37.531 240.006-25.416c0 0 13.295 23.747 27.398 29.275 0 0-33.478 90.282-97.56 92.48-64.083 2.198-300.934.221-300.934.221l-5.668-99.525z"></path></defs><use fill="#0542bf" overflow="visible" xlink:href="#v"></use><clipPath id="w"><use overflow="visible" xlink:href="#v"></use></clipPath><path fill="#003daa" d="M2055.979 700.446s79.654 1.155 155.105 0c75.452-1.155 198.152-53.609 241.201-75.724l21.368 15.056-12.417 30.123-54.576 86.565-98.757 14.438s-140.338.577-158.241 0c-17.903-.578-83.741-16.969-83.741-16.969s-17.326-18.415-17.326-19.492c.001-1.078 7.384-33.997 7.384-33.997z" clip-path="url(#w)"></path><path fill="#ffaca6" d="M2467.841 710.222s34.198 33.316 64 34.638c29.801 1.322 121.799-35.702 121.799-35.702s28.725-18.115 58.956-9.018 20.501 27.387-8.094 25.095-38.528 3.084-38.528 3.084-87.67 53.115-127.233 53.299-78.934-24.529-100.822-46.882l29.922-24.514z"></path><path fill="#1e2889" d="M2381.405 653.208s1.25-15.068 13.523-20.729c12.272-5.66 25.044-5.094 39.985 16.51s43.566 58.162 43.566 58.162-14.575 40.071-53.441 33.306c0 .001-43.137-67.837-43.633-87.249z"></path><defs><path id="x" d="m2540.305 544.828 7.916-2.758s15.647 4.224 23.276-9.872-5.411-18.708-7.319-25.957c-1.908-7.249 11.966-20.166-6.637-37.399-18.604-17.234-32.005-8.631-48.754-12.504-16.75-3.873-28.288-10.494-57.724 9.839-29.435 20.333-29.891 62.742-7.371 102.314 10.935 18.858 9.023 19.776 9.023 19.776l18.818-6.439 68.772-37z"></path></defs><use fill="#1e2889" overflow="visible" xlink:href="#x"></use><clipPath id="y"><use overflow="visible" xlink:href="#x"></use></clipPath><path fill="#131e6d" d="M2418.789 543.938s9.818 7.797 28.876-3.754 41.004-36.095 87.783-26.277c46.78 9.818 56.886-3.754 56.886-3.754l-24.545 55.442-62.084 42.134-52.554 4.068-27.721-18.769-6.641-49.09z" clip-path="url(#y)"></path><defs><path id="z" d="M2554.656 538.297s-15.162 77.785-44.636 82.899c-29.475 5.114-37.25-41.026-36.493-47.274 0 0-9.374.447-8.787-8.978.586-9.425 9.475-13.06 14.023-10.204 0 0 11.647-2.998 16.178-13.664s10.903-5.864 15.594-6.034c4.691-.17 8.474 1.962 15.073-1.943 6.599-3.905 14.666-.357 19.359 3.17 4.692 3.528 9.689 2.028 9.689 2.028z"></path></defs><use fill="#ffaca6" overflow="visible" xlink:href="#z"></use><clipPath id="A"><use overflow="visible" xlink:href="#z"></use></clipPath><path fill="#ea756c" d="M2458.927 576.493s4.043 6.139 20.791-5.989 20.213-23.39 46.491-19.925c26.277 3.465 35.806-3.176 35.806-3.176l-.577-16.008s-12.706-11.825-30.609-11.192c-17.903.634-42.159 5.254-54.287 8.719s-26.945 16.748-27.188 22.523c-.245 5.776 9.573 25.048 9.573 25.048z" clip-path="url(#A)"></path><path fill="#ffab00" d="M1576.999 660.643s-17.755-6.429-31.183-13.327c-13.427-6.898-19.452-21.466-34.431-23.226-14.979-1.76-34.902 36.406-52.064 62.081-17.162 25.675-23.612 52.834-1.309 59.787 22.302 6.953 36.825-41.513 71.199-45.908 34.371-4.393 35.873 2.954 35.873 2.954l11.915-42.361z"></path><defs><path id="B" d="M1565.368 642.986s136.596 15.367 202.028 8.963c65.433-6.404 162.05-33.916 224.043-32.717 61.993 1.199 79.522 8.182 79.522 8.182l-9.315 105.065s-254.611 4.991-300.883-.94c-46.271-5.931-198.314-22.759-198.314-22.759s-15.626-26.546 2.919-65.794z"></path></defs><use fill="#1e2889" overflow="visible" xlink:href="#B"></use><clipPath id="C"><use overflow="visible" xlink:href="#B"></use></clipPath><path fill="#172377" d="M1551.06 685.335s439.492 24.853 513.417 15.218c73.925-9.635 0 0 0 0l6.484 39.05-140.468 14.333s-291.938 5.418-298.002 5.418-76.196-18.126-76.196-18.126l-7.831-42.572 2.596-13.321z" clip-path="url(#C)"></path><path fill="#b0d8ff" d="M3314.184 1378.397s11.951-30.408 29.787-63.714 29.456-62.213 64.093-45.658-32.651 148.05-32.651 148.05-38.094 11.006-61.229-38.678z"></path><circle cx="2906.185" cy="802.428" r="16.748" fill="#ebf5ff"></circle><circle cx="2998.011" cy="802.428" r="16.748" fill="#ebf5ff"></circle><circle cx="3089.837" cy="802.428" r="16.748" fill="#ebf5ff"></circle><defs><path id="D" d="m1830.437 1975.619-5.386 12.849s-7.175 35.662 5.386 78.977c12.561 43.314 29.021 116.082 4.765 146.402-24.256 30.32-172.391 116.949-172.391 116.949s2.599 39.849 33.785 42.448c0 0 200.978-95.291 216.571-123.012 15.593-27.721 42.711-187.984 42.711-187.984s125.348-11.585 139.209 13.537c13.861 25.122-32.919 194.048-32.919 194.048s38.117 24.256 58.041 2.599c0 0 79.3-195.174 65.252-255.23-7.814-33.406-11.543-62.55-145.423-73.657l-209.601 32.074z"></path></defs><use fill="#0542bf" overflow="visible" xlink:href="#D"></use><clipPath id="E"><use overflow="visible" xlink:href="#D"></use></clipPath><path fill="#072ca3" d="M1662.811 2361.115s208.775-96.954 225.234-123.844 36.091-215.783 36.091-215.783 174.557-24.701 185.315 56.974-55.079 158.809-55.079 158.809l-318.793 148.1-53.71 7.467-19.058-31.723z" clip-path="url(#E)"></path><defs><path id="F" d="M1815.277 1569.62s59.846 30.332 71.324 45.624c11.478 15.292 20.286 20.791 20.286 20.791s23.146 22.379 52.83 2.31c18.422-1.66 25.352 2.238 38.996-4.259 13.644-6.497 50.028-1.083 79.049 6.281 29.021 7.363 58.041 15.16 58.041 15.16s5.631 44.181-19.925 80.998l-81.72-6.93s-5.775 168.637 2.888 196.358c8.663 27.721 7.477 103.954-117.542 106.842-66.111 0-96.142-23.101-95.565-55.442.578-32.341 9.24-84.896 12.706-137.451 3.465-52.555 2.924-132.253 2.924-132.253l-64.141-67.57c0-.002 9.967-38.987 39.849-70.459z"></path></defs><use fill="#ffab00" overflow="visible" xlink:href="#F"></use><clipPath id="G"><use overflow="visible" xlink:href="#F"></use></clipPath><path fill="#fe8e00" d="M1817.587 1936.347s13.86 11.55 66.993 7.508c53.132-4.043 103.677-37.539 113.056-100.489 9.379-62.95 25.55-127.055 25.55-127.055l105.687 14.438-32.341 62.95-50.245 210.219s-123.59 53.71-127.055 53.71c-3.465 0-101.2-24.7-101.361-24.833-.161-.134-9.523-66.415-9.523-66.415l9.239-30.033zM1773.988 1627.372l71.175 76.233-5.852 58.044-29.232-28.59-36.091-78.399-7.223-17.326z" clip-path="url(#G)"></path><defs><path id="H" d="M1994.598 1493.098s19.647 135.564-40.993 101.346c-11.262-6.064-22.09-38.55-22.09-38.55s-14.294.433-11.695-18.625 17.326-11.262 18.625-10.395c0-.001 40.127-11.253 56.153-33.776z"></path></defs><use fill="#ffaca6" overflow="visible" xlink:href="#H"></use><clipPath id="I"><use overflow="visible" xlink:href="#H"></use></clipPath><path fill="#ea756c" d="M1914.611 1542.765s6.642 8.085 34.074-5.198c27.432-13.283 51.986-33.798 51.986-33.798l-3.036-16.732-45.197 10.681-36.384 12.128-1.443 32.919z" clip-path="url(#I)"></path><defs><path id="J" d="M3409.475 1174.086s-8.451 31.5-1.281 52.755c0 0-8.451 15.11-40.207 3.842 0 0 6.146-22.92 2.561-43.28l38.927-13.317z"></path></defs><use fill="#ffaca6" overflow="visible" xlink:href="#J"></use><clipPath id="K"><use overflow="visible" xlink:href="#J"></use></clipPath><path fill="#ea756c" d="M3366.078 1206.79s33.202-3.032 45.979 11.695l1.467-44.4s-21.915-6.278-24.794-6.278c-2.879 0-24.103-3.032-24.319 4.332-.217 7.363.65 17.975.65 17.975l1.017 16.676z" clip-path="url(#K)"></path><defs><path id="L" d="M3345.016 1103.275s-29.195 94.115 3.457 96.036c32.652 1.921 49.938-18.439 49.938-18.439s17.286.384 19.207-17.286c1.921-17.671-13.061-12.229-13.061-12.229s-12.293-6.979-10.756-18.887c.001 0-34.572-4.61-48.785-29.195z"></path></defs><use fill="#ffaca6" overflow="visible" xlink:href="#L"></use><clipPath id="M"><use overflow="visible" xlink:href="#L"></use></clipPath><path fill="#ea756c" d="M3336.763 1112.51s8.097 17.326 29.315 24.833c21.218 7.508 34.212 31.764 54.714 23.967l-11.318-23.678s-14.094-19.347-14.96-19.347-38.983-14.438-39.271-16.171c-.289-1.733-13.283-8.663-13.283-8.663l-5.197 19.059z" clip-path="url(#M)"></path><path fill="#daebff" d="M3551.818 1707.729h158.285v69.984h-158.285z"></path><path fill="#ebf5ff" d="M3615.824 1777.713h158.285v69.984h-158.285z"></path><path fill="#daebff" d="M894.285 1347.274h158.285v69.984H894.285z"></path><path fill="#ebf5ff" d="M958.291 1417.258h158.285v69.984H958.291z"></path><circle cx="913.17" cy="1043.489" r="215.476" fill="#7bbdff"></circle><circle cx="913.17" cy="1043.489" r="197.482" fill="#daebff"></circle><path fill="#054aa9" d="M913.17 1049.668a6.168 6.168 0 0 1-4.159-1.608l-107.162-97.459a6.18 6.18 0 0 1 8.316-9.144l103.086 93.752 79.294-69.3a6.18 6.18 0 0 1 8.133 9.306l-83.443 72.926a6.157 6.157 0 0 1-4.065 1.527zM906.432 1194.598h12.941v33.969h-12.941zM906.432 858.41h12.941v33.969h-12.941z"></path><path fill="#054aa9" d="M738.339 1026.504h12.941v33.969h-12.941z" transform="rotate(90 744.809 1043.489)"></path><path fill="#054aa9" d="M1074.526 1026.504h12.941v33.969h-12.941z" transform="rotate(90 1080.996 1043.489)"></path><path fill="none" stroke="#de4d30" stroke-linecap="round" stroke-linejoin="round" stroke-miterlimit="10" stroke-width="2" d="m913.17 1047.398 52.304 157.31"></path><circle cx="913.17" cy="1043.489" r="22.783" fill="#7bbdff" transform="rotate(-80.781 913.189 1043.475)"></circle><circle cx="913.17" cy="1043.489" r="13.419" fill="#ffab00"></circle></svg>