<svg xmlns="http://www.w3.org/2000/svg" viewBox="0 0 4680 3120" id="manager-finding-quality-application"><defs><clipPath id="a"><path fill="none" d="M768.84 1618c94.12-107.94 223.54-178.2 330.25-273.7 167.07-149.52 275.28-363.12 297-586.26 8.16-83.8 4.86-170 31.33-249.95 41.45-125.17 159.5-221.36 290.46-236.68 119.78-14 238.73 34.92 340.09 100.26s191.06 147.58 293 212.07C2645.36 770 3038.23 789 3349.24 632c111.24-56.16 221.65-135.27 346-127.1 256.55 16.87 358.67 329.23 286.73 545.89-29.71 89.49-94.81 163.28-129.3 251-48.19 122.64-25.75 265.43 47.24 373.42 77.48 114.63 107.6 219.45 101.23 363.74-4.77 108.09-36.11 216.64-100.26 303.77-111.43 151.38-308.81 220-496.78 220.43s-370.56-58.05-548.83-117.65-359.08-121.5-546.91-128.69c-201.66-7.67-400.52 48.52-589 120.56-233.52 89.23-485.36 205.43-722.64 126.85-71.93-23.82-137.46-64.81-194.54-114.63C548.06 2227.76 555 1863.19 768.84 1618Z"></path></clipPath><clipPath id="b"><path fill="none" d="M1619.61 1759.63h126.5v173.72h-126.5z" transform="rotate(-18.58 1682.841 1846.477)"></path></clipPath><clipPath id="c"><path fill="none" d="M977.11 1991.17h126.5v173.72h-126.5z" transform="rotate(-18.58 1040.345 2078.01)"></path></clipPath><clipPath id="d"><path fill="none" d="M2944.28 1313.72h126.5v173.72h-126.5z" transform="rotate(-18.58 3007.49 1400.57)"></path></clipPath><clipPath id="e"><path fill="none" d="M2669.05 438.07h126.5v173.72h-126.5z" transform="rotate(-18.58 2732.275 524.928)"></path></clipPath><clipPath id="f"><path fill="none" d="m1474.54 1064.71-121.26 42.3-57.83-166.46 121.26-42.29 57.83 166.45z"></path></clipPath><clipPath id="g"><path fill="none" d="m2421.97 1687.1-121.26 42.29-57.83-166.45 121.26-42.3 57.83 166.46z"></path></clipPath><clipPath id="h"><path fill="none" d="M2008.79 673.3h126.5v173.72h-126.5z" transform="rotate(-18.58 2072.009 760.145)"></path></clipPath><linearGradient id="i" x1="3056.29" x2="3228.48" y1="-1449.93" y2="-1202.88" gradientTransform="rotate(-173.54 2679.827 -225.499)" gradientUnits="userSpaceOnUse"><stop offset="0" stop-color="#fff"></stop><stop offset="1" stop-color="#fff" stop-opacity="0"></stop></linearGradient></defs><g data-name="8"><path fill="#fff" d="M0 0h4680v3120H0z"></path><path fill="#1f60e5" d="M3899.91 1675.27c77.48 114.64 107.6 219.45 101.24 363.74q-.57 13.13-1.7 26.2-.3 3.67-.66 7.3c-6.28 65.65-22.62 130.59-50.43 190a457.22 457.22 0 0 1-4.81 10q-2.31 4.66-4.72 9.28c-1.58 3.09-3.23 6.14-4.9 9.19a464.23 464.23 0 0 1-33 51.81q-6.91 9.42-14.29 18.37-4.3 5.24-8.77 10.35-9.55 11-19.79 21.37a489.3 489.3 0 0 1-62.92 53.68c-1.74 1.27-3.5 2.51-5.28 3.76a568.27 568.27 0 0 1-96.86 54.26c-1.45.64-2.92 1.29-4.39 1.91-6.7 2.87-13.45 5.66-20.24 8.31q-28.22 11-57.59 19.5a708.8 708.8 0 0 1-61 14.74c-6 1.2-12 2.29-18 3.29a767.81 767.81 0 0 1-127.61 10.89h-1.85c-4.61 0-9.24 0-13.84-.11H3386.8c-3.6-.06-7.19-.13-10.79-.24-3.86-.11-7.68-.25-11.51-.4-.34 0-.67 0-1-.05-2.6-.11-5.18-.22-7.77-.35s-5.16-.27-7.74-.43-5.17-.31-7.75-.46c-4.5-.29-9-.63-13.45-1-1.85-.14-3.67-.29-5.5-.45-1.42-.11-2.85-.24-4.27-.38-2.58-.22-5.17-.46-7.73-.71-2.27-.22-4.58-.44-6.85-.69h-.11c-5.41-.56-10.8-1.13-16.19-1.78-2.56-.29-5.12-.6-7.7-.93-4-.49-8-1-12.07-1.56l-5.88-.8c-2.91-.43-5.81-.83-8.72-1.27-2.5-.36-5-.74-7.46-1.14-1.43-.2-2.85-.42-4.28-.67-2.45-.38-4.9-.78-7.34-1.18l-.63-.09c-2.45-.4-4.92-.82-7.37-1.24-1.35-.23-2.71-.45-4-.69l-6.17-1.09c-1.69-.29-3.38-.6-5.07-.92-2.56-.46-5.1-.93-7.66-1.42q-20.37-3.84-40.65-8.26l-6-1.34q-22.35-4.93-44.62-10.53l-14.43-3.67c-7.34-1.92-14.71-3.85-22.06-5.86-1.45-.37-2.89-.77-4.36-1.18s-3-.8-4.48-1.22c-2.51-.69-5-1.38-7.54-2.09q-21.15-5.88-42.22-12.18-11-3.24-21.88-6.59-20.48-6.28-40.85-12.78c-2.5-.78-5-1.58-7.46-2.38-5.7-1.83-11.38-3.65-17.08-5.5l-2.87-.94-9.84-3.2q-30.09-9.86-60-19.88C2677 2386 2496.2 2324 2308.36 2316.81c-201.66-7.68-400.53 48.53-589 120.55-88.18 33.71-179 71.27-270.65 100.72q-19.44 6.26-38.94 12c-24.18 7.08-48.38 13.47-72.6 19Q1311 2575 1285 2579.43q-6.95 1.2-13.89 2.24c-.83.14-1.67.27-2.5.38q-30.12 4.54-60.15 6.64c-39.85 2.74-79.57 2-119-3.3-3.07-.4-6.12-.82-9.19-1.29a503.57 503.57 0 0 1-83.49-19.88q-16.07-5.31-31.66-11.76-5.72-2.33-11.35-4.83c-47.4-20.81-91.59-48.91-131.94-81.57-1.56-1.25-3.09-2.52-4.63-3.76q-7.57-6.26-14.94-12.69a583 583 0 0 1-74.76-78.44 548.87 548.87 0 0 1-53.81-82.53 533.35 533.35 0 0 1-24.94-53.64c-1.29-3.25-2.56-6.53-3.78-9.8q-6.51-17.33-11.78-35c-57.55-192-7-408.61 135.65-572.18C863 1510 992.39 1439.77 1099.09 1344.26c167.07-149.52 275.29-363.11 297-586.25 8.17-83.8 4.87-170 31.32-249.95C1468.89 382.89 1587 286.7 1717.9 271.38c119.78-14 238.73 34.91 340.09 100.27 80.73 52.05 154.06 114.79 232.07 170.76 19.93 14.32 40.17 28.19 60.89 41.3q8.28 5.24 16.68 10.31 16.83 10.18 34.06 19.61 17.89 9.86 36.2 18.9a987.09 987.09 0 0 0 113 47.44c258.23 90.17 553.6 75.59 798.31-48 111.25-56.15 221.66-135.27 346-127.1 256.54 16.87 358.66 329.23 286.73 545.89-29.72 89.48-94.82 163.28-129.31 251-48.15 122.74-25.71 265.51 47.29 373.51Z"></path><g clip-path="url(#a)" opacity=".81"><path fill="#fff" d="M1640.71 1638.08h594.27v790.56h-594.27z" transform="rotate(-18.58 1937.811 2033.338)"></path><path fill="#fff" d="M1619.61 1759.63h126.5v173.72h-126.5z" transform="rotate(-18.58 1682.841 1846.477)"></path><path fill="#1f60e5" d="M1619.61 1759.63h126.5v173.72h-126.5z" opacity=".08" transform="rotate(-18.58 1682.841 1846.477)"></path><g clip-path="url(#b)"><path fill="#fff" d="m1713.1 1891.46-28.48 9.5-1.66-6.6-3.39-13.44-3.58-14.23 21.64-11.43 6.13 14.32 5.9 13.82 3.44 8.06z"></path><path fill="#fff" d="m1784.36 1931.8-132.23 44.08-11.74-42.88a29.21 29.21 0 0 1 10.39-31.08c.57-.43 1.15-.84 1.76-1.23l5-3.17 8.07-5.16 4.3-2.75 9.14-5.85.34-.22.2.86 1.1 4.66 2.62-.24 19.57-1.89 6.94-.67-2.92-10.77-.71-2.6 1.67-.13 5.72-.44 6.2-.49 14.18-1.13a25.18 25.18 0 0 1 5.11.22h.21c9.44 1.43 16.34 8.29 21.43 17.58Z"></path><path fill="#1f60e5" d="m1784.36 1931.8-132.23 44.08-11.74-42.88a29.21 29.21 0 0 1 10.39-31.08c.57-.43 1.15-.84 1.76-1.23l5-3.17 8.07-5.16 4.3-2.75 9.14-5.85.34-.22.2.86 1.1 4.66 2.62-.24 19.57-1.89 6.94-.67-2.92-10.77-.71-2.6 1.67-.13 5.72-.44 6.2-.49 14.18-1.13a25.18 25.18 0 0 1 5.11.22h.21c9.44 1.43 16.34 8.29 21.43 17.58Z" opacity=".47"></path><path fill="#fff" d="M1706.32 1832a36 36 0 0 1 .82 13.37q-.09.95-.21 1.86c-.46 3.77-2.43 7-3.9 10.5-.65 1.57-1.37 3.16-2.2 4.72-2.56 4.84-6.07 9.26-11.32 11-4 1.34-8.15.83-12.13-.62-5.79-2.1-11.28-6.2-15.78-9.53-1.3-1-2.46-1.85-3.53-2.72a21.41 21.41 0 0 1-7-10.06 34.72 34.72 0 0 1-1.66-6.81c-.66-4.41-.74-9-1.23-13.37q-1-9.18-2-18.38l33-22.93 12.5 16.92 8.9 15c.84 1.43 1.78 2.85 2.67 4.31a28.38 28.38 0 0 1 3.07 6.74Z"></path><path fill="#1f60e5" d="M1702.94 1867.12c-2.59 5.09-6.18 9.84-11.66 11.67-4.21 1.4-8.53.79-12.69-.82l-1.21-5.15c4 1.45 8.1 2 12.13.62 5.25-1.76 8.76-6.18 11.32-11Z" opacity=".11"></path><path fill="#fff" d="m1650.56 1842.7-5.2 4.36a4.43 4.43 0 0 0-.85 5.75 15 15 0 0 0 8.89 6.53l6.35 1.66ZM1712.89 1829.83a12 12 0 0 1-.43 8.14 1.17 1.17 0 0 1 0 .11c-.05.1-.11.2-.17.3a14.91 14.91 0 0 1-1.12 1.72l-3.71 4.89-.27.35-4.05-20.07h.14l6.34.18.12.06a7 7 0 0 1 3.15 4.32Z"></path><path fill="#2d1d2c" d="M1688.68 1806.1c-1.1-2.11-1.91-3.77-2.28-4.55ZM1690.13 1808.83c-.25-.47-.5-.92-.74-1.36.25.44.49.89.74 1.36ZM1696.18 1795.35c-.3-.44-.6-.88-.92-1.32.32.44.63.88.92 1.32Z"></path><path fill="#fff" d="M1697.45 1820.8c-5.84-4-14.41-13.57-14.41-13.57-3.79 4.84-29.46 9.82-29.46 9.82a48.48 48.48 0 0 1-2.16 16.7c-.19-8.24-2.19-18.61-2.2-19.67 0-.19.29-.39.82-.6 4.74-1.88 28.81-4.63 36.12-12.41l.11.21c.28.6 1.16 2.42 2.41 4.82l.06.11a126.55 126.55 0 0 0 8.71 14.59ZM1740.4 1912.88l-11 2.4 8.63 7.29-8.72 27.58-10.38 32.85-25.52-20.84-23.11-18.88 3.44-19.58-9 3-9.12-27.47 1.84-1.7 8.07-5.16 4.3-2.75 9.14-5.85.54.64 3.72 4.42 13.35 15.82 6.22-17.71 4-11.44 1-2.73 5.72-.44 6.2-.49 14.18-1.13a25.18 25.18 0 0 1 5.11.22h.21Z"></path><path fill="#003fc3" d="m1740.4 1912.88-11 2.4 8.63 7.29-8.72 27.58-10.38 32.85-25.52-20.84-23.11-18.88 3.44-19.58-9 3-9.12-27.47 1.84-1.7 8.07-5.16 4.3-2.75 9.14-5.85.54.64 3.72 4.42 13.35 15.82 6.22-17.71 4-11.44 1-2.73 5.72-.44 6.2-.49 14.18-1.13a25.18 25.18 0 0 1 5.11.22h.21Z" opacity=".5"></path><path fill="#fff" d="m1706 1872.86-1.38 2a19.64 19.64 0 0 1-22.15 7.64l-2.77-.88-.17 3.24 30.86 70.44 2.54-46.62Z"></path><path fill="#003fc3" d="M1700.39 1803.7c2.43 6.71 3.08 13.86 4.31 22.13.07.48.47 2.88-2.69.19-.42-.36-.86-.78-1.3-1.24s-.89-1-1.34-1.51c-.15-.17-.3-.36-.45-.55-.69-.87-1.4-1.82-2.1-2.82-.19-.28-.39-.56-.58-.85-.77-1.13-1.52-2.31-2.25-3.5l-.43-.71-.42-.7-.47-.79c-.26-.44-.51-.88-.76-1.32-.14-.23-.27-.47-.4-.69l-1-1.74-.16-.29-.26-.48c-.25-.47-.49-.92-.74-1.36s-.44-.85-.65-1.26l-.06-.11-2.28-4.55-.07-.15-.06-.11-.11-.22-.46.46c-7.81 7.44-31 10.12-35.66 12-.53.21-.81.41-.81.6v1.2c0 .13.09.59.15.94V1816.73c0 .08.06.4.09.62s0 .28.07.43.06.37.09.57c.09.68.21 1.43.32 2.22 0 .15 0 .31.07.46.1.73.2 1.48.31 2.27l.09.78.15 1.22.06.58c0 .32.08.64.11 1 .06.59.12 1.19.17 1.8.09 1 .16 1.94.22 2.9 0 .49.05 1 .07 1.47s0 .94 0 1.41V1836.89a23.2 23.2 0 0 1-.38 3.39c-.62 3.19-1.58 2.72-1.42 4-3-7.63-5.49-10.92-8.44-18.59a52.49 52.49 0 0 1-3.29-11.48 22.94 22.94 0 0 1-.23-4.51c.44-8 5.56-14.91 12.68-19.66a42.46 42.46 0 0 1 15.53-6.34 44 44 0 0 0 6.32-.69c15-2.8 17.14-12.53 17.14-12.53s11.38 13.51 5.91 23.64c.32.44.62.88.92 1.32s.58.88.85 1.32c.13.22.27.44.39.66s.26.45.38.67.25.44.36.66c.3.56.58 1.13.85 1.69.08.16.15.32.22.48s.23.5.33.75l.21.51c.08.18.15.36.22.54l.21.54c.35.08.41.27.47.44Z" opacity=".63"></path><path fill="#2d1d2c" d="M1686.27 1801.28c-.19.08-.37.16-.57.23l.46-.46Z"></path></g><path fill="none" stroke="#1f60e5" stroke-miterlimit="10" stroke-width="2" d="m1781.27 1746.63 276.07-92.8M1790.62 1774.55l276.08-92.8M1790.62 1774.55l276.08-92.8M1799.98 1802.47l276.07-92.8M1659.18 1984.14l457.33-153.73M1677.42 2038.58l457.33-153.73M1696.13 2094.42l457.33-153.73M1714.84 2150.26l457.33-153.73M1733.55 2206.09l457.33-153.73"></path><path fill="#fff" d="M998.21 1869.61h594.27v790.56H998.21z" transform="rotate(-18.58 1295.315 2264.87)"></path><path fill="#fff" d="M977.11 1991.17h126.5v173.72h-126.5z" transform="rotate(-18.58 1040.345 2078.01)"></path><path fill="#1f60e5" d="M977.11 1991.17h126.5v173.72h-126.5z" opacity=".08" transform="rotate(-18.58 1040.345 2078.01)"></path><g clip-path="url(#c)"><path fill="#fff" d="m1070.6 2123-28.48 9.49-1.66-6.59-3.39-13.44-3.58-14.23 21.64-11.44 6.12 14.33 5.91 13.82 3.44 8.06z"></path><path fill="#fff" d="m1141.86 2163.34-132.23 44.07-11.74-42.92a29.2 29.2 0 0 1 10.39-31.08c.57-.43 1.15-.85 1.76-1.23l5-3.17 8.06-5.17 4.31-2.74 9.14-5.85.34-.22.2.86 1.1 4.66 2.62-.25 19.57-1.88 6.94-.67-2.92-10.77-.71-2.6 1.66-.13 5.73-.44 6.2-.5 14.18-1.12a24.51 24.51 0 0 1 5.11.22h.21c9.44 1.43 16.34 8.29 21.42 17.58Z"></path><path fill="#1f60e5" d="m1141.86 2163.34-132.23 44.07-11.74-42.92a29.2 29.2 0 0 1 10.39-31.08c.57-.43 1.15-.85 1.76-1.23l5-3.17 8.06-5.17 4.31-2.74 9.14-5.85.34-.22.2.86 1.1 4.66 2.62-.25 19.57-1.88 6.94-.67-2.92-10.77-.71-2.6 1.66-.13 5.73-.44 6.2-.5 14.18-1.12a24.51 24.51 0 0 1 5.11.22h.21c9.44 1.43 16.34 8.29 21.42 17.58Z" opacity=".47"></path><path fill="#fff" d="M1063.82 2063.5a36 36 0 0 1 .82 13.37c-.06.63-.13 1.24-.21 1.85-.46 3.77-2.43 7-3.9 10.5-.66 1.57-1.38 3.17-2.2 4.72-2.56 4.84-6.07 9.27-11.32 11-4 1.35-8.15.84-12.13-.61-5.79-2.1-11.29-6.2-15.78-9.54-1.3-1-2.47-1.84-3.53-2.72a21.38 21.38 0 0 1-7-10 35.06 35.06 0 0 1-1.66-6.81c-.66-4.42-.74-9-1.23-13.37-.67-6.12-1.36-12.25-2-18.38l32.95-22.94 12.5 16.93q4.45 7.51 8.9 15c.84 1.42 1.78 2.85 2.67 4.3a28.56 28.56 0 0 1 3.12 6.7Z"></path><path fill="#1f60e5" d="M1060.44 2098.66c-2.59 5.09-6.18 9.84-11.66 11.66-4.21 1.41-8.53.79-12.69-.82l-1.21-5.14c4 1.45 8.1 2 12.13.61 5.25-1.75 8.76-6.18 11.32-11Z" opacity=".11"></path><path fill="#fff" d="m1008.06 2074.24-5.2 4.35a4.44 4.44 0 0 0-.85 5.76 15.06 15.06 0 0 0 8.89 6.53l6.35 1.66ZM1070.39 2061.37a12 12 0 0 1-.43 8.13.67.67 0 0 1-.06.12 2.19 2.19 0 0 1-.16.3 14.91 14.91 0 0 1-1.12 1.72l-3.71 4.88-.27.36-4.05-20.07h.14l6.34.18a.39.39 0 0 1 .11.06 6.9 6.9 0 0 1 3.21 4.32Z"></path><path fill="#2d1d2c" d="M1046.18 2037.64c-1.1-2.11-1.91-3.77-2.28-4.55ZM1047.63 2040.37c-.26-.47-.5-.93-.74-1.37.24.45.48.9.74 1.37ZM1053.68 2026.89c-.3-.45-.6-.89-.93-1.33.33.44.64.88.93 1.33Z"></path><path fill="#fff" d="M1055 2052.33c-5.85-4-14.41-13.56-14.41-13.56-3.79 4.83-29.46 9.82-29.46 9.82a48.75 48.75 0 0 1-2.16 16.7c-.19-8.24-2.19-18.61-2.2-19.67 0-.19.29-.39.82-.61 4.74-1.87 28.81-4.62 36.12-12.41l.11.22c.28.6 1.16 2.41 2.41 4.82l.06.11a125.63 125.63 0 0 0 8.71 14.58ZM1097.9 2144.41l-11 2.4 8.64 7.3-8.72 27.58-10.37 32.81-25.52-20.85-23.11-18.88 3.44-19.58-9 3-9.13-27.47 1.85-1.7 8.06-5.17 4.31-2.74 9.14-5.85.54.64 3.72 4.41 13.35 15.82 6.22-17.7 4-11.44 1-2.73 5.73-.44 6.2-.5 14.18-1.12a24.51 24.51 0 0 1 5.11.22h.21Z"></path><path fill="#003fc3" d="m1097.9 2144.41-11 2.4 8.64 7.3-8.72 27.58-10.37 32.81-25.52-20.85-23.11-18.88 3.44-19.58-9 3-9.13-27.47 1.85-1.7 8.06-5.17 4.31-2.74 9.14-5.85.54.64 3.72 4.41 13.35 15.82 6.22-17.7 4-11.44 1-2.73 5.73-.44 6.2-.5 14.18-1.12a24.51 24.51 0 0 1 5.11.22h.21Z" opacity=".5"></path><path fill="#fff" d="m1063.47 2104.4-1.38 2a19.61 19.61 0 0 1-22.15 7.64l-2.77-.87-.17 3.23 30.86 70.45 2.54-46.62Z"></path><path fill="#003fc3" d="M1057.89 2035.24c2.42 6.71 3.07 13.85 4.31 22.12.07.48.47 2.88-2.69.2-.42-.37-.86-.78-1.3-1.25s-.89-1-1.34-1.5l-.45-.55c-.7-.87-1.4-1.82-2.1-2.82-.19-.28-.39-.56-.58-.85-.77-1.13-1.52-2.31-2.25-3.5l-.43-.71-.42-.71c-.16-.26-.32-.52-.47-.78l-.76-1.33c-.14-.23-.27-.46-.4-.69l-1-1.73-.16-.3c-.09-.15-.17-.31-.26-.47-.26-.47-.5-.92-.74-1.37l-.65-1.25-.06-.11-2.28-4.55-.07-.15-.06-.11-.11-.22-.46.46c-7.81 7.44-31 10.12-35.66 12-.53.22-.81.42-.82.61s0 .31.06.59a.68.68 0 0 0 0 .14v.1c0 .03 0 .23.05.36 0 .28.09.59.14.94a1.85 1.85 0 0 1 0 .23v.24c0 .08.06.4.09.61s.05.28.07.43.06.38.09.57c.09.69.21 1.44.32 2.23 0 .15.05.3.07.46.1.72.2 1.48.31 2.27q0 .38.09.78l.15 1.22.06.57c0 .32.08.65.11 1 .06.6.12 1.2.17 1.8.09 1 .16 1.95.22 2.91 0 .49 0 1 .07 1.47s0 .94 0 1.4v2.44a23.36 23.36 0 0 1-.38 3.39c-.63 3.18-1.58 2.72-1.42 4-3-7.63-5.49-10.92-8.44-18.59a53.26 53.26 0 0 1-3.3-11.48 23 23 0 0 1-.22-4.52c.44-8 5.56-14.9 12.67-19.66a42.73 42.73 0 0 1 15.54-6.33 45.42 45.42 0 0 0 6.32-.69c15-2.8 17.14-12.53 17.14-12.53s11.38 13.51 5.9 23.63c.33.44.63.88.93 1.33s.57.87.85 1.32c.13.22.27.44.39.66s.26.44.38.66.25.45.36.67c.3.56.58 1.12.85 1.69l.22.48c.11.25.23.5.33.74l.21.52.22.54c.07.18.13.35.21.53s.32.26.38.44Z" opacity=".63"></path><path fill="#2d1d2c" d="m1043.77 2032.82-.57.23.46-.46Z"></path></g><path fill="none" stroke="#1f60e5" stroke-miterlimit="10" stroke-width="2" d="m1138.77 1978.17 276.07-92.8M1148.12 2006.09l276.08-92.8M1148.12 2006.09l276.08-92.8M1157.48 2034l276.07-92.8M1016.68 2215.68l457.33-153.73M1034.92 2270.12l457.33-153.73M1053.63 2325.96l457.33-153.73M1072.33 2381.79l457.34-153.73M1091.04 2437.63l457.34-153.73"></path><path fill="#fff" d="M2965.37 1192.16h594.27v790.56h-594.27z" transform="rotate(-18.58 3262.46 1587.43)"></path><path fill="#fff" d="M2944.28 1313.72h126.5v173.72h-126.5z" transform="rotate(-18.58 3007.49 1400.57)"></path><path fill="#1f60e5" d="M2944.28 1313.72h126.5v173.72h-126.5z" opacity=".08" transform="rotate(-18.58 3007.49 1400.57)"></path><g clip-path="url(#d)"><path fill="#fff" d="m3037.76 1445.55-28.48 9.49-1.66-6.59-3.38-13.45-3.59-14.22 21.64-11.44 6.13 14.33 5.9 13.82 3.44 8.06z"></path><path fill="#fff" d="M3109 1485.88 2976.79 1530l-11.74-43a29.2 29.2 0 0 1 10.39-31.08c.57-.44 1.16-.85 1.76-1.23l5-3.17 8.07-5.17 4.3-2.75 9.14-5.85.34-.21.2.86 1.1 4.66 2.62-.25 19.57-1.88 6.95-.67-2.93-10.77-.71-2.6 1.67-.13 5.72-.45 6.2-.49 14.19-1.12a24.42 24.42 0 0 1 5.1.22h.21c9.44 1.43 16.34 8.29 21.43 17.58Z"></path><path fill="#1f60e5" d="M3109 1485.88 2976.79 1530l-11.74-43a29.2 29.2 0 0 1 10.39-31.08c.57-.44 1.16-.85 1.76-1.23l5-3.17 8.07-5.17 4.3-2.75 9.14-5.85.34-.21.2.86 1.1 4.66 2.62-.25 19.57-1.88 6.95-.67-2.93-10.77-.71-2.6 1.67-.13 5.72-.45 6.2-.49 14.19-1.12a24.42 24.42 0 0 1 5.1.22h.21c9.44 1.43 16.34 8.29 21.43 17.58Z" opacity=".47"></path><path fill="#fff" d="M3031 1386.05a36.17 36.17 0 0 1 .81 13.37c-.07.62-.13 1.24-.21 1.85-.46 3.77-2.44 7-3.91 10.5-.65 1.57-1.37 3.17-2.2 4.72-2.56 4.84-6.07 9.27-11.32 11a18.15 18.15 0 0 1-12.13-.61c-5.79-2.1-11.28-6.21-15.78-9.54-1.3-1-2.46-1.84-3.52-2.72a21.33 21.33 0 0 1-7-10.05 35.06 35.06 0 0 1-1.66-6.81c-.66-4.42-.74-9-1.23-13.37q-1-9.2-2-18.38l32.95-22.94 12.51 16.93 8.89 15c.85 1.42 1.78 2.85 2.67 4.3a28.6 28.6 0 0 1 3.13 6.75Z"></path><path fill="#1f60e5" d="M3027.6 1421.21c-2.59 5.09-6.18 9.83-11.66 11.66-4.21 1.41-8.53.79-12.69-.82l-1.21-5.14a18.15 18.15 0 0 0 12.13.61c5.25-1.75 8.76-6.18 11.32-11Z" opacity=".11"></path><path fill="#fff" d="m2975.23 1396.79-5.2 4.35a4.43 4.43 0 0 0-.86 5.76 15.06 15.06 0 0 0 8.89 6.53l6.35 1.65ZM3037.55 1383.92a12 12 0 0 1-.43 8.13v.12c-.05.1-.11.19-.16.3a15.91 15.91 0 0 1-1.13 1.72l-3.71 4.88-.26.36-4.05-20.07h.15l6.33.18h.12a7 7 0 0 1 3.14 4.38Z"></path><path fill="#2d1d2c" d="M3013.34 1360.19c-1.1-2.12-1.91-3.78-2.28-4.56ZM3014.79 1362.92l-.73-1.37.73 1.37ZM3020.84 1349.43c-.3-.44-.6-.88-.92-1.32.32.44.63.89.92 1.32Z"></path><path fill="#fff" d="M3022.12 1374.88c-5.85-4.05-14.42-13.56-14.42-13.56-3.78 4.83-29.46 9.82-29.46 9.82a48.42 48.42 0 0 1-2.16 16.69c-.19-8.24-2.19-18.6-2.19-19.66 0-.2.29-.4.81-.61 4.74-1.87 28.81-4.62 36.12-12.41l.11.22c.28.6 1.16 2.41 2.41 4.82l.06.11a125.21 125.21 0 0 0 8.72 14.58ZM3065.06 1467l-11 2.4 8.64 7.29-8.72 27.59-10.38 32.81-25.52-20.85-23.08-18.92 3.44-19.58-9 3-9.12-27.47 1.84-1.7 8.07-5.17 4.3-2.75 9.14-5.85.54.65 3.72 4.41 13.35 15.82 6.22-17.7 4-11.44 1-2.73 5.72-.45 6.2-.49 14.19-1.12a24.42 24.42 0 0 1 5.1.22h.21Z"></path><path fill="#003fc3" d="m3065.06 1467-11 2.4 8.64 7.29-8.72 27.59-10.38 32.81-25.52-20.85-23.08-18.92 3.44-19.58-9 3-9.12-27.47 1.84-1.7 8.07-5.17 4.3-2.75 9.14-5.85.54.65 3.72 4.41 13.35 15.82 6.22-17.7 4-11.44 1-2.73 5.72-.45 6.2-.49 14.19-1.12a24.42 24.42 0 0 1 5.1.22h.21Z" opacity=".5"></path><path fill="#fff" d="m3030.63 1427-1.37 2a19.65 19.65 0 0 1-22.16 7.64l-2.77-.87-.17 3.23 30.86 70.44 2.54-46.61Z"></path><path fill="#003fc3" d="M3025.05 1357.79c2.43 6.71 3.08 13.85 4.31 22.12.08.48.47 2.88-2.68.19a14.85 14.85 0 0 1-1.31-1.24c-.44-.46-.89-1-1.34-1.5l-.45-.55c-.69-.87-1.4-1.82-2.1-2.82-.19-.28-.39-.56-.58-.85a91.93 91.93 0 0 1-2.25-3.51c-.14-.23-.28-.47-.43-.7l-.42-.71-.47-.79c-.26-.44-.51-.88-.76-1.32l-.39-.69-1-1.73-.16-.3c-.09-.16-.17-.32-.26-.47-.25-.47-.49-.93-.73-1.37l-.66-1.25-.06-.11-2.28-4.56-.07-.14-.06-.11-.11-.22a5 5 0 0 1-.46.46c-7.81 7.44-31 10.11-35.66 12-.53.21-.81.41-.81.6s0 .32.05.6a.68.68 0 0 1 0 .14v.1c0 .03 0 .23.05.36 0 .28.09.59.14.94v.23a1.57 1.57 0 0 1 0 .23c0 .2.06.4.09.62s.05.28.07.43.06.38.09.57c.1.69.21 1.44.33 2.23l.06.46c.1.72.21 1.48.31 2.27l.09.78.15 1.22.07.57c0 .32.07.65.1 1l.18 1.8q.12 1.46.21 2.91c0 .49.05 1 .07 1.46s0 1 0 1.41v2.44a24.93 24.93 0 0 1-.37 3.39c-.63 3.18-1.59 2.72-1.42 4-3-7.63-5.5-10.92-8.44-18.59a52.77 52.77 0 0 1-3.3-11.49 22.94 22.94 0 0 1-.23-4.51c.44-8 5.57-14.91 12.68-19.66a42.69 42.69 0 0 1 15.53-6.33 43.88 43.88 0 0 0 6.32-.7c15-2.79 17.15-12.52 17.15-12.52s11.37 13.5 5.9 23.63c.32.44.62.88.92 1.32s.58.88.85 1.33c.14.22.27.44.4.66s.25.44.37.66.25.45.37.67c.29.56.58 1.12.84 1.69.08.16.15.32.22.48s.23.49.33.74.14.35.22.51l.21.54c.07.19.14.36.21.54s.32.26.37.44Z" opacity=".63"></path><path fill="#2d1d2c" d="m3010.93 1355.37-.57.23a5 5 0 0 0 .46-.46Z"></path></g><path fill="none" stroke="#1f60e5" stroke-miterlimit="10" stroke-width="2" d="m3105.93 1300.72 276.07-92.8M3115.29 1328.63l276.07-92.8M3115.29 1328.63l276.07-92.8M3124.64 1356.55l276.07-92.8M2983.84 1538.23l457.33-153.73M3002.08 1592.67l457.33-153.73M3020.79 1648.5l457.33-153.73M3039.5 1704.34l457.33-153.73M3058.21 1760.18l457.33-153.73"></path><path fill="#fff" d="M2690.14 316.51h594.27v790.56h-594.27z" transform="rotate(-18.58 2987.245 711.789)"></path><path fill="#fff" d="M2669.05 438.07h126.5v173.72h-126.5z" transform="rotate(-18.58 2732.275 524.928)"></path><path fill="#1f60e5" d="M2669.05 438.07h126.5v173.72h-126.5z" opacity=".08" transform="rotate(-18.58 2732.275 524.928)"></path><g clip-path="url(#e)"><path fill="#fff" d="m2762.53 569.9-28.47 9.49-1.67-6.6-3.38-13.44-3.59-14.23 21.65-11.43 6.12 14.33 5.9 13.81 3.44 8.07z"></path><path fill="#fff" d="m2833.8 610.23-132.24 44.08-11.73-42.93a29.19 29.19 0 0 1 10.38-31.08c.57-.43 1.16-.84 1.76-1.23l5-3.17 8.07-5.16 4.3-2.75 9.14-5.85.34-.21.2.86 1.11 4.66 2.61-.25 19.57-1.89 6.95-.66-2.93-10.78-.71-2.59 1.67-.13 5.72-.45 6.2-.49 14.19-1.12a25.13 25.13 0 0 1 5.1.21h.21c9.44 1.44 16.34 8.3 21.43 17.58Z"></path><path fill="#1f60e5" d="m2833.8 610.23-132.24 44.08-11.73-42.93a29.19 29.19 0 0 1 10.38-31.08c.57-.43 1.16-.84 1.76-1.23l5-3.17 8.07-5.16 4.3-2.75 9.14-5.85.34-.21.2.86 1.11 4.66 2.61-.25 19.57-1.89 6.95-.66-2.93-10.78-.71-2.59 1.67-.13 5.72-.45 6.2-.49 14.19-1.12a25.13 25.13 0 0 1 5.1.21h.21c9.44 1.44 16.34 8.3 21.43 17.58Z" opacity=".47"></path><path fill="#fff" d="M2755.76 510.4a36.16 36.16 0 0 1 .81 13.37c-.07.63-.13 1.25-.21 1.86-.46 3.77-2.44 7-3.91 10.5-.65 1.57-1.37 3.16-2.2 4.72-2.56 4.84-6.06 9.26-11.32 11-4 1.34-8.15.83-12.13-.62-5.78-2.1-11.28-6.2-15.78-9.53-1.29-1-2.46-1.85-3.52-2.72a21.43 21.43 0 0 1-7.05-10.06 35.44 35.44 0 0 1-1.66-6.81c-.66-4.41-.74-9-1.23-13.36l-2-18.38 33-22.94 12.5 16.93 8.89 15c.85 1.43 1.78 2.85 2.67 4.31a28.41 28.41 0 0 1 3.14 6.73Z"></path><path fill="#1f60e5" d="M2752.37 545.55c-2.59 5.09-6.17 9.84-11.66 11.67-4.21 1.4-8.53.79-12.68-.82l-1.22-5.15c4 1.45 8.1 2 12.13.62 5.26-1.76 8.76-6.18 11.32-11Z" opacity=".11"></path><path fill="#fff" d="m2700 521.14-5.2 4.35a4.42 4.42 0 0 0-.86 5.75 15 15 0 0 0 8.89 6.53l6.35 1.66ZM2762.32 508.27a11.91 11.91 0 0 1-.43 8.13.37.37 0 0 1 0 .11l-.16.3a14.16 14.16 0 0 1-1.13 1.72l-3.71 4.89-.26.35-4.05-20.07h.15l6.34.18.11.05a6.88 6.88 0 0 1 3.14 4.34Z"></path><path fill="#2d1d2c" d="M2738.12 484.54c-1.11-2.12-1.92-3.78-2.29-4.56ZM2739.56 487.26c-.25-.46-.5-.92-.73-1.36ZM2745.62 473.78q-.45-.66-.93-1.32c.31.44.63.88.93 1.32Z"></path><path fill="#fff" d="M2746.89 499.23c-5.85-4.05-14.42-13.57-14.42-13.57-3.78 4.84-29.45 9.82-29.45 9.82a48.71 48.71 0 0 1-2.17 16.7c-.19-8.24-2.19-18.61-2.19-19.67 0-.19.29-.39.82-.6 4.74-1.88 28.8-4.62 36.11-12.41l.11.21c.28.61 1.16 2.42 2.41 4.83l.06.1a124.46 124.46 0 0 0 8.72 14.59ZM2789.83 591.31l-11 2.4 8.64 7.29-8.72 27.58-10.38 32.82-25.52-20.85-23.11-18.88 3.44-19.58-9 3-9.13-27.47 1.84-1.7 8.07-5.16 4.3-2.75 9.14-5.85.54.65 3.72 4.41 13.39 15.78 6.22-17.71 4-11.44 1-2.72 5.72-.45 6.2-.49 14.19-1.12a25.13 25.13 0 0 1 5.1.21h.21Z"></path><path fill="#003fc3" d="m2789.83 591.31-11 2.4 8.64 7.29-8.72 27.58-10.38 32.82-25.52-20.85-23.11-18.88 3.44-19.58-9 3-9.13-27.47 1.84-1.7 8.07-5.16 4.3-2.75 9.14-5.85.54.65 3.72 4.41 13.39 15.78 6.22-17.71 4-11.44 1-2.72 5.72-.45 6.2-.49 14.19-1.12a25.13 25.13 0 0 1 5.1.21h.21Z" opacity=".5"></path><path fill="#fff" d="m2755.4 551.3-1.37 2a19.65 19.65 0 0 1-22.16 7.64l-2.77-.88-.17 3.24 30.87 70.44 2.53-46.61Z"></path><path fill="#003fc3" d="M2749.83 482.14c2.42 6.7 3.07 13.85 4.31 22.12.07.48.47 2.88-2.69.19a16.49 16.49 0 0 1-1.31-1.24c-.44-.46-.89-1-1.34-1.5l-.45-.56c-.69-.87-1.39-1.82-2.1-2.81l-.58-.86c-.76-1.13-1.51-2.31-2.25-3.5l-.42-.7-.43-.71-.46-.79c-.26-.44-.52-.88-.77-1.32l-.39-.69c-.33-.59-.66-1.17-1-1.74a2.69 2.69 0 0 0-.16-.29l-.26-.48-.73-1.36-.66-1.26-.05-.1-2.29-4.56-.07-.14-.05-.12-.1-.21-.46.46c-7.82 7.43-31 10.11-35.66 12-.53.21-.81.41-.82.6a5.25 5.25 0 0 0 .06.6s0 .09 0 .14v.1c0 .04 0 .23.05.36s.09.59.14.94a1.6 1.6 0 0 1 0 .23 1.57 1.57 0 0 1 0 .23c0 .2.06.4.09.62s.05.28.07.43l.09.57c.1.68.21 1.43.33 2.22l.06.46c.1.73.21 1.49.31 2.28 0 .25.07.51.1.78s.09.8.14 1.22l.07.57c0 .32.07.64.1 1 .07.6.12 1.2.18 1.8.08 1 .16 1.94.21 2.9 0 .49 0 1 .07 1.47s0 1 0 1.41V515.33a23.28 23.28 0 0 1-.37 3.39c-.63 3.19-1.59 2.72-1.42 4-3-7.62-5.49-10.91-8.44-18.58a52.77 52.77 0 0 1-3.3-11.49 22.94 22.94 0 0 1-.23-4.51c.44-8 5.57-14.91 12.68-19.66a42.49 42.49 0 0 1 15.54-6.33 45.67 45.67 0 0 0 6.33-.7c15-2.8 17.14-12.53 17.14-12.53s11.37 13.51 5.9 23.64q.48.66.93 1.32t.84 1.32c.14.22.27.44.4.67s.26.44.38.66l.36.66c.3.57.58 1.13.84 1.69l.23.48c.11.25.22.5.32.75s.14.34.22.51l.21.54.21.54c.22.07.29.3.35.44Z" opacity=".63"></path><path fill="#2d1d2c" d="m2735.7 479.71-.57.24.46-.46Z"></path></g><path fill="none" stroke="#1f60e5" stroke-miterlimit="10" stroke-width="2" d="m2830.7 425.06 276.08-92.8M2840.06 452.98l276.07-92.8M2840.06 452.98l276.07-92.8M2849.41 480.9l276.08-92.8M2708.61 662.57l457.33-153.73M2726.85 717.02l457.34-153.73M2745.56 772.85l457.33-153.73M2764.27 828.69l457.33-153.73M2782.98 884.52l457.33-153.73"></path><path fill="#fff" d="m2062.23 1468.61-569.63 198.71-263.16-757.51 569.63-198.7 263.16 757.5z"></path><path fill="#fff" d="m1474.54 1064.71-121.26 42.3-57.83-166.46 121.26-42.29 57.83 166.45z"></path><path fill="#1f60e5" d="m1474.54 1064.71-121.26 42.3-57.83-166.46 121.26-42.29 57.83 166.45z" opacity=".08"></path><g clip-path="url(#f)"><path fill="#003fc3" d="m1362.88 1016.08 9.86 52.04 59.17-24.75-21.41-43.9-47.62 16.61z" opacity=".71"></path><path fill="#fff" d="m1416.18 1047.9-28.8 9.96-1.76-6.67-3.59-13.59-3.79-14.4 21.84-11.85 6.37 14.46 6.15 13.95 3.58 8.14z"></path><path fill="#fff" d="m1489 1088-133.73 46.27-12.38-43.41a29.63 29.63 0 0 1 10.2-31.65c.57-.45 1.16-.87 1.77-1.27l5-3.28 8.13-5.33 4.34-2.84 9.21-6 .34-.22.22.87 1.17 4.72 2.65-.29 19.84-2.14 7-.76-3.09-10.89-.74-2.63 1.69-.15 5.8-.52 6.29-.57 14.38-1.31a25.39 25.39 0 0 1 5.19.16h.21c9.6 1.34 16.67 8.22 21.94 17.59Z"></path><path fill="#1f60e5" d="m1489 1088-133.73 46.27-12.38-43.41a29.63 29.63 0 0 1 10.2-31.65c.57-.45 1.16-.87 1.77-1.27l5-3.28 8.13-5.33 4.34-2.84 9.21-6 .34-.22.22.87 1.17 4.72 2.65-.29 19.84-2.14 7-.76-3.09-10.89-.74-2.63 1.69-.15 5.8-.52 6.29-.57 14.38-1.31a25.39 25.39 0 0 1 5.19.16h.21c9.6 1.34 16.67 8.22 21.94 17.59Z" opacity=".47"></path><path fill="#fff" d="M1408.64 987.62a36.3 36.3 0 0 1 1 13.55c-.06.64-.11 1.26-.19 1.88-.42 3.83-2.39 7.11-3.84 10.7-.65 1.6-1.37 3.23-2.19 4.82-2.54 4.94-6.05 9.47-11.37 11.31-4.07 1.41-8.26.94-12.31-.48-5.9-2.07-11.52-6.16-16.12-9.49-1.33-1-2.52-1.84-3.61-2.72a21.6 21.6 0 0 1-7.26-10.12 35.73 35.73 0 0 1-1.76-6.89c-.72-4.47-.85-9.08-1.39-13.54q-1.14-9.31-2.27-18.63l33.2-23.65 12.87 17q4.59 7.58 9.19 15.13c.88 1.44 1.84 2.88 2.76 4.34a28.82 28.82 0 0 1 3.29 6.79Z"></path><path fill="#1f60e5" d="M1405.59 1023.33c-2.56 5.19-6.15 10.05-11.7 12-4.26 1.48-8.65.9-12.88-.68l-1.29-5.2c4 1.42 8.24 1.89 12.31.48 5.32-1.84 8.83-6.37 11.37-11.31Z" opacity=".11"></path><path fill="#fff" d="m1352.17 999.17-5.23 4.47a4.49 4.49 0 0 0-.8 5.85 15.21 15.21 0 0 0 9.09 6.52l6.46 1.61ZM1415.29 985.38a12.21 12.21 0 0 1-.35 8.25.73.73 0 0 1 0 .12c-.05.11-.11.2-.17.31a14.13 14.13 0 0 1-1.12 1.76l-3.71 5-.27.36-4.33-20.31h.15l6.43.11h.12a7 7 0 0 1 3.25 4.4Z"></path><path fill="#2d1d2c" d="M1390.46 961.59c-1.15-2.13-2-3.81-2.37-4.59ZM1392 964.34c-.27-.47-.52-.93-.77-1.38.21.45.46.91.77 1.38ZM1398 950.59c-.31-.44-.62-.89-1-1.33.33.44.65.88 1 1.33Z"></path><path fill="#fff" d="M1399.52 976.39c-6-4-14.78-13.59-14.78-13.59-3.79 5-29.79 10.31-29.79 10.31a49.18 49.18 0 0 1-2 17c-.29-8.36-2.43-18.85-2.44-19.92 0-.2.29-.41.82-.63 4.79-1.95 29.18-5 36.52-13l.11.22c.3.61 1.21 2.43 2.5 4.86l.06.11a127.44 127.44 0 0 0 9 14.64ZM1444.12 1069.3l-11.15 2.57 8.85 7.29-8.55 28.09-10.17 33.41-26.1-20.85-23.67-18.89 3.28-19.9-9.06 3.13-9.56-27.76 1.85-1.75 8.13-5.33 4.34-2.84 9.21-6 .56.65 3.82 4.43 13.72 15.9 6.12-18 4-11.65.95-2.78 5.8-.52 6.29-.57 14.38-1.31a25.39 25.39 0 0 1 5.19.16h.21Z"></path><path fill="#003fc3" d="m1444.12 1069.3-11.15 2.57 8.85 7.29-8.55 28.09-10.17 33.41-26.1-20.85-23.67-18.89 3.28-19.9-9.06 3.13-9.56-27.76 1.85-1.75 8.13-5.33 4.34-2.84 9.21-6 .56.65 3.82 4.43 13.72 15.9 6.12-18 4-11.65.95-2.78 5.8-.52 6.29-.57 14.38-1.31a25.39 25.39 0 0 1 5.19.16h.21Z" opacity=".5"></path><path fill="#fff" d="m1408.74 1029.11-1.38 2.05a20 20 0 0 1-22.4 8l-2.82-.85-.14 3.28 32.1 71.1 2.06-47.32Z"></path><path fill="#003fc3" d="M1361.07 940.82a45.53 45.53 0 0 1-7.68 3.54 44 44 0 0 1 7.68-3.54ZM1387.64 956.7a3.45 3.45 0 0 0-.26.28c-4 3.9-12.12 6.61-19.72 8.56a155 155 0 0 0 18.73-8.1 7.76 7.76 0 0 0 1.25-.74Z" opacity=".5"></path><path fill="#003fc3" d="M1402.32 959c2.52 6.78 3.27 14 4.62 22.38.06.49.5 2.93-2.74.24-.43-.37-.88-.78-1.33-1.24s-.91-1-1.39-1.51c-.14-.18-.29-.37-.46-.56-.71-.88-1.43-1.82-2.16-2.84-.2-.28-.4-.56-.6-.86-.78-1.12-1.56-2.31-2.32-3.53a7.54 7.54 0 0 0-.45-.7c-.14-.24-.28-.48-.43-.72l-.48-.79c-.26-.45-.53-.89-.79-1.33-.14-.24-.26-.46-.41-.7-.32-.58-.67-1.18-1-1.75-.06-.08-.11-.19-.17-.29s-.17-.33-.27-.48c-.26-.46-.51-.93-.76-1.38s-.46-.84-.67-1.27l-.06-.1-2.37-4.59-.07-.14-.07-.13-.1-.17-.2.19a7.76 7.76 0 0 1-1.25.74 155 155 0 0 1-18.73 8.1c-7.26 1.85-14.05 3.05-16.34 4l-.44.22c-.25.15-.37.27-.38.42a4.94 4.94 0 0 0 .06.59.41.41 0 0 0 0 .16.14.14 0 0 0 0 .1 1.5 1.5 0 0 0 0 .35c.06.29.1.6.16.95v.24a.59.59 0 0 1 0 .23 6.06 6.06 0 0 1 .12.64c0 .13 0 .27.07.43s.07.38.1.58c.09.68.23 1.44.35 2.26 0 .13 0 .29.08.45.11.74.21 1.5.33 2.3 0 .26.08.53.1.79s.11.83.17 1.24c0 .19 0 .39.08.58s.08.65.11 1c.07.6.14 1.21.19 1.83.11 1 .19 2 .26 2.93 0 .5.06 1 .08 1.49s0 1 0 1.44v2.47a27.53 27.53 0 0 1-.35 3.43c-.6 3.24-1.58 2.79-1.4 4.08-3.17-7.71-5.7-11-8.76-18.77a53.82 53.82 0 0 1-3.48-11.62 22.89 22.89 0 0 1-.29-4.5c-7.09-6.82-2.39-18.87 7.54-19.85a31.41 31.41 0 0 0 7.17-1.6 45.53 45.53 0 0 0 7.68-3.54c.69-.38 1.4-.79 2.11-1.25a29.71 29.71 0 0 1 19.06-4.24 11.46 11.46 0 0 1 10.29 9.27 34.2 34.2 0 0 1 9.33 13.35c.09.17.15.36.23.53s.37.28.43.45Z" opacity=".71"></path><path fill="#003fc3" d="M1367.66 965.54a100.72 100.72 0 0 1-12.63 3.6 28.94 28.94 0 0 1-4.15.59l.44-.22c2.29-.92 9.08-2.12 16.34-3.97ZM1387.84 956.51a.46.46 0 0 1-.21.14Z" opacity=".5"></path><path fill="#2d1d2c" d="m1388 956.73-.58.24.46-.47Z"></path></g><path fill="none" stroke="#1f60e5" stroke-miterlimit="10" stroke-width="2" d="m1483.77 900.17 279.18-97.38M1493.57 928.38 1772.75 831M1493.57 928.38 1772.75 831M1503.37 956.59l279.18-97.38M1362.47 1142.55l462.47-161.32M1381.58 1197.57l462.47-161.32M1401.18 1253.99l462.47-161.32M1420.78 1310.42l462.48-161.32M1440.39 1366.84l462.47-161.32"></path><path fill="#fff" d="m3009.66 2091-569.63 198.7-263.16-757.51 569.63-198.7L3009.66 2091z"></path><path fill="#fff" d="m2421.97 1687.1-121.26 42.29-57.83-166.45 121.26-42.3 57.83 166.46z"></path><path fill="#1f60e5" d="m2421.97 1687.1-121.26 42.29-57.83-166.45 121.26-42.3 57.83 166.46z" opacity=".08"></path><g clip-path="url(#g)"><path fill="#003fc3" d="m2310.31 1638.47 9.86 52.03 59.17-24.75-21.41-43.89-47.62 16.61z" opacity=".71"></path><path fill="#fff" d="m2363.61 1670.29-28.8 9.96-1.76-6.67-3.59-13.6-3.79-14.39 21.84-11.85 6.37 14.46 6.15 13.95 3.58 8.14z"></path><path fill="#fff" d="m2436.38 1710.37-133.73 46.27-12.38-43.41a29.61 29.61 0 0 1 10.2-31.65c.57-.45 1.16-.87 1.77-1.27l5-3.28 8.13-5.33 4.34-2.84 9.21-6 .34-.22.22.87 1.17 4.71 2.65-.28 19.84-2.14 7-.76-3.09-10.89-.74-2.63 1.69-.15 5.8-.52 6.29-.57 14.38-1.31a25.39 25.39 0 0 1 5.19.16h.21c9.6 1.34 16.67 8.22 21.94 17.58Z"></path><path fill="#1f60e5" d="m2436.38 1710.37-133.73 46.27-12.38-43.41a29.61 29.61 0 0 1 10.2-31.65c.57-.45 1.16-.87 1.77-1.27l5-3.28 8.13-5.33 4.34-2.84 9.21-6 .34-.22.22.87 1.17 4.71 2.65-.28 19.84-2.14 7-.76-3.09-10.89-.74-2.63 1.69-.15 5.8-.52 6.29-.57 14.38-1.31a25.39 25.39 0 0 1 5.19.16h.21c9.6 1.34 16.67 8.22 21.94 17.58Z" opacity=".47"></path><path fill="#fff" d="M2356.07 1610a36.3 36.3 0 0 1 1 13.55c-.06.63-.11 1.26-.19 1.88-.42 3.83-2.39 7.11-3.85 10.7-.64 1.6-1.36 3.23-2.18 4.81-2.54 4.94-6 9.47-11.37 11.31-4.07 1.41-8.26 1-12.31-.48-5.9-2.06-11.52-6.16-16.12-9.48-1.33-1-2.52-1.85-3.61-2.72a21.6 21.6 0 0 1-7.26-10.12 35.92 35.92 0 0 1-1.76-6.89c-.72-4.47-.85-9.08-1.4-13.55q-1.12-9.3-2.26-18.62l33.19-23.66 12.88 17 9.19 15.13c.88 1.44 1.84 2.87 2.76 4.34a28.63 28.63 0 0 1 3.29 6.8Z"></path><path fill="#1f60e5" d="M2353 1645.71c-2.57 5.19-6.15 10-11.7 12-4.26 1.47-8.65.9-12.89-.68l-1.28-5.21c4 1.43 8.24 1.89 12.31.48 5.32-1.84 8.83-6.37 11.37-11.31Z" opacity=".11"></path><path fill="#fff" d="m2299.6 1621.56-5.23 4.47a4.49 4.49 0 0 0-.8 5.85 15.26 15.26 0 0 0 9.09 6.52l6.46 1.61ZM2362.72 1607.77a12.15 12.15 0 0 1-.36 8.25.31.31 0 0 1-.05.12 3.07 3.07 0 0 1-.16.31 15.27 15.27 0 0 1-1.12 1.75l-3.71 5-.27.37-4.33-20.31h.14l6.44.11.12.06a7 7 0 0 1 3.3 4.34Z"></path><path fill="#2d1d2c" d="M2337.89 1584c-1.15-2.14-2-3.81-2.37-4.6ZM2339.38 1586.73c-.26-.47-.51-.94-.76-1.38ZM2345.38 1573c-.31-.45-.62-.89-1-1.33.38.42.69.86 1 1.33Z"></path><path fill="#fff" d="M2347 1598.78c-6-4-14.78-13.59-14.78-13.59-3.79 5-29.79 10.3-29.79 10.3a49.45 49.45 0 0 1-2 17c-.29-8.36-2.43-18.85-2.44-19.93 0-.19.29-.4.82-.62 4.79-2 29.18-5 36.52-13l.11.21c.29.61 1.2 2.44 2.5 4.87l.06.11a128.3 128.3 0 0 0 9 14.65ZM2391.55 1691.69l-11.15 2.56 8.84 7.3-8.54 28.08-10.17 33.37-26.13-20.85-23.67-18.88 3.28-19.9-9.06 3.13-9.56-27.76 1.85-1.75 8.13-5.33 4.34-2.84 9.21-6 .56.65 3.82 4.43 13.72 15.89 6.12-18 4-11.65.95-2.78 5.8-.52 6.29-.57 14.38-1.31a25.39 25.39 0 0 1 5.19.16h.21Z"></path><path fill="#003fc3" d="m2391.55 1691.69-11.15 2.56 8.84 7.3-8.54 28.08-10.17 33.37-26.13-20.85-23.67-18.88 3.28-19.9-9.06 3.13-9.56-27.76 1.85-1.75 8.13-5.33 4.34-2.84 9.21-6 .56.65 3.82 4.43 13.72 15.89 6.12-18 4-11.65.95-2.78 5.8-.52 6.29-.57 14.38-1.31a25.39 25.39 0 0 1 5.19.16h.21Z" opacity=".5"></path><path fill="#fff" d="m2356.17 1651.5-1.38 2a20 20 0 0 1-22.4 8l-2.82-.86-.14 3.29 32.1 71.1 2.06-47.32Z"></path><path fill="#003fc3" d="M2308.5 1563.21a45.53 45.53 0 0 1-7.68 3.54 43.3 43.3 0 0 1 7.68-3.54ZM2335.06 1579.09l-.25.27c-4 3.91-12.12 6.61-19.72 8.56a153.46 153.46 0 0 0 18.73-8.09 8 8 0 0 0 1.24-.74Z" opacity=".5"></path><path fill="#003fc3" d="M2349.75 1581.4c2.52 6.79 3.27 14 4.62 22.39.06.49.5 2.93-2.74.23-.43-.36-.88-.78-1.33-1.24s-.91-1-1.39-1.51c-.14-.17-.29-.37-.46-.55-.71-.88-1.43-1.82-2.16-2.85l-.6-.85c-.78-1.13-1.56-2.31-2.32-3.53a7.68 7.68 0 0 0-.45-.71l-.43-.71c-.15-.25-.32-.52-.48-.8l-.79-1.32c-.15-.24-.26-.47-.41-.7-.32-.59-.68-1.18-1-1.75l-.16-.29c-.09-.16-.17-.33-.27-.48-.26-.47-.51-.94-.76-1.38s-.46-.85-.67-1.27l-.06-.1-2.37-4.6-.07-.14-.07-.12-.1-.17-.2.19a8 8 0 0 1-1.24.74 153.46 153.46 0 0 1-18.73 8.09c-7.26 1.86-14.05 3.06-16.34 4l-.44.21c-.25.15-.37.28-.38.43a3.43 3.43 0 0 0 .06.59.37.37 0 0 0 0 .15.12.12 0 0 0 0 .1 1.53 1.53 0 0 0 0 .36c.06.29.1.6.16 1v.24a.59.59 0 0 1 0 .23c0 .21.08.4.12.63s0 .28.07.43.07.39.1.59c.09.68.23 1.43.35 2.26 0 .13 0 .29.07.44.12.74.22 1.51.33 2.31 0 .25.08.53.11.79.06.41.11.82.17 1.23 0 .2.05.39.08.59s.08.65.11 1c.07.59.14 1.2.19 1.82.11 1 .19 2 .25 2.93 0 .51.07 1 .09 1.49s0 1 0 1.45V1615.7a25.67 25.67 0 0 1-.34 3.43c-.6 3.25-1.58 2.79-1.4 4.08-3.17-7.7-5.7-11-8.76-18.76a53.73 53.73 0 0 1-3.48-11.63 22.84 22.84 0 0 1-.29-4.5c-7.09-6.81-2.39-18.87 7.54-19.84a32.52 32.52 0 0 0 7.17-1.6 45.53 45.53 0 0 0 7.68-3.54c.69-.38 1.4-.8 2.11-1.25a29.65 29.65 0 0 1 19.06-4.24 11.46 11.46 0 0 1 10.5 9.15 34.34 34.34 0 0 1 9.33 13.34c.09.18.15.36.23.54s.13.34.19.52Z" opacity=".71"></path><path fill="#003fc3" d="M2315.09 1587.92a100.76 100.76 0 0 1-12.63 3.61 28.85 28.85 0 0 1-4.15.58l.44-.21c2.25-.9 9.08-2.12 16.34-3.98ZM2335.26 1578.9a.64.64 0 0 1-.22.14Z" opacity=".5"></path><path fill="#2d1d2c" d="m2335.38 1579.11-.58.24c.16-.15.31-.31.46-.47Z"></path></g><path fill="none" stroke="#1f60e5" stroke-miterlimit="10" stroke-width="2" d="m2431.2 1522.56 279.18-97.39M2441 1550.77l279.18-97.38M2441 1550.77l279.18-97.38M2450.8 1578.98l279.18-97.38M2309.9 1764.94l462.47-161.32M2329.01 1819.95l462.47-161.32M2348.61 1876.38l462.47-161.32M2368.21 1932.8l462.47-161.32M2387.82 1989.23l462.47-161.32"></path></g><path fill="#fff" d="M2734.26 1227.14 2171 1416.51l-251.22-749.63 370.28-124.47c19.93 14.32 40.17 28.19 60.89 41.3q8.28 5.24 16.68 10.31 16.83 10.18 34.06 19.61 17.89 9.86 36.2 18.9a987.09 987.09 0 0 0 113 47.44Z"></path><path fill="#fff" d="M2008.79 673.3h126.5v173.72h-126.5z" transform="rotate(-18.58 2072.009 760.145)"></path><path fill="#1f60e5" d="M2008.79 673.3h126.5v173.72h-126.5z" opacity=".08" transform="rotate(-18.58 2072.009 760.145)"></path><g clip-path="url(#h)"><path fill="#fff" d="m2102.28 805.13-28.48 9.49-1.66-6.6-3.39-13.44-3.58-14.22 21.64-11.44 6.12 14.33 5.91 13.82 3.44 8.06z"></path><path fill="#fff" d="m2173.54 845.46-132.23 44.08-11.74-42.92a29.22 29.22 0 0 1 10.43-31.09c.57-.43 1.15-.84 1.76-1.23l5-3.17 8.06-5.16 4.31-2.75 9.14-5.85.34-.21.2.86 1.1 4.66 2.62-.25 19.57-1.88 6.94-.67-3.04-10.77-.71-2.6 1.66-.13 5.73-.45 6.2-.49 14.18-1.12a25.23 25.23 0 0 1 5.11.21h.21c9.44 1.43 16.34 8.29 21.42 17.58Z"></path><path fill="#1f60e5" d="m2173.54 845.46-132.23 44.08-11.74-42.92a29.22 29.22 0 0 1 10.43-31.09c.57-.43 1.15-.84 1.76-1.23l5-3.17 8.06-5.16 4.31-2.75 9.14-5.85.34-.21.2.86 1.1 4.66 2.62-.25 19.57-1.88 6.94-.67-3.04-10.77-.71-2.6 1.66-.13 5.73-.45 6.2-.49 14.18-1.12a25.23 25.23 0 0 1 5.11.21h.21c9.44 1.43 16.34 8.29 21.42 17.58Z" opacity=".47"></path><path fill="#fff" d="M2095.5 745.63a36 36 0 0 1 .82 13.37q-.09.94-.21 1.86c-.46 3.77-2.43 7-3.9 10.5-.66 1.57-1.38 3.17-2.2 4.72-2.56 4.84-6.07 9.27-11.32 11a18.15 18.15 0 0 1-12.13-.61c-5.79-2.11-11.29-6.21-15.78-9.54-1.3-1-2.46-1.84-3.53-2.72a21.41 21.41 0 0 1-7-10.06 34.72 34.72 0 0 1-1.66-6.81c-.66-4.41-.74-9-1.23-13.36-.67-6.13-1.36-12.26-2-18.38l32.95-22.94 12.5 16.93 8.9 15c.84 1.43 1.78 2.86 2.67 4.31a28.38 28.38 0 0 1 3.12 6.73Z"></path><path fill="#1f60e5" d="M2092.12 780.79c-2.59 5.08-6.18 9.83-11.66 11.66-4.21 1.4-8.53.79-12.69-.82l-1.21-5.14a18.15 18.15 0 0 0 12.13.61c5.25-1.75 8.76-6.18 11.32-11Z" opacity=".11"></path><path fill="#fff" d="m2039.74 756.37-5.2 4.35a4.44 4.44 0 0 0-.85 5.76 15 15 0 0 0 8.89 6.52l6.35 1.66ZM2102.07 743.5a12 12 0 0 1-.43 8.13.39.39 0 0 1-.06.11 1.73 1.73 0 0 1-.16.3 14.09 14.09 0 0 1-1.12 1.72l-3.71 4.89-.27.35-4.05-20.07h.14l6.34.18h.11a6.92 6.92 0 0 1 3.21 4.39Z"></path><path fill="#2d1d2c" d="M2077.86 719.77c-1.1-2.12-1.91-3.78-2.28-4.56ZM2079.31 722.5c-.26-.47-.5-.93-.74-1.37.24.44.48.87.74 1.37ZM2085.36 709c-.3-.44-.6-.88-.93-1.32q.5.67.93 1.32Z"></path><path fill="#fff" d="M2086.63 734.46c-5.85-4.05-14.41-13.56-14.41-13.56-3.79 4.83-29.46 9.81-29.46 9.81a48.68 48.68 0 0 1-2.16 16.7c-.19-8.24-2.19-18.61-2.2-19.67 0-.19.29-.39.82-.6 4.74-1.88 28.81-4.62 36.12-12.41l.11.22c.28.6 1.16 2.41 2.41 4.82l.06.1a125.71 125.71 0 0 0 8.71 14.59ZM2129.58 826.54l-11 2.4 8.64 7.29-8.72 27.58-10.37 32.82-25.52-20.85-23.11-18.88 3.44-19.58-9 3-9.12-27.47 1.84-1.7 8.06-5.16 4.31-2.75 9.14-5.85.54.65 3.72 4.41 13.35 15.82 6.22-17.7 4-11.44.95-2.73 5.73-.45 6.2-.49 14.18-1.12a25.23 25.23 0 0 1 5.11.21h.21Z"></path><path fill="#003fc3" d="m2129.58 826.54-11 2.4 8.64 7.29-8.72 27.58-10.37 32.82-25.52-20.85-23.11-18.88 3.44-19.58-9 3-9.12-27.47 1.84-1.7 8.06-5.16 4.31-2.75 9.14-5.85.54.65 3.72 4.41 13.35 15.82 6.22-17.7 4-11.44.95-2.73 5.73-.45 6.2-.49 14.18-1.12a25.23 25.23 0 0 1 5.11.21h.21Z" opacity=".5"></path><path fill="#fff" d="m2095.15 786.53-1.38 2a19.64 19.64 0 0 1-22.15 7.64l-2.77-.87-.17 3.23 30.86 70.47 2.54-46.61Z"></path><path fill="#003fc3" d="M2089.57 717.37c2.42 6.71 3.07 13.85 4.31 22.12.07.48.47 2.88-2.69.19-.42-.36-.86-.78-1.3-1.24s-.89-1-1.34-1.5l-.45-.56c-.7-.87-1.4-1.82-2.1-2.81l-.58-.86c-.77-1.12-1.52-2.3-2.25-3.5l-.43-.7-.42-.71-.47-.79c-.26-.44-.51-.88-.76-1.32-.14-.23-.27-.46-.4-.69l-1-1.74-.16-.29c-.09-.16-.17-.32-.26-.47-.26-.47-.5-.93-.74-1.37s-.44-.85-.65-1.25l-.06-.11-2.28-4.56-.07-.14-.06-.12-.11-.21-.46.46c-7.81 7.43-31 10.11-35.66 11.95-.53.21-.81.41-.82.6s0 .31.06.6a.78.78 0 0 0 0 .14V728.95c0 .13.09.59.14.94a1.57 1.57 0 0 1 0 .23v.23c0 .08.06.4.09.62s.05.28.07.43.06.38.09.57c.09.68.21 1.43.32 2.22 0 .15.05.31.07.46.1.73.2 1.49.31 2.28q0 .38.09.78l.15 1.22.06.57c0 .32.08.64.11 1 .06.6.12 1.2.17 1.8.09 1 .16 1.94.22 2.9 0 .49 0 1 .07 1.47s0 1 0 1.41V750.51a23 23 0 0 1-.38 3.39c-.63 3.19-1.58 2.73-1.42 4-3-7.62-5.49-10.91-8.44-18.58a52.72 52.72 0 0 1-3.29-11.49 22.19 22.19 0 0 1-.23-4.51c.44-8 5.56-14.91 12.67-19.66a42.56 42.56 0 0 1 15.54-6.33 43.88 43.88 0 0 0 6.32-.7c15-2.79 17.14-12.53 17.14-12.53s11.38 13.51 5.9 23.64c.33.44.63.88.93 1.32s.58.88.85 1.33c.13.21.27.43.39.66s.26.44.38.66.25.44.36.67c.3.56.58 1.12.85 1.69.07.16.15.32.22.47s.23.5.33.75l.21.51.22.54c.07.18.13.36.21.54s.37.31.43.49Z" opacity=".63"></path><path fill="#2d1d2c" d="m2075.45 714.94-.57.24.46-.46Z"></path></g><path fill="none" stroke="#1f60e5" stroke-miterlimit="10" stroke-width="2" d="m2367.63 594.02-197.19 66.27M2401.69 613.63l-221.9 74.58M2401.69 613.63l-221.9 74.58M2437.89 632.53l-248.72 83.6M2048.36 897.81l457.33-153.73M2066.6 952.25l457.33-153.73M2085.31 1008.08l457.33-153.73M2104.02 1063.92l457.33-153.73M2122.72 1119.76l457.34-153.73"></path><path fill="#fff" d="M2346.94 829.18a187 187 0 0 1-18.84 83.16c-.62 1.33-1.29 2.63-1.95 3.93-47.74 93-162.3 130-255.87 82.54-.14-.06-.26-.13-.39-.2-86.67-44.21-124.75-145.47-91.49-234.1a190.59 190.59 0 0 1 255-107.2c3.26 1.42 6.48 3 9.69 4.57a191.08 191.08 0 0 1 32.43 20.76 189.05 189.05 0 0 1 71.42 146.54Z" opacity=".25"></path><path fill="#fff" d="M2346.94 829.18a187 187 0 0 1-18.84 83.16c-.62 1.33-1.29 2.63-1.95 3.93-47.74 93-162.3 130-255.87 82.54-.14-.06-.26-.13-.39-.2-86.67-44.21-124.75-145.47-91.49-234.1a190.59 190.59 0 0 1 255-107.2c3.26 1.42 6.48 3 9.69 4.57a191.08 191.08 0 0 1 32.43 20.76 189.05 189.05 0 0 1 71.42 146.54Z"></path><path fill="#fff" d="m2173.63 838.86-153 51.12-42.23-125.47A189.36 189.36 0 0 1 2109 647.25Z"></path><path fill="#1f60e5" d="m2173.63 838.86-44.55 14.88-30.2 10.11-14.74 4.93-38 12.69-25.48 8.53-13.2-39.19-29.06-86.28a191.19 191.19 0 0 1 8.86-20.09 189.46 189.46 0 0 1 53.82-64.26 190.36 190.36 0 0 1 68-32.91l62 183.87Z" opacity=".08"></path><path fill="#fff" d="m2100.5 816.99-36.33 12.04-2.12-8.36-4.32-17.05-4.58-18.05 27.62-14.5 7.81 18.17 7.53 17.53 4.39 10.22z"></path><path fill="#fff" d="m2173.63 838.86-44.55 14.88-30.2 10.11-14.74 4.93-38 12.69-25.48 8.53-13.2-39.19a36.43 36.43 0 0 1 13.54-20.6c.73-.55 1.47-1.08 2.25-1.56l6.31-4 10.31-6.55 5.48-3.49 11.66-7.42.44-.28.23 1v.14l.41 1.71 1 4.2.83-.07h.36l2.16-.21 25-2.39 7.32-.71 1.54-.14-2.36-8.69-1.36-5-.92-3.29 2.14-.16 7.3-.57 7.9-.73 18.09-1.44a34.86 34.86 0 0 1 6.52.27.86.86 0 0 0 .27 0c12 1.83 20.84 10.52 27.32 22.3l9.84 17.91Z"></path><path fill="#1f60e5" d="m2173.63 838.86-44.55 14.88-30.2 10.11-14.74 4.93-38 12.69-25.48 8.53-13.2-39.19a36.43 36.43 0 0 1 13.54-20.6c.73-.55 1.47-1.08 2.25-1.56l6.31-4 10.31-6.55 5.48-3.49 11.66-7.42.44-.28.23 1v.14l.41 1.71 1 4.2.83-.07h.36l2.16-.21 25-2.39 7.32-.71 1.54-.14-2.36-8.69-1.36-5-.92-3.29 2.14-.16 7.3-.57 7.9-.73 18.09-1.44a34.86 34.86 0 0 1 6.52.27.86.86 0 0 0 .27 0c12 1.83 20.84 10.52 27.32 22.3l9.84 17.91Z" opacity=".47"></path><path fill="#fff" d="M2091.85 741.52c1.58 5.39 1.59 11.35 1.05 17-.09.8-.17 1.58-.27 2.35-.59 4.78-3.1 8.86-5 13.32-.83 2-1.75 4-2.8 6-3.27 6.14-7.75 11.75-14.45 14-5.14 1.71-10.39 1.07-15.47-.77-7.38-2.67-14.39-7.87-20.13-12.1-1.65-1.22-3.14-2.34-4.5-3.45a27.19 27.19 0 0 1-9-12.75 44.48 44.48 0 0 1-2.11-8.64c-.85-5.6-1-11.36-1.57-17q-1.29-11.66-2.59-23.31l42-29.1 15.99 21.45 11.35 19c1.08 1.81 2.27 3.62 3.41 5.47a35.81 35.81 0 0 1 4.09 8.53Z"></path><path fill="#1f60e5" d="M2087.53 786.12c-3.3 6.45-7.87 12.47-14.87 14.79-5.37 1.78-10.88 1-16.18-1l-1.55-6.52c5.08 1.84 10.33 2.48 15.47.77 6.7-2.22 11.18-7.83 14.45-14Z" opacity=".11"></path><path fill="#fff" d="m2020.72 755.15-6.63 5.51A5.6 5.6 0 0 0 2013 768a19.17 19.17 0 0 0 11.34 8.28l8.1 2.1ZM2100.23 738.82a15.15 15.15 0 0 1-.55 10.32.61.61 0 0 1-.07.14c-.06.13-.13.25-.2.38a20 20 0 0 1-1.44 2.18l-4.73 6.2-.34.45-5.18-25.49h.19l8.09.22a.61.61 0 0 1 .14.07 8.79 8.79 0 0 1 4.09 5.53Z"></path><path fill="#2d1d2c" d="M2069.35 708.72c-1.41-2.68-2.44-4.79-2.91-5.78ZM2071.2 712.18c-.33-.59-.65-1.18-.94-1.73.3.55.61 1.14.94 1.73ZM2078.91 695.08c-.38-.56-.77-1.12-1.18-1.68.42.6.81 1.12 1.18 1.68Z"></path><path fill="#fff" d="M2080.54 727.35c-7.46-5.13-18.39-17.2-18.39-17.2-4.83 6.13-37.58 12.46-37.58 12.46.57 7.51-1 15.29-2.76 21.18-.24-10.46-2.79-23.61-2.8-24.95 0-.25.37-.5 1-.77 6-2.38 36.74-5.86 46.07-15.74l.14.27c.36.77 1.48 3.06 3.08 6.12l.07.14a159.7 159.7 0 0 0 11.17 18.49ZM2121.28 847.19l7.8 6.55-30.2 10.11-14.74 4.93-38 12.69 4.18-23.65-11.43 3.79-11.64-34.85 2.34-2.14 10.31-6.55 5.48-3.49 11.66-7.42.64.77v.05l1.61 1.89 3.14 3.7 10.63 12.53 6.4 7.53 3.86-11 4.06-11.5 4.8-13.51v-.07l.32-.94 1.22-3.45 7.3-.57 7.98-.59 18.09-1.44a34.86 34.86 0 0 1 6.52.27.86.86 0 0 0 .27 0l1.47 53.24Z"></path><path fill="#003fc3" d="m2121.28 847.19 7.8 6.55-30.2 10.11-14.74 4.93-38 12.69 4.18-23.65-11.43 3.79-11.64-34.85 2.34-2.14 10.31-6.55 5.48-3.49 11.66-7.42.64.77v.05l1.61 1.89 3.14 3.7 10.63 12.53 6.4 7.53 3.86-11 4.06-11.5 4.8-13.51v-.07l.32-.94 1.22-3.45 7.3-.57 7.98-.59 18.09-1.44a34.86 34.86 0 0 1 6.52.27.86.86 0 0 0 .27 0l1.47 53.24Z" opacity=".5"></path><path fill="#fff" d="m2100.25 838.86-1.37 25-14.74 4.93-17.83-40.44-5.49-12.49-.89-2-1.82-4.13-.48-1.07V807.88l.16-3.33h.11l3.44 1.07a25.12 25.12 0 0 0 28.26-9.7l1.1-1.6.64-.93.83 4.2.05.22 2.45 12.65 1.54 7.94Z"></path><path fill="#003fc3" d="M2089.24 735.54a1.65 1.65 0 0 1-1.06-.27 11 11 0 0 1-1.81-1.3c-.55-.46-1.1-1-1.68-1.57s-1.15-1.21-1.72-1.9c-.18-.23-.37-.45-.57-.71-.62-.75-1.22-1.57-1.86-2.44l-.81-1.12-.75-1.09c-1-1.44-1.93-2.92-2.85-4.43-.18-.32-.37-.62-.55-.91l-.55-.89-.6-1c-.32-.54-.64-1.11-1-1.66-.19-.3-.35-.6-.51-.89-.41-.73-.82-1.49-1.24-2.19a1.65 1.65 0 0 0-.2-.37c-.12-.2-.21-.41-.32-.61-.33-.6-.65-1.17-.95-1.74s-.57-1.07-.82-1.57l-.07-.14-.51-1-2.2-4.38-.21-.41-.09-.18-.07-.14-.14-.25a7.66 7.66 0 0 1-.57.57 15.16 15.16 0 0 1-2.16 1.73 9.42 9.42 0 0 1-1 .64 31.56 31.56 0 0 1-4.29 2.33c-.49.23-1 .46-1.5.66-.78.35-1.6.67-2.43 1-.48.19-.94.37-1.42.53-1.22.43-2.48.84-3.74 1.23-.6.18-1.2.37-1.79.53-1.79.54-3.61 1-5.4 1.46-.59.16-1.19.29-1.79.43s-1.51.37-2.27.55c-1 .23-2 .46-3 .66-6.77 1.48-12.51 2.53-14.78 3.42a3.77 3.77 0 0 0-.76.39.53.53 0 0 0-.21.21.28.28 0 0 0-.09.18 2.35 2.35 0 0 1 0 .39v.36a.47.47 0 0 0 0 .19v.11c0 .14 0 .3.07.46s.07.36.09.57.07.41.09.64a2.56 2.56 0 0 0 .05.27 1.45 1.45 0 0 1 0 .3c0 .25.09.52.12.79s.07.35.09.55.07.46.11.71c.09.62.19 1.28.3 2 .05.27.07.54.12.84a3.75 3.75 0 0 0 .09.57c.11.94.25 1.89.39 2.9 0 .32.07.64.11 1 .07.5.14 1 .19 1.55 0 .23.07.41.09.64v.09c0 .39.09.82.14 1.23.06.76.16 1.51.2 2.29v.45c.09 1 .16 2.06.2 3.06a.32.32 0 0 1 0 .16c0 .62.07 1.26.09 1.87v1a7.22 7.22 0 0 1 0 .8v2.56a4.52 4.52 0 0 1 0 .52 29.36 29.36 0 0 1-.48 4.32 9.29 9.29 0 0 1-1.68 4.08 1.38 1.38 0 0 0-.11 1 5.64 5.64 0 0 1-.25-.64l-.07-.14c-3.72-9.1-6.8-13.32-10.47-22.79a66.5 66.5 0 0 1-4.2-14.56c-.09-.6-.14-1.19-.18-1.76a186.56 186.56 0 0 1 36.74-37 55.53 55.53 0 0 0 7.26-.85c19.09-3.53 21.87-15.88 21.87-15.88s14.5 17.12 7.53 30c.41.57.8 1.12 1.17 1.69s.73 1.12 1.08 1.67l.5.84a7.3 7.3 0 0 1 .48.85c.16.27.32.57.48.84.37.71.74 1.42 1.06 2.15a5.73 5.73 0 0 1 .3.61c.14.3.27.62.41.94l.28.64.27.68c.1.25.19.46.26.69s.18.45.25.68c3 8.33 3.88 17.19 5.41 27.41 0 .21.07.43.1.66s.61 1.55-.21 1.64Z" opacity=".63"></path><path fill="#2d1d2c" d="m2066.27 702.6-.72.29.58-.58Z"></path><path fill="none" d="m2173.61 838.85-152.96 51.13-70.41-208.93 152.97-51.13 70.4 208.93z"></path><path fill="none" stroke="#1f60e5" stroke-miterlimit="10" stroke-width="2" d="m2233.44 657.31-34.06 11.39M2233.44 657.31l-34.06 11.39M2275.56 682.64l-64.22 21.46M2346.94 829.18 2031.7 934.55M2328.1 912.34l-258.21 86.27"></path><path fill="#1f60e5" d="M1279.67 888c-28.93-63.38-90.53-52.65-114.68 10-26.44 68.55 1.66 131.17-45.52 199.31-41.48 59.9-96.18 110.29-154.69 153.23-12.44 9.13-25.65 18.41-32.76 32.13-35.48 68.53 70 27.44 95.51 12.63 119.81-69.57 215.6-173.46 253.65-307.56 9.27-32.74 12.59-68.88-1.51-99.74ZM2670.75 614.09c45.21 4 118.35-4.3 149.72-42.25 48-58-32.88-62.13-74.62-55.54a409.92 409.92 0 0 1-170.19-9.3c-25.56-6.91-90.18-44.22-115.24-38.74-32.65 7.15-16.6 39-4.81 54 38.45 49.07 155.86 86.6 215.14 91.83Z"></path><path fill="#fff" d="M2256.78 639.72c-105.33-56.19-235.78-15.16-290.2 90.28-53.65 103.91-12.82 233 90.83 287.13a212.14 212.14 0 0 0 97.32 24.27l43.72 345.21a16.51 16.51 0 0 0 19.53 14.1l.33-.07a16.44 16.44 0 0 0 13.13-18.21L2188.21 1039a213.12 213.12 0 0 0 159-115.68c51.34-102.86 11.02-229.45-90.43-283.6ZM2327 915.1c-48.11 94.33-163.57 131.79-257.9 83.68s-131.8-163.59-83.69-257.92S2149 609.07 2243.33 657.2s131.8 163.57 83.67 257.9Z"></path><path fill="#fe7101" d="M2256.78 639.72c-105.33-56.19-235.78-15.16-290.2 90.28-53.65 103.91-12.82 233 90.83 287.13a212.14 212.14 0 0 0 97.32 24.27l43.72 345.21a16.51 16.51 0 0 0 19.53 14.1l.33-.07a16.44 16.44 0 0 0 13.13-18.21L2188.21 1039a213.12 213.12 0 0 0 159-115.68c51.34-102.86 11.02-229.45-90.43-283.6ZM2327 915.1c-48.11 94.33-163.57 131.79-257.9 83.68s-131.8-163.59-83.69-257.92S2149 609.07 2243.33 657.2s131.8 163.57 83.67 257.9Z"></path><path fill="url(#i)" d="M1993.38 816.06a156.57 156.57 0 0 1 41.73-90c17.34-18.39 48.07-4.21 45.23 20.9-.06.59-.13 1.19-.19 1.79-8.58 84.5 52.49 161.22 136.76 171.81a156.39 156.39 0 0 0 67.77-6.28 157.23 157.23 0 0 1-291.3-98.21Z" opacity=".52"></path><circle cx="1462.07" cy="618.19" r="141.1" fill="#fff" opacity=".91"></circle><circle cx="2958.38" cy="2223.63" r="133.44" fill="#fff" opacity=".91"></circle><circle cx="2139.37" cy="1521.59" r="29.94" fill="#fff" opacity=".65" transform="rotate(-75.79 2139.435 1521.59)"></circle><circle cx="3705.17" cy="1071.8" r="19.59" fill="#fff" transform="rotate(-80.78 3705.295 1071.748)"></circle><circle cx="1102.25" cy="1676.52" r="9.79" fill="#fff" opacity=".79"></circle><circle cx="1219.13" cy="1553.23" r="91.36" fill="#fff" opacity=".53" transform="rotate(-45 1219.125 1553.222)"></circle><circle cx="977.2" cy="1840.91" r="39.17" fill="#fff" opacity=".91"></circle><path fill="#fff" d="M790.39 1908.58a9.79 9.79 0 1 1-9.79 9.79 9.79 9.79 0 0 1 9.79-9.79Z" opacity=".79"></path><path fill="#f8bbc2" d="M3415.58 841.56c-43.26 68.57-116 113.65-180.58 142.11a695.49 695.49 0 0 1-103.32 35.8 34.33 34.33 0 0 1-40.68-20.86l-36.53-95a34.3 34.3 0 0 0-32-22 34.29 34.29 0 0 1-33.38-42.1l20.5-87.51a34.2 34.2 0 0 0-3.41-24.47l-22.64-40.76a34.29 34.29 0 0 1-4.32-16.65v-90.37a34.28 34.28 0 0 1 45.6-32.37c32.83 11.48 80.17 28.92 130.86 50.49 143.93 61.31 315.11 156.13 259.9 243.69Z"></path><path fill="#f8bbc2" d="M3456.77 1040.82s-269.39 113.54-231.54 91.28c26.2-15.41 16.12-98 7.46-147.41-.11-.62-.23-1.25-.34-1.87-1.67-9.35-3.27-17.43-4.52-23.51-1.55-7.55-2.6-12-2.6-12s9.57-10.26 24.22-25.38c2.41-2.49 5-5.14 7.66-7.88 8.08-8.24 17.25-17.48 26.92-27 4.23-4.18 8.57-8.43 13-12.66 12.24-11.85 24.91-23.69 37-34.31.44-.4.87-.78 1.31-1.16 36.07-31.57 66.37-51.76 63.56-27.4-1.4 12.08.31 29.14 3.9 48.53q.43 2.4.93 4.83c.09.42.18.87.27 1.31 1.63 8.24 3.56 16.84 5.72 25.61 1.6 6.54 3.34 13.2 5.17 19.88v.13c7.21 26.69 15.76 53.7 23.22 76.05 10.35 30.92 18.66 52.96 18.66 52.96Z"></path><path fill="#003fc3" d="m3492.39 1087.57-307.23 113.54v-72.69a34.35 34.35 0 0 1 16.85-29.54c42.48-25.14 154.66-86 219.67-121 3.9-2.14 7.64-4.14 11.18-6.06q2.57-1.37 5-2.67a26.17 26.17 0 0 1 38.19 18.85Z"></path><path fill="#04137a" d="m3492.39 1087.57-307.23 113.54v-72.69a34.35 34.35 0 0 1 16.85-29.54c42.48-25.14 154.66-86 219.67-121 3.9-2.14 7.64-4.14 11.18-6.06q2.57-1.37 5-2.67a26.17 26.17 0 0 1 38.19 18.85Z" opacity=".55"></path><path fill="#003fc3" d="M3888.2 2312.87q-.43 24.68-1.62 48.29c-113.48 138.56-302.31 201.68-482.49 202.06h-1.85c-4.61 0-9.24 0-13.84-.11h-1.7c-3.6-.06-7.19-.13-10.79-.24-3.86-.11-7.68-.25-11.51-.4-.34 0-.67 0-1-.05-2.6-.11-5.18-.22-7.77-.35s-5.16-.27-7.74-.43-5.17-.31-7.75-.46c-4.5-.29-9-.63-13.45-1-1.85-.14-3.67-.29-5.5-.45-1.42-.11-2.85-.24-4.27-.38-2.58-.22-5.17-.46-7.73-.71q-11.58-1.1-23.15-2.47c-2.56-.29-5.12-.6-7.7-.93-4-.49-8-1-12.07-1.56l-5.88-.8c-2.91-.43-5.81-.83-8.72-1.27-2.5-.36-5-.74-7.46-1.14-1.43-.2-2.85-.42-4.28-.67-2.45-.38-4.9-.78-7.34-1.18l-.63-.09c-2.45-.4-4.92-.82-7.37-1.24-1.35-.23-2.71-.45-4-.69l-6.17-1.09c-1.69-.29-3.38-.6-5.07-.92-2.56-.46-5.1-.93-7.66-1.42q-20.37-3.84-40.65-8.26l-6-1.34q-22.35-4.93-44.62-10.53l-14.43-3.67c-7.34-1.92-14.71-3.85-22.06-5.86-1.45-.37-2.89-.77-4.36-1.18s-3-.8-4.48-1.22c-2.51-.69-5-1.38-7.54-2.09q-21.15-5.88-42.22-12.18-11-3.24-21.88-6.59-20.48-6.28-40.85-12.78c-2.5-.78-5-1.58-7.46-2.38-5.7-1.83-11.38-3.65-17.08-5.5l-2.87-.94-9.84-3.2 46.11-213.91 69.7-323.5 33.84-157-27.2 23.42-1.43 1.23L2789.81 2008a59.24 59.24 0 0 1-65.15 8.1l-14.42-7.21a59.49 59.49 0 0 1-21.09-17.68l-.84-1.13L2253 1403.44a33.28 33.28 0 0 1 2-42.1 32.68 32.68 0 0 1 9-7l102.12-55a58 58 0 0 1 68.17 9.69l34.46 33.84L2764.38 1633 2921 1416.51l84.49-116.82a103.86 103.86 0 0 1 34.13-30.14c26.11-14.43 74.54-43 120-70.24 13.54-8.08 26.81-16 39.18-23.49 38.92-23.4 68.71-41.5 68.71-41.5l242.33-47.64 56.2-11 4.56-.89a118.74 118.74 0 0 1 124.81 55.76l10.59 17.84c29.44 49.47 38.79 106.26 50 162.72 5.28 26.45 12.38 61.11 20.53 102 43.24 216.81 116.55 610.29 111.67 899.76Z"></path><path fill="#f8bbc2" d="M2387.24 1292.72a57.58 57.58 0 0 0-21.17 6.59l-102.12 55a32.68 32.68 0 0 0-9 7c-14.05-6.46-30.48-11.49-47.18-15.43a515.76 515.76 0 0 0-51.52-9.1 55.85 55.85 0 0 1-48.66-55.42v-64.83a61.87 61.87 0 0 1 7.25-29.07l13.43-25.14a39.55 39.55 0 0 1 45.53-19.46l25.07 7 9.79-14.3a35.34 35.34 0 0 1 7.19-7.72 36.8 36.8 0 0 1 3.34-2.32 34.93 34.93 0 0 1 37.18.34l16.94 10.86a196.24 196.24 0 0 1 65.32 69.31l35.65 63.56 8 14.2Z"></path><path fill="#512d50" d="M3488 748.1c-12.11 34.17-26.56 71.73-40.43 99.58-13.25 26.67-26 44.46-35.56 41.9-.91-.24-1.91-.49-3-.73-30.52-7-130.11-16.32-171.89-20.06a25.45 25.45 0 0 1-22.69-20.1l-1.83-8.67-4-18.83a42 42 0 0 1 3.59-27.65 41.12 41.12 0 0 1 8.52-11.53c9.91-9.46 23.67-32.33 27.92-53.41a60.08 60.08 0 0 0 1.34-12.34c0-13.55-5.82-24.91-21.62-29a22.18 22.18 0 0 0-10.71-.24c-5.17 1.13-9.75 4.09-13.8 7.92-.69.62-1.36 1.29-2 2a101.81 101.81 0 0 0-11.64 15.7c-9.24 14.67-13.63 24.2-28.74 26.14a46.62 46.62 0 0 1-4.79.33 22.25 22.25 0 0 1-3.58-5.48c2.76-11 5.85-23 7.86-34.95.6-3.59 1.11-7.17 1.46-10.71 2.36-22.57-.71-44-18.85-57.48-.49-.38-1-.74-1.49-1.07s-1.1-.76-1.65-1.11-1.4-.87-2.14-1.3-1.47-.82-2.23-1.22-1.55-.8-2.35-1.18-1.65-.74-2.5-1.09-1.71-.69-2.58-1q-.93-.36-1.89-.66a66.91 66.91 0 0 0-3.7-1.21c-34.75-10.26-71.8 3-107.11-9.59a59 59 0 0 1-10.55-5c-1.69-1-3.32-2.12-4.92-3.3a75.91 75.91 0 0 1-9.15-8 105.38 105.38 0 0 1-12.09-14.91c-.8-1.18-1.6-2.41-2.36-3.63a156.75 156.75 0 0 1-8.19-14.63c-3-6.1-5.79-12.51-8.33-19.08a350.33 350.33 0 0 1-13.91-46.89 73.86 73.86 0 0 1 48.73-86.73l201-66.39A209.8 209.8 0 0 1 3377 366.15l21.24 13.92a209.79 209.79 0 0 1 91 136l11.6 60.64A328.5 328.5 0 0 1 3488 748.1Z"></path><path fill="#512d50" d="M3156.68 739h-.73a3.71 3.71 0 0 1-2.88-.78c-.82-.89-.57-2.31-.29-3.49.12-.4.21-.8.32-1.23a22.25 22.25 0 0 0 3.58 5.5Z"></path><path fill="#e8635d" d="M3161 698.61c-1-22.89-14.25-45.4-34.78-55.88-16-8.15-34.44-9.26-52.3-10.84-29.09-2.56-74.31-10.53-94.66-37.43v-14.69c9.89 14.58 22 25.93 36.71 31.19 35.31 12.56 72.36-.67 107.11 9.59 40.68 12 43.46 44.89 37.92 78.06Z" opacity=".3"></path><path fill="#e8635d" d="M3225.08 708.9a37.21 37.21 0 0 1 4.5 15.58c.14 1.31.17 2.6.21 3.89s.09 2.55 0 3.88a36.82 36.82 0 0 1-1.05 7.68 34.68 34.68 0 0 1-6.62 13.3 31.52 31.52 0 0 1-11.66 8.94 41 41 0 0 0 9.59-10.47 36.77 36.77 0 0 0 3.21-6.24 40.15 40.15 0 0 0 2.91-13.88c.06-2.43 0-5 0-7.49a93.25 93.25 0 0 0-1.09-15.19Z" opacity=".67"></path><path fill="#e8635d" d="M3220.5 752.29a40.58 40.58 0 0 1-21.07-20 38.65 38.65 0 0 0 21.8 16.72 2.11 2.11 0 0 1 1.58 2.18 1.52 1.52 0 0 1-2 1.16l-.23-.08Z" opacity=".67"></path><path fill="#e8635d" d="M3250 716.26a58.24 58.24 0 0 1-3.61-8.28c-5.52-15.16-28.12-14.11-44.53-11.11 7-7.37 15.72-12.49 26.52-9.66 15.79 4.14 21.56 15.5 21.62 29.05ZM3194.19 797.84a18.88 18.88 0 0 1 11.74-4.68ZM3212.43 790.58a23.53 23.53 0 0 0-2.07 2.69 24.41 24.41 0 0 0-4.43-.11ZM3414.87 911.67A94.21 94.21 0 0 0 3383 897.4a110.89 110.89 0 0 0-11.44-2c-12.8-1.65-25.87-1.45-38.8-2.23-15.61-.95-31.08-3.36-46.53-5.76L3284 887c-10.85-1.69-21.64-3.38-32.46-5-8.75-1.36-17.86-2.87-25.14-7.92-12.29-8.55-16.14-24.72-19-39.41-2.72-13.94-4.85-29.94 2.92-41.39.62.07 1.22.16 1.85.27a42 42 0 0 0-3.59 27.65l5.79 27.5a25.45 25.45 0 0 0 22.69 20.1c41.78 3.74 141.37 13.09 171.89 20.06 1.84 7.49 3.82 15.14 5.92 22.81Z" opacity=".3"></path><path fill="#fe8796" d="M3414.91 911.8c-7.52 9.89-32.35 12.27-42.39 12.6-56.48 1.92-95 34.09-140.17 58.42a262 262 0 0 1-33.75 15.56 690.4 690.4 0 0 1-66.92 21.09 34.48 34.48 0 0 1-13.25.8c3.92-6.19 12.29-12 16.23-14.9A315.07 315.07 0 0 1 3197 970c9.19-3.9 21.06-6.17 30.85-10.69 6-2.76 11.18-6.34 14.59-11.64a43.67 43.67 0 0 0 7-25.74 36.58 36.58 0 0 0-1.78-9.24c-6.26-18.63-17.25-24.58-29.85-38.85-8.09-9.15-18.66-24.22-5.24-33.82l1.83 8.67a25.45 25.45 0 0 0 22.69 20.1c20 1.76 39.94 3.58 59.91 5.59s40.11 4.2 60.13 6.63c13.47 1.65 40.47.89 52.56 10.78 1.6 6.54 3.34 13.2 5.17 19.88.03.04.03.09.05.13Z" opacity=".18"></path><path fill="#fe8796" d="M3238 971.13c0 .2-.07.43-.12.63l-.06.33a6 6 0 0 1 .18-.96Z" opacity=".18"></path><path fill="#fe8796" d="M3238 971.13c0 .2-.07.43-.12.63l-.06.33a6 6 0 0 1 .18-.96ZM3156.68 739a46.62 46.62 0 0 0 4.79-.33c-.94 1.93-1.72 2.93-2.25 2.58a14.91 14.91 0 0 1-2.54-2.25ZM3161 698.61c-2 11.93-5.1 23.91-7.86 34.95-1.34-2.6-2.36-5.41-3.59-8-10.88-23.8-36.6-36.49-60.44-47.36a135.5 135.5 0 0 0-21.87-7.35c-13.69-3.58-27.42-6.32-39.91-13.62a118.76 118.76 0 0 1-46.4-50.14c-.56-1.15-1.13-2.33-1.67-3.51v-23.81c9.89 14.58 22 25.93 36.71 31.19 35.31 12.56 72.36-.67 107.11 9.59 40.68 12 43.46 44.89 37.92 78.06Z" opacity=".18"></path><path fill="#020e49" d="M3168 661a108.8 108.8 0 0 1-5.57 26.94c3.08-29.32-3.05-56.64-39.38-67.35-34.75-10.26-71.8 3-107.11-9.59-14.71-5.26-26.82-16.61-36.71-31.19-.8-1.18-1.6-2.41-2.36-3.63 13.14-1 30.72 14.31 42 17.7 18.77 5.61 38.81 6.3 58.18 4.36 20.41-2.07 42.09-6.79 60.66 2 21.78 10.16 31.95 36.7 30.29 60.76Z" opacity=".71"></path><path fill="#020e49" d="M3217.66 687c-5.17 1.13-9.75 4.09-13.8 7.92-.69.62-1.36 1.29-2 2a101.81 101.81 0 0 0-11.64 15.7c-9.24 14.67-13.63 24.2-28.74 26.14a46.62 46.62 0 0 1-4.79.33 22.25 22.25 0 0 1-3.58-5.48c2.76-11 5.85-23 7.86-34.95.6-3.59 1.11-7.17 1.46-10.71 2.36-22.57-.71-44-18.85-57.48-.49-.38-1-.74-1.49-1.07s-1.1-.76-1.65-1.11a24.38 24.38 0 0 0-2.14-1.3c-.71-.44-1.47-.84-2.23-1.22s-1.55-.8-2.35-1.18-1.63-.74-2.5-1.09-1.69-.71-2.58-1q-.93-.36-1.89-.66a66.91 66.91 0 0 0-3.7-1.21c-34.75-10.26-71.8 3-107.11-9.59a59 59 0 0 1-10.55-5c-1.69-1-3.32-2.12-4.92-3.3a75.91 75.91 0 0 1-9.15-8 105.38 105.38 0 0 1-12.09-14.91c-.8-1.18-1.6-2.41-2.36-3.63a156.75 156.75 0 0 1-8.19-14.63c-3-6.1-5.79-12.51-8.33-19.08.83.69 1.67 1.49 2.54 2.34 14.76 14.6 29.59 25.4 50 31 23.73 6.52 48.78 6 73.31 4.21 27.3-2 56.55-5.26 80.44 8.15a76.15 76.15 0 0 1 23.51 21.24c18.34 24.68 11.48 53.25 27.51 77.57ZM3447.11 847.92c-3.57 9.64-20.06 45.7-35.12 41.66-.91-.24-1.91-.49-3-.73-30.52-7-130.11-16.32-171.89-20.06a25.45 25.45 0 0 1-22.69-20.1l-1.83-8.67-4-18.83a42 42 0 0 1 3.59-27.65 41.12 41.12 0 0 1 8.52-11.53c9.91-9.46 23.67-32.33 27.92-53.41a44.69 44.69 0 0 1 1.74 5c2.87 10.05.23 17.78.17 27.47-.19 35.76 32.71 63.71 61.9 77.51a167.19 167.19 0 0 0 56.95 15.35c14.1 1.22 31.84 1.51 45.72-1.37 10.56-2.22 21.07-8.96 32.02-4.64Z" opacity=".32"></path><path fill="#e8635d" d="M2387.24 1292.72a57.58 57.58 0 0 0-21.17 6.59l-102.12 55a32.68 32.68 0 0 0-9 7c-14.05-6.46-30.48-11.49-47.18-15.43 5.7-1.45 11.73-2 17.86-3.16 36.22-6.83 70.68-20.48 104.28-35.29 17.52-7.7 34.84-15.8 52.34-23.62Z" opacity=".3"></path><path fill="#fe8796" d="M2387.24 1292.72a57.58 57.58 0 0 0-21.17 6.59l-102.12 55a32.68 32.68 0 0 0-9 7c-14.05-6.46-30.48-11.49-47.18-15.43a515.76 515.76 0 0 0-51.52-9.1 55.34 55.34 0 0 1-32.81-16.41c17.12 5.36 34.75 9.88 52.56 8.57 12.4-.91 24.38-4.65 36.22-8.44q48.69-15.52 96.85-32.61c16.83-6 33.79-12.18 51.49-15.17 4.37-.73 9.24-2.24 13.72-3.11l8 14.2ZM2226.59 1157.48c-4.45 5.74-10.91 9.59-17.48 12.73-7.45 3.58-15.89 6.48-23.88 4.36-11.25-3-16.26-13.91-25.41-19.83-5.23-3.39-9.84-5.77-12.37-10a39.47 39.47 0 0 1 26.38-1.81l25.07 7 9.79-14.3a34.67 34.67 0 0 1 10.53-10c4.88 2.74 9.22 6.33 11.27 11.42 2.74 6.69.58 14.68-3.9 20.43Z" opacity=".18"></path><path fill="#e8635d" d="M2200.37 1158.54c-6.53 3.61-15 3.88-21.27-.17-4.67-3-7.72-8.09-12.17-11.42-2.65-2-5.75-3.37-8.44-5.24a39.68 39.68 0 0 1 15.34 1.18l25.07 7 9.79-14.3a35.34 35.34 0 0 1 7.19-7.72c2.12 10.5-7.77 26.4-15.51 30.67Z" opacity=".3"></path><path fill="#03157a" d="M2921 1416.51 2794.31 1670a38 38 0 0 1-63.73 6.74c-69.28-86.8-215.38-270.48-261.88-333.87L2764.38 1633Z" opacity=".18"></path><path fill="#03157a" d="M3206.74 1539.58a3.51 3.51 0 0 1 6.28 3l-285 927a3.51 3.51 0 0 1-2.37-3.92l35.77-214.13 101.34-470.26a3.51 3.51 0 0 0-5.72-3.4 3.51 3.51 0 0 1-5.21-4.6Z" opacity=".3"></path><path fill="#03157a" d="M3888.11 2317.6q-.43 21.65-1.47 42.44a3.46 3.46 0 0 1-.77 2c-113.56 138-302 200.81-481.78 201.19h-1.85c-4.61 0-9.24 0-13.84-.11h-1.7c-3.6-.06-7.19-.13-10.79-.24-3.86-.11-7.68-.25-11.51-.4-.34 0-.67 0-1-.05-2.6-.11-5.18-.22-7.77-.35s-5.16-.27-7.74-.43-5.17-.31-7.75-.46c-4.5-.29-9-.63-13.45-1-1.85-.14-3.67-.29-5.5-.45-1.42-.11-2.85-.24-4.27-.38-2.58-.22-5.17-.46-7.73-.71q-11.58-1.1-23.15-2.47c-2.56-.29-5.12-.6-7.7-.93-4-.49-8-1-12.07-1.56l-5.88-.8c-2.91-.43-5.81-.83-8.72-1.27-2.5-.36-5-.74-7.46-1.14-1.43-.2-2.85-.42-4.28-.67-2.45-.38-4.9-.78-7.34-1.18l-.63-.09c-2.45-.4-4.92-.82-7.37-1.24-1.35-.23-2.71-.45-4-.69l-6.17-1.09c-1.69-.29-3.38-.6-5.07-.92-2.56-.46-5.1-.93-7.66-1.42q-20.37-3.84-40.65-8.26l-6-1.34q-22.35-4.93-44.62-10.53l-14.43-3.67c-7.34-1.92-14.71-3.85-22.06-5.86-1.45-.37-2.89-.77-4.36-1.18s-3-.8-4.48-1.22c-2.51-.69-5-1.38-7.54-2.09q-21.15-5.88-42.22-12.18-11-3.24-21.88-6.59-20.48-6.28-40.85-12.78c-2.5-.78-5-1.58-7.46-2.38-5.7-1.83-11.38-3.65-17.08-5.5-3.66-6.38-6.23-10.84-9.89-17.21l43.29-200.84L3031 1928.4a4.34 4.34 0 0 1 .24-.72c95.14-203.71 177.34-379.85 181.56-388.92 17.61-37.72 51.28-64.3 77.59-94.76 9.42-10.9 25.25-19.17 38-12.45 12.36 6.51 14.8 22.86 15.49 36.81 4.19 85.5-12.93 165-18.66 249.84q-11.39 169.1-24.17 338.1c-12.38 166.32 119.24 308.06 286 308.06h42.15a639.37 639.37 0 0 0 199.84-32l54.64-18a3.35 3.35 0 0 1 4.43 3.24ZM3776.58 1413.12c-53.15-71.17-55.1-178.61-127.24-230.51-48.84-35.18-115.25-32.55-174.07-19.84-31.62 6.84-66.81 23.2-98.81 25.36-33.57 2.27-65.85-9.7-100.89-5-34.71 4.67-68.6 14.33-103.28 19.19-4.5.62-10.31.37-12.65-3 13.54-8.08 26.81-16 39.18-23.49 74-19.72 146.81-37.45 219.61-60.76 24.22-7.77 57.06-19.45 91.43-28.38a422.09 422.09 0 0 1 56.2-11c27.74-3.25 53.92-2.23 74.64 6.72a118.24 118.24 0 0 1 54.73 48.15l10.59 17.84c29.44 49.47 38.79 106.26 50 162.72 5.31 26.4 12.41 61.06 20.56 102ZM3056.25 1762.08q-9.91 16.8-19.95 33.64L2789.81 2008a59.24 59.24 0 0 1-65.15 8.1l-14.42-7.21a59.49 59.49 0 0 1-21.09-17.68l-.84-1.13a124.3 124.3 0 0 0 15.74-3.63c34.24-10.24 64.45-30.48 94.08-50.45q129.08-86.93 258.12-173.92Z" opacity=".18"></path><circle cx="423.02" cy="2080.35" r="31.09" fill="#1f60e5" opacity=".28" transform="rotate(-40.38 423.002 2080.32)"></circle><circle cx="490.37" cy="2341.39" r="26.18" fill="#1f60e5" opacity=".57" transform="rotate(-5.01 489.982 2340.008)"></circle><circle cx="693.83" cy="2619.29" r="17.18" fill="#ffb600" opacity=".35" transform="rotate(-48.86 693.93 2619.415)"></circle><circle cx="3819.09" cy="2673.01" r="17.18" fill="#ffb600" opacity=".72" transform="rotate(-84.55 3819.159 2673)"></circle><circle cx="4101.29" cy="2538.54" r="18" fill="#1f60e5" opacity=".28" transform="rotate(-47.2 4101.47 2538.566)"></circle><circle cx="4221.1" cy="2162.23" r="22.09" fill="#ffb600" opacity=".54" transform="rotate(-77.19 4220.987 2162.252)"></circle><path fill="#fff" d="m4077.38 2037.94-6.36 35.49a290.53 290.53 0 0 1-226.44 233.18l-13.42 2.81 8.48-40.82a290.55 290.55 0 0 1 198.45-218.48ZM3711.56 2369.3l32.42-6.25a268.58 268.58 0 0 1 275 116.37l6.9 10.52-37.69 6.19a268.57 268.57 0 0 1-253.06-97.35Z"></path><path fill="#fff" d="m4077.38 2037.94-6.36 35.49a290.53 290.53 0 0 1-226.44 233.18l-13.42 2.81 8.48-40.82a290.55 290.55 0 0 1 198.45-218.48Z" opacity=".54"></path><path fill="#fff" d="m3711.56 2369.3 32.42-6.25a268.58 268.58 0 0 1 275 116.37l6.9 10.52-37.69 6.19a268.57 268.57 0 0 1-253.06-97.35ZM4303.26 2289l-30.7 18.91a290.55 290.55 0 0 1-324.76-13.48l-11-8.13 36.09-20.89a290.57 290.57 0 0 1 295.14 2.41Z"></path><path fill="#fff" d="m4303.26 2289-30.7 18.91a290.55 290.55 0 0 1-324.76-13.48l-11-8.13 36.09-20.89a290.57 290.57 0 0 1 295.14 2.41ZM4077.38 2037.94l-6.36 35.49a290.53 290.53 0 0 1-226.44 233.18l-13.42 2.81 8.48-40.82a290.55 290.55 0 0 1 198.45-218.48ZM3599.38 2396.5l3.73 40.11 11.21-7.42c53-35.09 93.37-85.72 116.87-143a.45.45 0 0 0 0-.19c19.47-47.45 27.33-99.44 21.18-150.83l-4.12-34.5-31.78 25.35a311.23 311.23 0 0 0-35.87 33.58c-58.6 64.28-89.13 151.24-81.22 236.9ZM3711.55 2369.3l23.57 29.48a269 269 0 0 0 175 98.62 266.25 266.25 0 0 0 78.1-1.27l37.69-6.19-6.9-10.52a268.63 268.63 0 0 0-176.31-116.84s0 0-.07 0a266.63 266.63 0 0 0-98.62.48Z"></path><path fill="#fe7101" d="M3509.4 2542.25c2.74.59 5.51 1.15 8.28 1.72a447.16 447.16 0 0 1 48.32-62.07c2.06-2.24 4.14-4.45 6.27-6.63a502.65 502.65 0 0 1 47.32-43.15 606.77 606.77 0 0 1 93.21-61.28c1.79-1 3.53-1.9 5.3-2.8 58.52-30.88 118.34-51.77 170.23-65.84 7.83-2.11 15.58-4.13 23.24-6q15-3.66 29.46-6.78c12.09-2.63 23.86-5 35.21-7 87.87-16 151.84-16.73 152.67-16.73a4 4 0 1 0 0-7.91c-.85 0-63.88.73-150.89 16.28-9.78 1.76-19.86 3.68-30.21 5.83-3 .6-6 1.26-9 1.91q-12.73 2.74-25.91 5.94t-26.43 6.77h-.14q-20 5.41-39.23 11.53c-61.15 19.35-116.53 43.77-165.06 72.81q-12.16 7.29-23.73 14.94-19.71 13-37.69 27.16-9 7-17.64 14.39a510.1 510.1 0 0 0-39.55 37.58c-2.12 2.24-4.2 4.47-6.24 6.75a460 460 0 0 0-47.59 62.15 2.13 2.13 0 0 0-.2.43Z" opacity=".78"></path><path fill="#fe7101" d="m4076.19 2045.52-6.35 35.49a290.56 290.56 0 0 1-226.44 233.18L3830 2317l8.47-40.83a290.57 290.57 0 0 1 198.46-218.47Z" opacity=".69"></path><path fill="#fe7101" d="m3599.38 2396.5 3.73 40.11 11.21-7.42c53-35.09 93.37-85.72 116.87-143a.45.45 0 0 0 0-.19 322.26 322.26 0 0 0 15-140.78l-4.41-37-34 27.14a332.6 332.6 0 0 0-27.13 24.2c-58.65 64.32-89.18 151.28-81.27 236.94Z" opacity=".44"></path><path fill="#fe7101" d="m3724.75 2371.37 23.58 29.47a245.15 245.15 0 0 0 239.87 95.29l37.69-6.19-6.9-10.52a268.63 268.63 0 0 0-176.31-116.84s0 0-.07 0a266.42 266.42 0 0 0-85.42 2.54Z" opacity=".43"></path><path fill="#fff" d="m4303.26 2289-30.7 18.91a290.55 290.55 0 0 1-324.76-13.48l-11-8.13 36.09-20.89a290.57 290.57 0 0 1 295.14 2.41Z"></path><path fill="#fe7101" d="m4303.26 2289-30.7 18.91a290.55 290.55 0 0 1-324.76-13.48l-11-8.13 36.09-20.89a290.57 290.57 0 0 1 295.14 2.41Z" opacity=".45"></path><path fill="#fff" d="M1285 2579.43q-6.95 1.2-13.89 2.24l-1.59-.71c-.49-.22-1-.42-1.51-.67a545.27 545.27 0 0 0-107.66-34.64c-11.78-2.45-24.07-4.58-36.74-6.16a413.65 413.65 0 0 0-58.73-3.26c-3 .07-6 .14-9.08.27a349.13 349.13 0 0 0-60.18 7.69 327.807 327.807 0 0 0-30.5 8.25q-9.15 2.94-18.3 6.55a344.99 344.99 0 0 0-13.22 5.57 311.86 311.86 0 0 0-28.6 14.69c-31.26 18.14-61.8 43.19-90 77.18-.6.74-1.22 1.47-1.82 2.23a3.91 3.91 0 0 1-3.32 1.45.93.93 0 0 1-.24-.05 3.71 3.71 0 0 1-2-.84 3.53 3.53 0 0 1-1.18-1.67 3.93 3.93 0 0 1 .62-3.88c.92-1.11 1.81-2.2 2.74-3.29 25.45-30.5 54-55.46 85.29-74.67a313.57 313.57 0 0 1 58.67-28.08c3.71-1.33 7.48-2.58 11.26-3.78a325.3 325.3 0 0 1 34.15-8.75 352.56 352.56 0 0 1 51.9-6.41q4.54-.24 9.15-.38a420.25 420.25 0 0 1 64.63 3.36c9.33 1.16 18.45 2.61 27.32 4.28a548.56 548.56 0 0 1 112.54 34.3c2.44 1.05 4.78 2.07 7 3.05s4 1.81 5.87 2.65c2.72 1.25 5.17 2.41 7.37 3.45-.02 0-.02.03.05.03Z"></path><path fill="#fff" d="m816.05 2648-23.49 8.83a204.17 204.17 0 0 0-132.06 184.64l-.29 9.56 26.89-11a204.18 204.18 0 0 0 125.38-163.59ZM945.67 2554.15l-19 16.37a204.14 204.14 0 0 0-60.5 218.78l3 9.07 21.49-19.53a204.15 204.15 0 0 0 61.47-196.72Z"></path><path fill="#fe7101" d="m945.67 2554.15-19 16.37a204.14 204.14 0 0 0-60.5 218.78l3 9.07 21.49-19.53a204.15 204.15 0 0 0 61.47-196.72Z" opacity=".78"></path><path fill="#fff" d="M1452.32 2506.6c-.09 1.78-.22 3.56-.35 5.32-.18 2.1-.38 4.21-.61 6.28-.13 1.36-.26 2.72-.42 4.05-.33 3-.71 5.93-1.16 8.84-.08.71-.17 1.43-.31 2.12-.13 1-.29 1.91-.44 2.85-.11.69-.23 1.35-.36 2q-19.44 6.26-38.94 12c-24.18 7.08-48.38 13.47-72.6 19Q1311 2575 1285 2579.43q-6.95 1.2-13.89 2.24c-.83.14-1.67.27-2.5.38-.18-.58-.38-1.16-.6-1.76a539.04 539.04 0 0 1-3.29-10 437.53 437.53 0 0 1-19.35-100.16c-.47-6.86-.8-13.85-.91-21a355.7 355.7 0 0 1 4.87-65.75c.16-1.07.36-2.14.56-3.23a318.25 318.25 0 0 1 27.78-84.65q5.25-10.68 11.49-21.28a1.91 1.91 0 0 1 .16-.27c2.89-4.92 6-9.75 9.24-14.65 2.09-3.19 4.32-6.35 6.61-9.55q9.25-12.89 20.26-25.55a393.45 393.45 0 0 1 49.29-47.2s19.55 41.85 39.1 101.3c17 51.69 34 116.65 38.18 179 .38 5.54.67 11 .8 16.52.32 10.96.2 21.99-.48 32.78Z"></path><path fill="#ffb600" d="M1452.32 2506.6c-.09 1.78-.22 3.56-.35 5.32-.18 2.1-.38 4.21-.61 6.28-.13 1.36-.26 2.72-.42 4.05-.33 3-.71 5.93-1.16 8.84-.08.71-.17 1.43-.31 2.12-.13 1-.29 1.91-.44 2.85-.11.69-.23 1.35-.36 2q-19.44 6.26-38.94 12c-24.18 7.08-48.38 13.47-72.6 19Q1311 2575 1285 2579.43q-6.95 1.2-13.89 2.24c-.83.14-1.67.27-2.5.38-.18-.58-.38-1.16-.6-1.76a539.04 539.04 0 0 1-3.29-10 437.53 437.53 0 0 1-19.35-100.16c-.47-6.86-.8-13.85-.91-21a355.7 355.7 0 0 1 4.87-65.75c.16-1.07.36-2.14.56-3.23a318.25 318.25 0 0 1 27.78-84.65q5.25-10.68 11.49-21.28a1.91 1.91 0 0 1 .16-.27c2.89-4.92 6-9.75 9.24-14.65 2.09-3.19 4.32-6.35 6.61-9.55q9.25-12.89 20.26-25.55a393.45 393.45 0 0 1 49.29-47.2s19.55 41.85 39.1 101.3c17 51.69 34 116.65 38.18 179 .38 5.54.67 11 .8 16.52.32 10.96.2 21.99-.48 32.78Z" opacity=".67"></path><path fill="#ffb600" d="M1450.94 2522.25c-.33 3-.71 5.93-1.16 8.84-.08.71-.17 1.43-.31 2.12-.13 1-.29 1.91-.44 2.85-.11.69-.23 1.35-.36 2q-19.44 6.26-38.94 12c-24.18 7.08-48.38 13.47-72.6 19Q1311 2575 1285 2579.43q-6.95 1.2-13.89 2.24c-.83.14-1.67.27-2.5.38-.18-.58-.38-1.16-.6-1.76a539.04 539.04 0 0 1-3.29-10 437.53 437.53 0 0 1-19.35-100.16c-.47-6.86-.8-13.85-.91-21a355.7 355.7 0 0 1 4.87-65.75c.16-1.07.36-2.14.56-3.23a318.25 318.25 0 0 1 27.78-84.65q5.25-10.68 11.49-21.28a1.91 1.91 0 0 1 .16-.27c1.62 1.51 3.22 3 4.81 4.59.37.33.75.66 1.11 1q3.38 3.24 6.66 6.62c2.47 2.49 4.92 5 7.32 7.68 1 1 2 2 2.92 3.11a546.43 546.43 0 0 1 38.82 47.67q4.24 5.8 8.33 11.73c.73 1 1.4 2 2.11 3 1.81 2.62 3.54 5.23 5.33 7.86 2.51 3.74 5 7.5 7.48 11.33 1.76 2.76 3.54 5.5 5.25 8.28a1049.9 1049.9 0 0 1 56.31 102.82q2.7 5.57 5.29 11.08c3.36 7.22 6.68 14.43 9.88 21.53Z" opacity=".67"></path><path fill="#fff" d="M1409.73 2550c-24.18 7.08-48.38 13.47-72.6 19q-26.13 6-52.13 10.43-6.95 1.2-13.89 2.24c-.83.14-1.67.27-2.5.38q-30.12 4.54-60.15 6.64-7-5.31-14.32-11.07a265.72 265.72 0 0 1-33.79-32q-4.21-4.77-8.17-9.7c-116.57-145-49.05-373.67-49.05-373.67 1.27.24 2.58.49 3.87.76.83.18 1.7.38 2.52.58 1.27.29 2.54.57 3.81.91 2.53.64 5 1.31 7.54 2.07s5.1 1.58 7.62 2.45c1.11.4 2.2.78 3.29 1.2a11.7 11.7 0 0 1 1.2.45c.92.33 1.85.69 2.77 1.06.46.18.93.36 1.4.56.24.09.49.18.73.29.51.2 1 .42 1.52.65.93.37 1.87.78 2.8 1.18s1.87.82 2.81 1.24l2.78 1.29c.93.43 1.85.87 2.76 1.34 1.14.56 2.23 1.11 3.36 1.69 2.05 1.05 4.08 2.12 6.08 3.25l.33.18c1.29.73 2.61 1.45 3.9 2.2s2.6 1.52 3.9 2.3c2.65 1.6 5.27 3.25 7.88 5 3.92 2.58 7.79 5.3 11.65 8.12q9.67 7.15 19 15.23c2.49 2.16 5 4.34 7.39 6.59 1.24 1.14 2.47 2.27 3.69 3.43 2.43 2.29 4.83 4.61 7.24 7 1.2 1.2 2.38 2.41 3.58 3.61 3.48 3.52 6.88 7.12 10.27 10.8q10.14 11.05 19.88 23 4.85 6 9.55 12.11c3.16 4.12 6.3 8.28 9.37 12.51q4.25 5.82 8.33 11.74l2.11 3c1.81 2.63 3.54 5.21 5.33 7.86 2.51 3.77 5 7.53 7.48 11.36 10.11 15.67 19.75 31.81 28.87 48.09q5.88 10.48 11.47 21 3.7 7 7.32 14c2.41 4.67 4.77 9.35 7.08 14s4.59 9.33 6.82 14c11.84 24.56 22.48 48.6 31.85 71.11 1.1 2.65 2.19 5.28 3.25 7.88q1.21 2.94 2.39 5.83 3.49 8.65 6.74 16.95c1.07 2.75 2.07 5.36 3.07 7.88Z"></path><path fill="#fe7101" d="M1285 2579.43q-6.95 1.2-13.89 2.24l-1.59-.71c-.49-.22-1-.42-1.51-.67a545.27 545.27 0 0 0-107.66-34.64c-11.78-2.45-24.07-4.58-36.74-6.16a413.65 413.65 0 0 0-58.73-3.26c-3 .07-6 .14-9.08.27a349.13 349.13 0 0 0-60.18 7.69 327.807 327.807 0 0 0-30.5 8.25q-9.15 2.94-18.3 6.55a344.99 344.99 0 0 0-13.22 5.57 311.86 311.86 0 0 0-28.6 14.69c-31.26 18.14-61.8 43.19-90 77.18-.6.74-1.22 1.47-1.82 2.23a3.91 3.91 0 0 1-3.32 1.45.93.93 0 0 1-.24-.05 3.71 3.71 0 0 1-2-.84 3.53 3.53 0 0 1-1.18-1.67 3.93 3.93 0 0 1 .62-3.88c.92-1.11 1.81-2.2 2.74-3.29 25.45-30.5 54-55.46 85.29-74.67a313.57 313.57 0 0 1 58.67-28.08c3.71-1.33 7.48-2.58 11.26-3.78a325.3 325.3 0 0 1 34.15-8.75 352.56 352.56 0 0 1 51.9-6.41q4.54-.24 9.15-.38a420.25 420.25 0 0 1 64.63 3.36c9.33 1.16 18.45 2.61 27.32 4.28a548.56 548.56 0 0 1 112.54 34.3c2.44 1.05 4.78 2.07 7 3.05s4 1.81 5.87 2.65c2.72 1.25 5.17 2.41 7.37 3.45-.02 0-.02.03.05.03Z" opacity=".78"></path><path fill="#fe7101" d="m816.05 2648-23.49 8.83a204.17 204.17 0 0 0-132.06 184.64l-.29 9.56 26.89-11a204.18 204.18 0 0 0 125.38-163.59Z" opacity=".42"></path><path fill="#ffb600" d="M1409.73 2550c-24.18 7.08-48.38 13.47-72.6 19q-26.13 6-52.13 10.43-6.95 1.2-13.89 2.24c-.83.14-1.67.27-2.5.38q-30.12 4.54-60.15 6.64-7-5.31-14.32-11.07a265.72 265.72 0 0 1-33.79-32q-4.21-4.77-8.17-9.7c-116.57-145-49.05-373.67-49.05-373.67 1.27.24 2.58.49 3.87.76.83.18 1.7.38 2.52.58 1.27.29 2.54.57 3.81.91 2.53.64 5 1.31 7.54 2.07s5.1 1.58 7.62 2.45c1.11.4 2.2.78 3.29 1.2a11.7 11.7 0 0 1 1.2.45c.92.33 1.85.69 2.77 1.06.46.18.93.36 1.4.56.24.09.49.18.73.29.51.2 1 .42 1.52.65.93.37 1.87.78 2.8 1.18s1.87.82 2.81 1.24l2.78 1.29c.93.43 1.85.87 2.76 1.34 1.14.56 2.23 1.11 3.36 1.69 2.05 1.05 4.08 2.12 6.08 3.25l.33.18c1.29.73 2.61 1.45 3.9 2.2s2.6 1.52 3.9 2.3c2.65 1.6 5.27 3.25 7.88 5 3.92 2.58 7.79 5.3 11.65 8.12q9.67 7.15 19 15.23c2.49 2.16 5 4.34 7.39 6.59 1.24 1.14 2.47 2.27 3.69 3.43 2.43 2.29 4.83 4.61 7.24 7 1.2 1.2 2.38 2.41 3.58 3.61 3.48 3.52 6.88 7.12 10.27 10.8q10.14 11.05 19.88 23 4.85 6 9.55 12.11c3.16 4.12 6.3 8.28 9.37 12.51q4.25 5.82 8.33 11.74l2.11 3c1.81 2.63 3.54 5.21 5.33 7.86 2.51 3.77 5 7.53 7.48 11.36 10.11 15.67 19.75 31.81 28.87 48.09q5.88 10.48 11.47 21 3.7 7 7.32 14c2.41 4.67 4.77 9.35 7.08 14s4.59 9.33 6.82 14c11.84 24.56 22.48 48.6 31.85 71.11 1.1 2.65 2.19 5.28 3.25 7.88q1.21 2.94 2.39 5.83 3.49 8.65 6.74 16.95c1.07 2.75 2.07 5.36 3.07 7.88Z" opacity=".67"></path><path fill="#fff" d="M1409.71 2550.06c-24.18 7.08-48.38 13.47-72.6 19-34.58-26.65-65.06-60.78-91.77-98.94-66.3-94.68-109.65-214.26-135.85-306.47 1.27.29 2.54.57 3.81.91 2.53.64 5 1.31 7.54 2.07s5.1 1.58 7.62 2.45c1.11.4 2.2.78 3.29 1.2a11.7 11.7 0 0 1 1.2.45c.92.33 1.85.69 2.77 1.06.46.18.93.36 1.4.56.24.09.49.18.73.29 1.45.58 2.87 1.18 4.32 1.83.94.4 1.87.82 2.81 1.24l2.78 1.29c.93.43 1.85.87 2.76 1.34 1.14.56 2.23 1.11 3.36 1.69s2.09 1.14 3.16 1.69l2.92 1.56.33.18c1.29.73 2.61 1.45 3.9 2.2s2.6 1.52 3.9 2.3c2.65 1.6 5.27 3.25 7.88 5 3.92 2.58 7.79 5.3 11.65 8.12q9.67 7.15 19 15.23c2.49 2.16 5 4.34 7.39 6.59 1.24 1.14 2.47 2.27 3.69 3.43 2.43 2.27 4.83 4.61 7.24 7 1.2 1.2 2.38 2.41 3.58 3.61 3.48 3.52 6.88 7.12 10.27 10.8q10.14 11.05 19.88 23 4.85 6 9.55 12.11c3.16 4.12 6.3 8.28 9.37 12.51q4.22 5.82 8.33 11.74l2.11 3c1.79 2.63 3.54 5.21 5.3 7.86 2.51 3.77 5 7.53 7.48 11.36 10.11 15.67 19.75 31.81 28.87 48.09q5.88 10.48 11.47 21 3.7 7 7.32 14c2.41 4.67 4.77 9.35 7.08 14s4.59 9.33 6.82 14c11.84 24.56 22.48 48.6 31.85 71.11 1.1 2.65 2.19 5.28 3.25 7.88q1.21 2.94 2.39 5.83c2.33 5.77 4.56 11.42 6.74 16.95 1.11 2.72 2.11 5.32 3.11 7.88Z"></path><path fill="#ffb600" d="M1409.71 2550.06c-24.18 7.08-48.38 13.47-72.6 19-34.58-26.65-65.06-60.78-91.77-98.94-66.3-94.68-109.65-214.26-135.85-306.47 1.27.29 2.54.57 3.81.91 2.53.64 5 1.31 7.54 2.07s5.1 1.58 7.62 2.45c1.11.4 2.2.78 3.29 1.2a11.7 11.7 0 0 1 1.2.45c.92.33 1.85.69 2.77 1.06.46.18.93.36 1.4.56.24.09.49.18.73.29 1.45.58 2.87 1.18 4.32 1.83.94.4 1.87.82 2.81 1.24l2.78 1.29c.93.43 1.85.87 2.76 1.34 1.14.56 2.23 1.11 3.36 1.69s2.09 1.14 3.16 1.69l2.92 1.56.33.18c1.29.73 2.61 1.45 3.9 2.2s2.6 1.52 3.9 2.3c2.65 1.6 5.27 3.25 7.88 5 3.92 2.58 7.79 5.3 11.65 8.12q9.67 7.15 19 15.23c2.49 2.16 5 4.34 7.39 6.59 1.24 1.14 2.47 2.27 3.69 3.43 2.43 2.27 4.83 4.61 7.24 7 1.2 1.2 2.38 2.41 3.58 3.61 3.48 3.52 6.88 7.12 10.27 10.8q10.14 11.05 19.88 23 4.85 6 9.55 12.11c3.16 4.12 6.3 8.28 9.37 12.51q4.22 5.82 8.33 11.74l2.11 3c1.79 2.63 3.54 5.21 5.3 7.86 2.51 3.77 5 7.53 7.48 11.36 10.11 15.67 19.75 31.81 28.87 48.09q5.88 10.48 11.47 21 3.7 7 7.32 14c2.41 4.67 4.77 9.35 7.08 14s4.59 9.33 6.82 14c11.84 24.56 22.48 48.6 31.85 71.11 1.1 2.65 2.19 5.28 3.25 7.88q1.21 2.94 2.39 5.83c2.33 5.77 4.56 11.42 6.74 16.95 1.11 2.72 2.11 5.32 3.11 7.88Z" opacity=".29"></path><path fill="#fff" d="M1089.41 2585.39c-3.07-.4-6.12-.82-9.19-1.29a454.33 454.33 0 0 0-24.47-47.58c-1.54-2.62-3.1-5.23-4.72-7.81a504.56 504.56 0 0 0-37-52.28 605.16 605.16 0 0 0-77.95-79.74c-1.54-1.33-3-2.58-4.56-3.85-50.56-42.64-104.5-75.83-152.19-100.65q-10.82-5.61-21.44-10.85c-9.24-4.51-18.37-8.83-27.31-12.91-11.24-5.16-22.24-10-32.9-14.36-17.28-7.21-33.69-13.53-48.83-19-57-20.77-96.11-29.79-96.73-29.92a4 4 0 0 1-3-4.75 3.94 3.94 0 0 1 4.74-3c.62.13 37.18 8.57 91.21 27.85 16.16 5.77 33.88 12.51 52.7 20.28 9.19 3.81 18.61 7.84 28.27 12.16 2.78 1.22 5.57 2.51 8.37 3.78q8 3.65 16.12 7.55c2.63 1.23 5.28 2.49 7.93 3.79q12 5.84 24.37 12.26s.07.07.12.07q18.36 9.51 35.77 19.59a.12.12 0 0 1 .09 0q7.32 4.2 14.45 8.5c49.67 29.74 93.64 62.54 131.24 97.89q10.32 9.72 20 19.64 16.47 17 31 34.6 7.33 8.8 14.13 17.81a508.63 508.63 0 0 1 30.61 45.15c1.58 2.65 3.16 5.28 4.65 7.92a465.61 465.61 0 0 1 24.52 49.15ZM3930.74 2640.48a4.84 4.84 0 0 1-4-2.07 264.47 264.47 0 0 0-28.27-34c-78.33-79.5-194.81-92.79-278.78-89.91-91.36 3.11-164.89 25.44-165.62 25.67a4.84 4.84 0 1 1-2.85-9.26c.74-.23 75.5-22.94 168.14-26.1 85.86-2.89 205.22 10.8 286 92.8a274.26 274.26 0 0 1 29.32 35.29 4.84 4.84 0 0 1-4 7.62Z"></path><path fill="#fff" d="M3717.31 2733.61s18.43-172.39-164.5-222.27c0 0-40.42 154.99 164.5 222.27ZM3948.38 2403.14s-162.22-61.2-256.5 103.31c0 0 139.84 78.09 256.5-103.31ZM3866.47 2599.75c4.23-13 178 47.14 123 223.06.04 0-177.85-53.81-123-223.06Z"></path><g opacity=".78"><path fill="#fe7101" d="M3930.74 2640.48a4.84 4.84 0 0 1-4-2.07 264.47 264.47 0 0 0-28.27-34c-78.33-79.5-194.81-92.79-278.78-89.91-91.36 3.11-164.89 25.44-165.62 25.67a4.84 4.84 0 1 1-2.85-9.26c.74-.23 75.5-22.94 168.14-26.1 85.86-2.89 205.22 10.8 286 92.8a274.26 274.26 0 0 1 29.32 35.29 4.84 4.84 0 0 1-4 7.62Z"></path><path fill="#fe7101" d="M3717.31 2733.61s18.43-172.39-164.5-222.27c0 0-40.42 154.99 164.5 222.27Z" opacity=".61"></path><path fill="#fe7101" d="M3948.38 2403.14s-162.22-61.2-256.5 103.31c0 0 139.84 78.09 256.5-103.31Z"></path><path fill="#fe7101" d="M3866.47 2567.68c4.23-13 178 47.14 123 223.05.04 0-177.85-53.79-123-223.05Z" opacity=".42"></path></g><path fill="#fff" d="M3548.36 2489.7c-1.07 5.57-2.23 11.14-3.48 16.66a205 205 0 0 1-1.2 5.21c-.8 3.4-1.65 6.79-2.51 10.15-2.76 10.55-5.9 20.82-9.47 30.61a767.81 767.81 0 0 1-127.61 10.89h-1.85c-4.61 0-9.24 0-13.84-.11H3386.7c-3.6-.06-7.19-.13-10.79-.24-3.86-.11-7.68-.25-11.51-.4-.34 0-.67 0-1-.05-2.6-.11-5.18-.22-7.77-.35s-5.16-.27-7.74-.43-5.17-.31-7.75-.46c-4.5-.29-9-.63-13.45-1-1.85-.14-3.67-.29-5.5-.45-1.42-.11-2.85-.24-4.27-.38-2.58-.22-5.17-.46-7.73-.71-2.27-.22-4.58-.44-6.85-.69h-.11q-26.05-4.2-52-9.46c.45-1 .94-1.94 1.41-2.92 34.75-69.64 125.85-195.38 310-220.85 0 0 0 2 .06 5.79.17 20.29-.27 90.91-13.34 159.19Z"></path><path fill="#fff" d="M3548.36 2489.7c-1.07 5.57-2.23 11.14-3.48 16.66a205 205 0 0 1-1.2 5.21c-.8 3.4-1.65 6.79-2.51 10.15-2.76 10.55-5.9 20.82-9.47 30.61a767.81 767.81 0 0 1-127.61 10.89h-1.85c-4.61 0-9.24 0-13.84-.11h-1.32c59.22-94.19 126.68-177.5 174.61-232.58.18 20.27-.26 90.89-13.33 159.17Z" opacity=".56"></path><path fill="#ffb600" d="M3548.36 2489.7c-1.07 5.57-2.23 11.14-3.48 16.66a205 205 0 0 1-1.2 5.21c-.8 3.4-1.65 6.79-2.51 10.15-2.76 10.55-5.9 20.82-9.47 30.61a767.81 767.81 0 0 1-127.61 10.89h-1.85c-4.61 0-9.24 0-13.84-.11H3386.7c-3.6-.06-7.19-.13-10.79-.24-3.86-.11-7.68-.25-11.51-.4-.34 0-.67 0-1-.05-2.6-.11-5.18-.22-7.77-.35s-5.16-.27-7.74-.43-5.17-.31-7.75-.46c-4.5-.29-9-.63-13.45-1-1.85-.14-3.67-.29-5.5-.45-1.42-.11-2.85-.24-4.27-.38-2.58-.22-5.17-.46-7.73-.71-2.27-.22-4.58-.44-6.85-.69h-.11q-26.05-4.2-52-9.46c.45-1 .94-1.94 1.41-2.92 34.75-69.64 125.85-195.38 310-220.85 0 0 0 2 .06 5.79.17 20.29-.27 90.91-13.34 159.19Z" opacity=".67"></path><path fill="#fe7101" d="M3548.36 2489.7c-1.07 5.57-2.23 11.14-3.48 16.66a205 205 0 0 1-1.2 5.21c-.8 3.4-1.65 6.79-2.51 10.15-2.76 10.55-5.9 20.82-9.47 30.61a767.81 767.81 0 0 1-127.61 10.89h-1.85c-4.61 0-9.24 0-13.84-.11h-1.32c59.22-94.19 126.68-177.5 174.61-232.58.18 20.27-.26 90.89-13.33 159.17Z" opacity=".5"></path><path fill="#fff" d="m651 1993.54-1.38 36a290.54 290.54 0 0 0 171.4 276.17l12.51 5.62.44-41.7a290.55 290.55 0 0 0-147.2-255.83ZM937.61 2395.4l-30.33-13a268.6 268.6 0 0 0-293.53 54.93l-9 8.8 35.5 14.11a268.64 268.64 0 0 0 268-41Z"></path><path fill="#fff" d="m651 1993.54-1.38 36a290.54 290.54 0 0 0 171.4 276.17l12.51 5.62.44-41.7a290.55 290.55 0 0 0-147.2-255.83Z" opacity=".54"></path><path fill="#fff" d="m937.61 2395.4-30.33-13a268.6 268.6 0 0 0-293.53 54.93l-9 8.8 35.5 14.11a268.64 268.64 0 0 0 268-41ZM376.74 2190.51l25.95 25a290.54 290.54 0 0 0 320.14 56.22l12.52-5.59-30.8-28.11a290.54 290.54 0 0 0-288.84-60.7Z"></path><path fill="#fff" d="m376.74 2190.51 25.95 25a290.54 290.54 0 0 0 320.14 56.22l12.52-5.59-30.8-28.11a290.54 290.54 0 0 0-288.84-60.7ZM651 1993.54l-1.38 36a290.54 290.54 0 0 0 171.4 276.17l12.51 5.62.44-41.7a290.55 290.55 0 0 0-147.2-255.83ZM1041.39 2446l-12.21 38.39-9.36-9.65c-44.29-45.6-72.9-103.69-83.64-164.62a.67.67 0 0 1 0-.2c-8.88-50.51-5.44-103 11.54-151.86l11.4-32.83 25.63 31.55a311.79 311.79 0 0 1 27.86 40.47c43.54 75.22 54.81 166.75 28.78 248.75ZM937.63 2395.41l-29.33 23.76a268.39 268.39 0 0 1-268 41l-35.51-14.09 9-8.81A268.67 268.67 0 0 1 811 2360.82a.05.05 0 0 1 .08 0 266.78 266.78 0 0 1 96.24 21.54Z"></path><path fill="#fe7101" d="M1089.41 2585.39c-3.07-.4-6.12-.82-9.19-1.29a454.33 454.33 0 0 0-24.47-47.58c-1.54-2.62-3.1-5.23-4.72-7.81a504.56 504.56 0 0 0-37-52.28 605.16 605.16 0 0 0-77.95-79.74c-1.54-1.33-3-2.58-4.56-3.85-50.56-42.64-104.5-75.83-152.19-100.65q-10.82-5.61-21.44-10.85c-9.24-4.51-18.37-8.83-27.31-12.91-11.24-5.16-22.24-10-32.9-14.36-17.28-7.21-33.69-13.53-48.83-19-57-20.77-96.11-29.79-96.73-29.92a4 4 0 0 1-3-4.75 3.94 3.94 0 0 1 4.74-3c.62.13 37.18 8.57 91.21 27.85 16.16 5.77 33.88 12.51 52.7 20.28 9.19 3.81 18.61 7.84 28.27 12.16 2.78 1.22 5.57 2.51 8.37 3.78q8 3.65 16.12 7.55c2.63 1.23 5.28 2.49 7.93 3.79q12 5.84 24.37 12.26s.07.07.12.07q18.36 9.51 35.77 19.59a.12.12 0 0 1 .09 0q7.32 4.2 14.45 8.5c49.67 29.74 93.64 62.54 131.24 97.89q10.32 9.72 20 19.64 16.47 17 31 34.6 7.33 8.8 14.13 17.81a508.63 508.63 0 0 1 30.61 45.15c1.58 2.65 3.16 5.28 4.65 7.92a465.61 465.61 0 0 1 24.52 49.15Z" opacity=".78"></path><path fill="#fe7101" d="m650.58 2001.2-1.38 36a290.56 290.56 0 0 0 171.39 276.2l12.51 5.6.45-41.69a290.56 290.56 0 0 0-147.2-255.83Z" opacity=".42"></path><path fill="#fe7101" d="m1041.39 2446-12.21 38.39-9.36-9.65c-44.29-45.6-72.9-103.69-83.64-164.62a.67.67 0 0 1 0-.2 322.49 322.49 0 0 1 15.46-140.73l12.2-35.19 27.43 33.78a332 332 0 0 1 21.33 29.44c43.55 75.25 54.82 166.78 28.79 248.78Z" opacity=".17"></path><path fill="#fe7101" d="M924.29 2394.61 895 2418.36a268.89 268.89 0 0 1-178.67 59.77 266.41 266.41 0 0 1-76-17.93l-35.51-14.09 9-8.81A268.67 268.67 0 0 1 811 2360.82a.05.05 0 0 1 .08 0 266.71 266.71 0 0 1 82.9 20.73Z" opacity=".43"></path><path fill="#fff" d="m376.74 2190.51 25.95 25a290.54 290.54 0 0 0 320.14 56.22l12.52-5.59-30.8-28.11a290.54 290.54 0 0 0-288.84-60.7Z"></path><path fill="#fe7101" d="m376.74 2190.51 25.95 25a290.54 290.54 0 0 0 320.14 56.22l12.52-5.59-30.8-28.11a290.54 290.54 0 0 0-288.84-60.7Z" opacity=".78"></path></g></svg>