<svg xmlns:xlink="http://www.w3.org/1999/xlink" xmlns="http://www.w3.org/2000/svg" class="characteristic__item-icon" width="70"  height="70" ><defs><symbol id="finishing" xmlns="http://www.w3.org/2000/svg" viewBox="0 0 70 70" fill="none">
        <circle cx="35" cy="35" r="34.5" stroke="#DDDDDD"></circle>
        <path d="M42 31H22C21.2044 31 20.4413 30.6839 19.8787 30.1213C19.3161 29.5587 19 28.7956 19 28V22C19 21.2044 19.3161 20.4413 19.8787 19.8787C20.4413 19.3161 21.2044 19 22 19H42C42.7956 19 43.5587 19.3161 44.1213 19.8787C44.6839 20.4413 45 21.2044 45 22V28C45 28.7956 44.6839 29.5587 44.1213 30.1213C43.5587 30.6839 42.7956 31 42 31ZM22 21C21.7348 21 21.4804 21.1054 21.2929 21.2929C21.1054 21.4804 21 21.7348 21 22V28C21 28.2652 21.1054 28.5196 21.2929 28.7071C21.4804 28.8946 21.7348 29 22 29H42C42.2652 29 42.5196 28.8946 42.7071 28.7071C42.8946 28.5196 43 28.2652 43 28V22C43 21.7348 42.8946 21.4804 42.7071 21.2929C42.5196 21.1054 42.2652 21 42 21H22Z" fill="#AAAAAA"></path>
        <path d="M32 41.0002C31.7347 41.0002 31.4804 40.8949 31.2928 40.7074C31.1053 40.5198 31 40.2655 31 40.0002V38.0002C30.9845 37.4708 31.0773 36.9437 31.2729 36.4514C31.4684 35.9591 31.7625 35.5119 32.1371 35.1374C32.5116 34.7628 32.9588 34.4687 33.4511 34.2732C33.9434 34.0776 34.4705 33.9848 35 34.0002H44C47.954 34.0002 48 30.1632 48 30.0002C48 26.0452 44.163 26.0002 44 26.0002C43.7347 26.0002 43.4804 25.8949 43.2928 25.7074C43.1053 25.5198 43 25.2655 43 25.0002C43 24.735 43.1053 24.4807 43.2928 24.2931C43.4804 24.1056 43.7347 24.0002 44 24.0002C44.796 23.9701 45.5897 24.1046 46.3313 24.3955C47.0729 24.6863 47.7464 25.1272 48.3097 25.6905C48.873 26.2538 49.3139 26.9273 49.6047 27.6689C49.8956 28.4105 50.0301 29.2042 50 30.0002C50.0301 30.7963 49.8956 31.59 49.6047 32.3316C49.3139 33.0732 48.873 33.7467 48.3097 34.31C47.7464 34.8733 47.0729 35.3142 46.3313 35.605C45.5897 35.8959 44.796 36.0304 44 36.0002H35C34.7328 35.9829 34.465 36.0227 34.2145 36.1171C33.964 36.2115 33.7365 36.3582 33.5472 36.5475C33.3579 36.7368 33.2112 36.9643 33.1168 37.2148C33.0224 37.4653 32.9826 37.7331 33 38.0002V40.0002C33 40.2655 32.8946 40.5198 32.7071 40.7074C32.5195 40.8949 32.2652 41.0002 32 41.0002Z" fill="#AAAAAA"></path>
        <path d="M33 51H31C30.4696 51 29.9609 50.7893 29.5858 50.4142C29.2107 50.0391 29 49.5304 29 49V41C29 40.4696 29.2107 39.9609 29.5858 39.5858C29.9609 39.2107 30.4696 39 31 39H33C33.5304 39 34.0391 39.2107 34.4142 39.5858C34.7893 39.9609 35 40.4696 35 41V49C35 49.5304 34.7893 50.0391 34.4142 50.4142C34.0391 50.7893 33.5304 51 33 51ZM31 41V49H33V41H31Z" fill="#AAAAAA"></path>
    </symbol></defs>
										<use xlink:href="#finishing" fill="#FFFFFF"></use>
									</svg>