<svg xmlns:xlink="http://www.w3.org/1999/xlink" xmlns="http://www.w3.org/2000/svg" class="characteristic__item-icon" width="70"  height="70" ><defs><symbol id="transaction" xmlns="http://www.w3.org/2000/svg" viewBox="0 0 70 70" fill="none">
        <circle cx="35" cy="35" r="34.5" stroke="#DDDDDD"></circle>
        <path d="M42 47H24C23.4696 47 22.9609 46.7893 22.5858 46.4142C22.2107 46.0391 22 45.5304 22 45V21C22 20.4696 22.2107 19.9609 22.5858 19.5858C22.9609 19.2107 23.4696 19 24 19H42C42.5304 19 43.0391 19.2107 43.4142 19.5858C43.7893 19.9609 44 20.4696 44 21V45C44 45.5304 43.7893 46.0391 43.4142 46.4142C43.0391 46.7893 42.5304 47 42 47ZM24 21V45H42V21H24Z" fill="#AAAAAA"></path>
        <path d="M46 51H28C27.4696 51 26.9609 50.7893 26.5858 50.4142C26.2107 50.0391 26 49.5304 26 49V46C26 45.7348 26.1054 45.4804 26.2929 45.2929C26.4804 45.1054 26.7348 45 27 45C27.2652 45 27.5196 45.1054 27.7071 45.2929C27.8946 45.4804 28 45.7348 28 46V49H46V25H43C42.7348 25 42.4804 24.8946 42.2929 24.7071C42.1054 24.5196 42 24.2652 42 24C42 23.7348 42.1054 23.4804 42.2929 23.2929C42.4804 23.1054 42.7348 23 43 23H46C46.5304 23 47.0391 23.2107 47.4142 23.5858C47.7893 23.9609 48 24.4696 48 25V49C48 49.5304 47.7893 50.0391 47.4142 50.4142C47.0391 50.7893 46.5304 51 46 51Z" fill="#AAAAAA"></path>
        <path d="M39.0001 30.9998C38.7349 30.9997 38.4806 30.8943 38.2931 30.7068L33.0001 25.4138L27.7071 30.7068C27.6148 30.8023 27.5045 30.8785 27.3825 30.9309C27.2605 30.9833 27.1293 31.0109 26.9965 31.012C26.8637 31.0132 26.732 30.9879 26.6091 30.9376C26.4862 30.8873 26.3746 30.8131 26.2807 30.7192C26.1868 30.6253 26.1125 30.5136 26.0623 30.3907C26.012 30.2678 25.9867 30.1362 25.9878 30.0034C25.989 29.8706 26.0166 29.7394 26.069 29.6174C26.1214 29.4954 26.1976 29.385 26.2931 29.2928L32.2931 23.2928C32.4806 23.1053 32.7349 23 33.0001 23C33.2652 23 33.5196 23.1053 33.7071 23.2928L39.7071 29.2928C39.8469 29.4326 39.9421 29.6108 39.9807 29.8048C40.0192 29.9987 39.9994 30.1997 39.9238 30.3824C39.8481 30.5651 39.7199 30.7213 39.5555 30.8312C39.3911 30.9411 39.1978 30.9997 39.0001 30.9998Z" fill="#AAAAAA"></path>
        <path d="M37 35H29C28.7348 35 28.4804 34.8946 28.2929 34.7071C28.1054 34.5196 28 34.2652 28 34V28C28 27.7348 28.1054 27.4804 28.2929 27.2929C28.4804 27.1054 28.7348 27 29 27C29.2652 27 29.5196 27.1054 29.7071 27.2929C29.8946 27.4804 30 27.7348 30 28V33H36V28C36 27.7348 36.1054 27.4804 36.2929 27.2929C36.4804 27.1054 36.7348 27 37 27C37.2652 27 37.5196 27.1054 37.7071 27.2929C37.8946 27.4804 38 27.7348 38 28V34C38 34.2652 37.8946 34.5196 37.7071 34.7071C37.5196 34.8946 37.2652 35 37 35Z" fill="#AAAAAA"></path>
        <path d="M38 39H28C27.7348 39 27.4804 38.8946 27.2929 38.7071C27.1054 38.5196 27 38.2652 27 38C27 37.7348 27.1054 37.4804 27.2929 37.2929C27.4804 37.1054 27.7348 37 28 37H38C38.2652 37 38.5196 37.1054 38.7071 37.2929C38.8946 37.4804 39 37.7348 39 38C39 38.2652 38.8946 38.5196 38.7071 38.7071C38.5196 38.8946 38.2652 39 38 39Z" fill="#AAAAAA"></path>
        <path d="M28 43C28.5523 43 29 42.5523 29 42C29 41.4477 28.5523 41 28 41C27.4477 41 27 41.4477 27 42C27 42.5523 27.4477 43 28 43Z" fill="#AAAAAA"></path>
        <path d="M32 43C32.5523 43 33 42.5523 33 42C33 41.4477 32.5523 41 32 41C31.4477 41 31 41.4477 31 42C31 42.5523 31.4477 43 32 43Z" fill="#AAAAAA"></path>
        <path d="M38 43H36C35.7348 43 35.4804 42.8946 35.2929 42.7071C35.1054 42.5196 35 42.2652 35 42C35 41.7348 35.1054 41.4804 35.2929 41.2929C35.4804 41.1054 35.7348 41 36 41H38C38.2652 41 38.5196 41.1054 38.7071 41.2929C38.8946 41.4804 39 41.7348 39 42C39 42.2652 38.8946 42.5196 38.7071 42.7071C38.5196 42.8946 38.2652 43 38 43Z" fill="#AAAAAA"></path>
    </symbol></defs>
										<use xlink:href="#transaction" fill="#FFFFFF"></use>
									</svg>